G04 #@! TF.GenerationSoftware,KiCad,Pcbnew,7.0.9*
G04 #@! TF.CreationDate,2023-12-24T17:35:42+01:00*
G04 #@! TF.ProjectId,Fusebit Doctor TQFP32 adapter,46757365-6269-4742-9044-6f63746f7220,V1.0*
G04 #@! TF.SameCoordinates,Original*
G04 #@! TF.FileFunction,Legend,Bot*
G04 #@! TF.FilePolarity,Positive*
%FSLAX46Y46*%
G04 Gerber Fmt 4.6, Leading zero omitted, Abs format (unit mm)*
G04 Created by KiCad (PCBNEW 7.0.9) date 2023-12-24 17:35:42*
%MOMM*%
%LPD*%
G01*
G04 APERTURE LIST*
%ADD10C,0.300000*%
%ADD11R,1.700000X1.700000*%
%ADD12O,1.700000X1.700000*%
G04 APERTURE END LIST*
D10*
X22809526Y-3922019D02*
X22142859Y-3922019D01*
X21857145Y-4969638D02*
X22809526Y-4969638D01*
X22809526Y-4969638D02*
X22809526Y-2969638D01*
X22809526Y-2969638D02*
X21857145Y-2969638D01*
X20142859Y-4969638D02*
X20142859Y-3922019D01*
X20142859Y-3922019D02*
X20238097Y-3731542D01*
X20238097Y-3731542D02*
X20428573Y-3636304D01*
X20428573Y-3636304D02*
X20809526Y-3636304D01*
X20809526Y-3636304D02*
X21000002Y-3731542D01*
X20142859Y-4874400D02*
X20333335Y-4969638D01*
X20333335Y-4969638D02*
X20809526Y-4969638D01*
X20809526Y-4969638D02*
X21000002Y-4874400D01*
X21000002Y-4874400D02*
X21095240Y-4683923D01*
X21095240Y-4683923D02*
X21095240Y-4493447D01*
X21095240Y-4493447D02*
X21000002Y-4302971D01*
X21000002Y-4302971D02*
X20809526Y-4207733D01*
X20809526Y-4207733D02*
X20333335Y-4207733D01*
X20333335Y-4207733D02*
X20142859Y-4112495D01*
X18333335Y-4874400D02*
X18523811Y-4969638D01*
X18523811Y-4969638D02*
X18904764Y-4969638D01*
X18904764Y-4969638D02*
X19095240Y-4874400D01*
X19095240Y-4874400D02*
X19190478Y-4779161D01*
X19190478Y-4779161D02*
X19285716Y-4588685D01*
X19285716Y-4588685D02*
X19285716Y-4017257D01*
X19285716Y-4017257D02*
X19190478Y-3826780D01*
X19190478Y-3826780D02*
X19095240Y-3731542D01*
X19095240Y-3731542D02*
X18904764Y-3636304D01*
X18904764Y-3636304D02*
X18523811Y-3636304D01*
X18523811Y-3636304D02*
X18333335Y-3731542D01*
X17476192Y-4969638D02*
X17476192Y-2969638D01*
X16619049Y-4969638D02*
X16619049Y-3922019D01*
X16619049Y-3922019D02*
X16714287Y-3731542D01*
X16714287Y-3731542D02*
X16904763Y-3636304D01*
X16904763Y-3636304D02*
X17190478Y-3636304D01*
X17190478Y-3636304D02*
X17380954Y-3731542D01*
X17380954Y-3731542D02*
X17476192Y-3826780D01*
X13380953Y-4874400D02*
X13571429Y-4969638D01*
X13571429Y-4969638D02*
X13952382Y-4969638D01*
X13952382Y-4969638D02*
X14142858Y-4874400D01*
X14142858Y-4874400D02*
X14238096Y-4683923D01*
X14238096Y-4683923D02*
X14238096Y-3922019D01*
X14238096Y-3922019D02*
X14142858Y-3731542D01*
X14142858Y-3731542D02*
X13952382Y-3636304D01*
X13952382Y-3636304D02*
X13571429Y-3636304D01*
X13571429Y-3636304D02*
X13380953Y-3731542D01*
X13380953Y-3731542D02*
X13285715Y-3922019D01*
X13285715Y-3922019D02*
X13285715Y-4112495D01*
X13285715Y-4112495D02*
X14238096Y-4302971D01*
X12428572Y-4969638D02*
X12428572Y-3636304D01*
X12428572Y-3826780D02*
X12333334Y-3731542D01*
X12333334Y-3731542D02*
X12142858Y-3636304D01*
X12142858Y-3636304D02*
X11857143Y-3636304D01*
X11857143Y-3636304D02*
X11666667Y-3731542D01*
X11666667Y-3731542D02*
X11571429Y-3922019D01*
X11571429Y-3922019D02*
X11571429Y-4969638D01*
X11571429Y-3922019D02*
X11476191Y-3731542D01*
X11476191Y-3731542D02*
X11285715Y-3636304D01*
X11285715Y-3636304D02*
X11000001Y-3636304D01*
X11000001Y-3636304D02*
X10809524Y-3731542D01*
X10809524Y-3731542D02*
X10714286Y-3922019D01*
X10714286Y-3922019D02*
X10714286Y-4969638D01*
X9761905Y-3636304D02*
X9761905Y-5636304D01*
X9761905Y-3731542D02*
X9571429Y-3636304D01*
X9571429Y-3636304D02*
X9190476Y-3636304D01*
X9190476Y-3636304D02*
X9000000Y-3731542D01*
X9000000Y-3731542D02*
X8904762Y-3826780D01*
X8904762Y-3826780D02*
X8809524Y-4017257D01*
X8809524Y-4017257D02*
X8809524Y-4588685D01*
X8809524Y-4588685D02*
X8904762Y-4779161D01*
X8904762Y-4779161D02*
X9000000Y-4874400D01*
X9000000Y-4874400D02*
X9190476Y-4969638D01*
X9190476Y-4969638D02*
X9571429Y-4969638D01*
X9571429Y-4969638D02*
X9761905Y-4874400D01*
X7666667Y-4969638D02*
X7857143Y-4874400D01*
X7857143Y-4874400D02*
X7952381Y-4683923D01*
X7952381Y-4683923D02*
X7952381Y-2969638D01*
X6619048Y-4969638D02*
X6809524Y-4874400D01*
X6809524Y-4874400D02*
X6904762Y-4779161D01*
X6904762Y-4779161D02*
X7000000Y-4588685D01*
X7000000Y-4588685D02*
X7000000Y-4017257D01*
X7000000Y-4017257D02*
X6904762Y-3826780D01*
X6904762Y-3826780D02*
X6809524Y-3731542D01*
X6809524Y-3731542D02*
X6619048Y-3636304D01*
X6619048Y-3636304D02*
X6333333Y-3636304D01*
X6333333Y-3636304D02*
X6142857Y-3731542D01*
X6142857Y-3731542D02*
X6047619Y-3826780D01*
X6047619Y-3826780D02*
X5952381Y-4017257D01*
X5952381Y-4017257D02*
X5952381Y-4588685D01*
X5952381Y-4588685D02*
X6047619Y-4779161D01*
X6047619Y-4779161D02*
X6142857Y-4874400D01*
X6142857Y-4874400D02*
X6333333Y-4969638D01*
X6333333Y-4969638D02*
X6619048Y-4969638D01*
X5285714Y-3636304D02*
X4809524Y-4969638D01*
X4333333Y-3636304D02*
X4809524Y-4969638D01*
X4809524Y-4969638D02*
X5000000Y-5445828D01*
X5000000Y-5445828D02*
X5095238Y-5541066D01*
X5095238Y-5541066D02*
X5285714Y-5636304D01*
X2809523Y-4874400D02*
X2999999Y-4969638D01*
X2999999Y-4969638D02*
X3380952Y-4969638D01*
X3380952Y-4969638D02*
X3571428Y-4874400D01*
X3571428Y-4874400D02*
X3666666Y-4683923D01*
X3666666Y-4683923D02*
X3666666Y-3922019D01*
X3666666Y-3922019D02*
X3571428Y-3731542D01*
X3571428Y-3731542D02*
X3380952Y-3636304D01*
X3380952Y-3636304D02*
X2999999Y-3636304D01*
X2999999Y-3636304D02*
X2809523Y-3731542D01*
X2809523Y-3731542D02*
X2714285Y-3922019D01*
X2714285Y-3922019D02*
X2714285Y-4112495D01*
X2714285Y-4112495D02*
X3666666Y-4302971D01*
X1095237Y-4874400D02*
X1285713Y-4969638D01*
X1285713Y-4969638D02*
X1666666Y-4969638D01*
X1666666Y-4969638D02*
X1857142Y-4874400D01*
X1857142Y-4874400D02*
X1952380Y-4683923D01*
X1952380Y-4683923D02*
X1952380Y-3922019D01*
X1952380Y-3922019D02*
X1857142Y-3731542D01*
X1857142Y-3731542D02*
X1666666Y-3636304D01*
X1666666Y-3636304D02*
X1285713Y-3636304D01*
X1285713Y-3636304D02*
X1095237Y-3731542D01*
X1095237Y-3731542D02*
X999999Y-3922019D01*
X999999Y-3922019D02*
X999999Y-4112495D01*
X999999Y-4112495D02*
X1952380Y-4302971D01*
X-1380953Y-4969638D02*
X-1380953Y-3636304D01*
X-1380953Y-2969638D02*
X-1285715Y-3064876D01*
X-1285715Y-3064876D02*
X-1380953Y-3160114D01*
X-1380953Y-3160114D02*
X-1476191Y-3064876D01*
X-1476191Y-3064876D02*
X-1380953Y-2969638D01*
X-1380953Y-2969638D02*
X-1380953Y-3160114D01*
X-2238096Y-4874400D02*
X-2428572Y-4969638D01*
X-2428572Y-4969638D02*
X-2809524Y-4969638D01*
X-2809524Y-4969638D02*
X-3000001Y-4874400D01*
X-3000001Y-4874400D02*
X-3095239Y-4683923D01*
X-3095239Y-4683923D02*
X-3095239Y-4588685D01*
X-3095239Y-4588685D02*
X-3000001Y-4398209D01*
X-3000001Y-4398209D02*
X-2809524Y-4302971D01*
X-2809524Y-4302971D02*
X-2523810Y-4302971D01*
X-2523810Y-4302971D02*
X-2333334Y-4207733D01*
X-2333334Y-4207733D02*
X-2238096Y-4017257D01*
X-2238096Y-4017257D02*
X-2238096Y-3922019D01*
X-2238096Y-3922019D02*
X-2333334Y-3731542D01*
X-2333334Y-3731542D02*
X-2523810Y-3636304D01*
X-2523810Y-3636304D02*
X-2809524Y-3636304D01*
X-2809524Y-3636304D02*
X-3000001Y-3731542D01*
X-5476192Y-4969638D02*
X-5476192Y-3636304D01*
X-5476192Y-4017257D02*
X-5571430Y-3826780D01*
X-5571430Y-3826780D02*
X-5666668Y-3731542D01*
X-5666668Y-3731542D02*
X-5857144Y-3636304D01*
X-5857144Y-3636304D02*
X-6047621Y-3636304D01*
X-7476192Y-4874400D02*
X-7285716Y-4969638D01*
X-7285716Y-4969638D02*
X-6904763Y-4969638D01*
X-6904763Y-4969638D02*
X-6714287Y-4874400D01*
X-6714287Y-4874400D02*
X-6619049Y-4683923D01*
X-6619049Y-4683923D02*
X-6619049Y-3922019D01*
X-6619049Y-3922019D02*
X-6714287Y-3731542D01*
X-6714287Y-3731542D02*
X-6904763Y-3636304D01*
X-6904763Y-3636304D02*
X-7285716Y-3636304D01*
X-7285716Y-3636304D02*
X-7476192Y-3731542D01*
X-7476192Y-3731542D02*
X-7571430Y-3922019D01*
X-7571430Y-3922019D02*
X-7571430Y-4112495D01*
X-7571430Y-4112495D02*
X-6619049Y-4302971D01*
X-9285716Y-3636304D02*
X-9285716Y-5636304D01*
X-9285716Y-4874400D02*
X-9095240Y-4969638D01*
X-9095240Y-4969638D02*
X-8714287Y-4969638D01*
X-8714287Y-4969638D02*
X-8523811Y-4874400D01*
X-8523811Y-4874400D02*
X-8428573Y-4779161D01*
X-8428573Y-4779161D02*
X-8333335Y-4588685D01*
X-8333335Y-4588685D02*
X-8333335Y-4017257D01*
X-8333335Y-4017257D02*
X-8428573Y-3826780D01*
X-8428573Y-3826780D02*
X-8523811Y-3731542D01*
X-8523811Y-3731542D02*
X-8714287Y-3636304D01*
X-8714287Y-3636304D02*
X-9095240Y-3636304D01*
X-9095240Y-3636304D02*
X-9285716Y-3731542D01*
X-11095240Y-3636304D02*
X-11095240Y-4969638D01*
X-10238097Y-3636304D02*
X-10238097Y-4683923D01*
X-10238097Y-4683923D02*
X-10333335Y-4874400D01*
X-10333335Y-4874400D02*
X-10523811Y-4969638D01*
X-10523811Y-4969638D02*
X-10809526Y-4969638D01*
X-10809526Y-4969638D02*
X-11000002Y-4874400D01*
X-11000002Y-4874400D02*
X-11095240Y-4779161D01*
X-12047621Y-4969638D02*
X-12047621Y-3636304D01*
X-12047621Y-2969638D02*
X-11952383Y-3064876D01*
X-11952383Y-3064876D02*
X-12047621Y-3160114D01*
X-12047621Y-3160114D02*
X-12142859Y-3064876D01*
X-12142859Y-3064876D02*
X-12047621Y-2969638D01*
X-12047621Y-2969638D02*
X-12047621Y-3160114D01*
X-13000002Y-4969638D02*
X-13000002Y-3636304D01*
X-13000002Y-4017257D02*
X-13095240Y-3826780D01*
X-13095240Y-3826780D02*
X-13190478Y-3731542D01*
X-13190478Y-3731542D02*
X-13380954Y-3636304D01*
X-13380954Y-3636304D02*
X-13571431Y-3636304D01*
X-15000002Y-4874400D02*
X-14809526Y-4969638D01*
X-14809526Y-4969638D02*
X-14428573Y-4969638D01*
X-14428573Y-4969638D02*
X-14238097Y-4874400D01*
X-14238097Y-4874400D02*
X-14142859Y-4683923D01*
X-14142859Y-4683923D02*
X-14142859Y-3922019D01*
X-14142859Y-3922019D02*
X-14238097Y-3731542D01*
X-14238097Y-3731542D02*
X-14428573Y-3636304D01*
X-14428573Y-3636304D02*
X-14809526Y-3636304D01*
X-14809526Y-3636304D02*
X-15000002Y-3731542D01*
X-15000002Y-3731542D02*
X-15095240Y-3922019D01*
X-15095240Y-3922019D02*
X-15095240Y-4112495D01*
X-15095240Y-4112495D02*
X-14142859Y-4302971D01*
X-16809526Y-4969638D02*
X-16809526Y-2969638D01*
X-16809526Y-4874400D02*
X-16619050Y-4969638D01*
X-16619050Y-4969638D02*
X-16238097Y-4969638D01*
X-16238097Y-4969638D02*
X-16047621Y-4874400D01*
X-16047621Y-4874400D02*
X-15952383Y-4779161D01*
X-15952383Y-4779161D02*
X-15857145Y-4588685D01*
X-15857145Y-4588685D02*
X-15857145Y-4017257D01*
X-15857145Y-4017257D02*
X-15952383Y-3826780D01*
X-15952383Y-3826780D02*
X-16047621Y-3731542D01*
X-16047621Y-3731542D02*
X-16238097Y-3636304D01*
X-16238097Y-3636304D02*
X-16619050Y-3636304D01*
X-16619050Y-3636304D02*
X-16809526Y-3731542D01*
X-19000003Y-3636304D02*
X-19761907Y-3636304D01*
X-19285717Y-2969638D02*
X-19285717Y-4683923D01*
X-19285717Y-4683923D02*
X-19380955Y-4874400D01*
X-19380955Y-4874400D02*
X-19571431Y-4969638D01*
X-19571431Y-4969638D02*
X-19761907Y-4969638D01*
X-20714288Y-4969638D02*
X-20523812Y-4874400D01*
X-20523812Y-4874400D02*
X-20428574Y-4779161D01*
X-20428574Y-4779161D02*
X-20333336Y-4588685D01*
X-20333336Y-4588685D02*
X-20333336Y-4017257D01*
X-20333336Y-4017257D02*
X-20428574Y-3826780D01*
X-20428574Y-3826780D02*
X-20523812Y-3731542D01*
X-20523812Y-3731542D02*
X-20714288Y-3636304D01*
X-20714288Y-3636304D02*
X-21000003Y-3636304D01*
X-21000003Y-3636304D02*
X-21190479Y-3731542D01*
X-21190479Y-3731542D02*
X-21285717Y-3826780D01*
X-21285717Y-3826780D02*
X-21380955Y-4017257D01*
X-21380955Y-4017257D02*
X-21380955Y-4588685D01*
X-21380955Y-4588685D02*
X-21285717Y-4779161D01*
X-21285717Y-4779161D02*
X-21190479Y-4874400D01*
X-21190479Y-4874400D02*
X-21000003Y-4969638D01*
X-21000003Y-4969638D02*
X-20714288Y-4969638D01*
X24571430Y-6856304D02*
X24190478Y-8189638D01*
X24190478Y-8189638D02*
X23809525Y-7237257D01*
X23809525Y-7237257D02*
X23428573Y-8189638D01*
X23428573Y-8189638D02*
X23047621Y-6856304D01*
X21523811Y-8094400D02*
X21714287Y-8189638D01*
X21714287Y-8189638D02*
X22095240Y-8189638D01*
X22095240Y-8189638D02*
X22285716Y-8094400D01*
X22285716Y-8094400D02*
X22380954Y-7903923D01*
X22380954Y-7903923D02*
X22380954Y-7142019D01*
X22380954Y-7142019D02*
X22285716Y-6951542D01*
X22285716Y-6951542D02*
X22095240Y-6856304D01*
X22095240Y-6856304D02*
X21714287Y-6856304D01*
X21714287Y-6856304D02*
X21523811Y-6951542D01*
X21523811Y-6951542D02*
X21428573Y-7142019D01*
X21428573Y-7142019D02*
X21428573Y-7332495D01*
X21428573Y-7332495D02*
X22380954Y-7522971D01*
X19714287Y-8189638D02*
X19714287Y-7142019D01*
X19714287Y-7142019D02*
X19809525Y-6951542D01*
X19809525Y-6951542D02*
X20000001Y-6856304D01*
X20000001Y-6856304D02*
X20380954Y-6856304D01*
X20380954Y-6856304D02*
X20571430Y-6951542D01*
X19714287Y-8094400D02*
X19904763Y-8189638D01*
X19904763Y-8189638D02*
X20380954Y-8189638D01*
X20380954Y-8189638D02*
X20571430Y-8094400D01*
X20571430Y-8094400D02*
X20666668Y-7903923D01*
X20666668Y-7903923D02*
X20666668Y-7713447D01*
X20666668Y-7713447D02*
X20571430Y-7522971D01*
X20571430Y-7522971D02*
X20380954Y-7427733D01*
X20380954Y-7427733D02*
X19904763Y-7427733D01*
X19904763Y-7427733D02*
X19714287Y-7332495D01*
X18761906Y-8189638D02*
X18761906Y-6856304D01*
X18761906Y-7237257D02*
X18666668Y-7046780D01*
X18666668Y-7046780D02*
X18571430Y-6951542D01*
X18571430Y-6951542D02*
X18380954Y-6856304D01*
X18380954Y-6856304D02*
X18190477Y-6856304D01*
X15142858Y-8189638D02*
X15142858Y-7142019D01*
X15142858Y-7142019D02*
X15238096Y-6951542D01*
X15238096Y-6951542D02*
X15428572Y-6856304D01*
X15428572Y-6856304D02*
X15809525Y-6856304D01*
X15809525Y-6856304D02*
X16000001Y-6951542D01*
X15142858Y-8094400D02*
X15333334Y-8189638D01*
X15333334Y-8189638D02*
X15809525Y-8189638D01*
X15809525Y-8189638D02*
X16000001Y-8094400D01*
X16000001Y-8094400D02*
X16095239Y-7903923D01*
X16095239Y-7903923D02*
X16095239Y-7713447D01*
X16095239Y-7713447D02*
X16000001Y-7522971D01*
X16000001Y-7522971D02*
X15809525Y-7427733D01*
X15809525Y-7427733D02*
X15333334Y-7427733D01*
X15333334Y-7427733D02*
X15142858Y-7332495D01*
X14476191Y-6856304D02*
X13714287Y-6856304D01*
X14190477Y-6189638D02*
X14190477Y-7903923D01*
X14190477Y-7903923D02*
X14095239Y-8094400D01*
X14095239Y-8094400D02*
X13904763Y-8189638D01*
X13904763Y-8189638D02*
X13714287Y-8189638D01*
X11238096Y-8189638D02*
X11428572Y-8094400D01*
X11428572Y-8094400D02*
X11523810Y-7903923D01*
X11523810Y-7903923D02*
X11523810Y-6189638D01*
X9714286Y-8094400D02*
X9904762Y-8189638D01*
X9904762Y-8189638D02*
X10285715Y-8189638D01*
X10285715Y-8189638D02*
X10476191Y-8094400D01*
X10476191Y-8094400D02*
X10571429Y-7903923D01*
X10571429Y-7903923D02*
X10571429Y-7142019D01*
X10571429Y-7142019D02*
X10476191Y-6951542D01*
X10476191Y-6951542D02*
X10285715Y-6856304D01*
X10285715Y-6856304D02*
X9904762Y-6856304D01*
X9904762Y-6856304D02*
X9714286Y-6951542D01*
X9714286Y-6951542D02*
X9619048Y-7142019D01*
X9619048Y-7142019D02*
X9619048Y-7332495D01*
X9619048Y-7332495D02*
X10571429Y-7522971D01*
X7904762Y-8189638D02*
X7904762Y-7142019D01*
X7904762Y-7142019D02*
X8000000Y-6951542D01*
X8000000Y-6951542D02*
X8190476Y-6856304D01*
X8190476Y-6856304D02*
X8571429Y-6856304D01*
X8571429Y-6856304D02*
X8761905Y-6951542D01*
X7904762Y-8094400D02*
X8095238Y-8189638D01*
X8095238Y-8189638D02*
X8571429Y-8189638D01*
X8571429Y-8189638D02*
X8761905Y-8094400D01*
X8761905Y-8094400D02*
X8857143Y-7903923D01*
X8857143Y-7903923D02*
X8857143Y-7713447D01*
X8857143Y-7713447D02*
X8761905Y-7522971D01*
X8761905Y-7522971D02*
X8571429Y-7427733D01*
X8571429Y-7427733D02*
X8095238Y-7427733D01*
X8095238Y-7427733D02*
X7904762Y-7332495D01*
X7047619Y-8094400D02*
X6857143Y-8189638D01*
X6857143Y-8189638D02*
X6476191Y-8189638D01*
X6476191Y-8189638D02*
X6285714Y-8094400D01*
X6285714Y-8094400D02*
X6190476Y-7903923D01*
X6190476Y-7903923D02*
X6190476Y-7808685D01*
X6190476Y-7808685D02*
X6285714Y-7618209D01*
X6285714Y-7618209D02*
X6476191Y-7522971D01*
X6476191Y-7522971D02*
X6761905Y-7522971D01*
X6761905Y-7522971D02*
X6952381Y-7427733D01*
X6952381Y-7427733D02*
X7047619Y-7237257D01*
X7047619Y-7237257D02*
X7047619Y-7142019D01*
X7047619Y-7142019D02*
X6952381Y-6951542D01*
X6952381Y-6951542D02*
X6761905Y-6856304D01*
X6761905Y-6856304D02*
X6476191Y-6856304D01*
X6476191Y-6856304D02*
X6285714Y-6951542D01*
X5619047Y-6856304D02*
X4857143Y-6856304D01*
X5333333Y-6189638D02*
X5333333Y-7903923D01*
X5333333Y-7903923D02*
X5238095Y-8094400D01*
X5238095Y-8094400D02*
X5047619Y-8189638D01*
X5047619Y-8189638D02*
X4857143Y-8189638D01*
X1619047Y-8189638D02*
X2761904Y-8189638D01*
X2190476Y-8189638D02*
X2190476Y-6189638D01*
X2190476Y-6189638D02*
X2380952Y-6475352D01*
X2380952Y-6475352D02*
X2571428Y-6665828D01*
X2571428Y-6665828D02*
X2761904Y-6761066D01*
X-190476Y-6189638D02*
X761904Y-6189638D01*
X761904Y-6189638D02*
X857142Y-7142019D01*
X857142Y-7142019D02*
X761904Y-7046780D01*
X761904Y-7046780D02*
X571428Y-6951542D01*
X571428Y-6951542D02*
X95237Y-6951542D01*
X95237Y-6951542D02*
X-95238Y-7046780D01*
X-95238Y-7046780D02*
X-190476Y-7142019D01*
X-190476Y-7142019D02*
X-285714Y-7332495D01*
X-285714Y-7332495D02*
X-285714Y-7808685D01*
X-285714Y-7808685D02*
X-190476Y-7999161D01*
X-190476Y-7999161D02*
X-95238Y-8094400D01*
X-95238Y-8094400D02*
X95237Y-8189638D01*
X95237Y-8189638D02*
X571428Y-8189638D01*
X571428Y-8189638D02*
X761904Y-8094400D01*
X761904Y-8094400D02*
X857142Y-7999161D01*
X-2666667Y-6856304D02*
X-2666667Y-8856304D01*
X-2666667Y-6951542D02*
X-2857143Y-6856304D01*
X-2857143Y-6856304D02*
X-3238096Y-6856304D01*
X-3238096Y-6856304D02*
X-3428572Y-6951542D01*
X-3428572Y-6951542D02*
X-3523810Y-7046780D01*
X-3523810Y-7046780D02*
X-3619048Y-7237257D01*
X-3619048Y-7237257D02*
X-3619048Y-7808685D01*
X-3619048Y-7808685D02*
X-3523810Y-7999161D01*
X-3523810Y-7999161D02*
X-3428572Y-8094400D01*
X-3428572Y-8094400D02*
X-3238096Y-8189638D01*
X-3238096Y-8189638D02*
X-2857143Y-8189638D01*
X-2857143Y-8189638D02*
X-2666667Y-8094400D01*
X-4476191Y-8189638D02*
X-4476191Y-6856304D01*
X-4476191Y-6189638D02*
X-4380953Y-6284876D01*
X-4380953Y-6284876D02*
X-4476191Y-6380114D01*
X-4476191Y-6380114D02*
X-4571429Y-6284876D01*
X-4571429Y-6284876D02*
X-4476191Y-6189638D01*
X-4476191Y-6189638D02*
X-4476191Y-6380114D01*
X-6190477Y-8094400D02*
X-6000001Y-8189638D01*
X-6000001Y-8189638D02*
X-5619048Y-8189638D01*
X-5619048Y-8189638D02*
X-5428572Y-8094400D01*
X-5428572Y-8094400D02*
X-5333334Y-7903923D01*
X-5333334Y-7903923D02*
X-5333334Y-7142019D01*
X-5333334Y-7142019D02*
X-5428572Y-6951542D01*
X-5428572Y-6951542D02*
X-5619048Y-6856304D01*
X-5619048Y-6856304D02*
X-6000001Y-6856304D01*
X-6000001Y-6856304D02*
X-6190477Y-6951542D01*
X-6190477Y-6951542D02*
X-6285715Y-7142019D01*
X-6285715Y-7142019D02*
X-6285715Y-7332495D01*
X-6285715Y-7332495D02*
X-5333334Y-7522971D01*
X-8000001Y-8094400D02*
X-7809525Y-8189638D01*
X-7809525Y-8189638D02*
X-7428572Y-8189638D01*
X-7428572Y-8189638D02*
X-7238096Y-8094400D01*
X-7238096Y-8094400D02*
X-7142858Y-7999161D01*
X-7142858Y-7999161D02*
X-7047620Y-7808685D01*
X-7047620Y-7808685D02*
X-7047620Y-7237257D01*
X-7047620Y-7237257D02*
X-7142858Y-7046780D01*
X-7142858Y-7046780D02*
X-7238096Y-6951542D01*
X-7238096Y-6951542D02*
X-7428572Y-6856304D01*
X-7428572Y-6856304D02*
X-7809525Y-6856304D01*
X-7809525Y-6856304D02*
X-8000001Y-6951542D01*
X-9619049Y-8094400D02*
X-9428573Y-8189638D01*
X-9428573Y-8189638D02*
X-9047620Y-8189638D01*
X-9047620Y-8189638D02*
X-8857144Y-8094400D01*
X-8857144Y-8094400D02*
X-8761906Y-7903923D01*
X-8761906Y-7903923D02*
X-8761906Y-7142019D01*
X-8761906Y-7142019D02*
X-8857144Y-6951542D01*
X-8857144Y-6951542D02*
X-9047620Y-6856304D01*
X-9047620Y-6856304D02*
X-9428573Y-6856304D01*
X-9428573Y-6856304D02*
X-9619049Y-6951542D01*
X-9619049Y-6951542D02*
X-9714287Y-7142019D01*
X-9714287Y-7142019D02*
X-9714287Y-7332495D01*
X-9714287Y-7332495D02*
X-8761906Y-7522971D01*
X-10476192Y-8094400D02*
X-10666668Y-8189638D01*
X-10666668Y-8189638D02*
X-11047620Y-8189638D01*
X-11047620Y-8189638D02*
X-11238097Y-8094400D01*
X-11238097Y-8094400D02*
X-11333335Y-7903923D01*
X-11333335Y-7903923D02*
X-11333335Y-7808685D01*
X-11333335Y-7808685D02*
X-11238097Y-7618209D01*
X-11238097Y-7618209D02*
X-11047620Y-7522971D01*
X-11047620Y-7522971D02*
X-10761906Y-7522971D01*
X-10761906Y-7522971D02*
X-10571430Y-7427733D01*
X-10571430Y-7427733D02*
X-10476192Y-7237257D01*
X-10476192Y-7237257D02*
X-10476192Y-7142019D01*
X-10476192Y-7142019D02*
X-10571430Y-6951542D01*
X-10571430Y-6951542D02*
X-10761906Y-6856304D01*
X-10761906Y-6856304D02*
X-11047620Y-6856304D01*
X-11047620Y-6856304D02*
X-11238097Y-6951542D01*
X-14000002Y-8189638D02*
X-13809526Y-8094400D01*
X-13809526Y-8094400D02*
X-13714288Y-7999161D01*
X-13714288Y-7999161D02*
X-13619050Y-7808685D01*
X-13619050Y-7808685D02*
X-13619050Y-7237257D01*
X-13619050Y-7237257D02*
X-13714288Y-7046780D01*
X-13714288Y-7046780D02*
X-13809526Y-6951542D01*
X-13809526Y-6951542D02*
X-14000002Y-6856304D01*
X-14000002Y-6856304D02*
X-14285717Y-6856304D01*
X-14285717Y-6856304D02*
X-14476193Y-6951542D01*
X-14476193Y-6951542D02*
X-14571431Y-7046780D01*
X-14571431Y-7046780D02*
X-14666669Y-7237257D01*
X-14666669Y-7237257D02*
X-14666669Y-7808685D01*
X-14666669Y-7808685D02*
X-14571431Y-7999161D01*
X-14571431Y-7999161D02*
X-14476193Y-8094400D01*
X-14476193Y-8094400D02*
X-14285717Y-8189638D01*
X-14285717Y-8189638D02*
X-14000002Y-8189638D01*
X-15238098Y-6856304D02*
X-16000002Y-6856304D01*
X-15523812Y-8189638D02*
X-15523812Y-6475352D01*
X-15523812Y-6475352D02*
X-15619050Y-6284876D01*
X-15619050Y-6284876D02*
X-15809526Y-6189638D01*
X-15809526Y-6189638D02*
X-16000002Y-6189638D01*
X-17904765Y-6856304D02*
X-18666669Y-6856304D01*
X-18190479Y-8189638D02*
X-18190479Y-6475352D01*
X-18190479Y-6475352D02*
X-18285717Y-6284876D01*
X-18285717Y-6284876D02*
X-18476193Y-6189638D01*
X-18476193Y-6189638D02*
X-18666669Y-6189638D01*
X-19619050Y-8189638D02*
X-19428574Y-8094400D01*
X-19428574Y-8094400D02*
X-19333336Y-7903923D01*
X-19333336Y-7903923D02*
X-19333336Y-6189638D01*
X-21238098Y-8189638D02*
X-21238098Y-7142019D01*
X-21238098Y-7142019D02*
X-21142860Y-6951542D01*
X-21142860Y-6951542D02*
X-20952384Y-6856304D01*
X-20952384Y-6856304D02*
X-20571431Y-6856304D01*
X-20571431Y-6856304D02*
X-20380955Y-6951542D01*
X-21238098Y-8094400D02*
X-21047622Y-8189638D01*
X-21047622Y-8189638D02*
X-20571431Y-8189638D01*
X-20571431Y-8189638D02*
X-20380955Y-8094400D01*
X-20380955Y-8094400D02*
X-20285717Y-7903923D01*
X-20285717Y-7903923D02*
X-20285717Y-7713447D01*
X-20285717Y-7713447D02*
X-20380955Y-7522971D01*
X-20380955Y-7522971D02*
X-20571431Y-7427733D01*
X-20571431Y-7427733D02*
X-21047622Y-7427733D01*
X-21047622Y-7427733D02*
X-21238098Y-7332495D01*
X-22190479Y-8189638D02*
X-22190479Y-6856304D01*
X-22190479Y-6189638D02*
X-22095241Y-6284876D01*
X-22095241Y-6284876D02*
X-22190479Y-6380114D01*
X-22190479Y-6380114D02*
X-22285717Y-6284876D01*
X-22285717Y-6284876D02*
X-22190479Y-6189638D01*
X-22190479Y-6189638D02*
X-22190479Y-6380114D01*
X-23142860Y-8189638D02*
X-23142860Y-6856304D01*
X-23142860Y-7237257D02*
X-23238098Y-7046780D01*
X-23238098Y-7046780D02*
X-23333336Y-6951542D01*
X-23333336Y-6951542D02*
X-23523812Y-6856304D01*
X-23523812Y-6856304D02*
X-23714289Y-6856304D01*
X-24380955Y-7999161D02*
X-24476193Y-8094400D01*
X-24476193Y-8094400D02*
X-24380955Y-8189638D01*
X-24380955Y-8189638D02*
X-24285717Y-8094400D01*
X-24285717Y-8094400D02*
X-24380955Y-7999161D01*
X-24380955Y-7999161D02*
X-24380955Y-8189638D01*
X16000001Y-12629638D02*
X14857144Y-12629638D01*
X15428573Y-14629638D02*
X15428573Y-12629638D01*
X14190477Y-14629638D02*
X14190477Y-12629638D01*
X13333334Y-14629638D02*
X13333334Y-13582019D01*
X13333334Y-13582019D02*
X13428572Y-13391542D01*
X13428572Y-13391542D02*
X13619048Y-13296304D01*
X13619048Y-13296304D02*
X13904763Y-13296304D01*
X13904763Y-13296304D02*
X14095239Y-13391542D01*
X14095239Y-13391542D02*
X14190477Y-13486780D01*
X12380953Y-14629638D02*
X12380953Y-13296304D01*
X12380953Y-12629638D02*
X12476191Y-12724876D01*
X12476191Y-12724876D02*
X12380953Y-12820114D01*
X12380953Y-12820114D02*
X12285715Y-12724876D01*
X12285715Y-12724876D02*
X12380953Y-12629638D01*
X12380953Y-12629638D02*
X12380953Y-12820114D01*
X11523810Y-14534400D02*
X11333334Y-14629638D01*
X11333334Y-14629638D02*
X10952382Y-14629638D01*
X10952382Y-14629638D02*
X10761905Y-14534400D01*
X10761905Y-14534400D02*
X10666667Y-14343923D01*
X10666667Y-14343923D02*
X10666667Y-14248685D01*
X10666667Y-14248685D02*
X10761905Y-14058209D01*
X10761905Y-14058209D02*
X10952382Y-13962971D01*
X10952382Y-13962971D02*
X11238096Y-13962971D01*
X11238096Y-13962971D02*
X11428572Y-13867733D01*
X11428572Y-13867733D02*
X11523810Y-13677257D01*
X11523810Y-13677257D02*
X11523810Y-13582019D01*
X11523810Y-13582019D02*
X11428572Y-13391542D01*
X11428572Y-13391542D02*
X11238096Y-13296304D01*
X11238096Y-13296304D02*
X10952382Y-13296304D01*
X10952382Y-13296304D02*
X10761905Y-13391542D01*
X7428571Y-14629638D02*
X7428571Y-13582019D01*
X7428571Y-13582019D02*
X7523809Y-13391542D01*
X7523809Y-13391542D02*
X7714285Y-13296304D01*
X7714285Y-13296304D02*
X8095238Y-13296304D01*
X8095238Y-13296304D02*
X8285714Y-13391542D01*
X7428571Y-14534400D02*
X7619047Y-14629638D01*
X7619047Y-14629638D02*
X8095238Y-14629638D01*
X8095238Y-14629638D02*
X8285714Y-14534400D01*
X8285714Y-14534400D02*
X8380952Y-14343923D01*
X8380952Y-14343923D02*
X8380952Y-14153447D01*
X8380952Y-14153447D02*
X8285714Y-13962971D01*
X8285714Y-13962971D02*
X8095238Y-13867733D01*
X8095238Y-13867733D02*
X7619047Y-13867733D01*
X7619047Y-13867733D02*
X7428571Y-13772495D01*
X4952380Y-14629638D02*
X4952380Y-12629638D01*
X4761904Y-13867733D02*
X4190475Y-14629638D01*
X4190475Y-13296304D02*
X4952380Y-14058209D01*
X2571427Y-14534400D02*
X2761903Y-14629638D01*
X2761903Y-14629638D02*
X3142856Y-14629638D01*
X3142856Y-14629638D02*
X3333332Y-14534400D01*
X3333332Y-14534400D02*
X3428570Y-14343923D01*
X3428570Y-14343923D02*
X3428570Y-13582019D01*
X3428570Y-13582019D02*
X3333332Y-13391542D01*
X3333332Y-13391542D02*
X3142856Y-13296304D01*
X3142856Y-13296304D02*
X2761903Y-13296304D01*
X2761903Y-13296304D02*
X2571427Y-13391542D01*
X2571427Y-13391542D02*
X2476189Y-13582019D01*
X2476189Y-13582019D02*
X2476189Y-13772495D01*
X2476189Y-13772495D02*
X3428570Y-13962971D01*
X1809522Y-13296304D02*
X1333332Y-14629638D01*
X857141Y-13296304D02*
X1333332Y-14629638D01*
X1333332Y-14629638D02*
X1523808Y-15105828D01*
X1523808Y-15105828D02*
X1619046Y-15201066D01*
X1619046Y-15201066D02*
X1809522Y-15296304D01*
X-761906Y-14534400D02*
X-571430Y-14629638D01*
X-571430Y-14629638D02*
X-190477Y-14629638D01*
X-190477Y-14629638D02*
X-1Y-14534400D01*
X-1Y-14534400D02*
X95236Y-14439161D01*
X95236Y-14439161D02*
X190474Y-14248685D01*
X190474Y-14248685D02*
X190474Y-13677257D01*
X190474Y-13677257D02*
X95236Y-13486780D01*
X95236Y-13486780D02*
X-1Y-13391542D01*
X-1Y-13391542D02*
X-190477Y-13296304D01*
X-190477Y-13296304D02*
X-571430Y-13296304D01*
X-571430Y-13296304D02*
X-761906Y-13391542D01*
X-1619049Y-14629638D02*
X-1619049Y-12629638D01*
X-2476192Y-14629638D02*
X-2476192Y-13582019D01*
X-2476192Y-13582019D02*
X-2380954Y-13391542D01*
X-2380954Y-13391542D02*
X-2190478Y-13296304D01*
X-2190478Y-13296304D02*
X-1904763Y-13296304D01*
X-1904763Y-13296304D02*
X-1714287Y-13391542D01*
X-1714287Y-13391542D02*
X-1619049Y-13486780D01*
X-4285716Y-14629638D02*
X-4285716Y-13582019D01*
X-4285716Y-13582019D02*
X-4190478Y-13391542D01*
X-4190478Y-13391542D02*
X-4000002Y-13296304D01*
X-4000002Y-13296304D02*
X-3619049Y-13296304D01*
X-3619049Y-13296304D02*
X-3428573Y-13391542D01*
X-4285716Y-14534400D02*
X-4095240Y-14629638D01*
X-4095240Y-14629638D02*
X-3619049Y-14629638D01*
X-3619049Y-14629638D02*
X-3428573Y-14534400D01*
X-3428573Y-14534400D02*
X-3333335Y-14343923D01*
X-3333335Y-14343923D02*
X-3333335Y-14153447D01*
X-3333335Y-14153447D02*
X-3428573Y-13962971D01*
X-3428573Y-13962971D02*
X-3619049Y-13867733D01*
X-3619049Y-13867733D02*
X-4095240Y-13867733D01*
X-4095240Y-13867733D02*
X-4285716Y-13772495D01*
X-5238097Y-14629638D02*
X-5238097Y-13296304D01*
X-5238097Y-12629638D02*
X-5142859Y-12724876D01*
X-5142859Y-12724876D02*
X-5238097Y-12820114D01*
X-5238097Y-12820114D02*
X-5333335Y-12724876D01*
X-5333335Y-12724876D02*
X-5238097Y-12629638D01*
X-5238097Y-12629638D02*
X-5238097Y-12820114D01*
X-6190478Y-13296304D02*
X-6190478Y-14629638D01*
X-6190478Y-13486780D02*
X-6285716Y-13391542D01*
X-6285716Y-13391542D02*
X-6476192Y-13296304D01*
X-6476192Y-13296304D02*
X-6761907Y-13296304D01*
X-6761907Y-13296304D02*
X-6952383Y-13391542D01*
X-6952383Y-13391542D02*
X-7047621Y-13582019D01*
X-7047621Y-13582019D02*
X-7047621Y-14629638D01*
X-9238098Y-13296304D02*
X-10000002Y-13296304D01*
X-9523812Y-14629638D02*
X-9523812Y-12915352D01*
X-9523812Y-12915352D02*
X-9619050Y-12724876D01*
X-9619050Y-12724876D02*
X-9809526Y-12629638D01*
X-9809526Y-12629638D02*
X-10000002Y-12629638D01*
X-10952383Y-14629638D02*
X-10761907Y-14534400D01*
X-10761907Y-14534400D02*
X-10666669Y-14343923D01*
X-10666669Y-14343923D02*
X-10666669Y-12629638D01*
X-12571431Y-14629638D02*
X-12571431Y-13582019D01*
X-12571431Y-13582019D02*
X-12476193Y-13391542D01*
X-12476193Y-13391542D02*
X-12285717Y-13296304D01*
X-12285717Y-13296304D02*
X-11904764Y-13296304D01*
X-11904764Y-13296304D02*
X-11714288Y-13391542D01*
X-12571431Y-14534400D02*
X-12380955Y-14629638D01*
X-12380955Y-14629638D02*
X-11904764Y-14629638D01*
X-11904764Y-14629638D02*
X-11714288Y-14534400D01*
X-11714288Y-14534400D02*
X-11619050Y-14343923D01*
X-11619050Y-14343923D02*
X-11619050Y-14153447D01*
X-11619050Y-14153447D02*
X-11714288Y-13962971D01*
X-11714288Y-13962971D02*
X-11904764Y-13867733D01*
X-11904764Y-13867733D02*
X-12380955Y-13867733D01*
X-12380955Y-13867733D02*
X-12571431Y-13772495D01*
X-13523812Y-14629638D02*
X-13523812Y-13296304D01*
X-13523812Y-12629638D02*
X-13428574Y-12724876D01*
X-13428574Y-12724876D02*
X-13523812Y-12820114D01*
X-13523812Y-12820114D02*
X-13619050Y-12724876D01*
X-13619050Y-12724876D02*
X-13523812Y-12629638D01*
X-13523812Y-12629638D02*
X-13523812Y-12820114D01*
X-14476193Y-14629638D02*
X-14476193Y-13296304D01*
X-14476193Y-13677257D02*
X-14571431Y-13486780D01*
X-14571431Y-13486780D02*
X-14666669Y-13391542D01*
X-14666669Y-13391542D02*
X-14857145Y-13296304D01*
X-14857145Y-13296304D02*
X-15047622Y-13296304D01*
X-15714288Y-14439161D02*
X-15809526Y-14534400D01*
X-15809526Y-14534400D02*
X-15714288Y-14629638D01*
X-15714288Y-14629638D02*
X-15619050Y-14534400D01*
X-15619050Y-14534400D02*
X-15714288Y-14439161D01*
X-15714288Y-14439161D02*
X-15714288Y-14629638D01*
%LPC*%
D11*
X24130000Y-17780000D03*
D12*
X21590000Y-17780000D03*
X19050000Y-17780000D03*
X16510000Y-17780000D03*
X13970000Y-17780000D03*
X11430000Y-17780000D03*
X8890000Y-17780000D03*
X6350000Y-17780000D03*
X3810000Y-17780000D03*
X1270000Y-17780000D03*
X-1270000Y-17780000D03*
X-3810000Y-17780000D03*
X-6350000Y-17780000D03*
X-8890000Y-17780000D03*
X-11430000Y-17780000D03*
X-13970000Y-17780000D03*
X-16510000Y-17780000D03*
X-19050000Y-17780000D03*
X-21590000Y-17780000D03*
X-24130000Y-17780000D03*
%LPD*%
M02*
