G04 #@! TF.GenerationSoftware,KiCad,Pcbnew,7.0.9*
G04 #@! TF.CreationDate,2023-12-24T17:35:41+01:00*
G04 #@! TF.ProjectId,Fusebit Doctor TQFP32 adapter,46757365-6269-4742-9044-6f63746f7220,V1.0*
G04 #@! TF.SameCoordinates,Original*
G04 #@! TF.FileFunction,Copper,L1,Top*
G04 #@! TF.FilePolarity,Positive*
%FSLAX46Y46*%
G04 Gerber Fmt 4.6, Leading zero omitted, Abs format (unit mm)*
G04 Created by KiCad (PCBNEW 7.0.9) date 2023-12-24 17:35:41*
%MOMM*%
%LPD*%
G01*
G04 APERTURE LIST*
G04 #@! TA.AperFunction,ComponentPad*
%ADD10R,1.700000X1.700000*%
G04 #@! TD*
G04 #@! TA.AperFunction,ComponentPad*
%ADD11O,1.700000X1.700000*%
G04 #@! TD*
G04 #@! TA.AperFunction,SMDPad,CuDef*
%ADD12R,1.600000X0.550000*%
G04 #@! TD*
G04 #@! TA.AperFunction,SMDPad,CuDef*
%ADD13R,0.550000X1.600000*%
G04 #@! TD*
G04 #@! TA.AperFunction,ViaPad*
%ADD14C,0.800000*%
G04 #@! TD*
G04 #@! TA.AperFunction,Conductor*
%ADD15C,0.440000*%
G04 #@! TD*
G04 APERTURE END LIST*
D10*
X24130000Y-17780000D03*
D11*
X21590000Y-17780000D03*
X19050000Y-17780000D03*
X16510000Y-17780000D03*
X13970000Y-17780000D03*
X11430000Y-17780000D03*
X8890000Y-17780000D03*
X6350000Y-17780000D03*
X3810000Y-17780000D03*
X1270000Y-17780000D03*
X-1270000Y-17780000D03*
X-3810000Y-17780000D03*
X-6350000Y-17780000D03*
X-8890000Y-17780000D03*
X-11430000Y-17780000D03*
X-13970000Y-17780000D03*
X-16510000Y-17780000D03*
X-19050000Y-17780000D03*
X-21590000Y-17780000D03*
X-24130000Y-17780000D03*
D12*
X-4250000Y2800000D03*
X-4250000Y2000000D03*
X-4250000Y1200000D03*
X-4250000Y400000D03*
X-4250000Y-400000D03*
X-4250000Y-1200000D03*
X-4250000Y-2000000D03*
X-4250000Y-2800000D03*
D13*
X-2800000Y-4250000D03*
X-2000000Y-4250000D03*
X-1200000Y-4250000D03*
X-400000Y-4250000D03*
X400000Y-4250000D03*
X1200000Y-4250000D03*
X2000000Y-4250000D03*
X2800000Y-4250000D03*
D12*
X4250000Y-2800000D03*
X4250000Y-2000000D03*
X4250000Y-1200000D03*
X4250000Y-400000D03*
X4250000Y400000D03*
X4250000Y1200000D03*
X4250000Y2000000D03*
X4250000Y2800000D03*
D13*
X2800000Y4250000D03*
X2000000Y4250000D03*
X1200000Y4250000D03*
X400000Y4250000D03*
X-400000Y4250000D03*
X-1200000Y4250000D03*
X-2000000Y4250000D03*
X-2800000Y4250000D03*
D14*
X4064000Y-5080000D03*
X6350000Y6858000D03*
X14986000Y-1016000D03*
X12446000Y-1524000D03*
X7874000Y-1016000D03*
X8636000Y2540000D03*
X6096000Y-1016000D03*
X2540000Y2540000D03*
X-2540000Y-508000D03*
X-4064000Y-5842000D03*
X24130000Y-9144008D03*
X21590000Y-6096000D03*
X-2901183Y-5734817D03*
X-4572000Y-4318000D03*
X18542000Y-4318000D03*
X16510000Y762000D03*
X-7133115Y698643D03*
X13969998Y1524002D03*
X-7366000Y2286000D03*
X10414000Y8128000D03*
X-2540000Y8890000D03*
X9144000Y6604000D03*
X-1488292Y6568292D03*
X-7366000Y-13970000D03*
X7874000Y-15240000D03*
X-2540000Y2540000D03*
X-2794000Y-2540000D03*
X1778000Y-762000D03*
X-6096000Y-4318000D03*
X-6858000Y-762000D03*
X4318000Y4572000D03*
X-6350000Y5080000D03*
X-952500Y-825500D03*
X2031996Y-14624000D03*
X2921000Y-2032000D03*
X6857990Y-13970000D03*
X-10160000Y3810000D03*
X-10160000Y-6096000D03*
X-6350000Y-6096000D03*
X1270000Y5712041D03*
X-2032000Y-13892187D03*
X8636000Y-10160000D03*
X7048645Y-10160000D03*
X-4826000Y-13970000D03*
X4572000Y-10922000D03*
X-9144000Y-12220000D03*
X3048000Y-10550000D03*
X-11684000Y-12446000D03*
X1924000Y-10013457D03*
X-13462000Y-10160000D03*
X-16256000Y-9906000D03*
X635973Y-9816000D03*
X-19050000Y-9652000D03*
X-84795Y-9052456D03*
X-21590000Y-9144000D03*
X-1622213Y-8536000D03*
X3048000Y6750000D03*
X-17780000Y2286000D03*
D15*
X7874000Y-16256000D02*
X7874000Y-15240000D01*
X6350000Y-17780000D02*
X7874000Y-16256000D01*
X1270000Y-15385996D02*
X2031996Y-14624000D01*
X1270000Y-17780000D02*
X1270000Y-15385996D01*
X5334000Y-10160000D02*
X4572000Y-10922000D01*
X5334000Y-3884000D02*
X5334000Y-10160000D01*
X4250000Y-2800000D02*
X5334000Y-3884000D01*
X-400000Y-7313787D02*
X-1622213Y-8536000D01*
X-400000Y-4250000D02*
X-400000Y-7313787D01*
X-4504000Y-4250000D02*
X-4572000Y-4318000D01*
X-2800000Y-4250000D02*
X-4504000Y-4250000D01*
X19050000Y-4826000D02*
X18542000Y-4318000D01*
X19050000Y-17780000D02*
X19050000Y-4826000D01*
X-1543000Y-1416000D02*
X-952500Y-825500D01*
X-2794000Y-1416000D02*
X-1543000Y-1416000D01*
X-2178000Y400000D02*
X-952500Y-825500D01*
X-4250000Y400000D02*
X-2178000Y400000D01*
X-4250000Y-1200000D02*
X-3010000Y-1200000D01*
X-3010000Y-1200000D02*
X-2794000Y-1416000D01*
X-6852000Y2800000D02*
X-7366000Y2286000D01*
X-4250000Y2800000D02*
X-6852000Y2800000D01*
X-5831758Y2000000D02*
X-7133115Y698643D01*
X-4250000Y2000000D02*
X-5831758Y2000000D01*
X9906000Y5842000D02*
X9144000Y6604000D01*
X8890000Y-17780000D02*
X9906000Y-16764000D01*
X9906000Y-16764000D02*
X9906000Y5842000D01*
X-7874000Y-10922000D02*
X-7112000Y-11684000D01*
X-7874000Y-3556000D02*
X-7874000Y-10922000D01*
X-7112000Y-13716000D02*
X-7366000Y-13970000D01*
X-6318000Y-2000000D02*
X-7874000Y-3556000D01*
X-4250000Y-2000000D02*
X-6318000Y-2000000D01*
X-7112000Y-11684000D02*
X-7112000Y-13716000D01*
X-9398000Y-12474000D02*
X-9144000Y-12220000D01*
X-9398000Y-17272000D02*
X-9398000Y-12474000D01*
X-8890000Y-17780000D02*
X-9398000Y-17272000D01*
X-4826000Y-14986000D02*
X-4826000Y-13970000D01*
X-6350000Y-17780000D02*
X-6350000Y-16510000D01*
X-6350000Y-16510000D02*
X-4826000Y-14986000D01*
X-10160000Y3810000D02*
X-10160000Y-6096000D01*
X8890000Y254000D02*
X8890000Y-9906000D01*
X8890000Y-9906000D02*
X8636000Y-10160000D01*
X6344000Y2800000D02*
X8890000Y254000D01*
X4250000Y2800000D02*
X6344000Y2800000D01*
X-21590000Y-17780000D02*
X-21590000Y-9144000D01*
X24130000Y-17780000D02*
X24130000Y-9144008D01*
X-3351183Y-6554817D02*
X-2264817Y-6554817D01*
X-4064000Y-5842000D02*
X-3351183Y-6554817D01*
X-2264817Y-6554817D02*
X-1200000Y-5490000D01*
X-1200000Y-5490000D02*
X-1200000Y-4250000D01*
X-420000Y-12026000D02*
X-6350000Y-6096000D01*
X-1270000Y-17780000D02*
X-420000Y-16930000D01*
X-420000Y-16930000D02*
X-420000Y-12026000D01*
X-24130000Y-17780000D02*
X-24130000Y-4064000D01*
X-24130000Y-4064000D02*
X-17780000Y2286000D01*
X-3810000Y-15670187D02*
X-2032000Y-13892187D01*
X-3810000Y-17780000D02*
X-3810000Y-15670187D01*
X6227660Y-2671660D02*
X6227660Y-13339670D01*
X6227660Y-13339670D02*
X6857990Y-13970000D01*
X4250000Y-2000000D02*
X5556000Y-2000000D01*
X5556000Y-2000000D02*
X6227660Y-2671660D01*
X-2575913Y-5734817D02*
X-2901183Y-5734817D01*
X-2000000Y-4250000D02*
X-2000000Y-5158904D01*
X-2000000Y-5158904D02*
X-2575913Y-5734817D01*
X-16510000Y-10160000D02*
X-16256000Y-9906000D01*
X-16510000Y-17780000D02*
X-16510000Y-10160000D01*
X-13970000Y-10668000D02*
X-13462000Y-10160000D01*
X-13970000Y-17780000D02*
X-13970000Y-10668000D01*
X7048645Y441355D02*
X7048645Y-10160000D01*
X5490000Y2000000D02*
X7048645Y441355D01*
X4250000Y2000000D02*
X5490000Y2000000D01*
X-11430000Y-12700000D02*
X-11684000Y-12446000D01*
X-11430000Y-17780000D02*
X-11430000Y-12700000D01*
X21590000Y-17780000D02*
X21590000Y-6096000D01*
X16510000Y-17780000D02*
X16510000Y762000D01*
X13970000Y-17780000D02*
X13970000Y1524000D01*
X13970000Y1524000D02*
X13969998Y1524002D01*
X-2800000Y8630000D02*
X-2540000Y8890000D01*
X11430000Y-17780000D02*
X11430000Y7112000D01*
X-2800000Y4250000D02*
X-2800000Y8630000D01*
X11430000Y7112000D02*
X10414000Y8128000D01*
X-1488292Y6568292D02*
X-2000000Y6056584D01*
X-2000000Y6056584D02*
X-2000000Y4250000D01*
X4218000Y-2032000D02*
X4250000Y-2000000D01*
X2921000Y-2032000D02*
X4218000Y-2032000D01*
X-177959Y5712041D02*
X1270000Y5712041D01*
X-400000Y5490000D02*
X-177959Y5712041D01*
X-400000Y4250000D02*
X-400000Y5490000D01*
X2794000Y-10296000D02*
X3048000Y-10550000D01*
X2794000Y-4256000D02*
X2794000Y-10296000D01*
X2800000Y-4250000D02*
X2794000Y-4256000D01*
X2000000Y-9937457D02*
X1924000Y-10013457D01*
X2000000Y-4250000D02*
X2000000Y-9937457D01*
X1200000Y-4250000D02*
X1200000Y-9251973D01*
X1200000Y-9251973D02*
X635973Y-9816000D01*
X400000Y-8567661D02*
X-84795Y-9052456D01*
X-19050000Y-17780000D02*
X-19050000Y-9652000D01*
X400000Y-4250000D02*
X400000Y-8567661D01*
X2800000Y4250000D02*
X2800000Y6502000D01*
X2800000Y6502000D02*
X3048000Y6750000D01*
G04 #@! TA.AperFunction,Conductor*
G36*
X18193402Y10147008D02*
G01*
X18395654Y10140652D01*
X18399318Y10140428D01*
X18750674Y10108500D01*
X19018950Y10083139D01*
X19022444Y10082708D01*
X19358136Y10031617D01*
X19637463Y9987375D01*
X19640777Y9986757D01*
X19967382Y9916648D01*
X20248891Y9853723D01*
X20252015Y9852939D01*
X20570862Y9764055D01*
X20850925Y9682689D01*
X20853852Y9681759D01*
X21164955Y9574405D01*
X21441243Y9474935D01*
X21443968Y9473881D01*
X21746941Y9348385D01*
X22018889Y9230703D01*
X22314275Y9086879D01*
X22579052Y8951968D01*
X22864622Y8790907D01*
X23120979Y8639297D01*
X23395902Y8461547D01*
X23642590Y8293898D01*
X23906043Y8100044D01*
X24141912Y7917087D01*
X24393045Y7707793D01*
X24617082Y7510278D01*
X24855052Y7286267D01*
X25066267Y7075052D01*
X25290278Y6837082D01*
X25487793Y6613045D01*
X25697087Y6361912D01*
X25880044Y6126043D01*
X26073898Y5862590D01*
X26241547Y5615902D01*
X26419297Y5340979D01*
X26570907Y5084622D01*
X26731968Y4799052D01*
X26866879Y4534275D01*
X27010703Y4238889D01*
X27128385Y3966941D01*
X27253881Y3663968D01*
X27254935Y3661243D01*
X27354405Y3384955D01*
X27461759Y3073852D01*
X27462689Y3070925D01*
X27544055Y2790862D01*
X27632939Y2472015D01*
X27633723Y2468891D01*
X27696648Y2187382D01*
X27766757Y1860777D01*
X27767375Y1857463D01*
X27811617Y1578136D01*
X27862708Y1242444D01*
X27863139Y1238950D01*
X27888500Y970674D01*
X27920428Y619318D01*
X27920652Y615654D01*
X27927008Y413402D01*
X27939500Y0D01*
X27939500Y-19048258D01*
X27939402Y-19051736D01*
X27933012Y-19165524D01*
X27922599Y-19337668D01*
X27921835Y-19344315D01*
X27898722Y-19480343D01*
X27871440Y-19629217D01*
X27870032Y-19635208D01*
X27830627Y-19771990D01*
X27823385Y-19795231D01*
X27786744Y-19912815D01*
X27784831Y-19918099D01*
X27729609Y-20051418D01*
X27669668Y-20184600D01*
X27667394Y-20189147D01*
X27597043Y-20316439D01*
X27521781Y-20440936D01*
X27519287Y-20444739D01*
X27435571Y-20562726D01*
X27433811Y-20565086D01*
X27345088Y-20678332D01*
X27342512Y-20681409D01*
X27245980Y-20789430D01*
X27243590Y-20791957D01*
X27141957Y-20893590D01*
X27139430Y-20895980D01*
X27031409Y-20992512D01*
X27028332Y-20995088D01*
X26915086Y-21083811D01*
X26912726Y-21085571D01*
X26794739Y-21169287D01*
X26790936Y-21171781D01*
X26666439Y-21247043D01*
X26539147Y-21317394D01*
X26534600Y-21319668D01*
X26401418Y-21379609D01*
X26268099Y-21434831D01*
X26262815Y-21436744D01*
X26145231Y-21473385D01*
X26121990Y-21480627D01*
X25985208Y-21520032D01*
X25979217Y-21521440D01*
X25830343Y-21548722D01*
X25694315Y-21571835D01*
X25687668Y-21572599D01*
X25515524Y-21583012D01*
X25401736Y-21589402D01*
X25398258Y-21589500D01*
X-25398258Y-21589500D01*
X-25401735Y-21589402D01*
X-25515437Y-21583017D01*
X-25687676Y-21572598D01*
X-25694323Y-21571834D01*
X-25830300Y-21548731D01*
X-25979220Y-21521439D01*
X-25985210Y-21520031D01*
X-26122025Y-21480616D01*
X-26262816Y-21436743D01*
X-26268100Y-21434830D01*
X-26401429Y-21379604D01*
X-26534600Y-21319668D01*
X-26539147Y-21317394D01*
X-26666439Y-21247043D01*
X-26790936Y-21171781D01*
X-26794739Y-21169287D01*
X-26912725Y-21085572D01*
X-26915085Y-21083812D01*
X-27028341Y-20995081D01*
X-27031419Y-20992505D01*
X-27139423Y-20895985D01*
X-27141951Y-20893596D01*
X-27243596Y-20791951D01*
X-27245985Y-20789423D01*
X-27342505Y-20681419D01*
X-27345081Y-20678341D01*
X-27433812Y-20565085D01*
X-27435572Y-20562725D01*
X-27519287Y-20444739D01*
X-27521781Y-20440936D01*
X-27597043Y-20316439D01*
X-27667394Y-20189147D01*
X-27669668Y-20184600D01*
X-27729604Y-20051429D01*
X-27784830Y-19918100D01*
X-27786743Y-19912816D01*
X-27830616Y-19772025D01*
X-27870031Y-19635210D01*
X-27871439Y-19629220D01*
X-27898731Y-19480300D01*
X-27921834Y-19344323D01*
X-27922598Y-19337676D01*
X-27933017Y-19165437D01*
X-27939402Y-19051735D01*
X-27939500Y-19048258D01*
X-27939500Y-17780000D01*
X-25235215Y-17780000D01*
X-25216397Y-17983083D01*
X-25160582Y-18179250D01*
X-25069673Y-18361821D01*
X-24946764Y-18524579D01*
X-24796041Y-18661981D01*
X-24622637Y-18769348D01*
X-24432456Y-18843024D01*
X-24231976Y-18880500D01*
X-24231974Y-18880500D01*
X-24028026Y-18880500D01*
X-24028024Y-18880500D01*
X-23827544Y-18843024D01*
X-23637363Y-18769348D01*
X-23563141Y-18723392D01*
X-23463960Y-18661982D01*
X-23463958Y-18661980D01*
X-23313237Y-18524581D01*
X-23190327Y-18361821D01*
X-23099422Y-18179260D01*
X-23099417Y-18179247D01*
X-23043602Y-17983082D01*
X-23024785Y-17780000D01*
X-22695215Y-17780000D01*
X-22676397Y-17983083D01*
X-22620582Y-18179250D01*
X-22529673Y-18361821D01*
X-22406764Y-18524579D01*
X-22256041Y-18661981D01*
X-22082637Y-18769348D01*
X-21892456Y-18843024D01*
X-21691976Y-18880500D01*
X-21691974Y-18880500D01*
X-21488026Y-18880500D01*
X-21488024Y-18880500D01*
X-21287544Y-18843024D01*
X-21097363Y-18769348D01*
X-21023141Y-18723392D01*
X-20923960Y-18661982D01*
X-20923958Y-18661980D01*
X-20773237Y-18524581D01*
X-20650327Y-18361821D01*
X-20559422Y-18179260D01*
X-20559417Y-18179247D01*
X-20503602Y-17983082D01*
X-20484785Y-17780000D01*
X-20155215Y-17780000D01*
X-20136397Y-17983083D01*
X-20080582Y-18179250D01*
X-19989673Y-18361821D01*
X-19866764Y-18524579D01*
X-19716041Y-18661981D01*
X-19542637Y-18769348D01*
X-19352456Y-18843024D01*
X-19151976Y-18880500D01*
X-19151974Y-18880500D01*
X-18948026Y-18880500D01*
X-18948024Y-18880500D01*
X-18747544Y-18843024D01*
X-18557363Y-18769348D01*
X-18483141Y-18723392D01*
X-18383960Y-18661982D01*
X-18383958Y-18661980D01*
X-18233237Y-18524581D01*
X-18110327Y-18361821D01*
X-18019422Y-18179260D01*
X-18019417Y-18179247D01*
X-17963602Y-17983082D01*
X-17944785Y-17780000D01*
X-17615215Y-17780000D01*
X-17596397Y-17983083D01*
X-17540582Y-18179250D01*
X-17449673Y-18361821D01*
X-17326764Y-18524579D01*
X-17176041Y-18661981D01*
X-17002637Y-18769348D01*
X-16812456Y-18843024D01*
X-16611976Y-18880500D01*
X-16611974Y-18880500D01*
X-16408026Y-18880500D01*
X-16408024Y-18880500D01*
X-16207544Y-18843024D01*
X-16017363Y-18769348D01*
X-15943141Y-18723392D01*
X-15843960Y-18661982D01*
X-15843958Y-18661980D01*
X-15693237Y-18524581D01*
X-15570327Y-18361821D01*
X-15479422Y-18179260D01*
X-15479417Y-18179247D01*
X-15423602Y-17983082D01*
X-15404785Y-17780000D01*
X-15075215Y-17780000D01*
X-15056397Y-17983083D01*
X-15000582Y-18179250D01*
X-14909673Y-18361821D01*
X-14786764Y-18524579D01*
X-14636041Y-18661981D01*
X-14462637Y-18769348D01*
X-14272456Y-18843024D01*
X-14071976Y-18880500D01*
X-14071974Y-18880500D01*
X-13868026Y-18880500D01*
X-13868024Y-18880500D01*
X-13667544Y-18843024D01*
X-13477363Y-18769348D01*
X-13403141Y-18723392D01*
X-13303960Y-18661982D01*
X-13303958Y-18661980D01*
X-13153237Y-18524581D01*
X-13030327Y-18361821D01*
X-12939422Y-18179260D01*
X-12939417Y-18179247D01*
X-12883602Y-17983082D01*
X-12864785Y-17780000D01*
X-12535215Y-17780000D01*
X-12516397Y-17983083D01*
X-12460582Y-18179250D01*
X-12369673Y-18361821D01*
X-12246764Y-18524579D01*
X-12096041Y-18661981D01*
X-11922637Y-18769348D01*
X-11732456Y-18843024D01*
X-11531976Y-18880500D01*
X-11531974Y-18880500D01*
X-11328026Y-18880500D01*
X-11328024Y-18880500D01*
X-11127544Y-18843024D01*
X-10937363Y-18769348D01*
X-10863141Y-18723392D01*
X-10763960Y-18661982D01*
X-10763958Y-18661980D01*
X-10613237Y-18524581D01*
X-10490327Y-18361821D01*
X-10399422Y-18179260D01*
X-10399417Y-18179247D01*
X-10343602Y-17983082D01*
X-10324785Y-17780000D01*
X-9995215Y-17780000D01*
X-9976397Y-17983083D01*
X-9920582Y-18179250D01*
X-9829673Y-18361821D01*
X-9706764Y-18524579D01*
X-9556041Y-18661981D01*
X-9382637Y-18769348D01*
X-9192456Y-18843024D01*
X-8991976Y-18880500D01*
X-8991974Y-18880500D01*
X-8788026Y-18880500D01*
X-8788024Y-18880500D01*
X-8587544Y-18843024D01*
X-8397363Y-18769348D01*
X-8323141Y-18723392D01*
X-8223960Y-18661982D01*
X-8223958Y-18661980D01*
X-8073237Y-18524581D01*
X-7950327Y-18361821D01*
X-7859422Y-18179260D01*
X-7859417Y-18179247D01*
X-7803602Y-17983082D01*
X-7784785Y-17780000D01*
X-7455215Y-17780000D01*
X-7436397Y-17983083D01*
X-7380582Y-18179250D01*
X-7289673Y-18361821D01*
X-7166764Y-18524579D01*
X-7016041Y-18661981D01*
X-6842637Y-18769348D01*
X-6652456Y-18843024D01*
X-6451976Y-18880500D01*
X-6451974Y-18880500D01*
X-6248026Y-18880500D01*
X-6248024Y-18880500D01*
X-6047544Y-18843024D01*
X-5857363Y-18769348D01*
X-5783141Y-18723392D01*
X-5683960Y-18661982D01*
X-5683958Y-18661980D01*
X-5533237Y-18524581D01*
X-5410327Y-18361821D01*
X-5319422Y-18179260D01*
X-5319417Y-18179247D01*
X-5263602Y-17983082D01*
X-5244785Y-17780000D01*
X-4915215Y-17780000D01*
X-4896397Y-17983083D01*
X-4840582Y-18179250D01*
X-4749673Y-18361821D01*
X-4626764Y-18524579D01*
X-4476041Y-18661981D01*
X-4302637Y-18769348D01*
X-4112456Y-18843024D01*
X-3911976Y-18880500D01*
X-3911974Y-18880500D01*
X-3708026Y-18880500D01*
X-3708024Y-18880500D01*
X-3507544Y-18843024D01*
X-3317363Y-18769348D01*
X-3243141Y-18723392D01*
X-3143960Y-18661982D01*
X-3143958Y-18661980D01*
X-2993237Y-18524581D01*
X-2870327Y-18361821D01*
X-2779422Y-18179260D01*
X-2779417Y-18179247D01*
X-2723602Y-17983082D01*
X-2704785Y-17780000D01*
X-2704785Y-17779999D01*
X-2723602Y-17576917D01*
X-2779417Y-17380752D01*
X-2779422Y-17380739D01*
X-2870327Y-17198178D01*
X-2993237Y-17035418D01*
X-3143957Y-16898020D01*
X-3280778Y-16813304D01*
X-3327413Y-16761276D01*
X-3339500Y-16707877D01*
X-3339500Y-15916436D01*
X-3319815Y-15849397D01*
X-3303181Y-15828755D01*
X-2053431Y-14579006D01*
X-1992108Y-14545521D01*
X-1965750Y-14542687D01*
X-1953014Y-14542687D01*
X-1799634Y-14504883D01*
X-1659762Y-14431471D01*
X-1659760Y-14431470D01*
X-1541517Y-14326717D01*
X-1451780Y-14196710D01*
X-1449034Y-14189470D01*
X-1395762Y-14049005D01*
X-1376722Y-13892187D01*
X-1376722Y-13892186D01*
X-1395762Y-13735368D01*
X-1451780Y-13587663D01*
X-1451781Y-13587662D01*
X-1541516Y-13457658D01*
X-1659762Y-13352902D01*
X-1799634Y-13279490D01*
X-1953014Y-13241687D01*
X-1953015Y-13241687D01*
X-2110985Y-13241687D01*
X-2110986Y-13241687D01*
X-2264365Y-13279490D01*
X-2404237Y-13352902D01*
X-2404238Y-13352903D01*
X-2404240Y-13352904D01*
X-2522483Y-13457657D01*
X-2612220Y-13587664D01*
X-2646648Y-13678443D01*
X-2655173Y-13700923D01*
X-2668237Y-13735369D01*
X-2680094Y-13833030D01*
X-2680722Y-13838200D01*
X-2708343Y-13902379D01*
X-2716137Y-13910936D01*
X-4097498Y-15292298D01*
X-4118136Y-15308930D01*
X-4121276Y-15310948D01*
X-4121282Y-15310953D01*
X-4153127Y-15347704D01*
X-4156131Y-15350931D01*
X-4166486Y-15361286D01*
X-4175256Y-15373002D01*
X-4178025Y-15376437D01*
X-4209878Y-15413197D01*
X-4209882Y-15413204D01*
X-4211434Y-15416602D01*
X-4224958Y-15439395D01*
X-4227194Y-15442382D01*
X-4229999Y-15449904D01*
X-4244184Y-15487937D01*
X-4245879Y-15492028D01*
X-4266081Y-15536264D01*
X-4266083Y-15536270D01*
X-4266612Y-15539951D01*
X-4273171Y-15565651D01*
X-4274475Y-15569146D01*
X-4274475Y-15569150D01*
X-4277942Y-15617642D01*
X-4278416Y-15622052D01*
X-4280500Y-15636536D01*
X-4280500Y-15651181D01*
X-4280657Y-15655601D01*
X-4284126Y-15704097D01*
X-4283334Y-15707737D01*
X-4280500Y-15734095D01*
X-4280500Y-16707877D01*
X-4300185Y-16774916D01*
X-4339222Y-16813304D01*
X-4369843Y-16832264D01*
X-4476041Y-16898019D01*
X-4476042Y-16898020D01*
X-4626762Y-17035418D01*
X-4626764Y-17035421D01*
X-4749673Y-17198179D01*
X-4775885Y-17250820D01*
X-4825274Y-17350008D01*
X-4840582Y-17380750D01*
X-4896397Y-17576917D01*
X-4915215Y-17780000D01*
X-5244785Y-17780000D01*
X-5244785Y-17779999D01*
X-5263602Y-17576917D01*
X-5319417Y-17380752D01*
X-5319422Y-17380739D01*
X-5410327Y-17198178D01*
X-5533237Y-17035418D01*
X-5683958Y-16898019D01*
X-5683963Y-16898015D01*
X-5790903Y-16831800D01*
X-5837539Y-16779772D01*
X-5848642Y-16710790D01*
X-5820688Y-16646756D01*
X-5813306Y-16638693D01*
X-4538501Y-15363888D01*
X-4517858Y-15347253D01*
X-4514722Y-15345238D01*
X-4514718Y-15345234D01*
X-4504515Y-15333459D01*
X-4482862Y-15308470D01*
X-4479866Y-15305253D01*
X-4469514Y-15294901D01*
X-4460743Y-15283184D01*
X-4457974Y-15279748D01*
X-4453426Y-15274500D01*
X-4426120Y-15242987D01*
X-4426117Y-15242981D01*
X-4424564Y-15239581D01*
X-4411040Y-15216789D01*
X-4408809Y-15213809D01*
X-4408806Y-15213803D01*
X-4391815Y-15168249D01*
X-4390121Y-15164160D01*
X-4381158Y-15144532D01*
X-4369917Y-15119918D01*
X-4369916Y-15119917D01*
X-4369915Y-15119913D01*
X-4369383Y-15116213D01*
X-4362832Y-15090546D01*
X-4361526Y-15087045D01*
X-4361525Y-15087039D01*
X-4358055Y-15038536D01*
X-4357582Y-15034139D01*
X-4355500Y-15019653D01*
X-4355500Y-15005004D01*
X-4355342Y-15000580D01*
X-4351873Y-14952090D01*
X-4352667Y-14948443D01*
X-4355500Y-14922088D01*
X-4355500Y-14472120D01*
X-4335815Y-14405081D01*
X-4333550Y-14401680D01*
X-4281807Y-14326717D01*
X-4245780Y-14274523D01*
X-4189762Y-14126818D01*
X-4170722Y-13970000D01*
X-4170722Y-13969999D01*
X-4189762Y-13813181D01*
X-4245780Y-13665476D01*
X-4245781Y-13665475D01*
X-4335516Y-13535471D01*
X-4453762Y-13430715D01*
X-4593634Y-13357303D01*
X-4747014Y-13319500D01*
X-4747015Y-13319500D01*
X-4904985Y-13319500D01*
X-4904986Y-13319500D01*
X-5058365Y-13357303D01*
X-5198237Y-13430715D01*
X-5198238Y-13430716D01*
X-5198240Y-13430717D01*
X-5316483Y-13535470D01*
X-5406220Y-13665477D01*
X-5430910Y-13730580D01*
X-5462237Y-13813181D01*
X-5479221Y-13953063D01*
X-5481278Y-13970000D01*
X-5462237Y-14126818D01*
X-5406220Y-14274523D01*
X-5318450Y-14401680D01*
X-5296567Y-14468035D01*
X-5296500Y-14472120D01*
X-5296500Y-14739751D01*
X-5316185Y-14806790D01*
X-5332819Y-14827432D01*
X-6637498Y-16132111D01*
X-6658136Y-16148743D01*
X-6661276Y-16150761D01*
X-6661282Y-16150766D01*
X-6693127Y-16187517D01*
X-6696131Y-16190744D01*
X-6706486Y-16201099D01*
X-6715256Y-16212815D01*
X-6718025Y-16216250D01*
X-6749878Y-16253010D01*
X-6749882Y-16253017D01*
X-6751434Y-16256415D01*
X-6764958Y-16279208D01*
X-6767194Y-16282195D01*
X-6784184Y-16327750D01*
X-6785879Y-16331841D01*
X-6806081Y-16376077D01*
X-6806083Y-16376083D01*
X-6806612Y-16379764D01*
X-6813170Y-16405460D01*
X-6814475Y-16408959D01*
X-6816420Y-16436172D01*
X-6817942Y-16457455D01*
X-6818416Y-16461865D01*
X-6820500Y-16476349D01*
X-6820500Y-16490994D01*
X-6820657Y-16495414D01*
X-6824126Y-16543910D01*
X-6823334Y-16547550D01*
X-6820500Y-16573908D01*
X-6820500Y-16707877D01*
X-6840185Y-16774916D01*
X-6879222Y-16813304D01*
X-6909843Y-16832264D01*
X-7016041Y-16898019D01*
X-7016042Y-16898020D01*
X-7166762Y-17035418D01*
X-7166764Y-17035421D01*
X-7289673Y-17198179D01*
X-7315885Y-17250820D01*
X-7365274Y-17350008D01*
X-7380582Y-17380750D01*
X-7436397Y-17576917D01*
X-7455215Y-17780000D01*
X-7784785Y-17780000D01*
X-7784785Y-17779999D01*
X-7803602Y-17576917D01*
X-7859417Y-17380752D01*
X-7859422Y-17380739D01*
X-7950327Y-17198178D01*
X-8073237Y-17035418D01*
X-8223958Y-16898019D01*
X-8223960Y-16898017D01*
X-8397357Y-16790655D01*
X-8397364Y-16790651D01*
X-8587541Y-16716977D01*
X-8587541Y-16716976D01*
X-8587544Y-16716976D01*
X-8788024Y-16679500D01*
X-8788026Y-16679500D01*
X-8803500Y-16679500D01*
X-8870539Y-16659815D01*
X-8916294Y-16607011D01*
X-8927500Y-16555500D01*
X-8927500Y-12915982D01*
X-8907815Y-12848943D01*
X-8861127Y-12806187D01*
X-8771760Y-12759283D01*
X-8653517Y-12654530D01*
X-8563780Y-12524523D01*
X-8507762Y-12376818D01*
X-8488722Y-12220000D01*
X-8488722Y-12219999D01*
X-8507762Y-12063181D01*
X-8563780Y-11915476D01*
X-8563781Y-11915475D01*
X-8653516Y-11785471D01*
X-8771762Y-11680715D01*
X-8911634Y-11607303D01*
X-9065014Y-11569500D01*
X-9065015Y-11569500D01*
X-9222985Y-11569500D01*
X-9222986Y-11569500D01*
X-9376365Y-11607303D01*
X-9516237Y-11680715D01*
X-9516238Y-11680716D01*
X-9516240Y-11680717D01*
X-9634483Y-11785470D01*
X-9724220Y-11915477D01*
X-9780237Y-12063182D01*
X-9796003Y-12193028D01*
X-9813639Y-12236941D01*
X-9810944Y-12238413D01*
X-9815192Y-12246192D01*
X-9815194Y-12246195D01*
X-9832184Y-12291750D01*
X-9833879Y-12295841D01*
X-9854081Y-12340077D01*
X-9854083Y-12340083D01*
X-9854612Y-12343764D01*
X-9861170Y-12369460D01*
X-9862475Y-12372959D01*
X-9865768Y-12419027D01*
X-9865942Y-12421455D01*
X-9866416Y-12425865D01*
X-9868500Y-12440349D01*
X-9868500Y-12454994D01*
X-9868657Y-12459414D01*
X-9872126Y-12507910D01*
X-9871334Y-12511550D01*
X-9868500Y-12537908D01*
X-9868500Y-17208088D01*
X-9871333Y-17234443D01*
X-9872126Y-17238089D01*
X-9871707Y-17243948D01*
X-9884391Y-17308068D01*
X-9905274Y-17350008D01*
X-9920582Y-17380750D01*
X-9976397Y-17576917D01*
X-9995215Y-17780000D01*
X-10324785Y-17780000D01*
X-10324785Y-17779999D01*
X-10343602Y-17576917D01*
X-10399417Y-17380752D01*
X-10399422Y-17380739D01*
X-10490327Y-17198178D01*
X-10613237Y-17035418D01*
X-10763957Y-16898020D01*
X-10900778Y-16813304D01*
X-10947413Y-16761276D01*
X-10959500Y-16707877D01*
X-10959500Y-12763908D01*
X-10956666Y-12737550D01*
X-10955874Y-12733910D01*
X-10955874Y-12733905D01*
X-10959342Y-12685418D01*
X-10959500Y-12680994D01*
X-10959500Y-12666349D01*
X-10961583Y-12651861D01*
X-10962055Y-12647463D01*
X-10965524Y-12598964D01*
X-10965525Y-12598956D01*
X-10966834Y-12595448D01*
X-10973384Y-12569786D01*
X-10973916Y-12566085D01*
X-10973917Y-12566082D01*
X-10994117Y-12521848D01*
X-10995810Y-12517760D01*
X-11012803Y-12472199D01*
X-11017055Y-12464414D01*
X-11014378Y-12462952D01*
X-11031997Y-12419027D01*
X-11047763Y-12289180D01*
X-11103780Y-12141476D01*
X-11103781Y-12141475D01*
X-11193516Y-12011471D01*
X-11196072Y-12009207D01*
X-11311760Y-11906717D01*
X-11311759Y-11906717D01*
X-11311762Y-11906715D01*
X-11451634Y-11833303D01*
X-11605014Y-11795500D01*
X-11605015Y-11795500D01*
X-11762985Y-11795500D01*
X-11762986Y-11795500D01*
X-11916365Y-11833303D01*
X-12056237Y-11906715D01*
X-12056238Y-11906716D01*
X-12056240Y-11906717D01*
X-12174483Y-12011470D01*
X-12264220Y-12141477D01*
X-12280562Y-12184568D01*
X-12320237Y-12289181D01*
X-12326864Y-12343764D01*
X-12339278Y-12446000D01*
X-12320237Y-12602818D01*
X-12264220Y-12750523D01*
X-12174483Y-12880530D01*
X-12056240Y-12985283D01*
X-11966872Y-13032187D01*
X-11916662Y-13080770D01*
X-11900500Y-13141982D01*
X-11900500Y-16707877D01*
X-11920185Y-16774916D01*
X-11959222Y-16813304D01*
X-11989843Y-16832264D01*
X-12096041Y-16898019D01*
X-12096042Y-16898020D01*
X-12246762Y-17035418D01*
X-12246764Y-17035421D01*
X-12369673Y-17198179D01*
X-12395885Y-17250820D01*
X-12445274Y-17350008D01*
X-12460582Y-17380750D01*
X-12516397Y-17576917D01*
X-12535215Y-17780000D01*
X-12864785Y-17780000D01*
X-12864785Y-17779999D01*
X-12883602Y-17576917D01*
X-12939417Y-17380752D01*
X-12939422Y-17380739D01*
X-13030327Y-17198178D01*
X-13153237Y-17035418D01*
X-13303957Y-16898020D01*
X-13440778Y-16813304D01*
X-13487413Y-16761276D01*
X-13499500Y-16707877D01*
X-13499500Y-10934498D01*
X-13485873Y-10888090D01*
X-8348126Y-10888090D01*
X-8347142Y-10901856D01*
X-8344658Y-10936580D01*
X-8344500Y-10941004D01*
X-8344500Y-10955650D01*
X-8342416Y-10970135D01*
X-8341943Y-10974533D01*
X-8338475Y-11023041D01*
X-8337170Y-11026537D01*
X-8330613Y-11052230D01*
X-8330083Y-11055918D01*
X-8309875Y-11100162D01*
X-8308195Y-11104220D01*
X-8291194Y-11149805D01*
X-8288961Y-11152786D01*
X-8275428Y-11175595D01*
X-8273880Y-11178987D01*
X-8242016Y-11215758D01*
X-8239263Y-11219174D01*
X-8230486Y-11230901D01*
X-8220140Y-11241246D01*
X-8217130Y-11244478D01*
X-8185280Y-11281236D01*
X-8185278Y-11281237D01*
X-8182147Y-11283249D01*
X-8161500Y-11299885D01*
X-7618817Y-11842569D01*
X-7585334Y-11903890D01*
X-7582500Y-11930248D01*
X-7582500Y-13274016D01*
X-7602185Y-13341055D01*
X-7648873Y-13383812D01*
X-7733931Y-13428455D01*
X-7738240Y-13430717D01*
X-7856483Y-13535470D01*
X-7946220Y-13665477D01*
X-7970910Y-13730580D01*
X-8002237Y-13813181D01*
X-8019221Y-13953063D01*
X-8021278Y-13970000D01*
X-8002237Y-14126818D01*
X-7946220Y-14274523D01*
X-7856483Y-14404530D01*
X-7738240Y-14509283D01*
X-7598365Y-14582696D01*
X-7444985Y-14620500D01*
X-7287014Y-14620500D01*
X-7133634Y-14582696D01*
X-6993762Y-14509284D01*
X-6993760Y-14509283D01*
X-6875517Y-14404530D01*
X-6785780Y-14274523D01*
X-6729763Y-14126818D01*
X-6717276Y-14023982D01*
X-6713997Y-13996973D01*
X-6696361Y-13953063D01*
X-6699057Y-13951592D01*
X-6694807Y-13943808D01*
X-6677810Y-13898237D01*
X-6676116Y-13894147D01*
X-6655916Y-13849918D01*
X-6655915Y-13849913D01*
X-6655383Y-13846213D01*
X-6648832Y-13820546D01*
X-6647526Y-13817045D01*
X-6647525Y-13817039D01*
X-6644055Y-13768536D01*
X-6643582Y-13764139D01*
X-6641500Y-13749653D01*
X-6641500Y-13735004D01*
X-6641342Y-13730580D01*
X-6637873Y-13682090D01*
X-6638667Y-13678443D01*
X-6641500Y-13652088D01*
X-6641500Y-11747912D01*
X-6638666Y-11721557D01*
X-6637873Y-11717910D01*
X-6641342Y-11669407D01*
X-6641500Y-11664983D01*
X-6641500Y-11650358D01*
X-6641501Y-11650341D01*
X-6643582Y-11635855D01*
X-6644054Y-11631464D01*
X-6647525Y-11582960D01*
X-6647526Y-11582953D01*
X-6648834Y-11579447D01*
X-6655383Y-11553788D01*
X-6655916Y-11550082D01*
X-6655915Y-11550082D01*
X-6676114Y-11505853D01*
X-6677807Y-11501766D01*
X-6694804Y-11456199D01*
X-6694809Y-11456189D01*
X-6697048Y-11453199D01*
X-6710567Y-11430413D01*
X-6712119Y-11427013D01*
X-6743969Y-11390255D01*
X-6746744Y-11386811D01*
X-6755514Y-11375097D01*
X-6765877Y-11364733D01*
X-6768882Y-11361505D01*
X-6800720Y-11324764D01*
X-6800720Y-11324763D01*
X-6800727Y-11324758D01*
X-6803864Y-11322742D01*
X-6824496Y-11306114D01*
X-7367181Y-10763430D01*
X-7400666Y-10702107D01*
X-7403500Y-10675749D01*
X-7403500Y-6096000D01*
X-7005278Y-6096000D01*
X-6986237Y-6252818D01*
X-6930220Y-6400523D01*
X-6840483Y-6530530D01*
X-6722240Y-6635283D01*
X-6582365Y-6708696D01*
X-6428985Y-6746500D01*
X-6416249Y-6746500D01*
X-6349210Y-6766185D01*
X-6328568Y-6782819D01*
X-926819Y-12184568D01*
X-893334Y-12245891D01*
X-890500Y-12272249D01*
X-890500Y-16582050D01*
X-910185Y-16649089D01*
X-962989Y-16694844D01*
X-1032147Y-16704788D01*
X-1037284Y-16703939D01*
X-1130411Y-16686531D01*
X-1168024Y-16679500D01*
X-1371976Y-16679500D01*
X-1572456Y-16716976D01*
X-1656150Y-16749399D01*
X-1762635Y-16790651D01*
X-1762642Y-16790655D01*
X-1936039Y-16898017D01*
X-1936041Y-16898019D01*
X-2086762Y-17035418D01*
X-2086764Y-17035421D01*
X-2209673Y-17198179D01*
X-2235885Y-17250820D01*
X-2285274Y-17350008D01*
X-2300582Y-17380750D01*
X-2356397Y-17576917D01*
X-2375215Y-17780000D01*
X-2356397Y-17983083D01*
X-2300582Y-18179250D01*
X-2209673Y-18361821D01*
X-2086764Y-18524579D01*
X-1936041Y-18661981D01*
X-1762637Y-18769348D01*
X-1572456Y-18843024D01*
X-1371976Y-18880500D01*
X-1371974Y-18880500D01*
X-1168026Y-18880500D01*
X-1168024Y-18880500D01*
X-967544Y-18843024D01*
X-777363Y-18769348D01*
X-703141Y-18723392D01*
X-603960Y-18661982D01*
X-603958Y-18661980D01*
X-453237Y-18524581D01*
X-330327Y-18361821D01*
X-239422Y-18179260D01*
X-239417Y-18179247D01*
X-183602Y-17983082D01*
X-164785Y-17780000D01*
X-164785Y-17779999D01*
X-183602Y-17576917D01*
X-183603Y-17576914D01*
X-211932Y-17477350D01*
X-211345Y-17407483D01*
X-180347Y-17355735D01*
X-132498Y-17307886D01*
X-111857Y-17291252D01*
X-108720Y-17289236D01*
X-76878Y-17252489D01*
X-73873Y-17249261D01*
X-63513Y-17238901D01*
X-54738Y-17227179D01*
X-51962Y-17223734D01*
X-49956Y-17221420D01*
X-20120Y-17186987D01*
X-18566Y-17183585D01*
X-5039Y-17160788D01*
X-2806Y-17157805D01*
X14197Y-17112214D01*
X15877Y-17108162D01*
X36083Y-17063918D01*
X36613Y-17060226D01*
X43172Y-17034533D01*
X43934Y-17032490D01*
X44475Y-17031040D01*
X47946Y-16982500D01*
X48412Y-16978163D01*
X50500Y-16963648D01*
X50500Y-16949015D01*
X50658Y-16944590D01*
X54127Y-16896090D01*
X54127Y-16896088D01*
X53333Y-16892436D01*
X50500Y-16866082D01*
X50500Y-12089908D01*
X53334Y-12063550D01*
X54126Y-12059910D01*
X50657Y-12011414D01*
X50500Y-12006994D01*
X50500Y-11992349D01*
X48416Y-11977865D01*
X47942Y-11973455D01*
X44475Y-11924963D01*
X44475Y-11924959D01*
X43171Y-11921464D01*
X36612Y-11895764D01*
X36083Y-11892082D01*
X15882Y-11847848D01*
X14187Y-11843757D01*
X-2808Y-11798192D01*
X-5045Y-11795204D01*
X-18565Y-11772417D01*
X-20119Y-11769013D01*
X-51977Y-11732247D01*
X-54742Y-11728815D01*
X-58945Y-11723200D01*
X-63516Y-11717095D01*
X-73862Y-11706750D01*
X-76869Y-11703520D01*
X-108720Y-11666764D01*
X-108720Y-11666763D01*
X-108726Y-11666759D01*
X-111869Y-11664739D01*
X-132498Y-11648113D01*
X-5665861Y-6114750D01*
X-5699346Y-6053427D01*
X-5701276Y-6042016D01*
X-5713763Y-5939180D01*
X-5769780Y-5791476D01*
X-5769781Y-5791475D01*
X-5859516Y-5661471D01*
X-5977762Y-5556715D01*
X-6117634Y-5483303D01*
X-6271014Y-5445500D01*
X-6271015Y-5445500D01*
X-6428985Y-5445500D01*
X-6428986Y-5445500D01*
X-6582365Y-5483303D01*
X-6722237Y-5556715D01*
X-6722238Y-5556716D01*
X-6722240Y-5556717D01*
X-6840483Y-5661470D01*
X-6930220Y-5791477D01*
X-6949380Y-5841999D01*
X-6986236Y-5939180D01*
X-6986237Y-5939182D01*
X-7005278Y-6096000D01*
X-7403500Y-6096000D01*
X-7403500Y-3802249D01*
X-7383815Y-3735210D01*
X-7367181Y-3714568D01*
X-6159432Y-2506819D01*
X-6098109Y-2473334D01*
X-6071751Y-2470500D01*
X-5424500Y-2470500D01*
X-5357461Y-2490185D01*
X-5311706Y-2542989D01*
X-5300500Y-2594500D01*
X-5300500Y-3099674D01*
X-5285966Y-3172740D01*
X-5230601Y-3255601D01*
X-5147740Y-3310966D01*
X-5074677Y-3325499D01*
X-5074676Y-3325500D01*
X-3449500Y-3325500D01*
X-3382461Y-3345185D01*
X-3336706Y-3397989D01*
X-3325500Y-3449500D01*
X-3325500Y-3655500D01*
X-3345185Y-3722539D01*
X-3397989Y-3768294D01*
X-3449500Y-3779500D01*
X-4167704Y-3779500D01*
X-4225330Y-3765296D01*
X-4339634Y-3705303D01*
X-4493014Y-3667500D01*
X-4493015Y-3667500D01*
X-4650985Y-3667500D01*
X-4650986Y-3667500D01*
X-4804365Y-3705303D01*
X-4944237Y-3778715D01*
X-4944238Y-3778716D01*
X-4944240Y-3778717D01*
X-5062483Y-3883470D01*
X-5152220Y-4013477D01*
X-5177027Y-4078887D01*
X-5208237Y-4161181D01*
X-5220100Y-4258887D01*
X-5227278Y-4318000D01*
X-5208237Y-4474818D01*
X-5152220Y-4622523D01*
X-5062483Y-4752530D01*
X-4944240Y-4857283D01*
X-4804365Y-4930696D01*
X-4650985Y-4968500D01*
X-4493014Y-4968500D01*
X-4339634Y-4930696D01*
X-4199762Y-4857285D01*
X-4142995Y-4806994D01*
X-4081517Y-4752530D01*
X-4081515Y-4752527D01*
X-4080563Y-4751684D01*
X-4017330Y-4721963D01*
X-3998336Y-4720500D01*
X-3449500Y-4720500D01*
X-3382461Y-4740185D01*
X-3336706Y-4792989D01*
X-3325500Y-4844500D01*
X-3325500Y-5074676D01*
X-3311145Y-5146841D01*
X-3317372Y-5216433D01*
X-3350534Y-5263847D01*
X-3391666Y-5300287D01*
X-3427070Y-5351579D01*
X-3481353Y-5395569D01*
X-3550801Y-5403229D01*
X-3611346Y-5373956D01*
X-3691762Y-5302714D01*
X-3831634Y-5229303D01*
X-3985014Y-5191500D01*
X-3985015Y-5191500D01*
X-4142985Y-5191500D01*
X-4142986Y-5191500D01*
X-4296365Y-5229303D01*
X-4436237Y-5302715D01*
X-4436238Y-5302716D01*
X-4436240Y-5302717D01*
X-4554483Y-5407470D01*
X-4644220Y-5537477D01*
X-4678992Y-5629164D01*
X-4700237Y-5685181D01*
X-4717603Y-5828209D01*
X-4719278Y-5842000D01*
X-4700237Y-5998818D01*
X-4644220Y-6146523D01*
X-4554483Y-6276530D01*
X-4436240Y-6381283D01*
X-4296365Y-6454696D01*
X-4142985Y-6492500D01*
X-4130249Y-6492500D01*
X-4063210Y-6512185D01*
X-4042572Y-6528814D01*
X-3729064Y-6842321D01*
X-3712433Y-6862962D01*
X-3710419Y-6866097D01*
X-3673665Y-6897944D01*
X-3670430Y-6900955D01*
X-3660084Y-6911303D01*
X-3648363Y-6920076D01*
X-3644940Y-6922834D01*
X-3608170Y-6954697D01*
X-3604771Y-6956248D01*
X-3581963Y-6969782D01*
X-3578988Y-6972010D01*
X-3533418Y-6989006D01*
X-3529351Y-6990691D01*
X-3485101Y-7010900D01*
X-3481413Y-7011430D01*
X-3455720Y-7017987D01*
X-3452224Y-7019292D01*
X-3403716Y-7022760D01*
X-3399325Y-7023232D01*
X-3393579Y-7024058D01*
X-3384834Y-7025317D01*
X-3384831Y-7025317D01*
X-3370189Y-7025317D01*
X-3365768Y-7025474D01*
X-3317273Y-7028943D01*
X-3313631Y-7028150D01*
X-3287275Y-7025317D01*
X-2328725Y-7025317D01*
X-2302368Y-7028150D01*
X-2298727Y-7028943D01*
X-2250231Y-7025474D01*
X-2245811Y-7025317D01*
X-2231166Y-7025317D01*
X-2223722Y-7024245D01*
X-2216670Y-7023231D01*
X-2212285Y-7022760D01*
X-2163776Y-7019292D01*
X-2160277Y-7017987D01*
X-2134584Y-7011429D01*
X-2130899Y-7010900D01*
X-2130896Y-7010898D01*
X-2130894Y-7010898D01*
X-2086658Y-6990696D01*
X-2082569Y-6989002D01*
X-2037012Y-6972011D01*
X-2034025Y-6969775D01*
X-2011232Y-6956251D01*
X-2007834Y-6954699D01*
X-2007827Y-6954695D01*
X-1971067Y-6922842D01*
X-1967632Y-6920073D01*
X-1955916Y-6911303D01*
X-1945561Y-6900948D01*
X-1942334Y-6897944D01*
X-1905583Y-6866099D01*
X-1905578Y-6866093D01*
X-1903560Y-6862953D01*
X-1886928Y-6842315D01*
X-1425896Y-6381283D01*
X-1082179Y-6037567D01*
X-1020858Y-6004083D01*
X-951166Y-6009067D01*
X-895233Y-6050939D01*
X-870816Y-6116403D01*
X-870500Y-6125249D01*
X-870500Y-7067538D01*
X-890185Y-7134577D01*
X-906819Y-7155219D01*
X-1600781Y-7849181D01*
X-1662104Y-7882666D01*
X-1688462Y-7885500D01*
X-1701199Y-7885500D01*
X-1854578Y-7923303D01*
X-1994450Y-7996715D01*
X-1994451Y-7996716D01*
X-1994453Y-7996717D01*
X-2112696Y-8101470D01*
X-2202433Y-8231477D01*
X-2221524Y-8281816D01*
X-2258450Y-8379181D01*
X-2265805Y-8439760D01*
X-2277491Y-8536000D01*
X-2258450Y-8692818D01*
X-2202433Y-8840523D01*
X-2112696Y-8970530D01*
X-1994453Y-9075283D01*
X-1854578Y-9148696D01*
X-1701198Y-9186500D01*
X-1543227Y-9186500D01*
X-1389847Y-9148696D01*
X-1249975Y-9075284D01*
X-1249973Y-9075283D01*
X-1131730Y-8970530D01*
X-1041993Y-8840523D01*
X-1006878Y-8747932D01*
X-985976Y-8692819D01*
X-973489Y-8589982D01*
X-945867Y-8525804D01*
X-938074Y-8517248D01*
X-282181Y-7861355D01*
X-220858Y-7827870D01*
X-151166Y-7832854D01*
X-95233Y-7874726D01*
X-70816Y-7940190D01*
X-70500Y-7949036D01*
X-70500Y-8281816D01*
X-90185Y-8348855D01*
X-142989Y-8394610D01*
X-164825Y-8402213D01*
X-317161Y-8439760D01*
X-457032Y-8513171D01*
X-457033Y-8513172D01*
X-457035Y-8513173D01*
X-575278Y-8617926D01*
X-665015Y-8747933D01*
X-699732Y-8839475D01*
X-721032Y-8895637D01*
X-730125Y-8970530D01*
X-740073Y-9052456D01*
X-721032Y-9209274D01*
X-665015Y-9356979D01*
X-575278Y-9486986D01*
X-457035Y-9591739D01*
X-342219Y-9652000D01*
X-317160Y-9665152D01*
X-163780Y-9702956D01*
X-142885Y-9702956D01*
X-75846Y-9722641D01*
X-30091Y-9775445D01*
X-19789Y-9812010D01*
X-19304Y-9815998D01*
X-19305Y-9816000D01*
X-264Y-9972818D01*
X55753Y-10120523D01*
X145490Y-10250530D01*
X263733Y-10355283D01*
X263735Y-10355284D01*
X403607Y-10428696D01*
X556987Y-10466500D01*
X556988Y-10466500D01*
X714958Y-10466500D01*
X868338Y-10428696D01*
X902022Y-10411017D01*
X1008213Y-10355283D01*
X1126456Y-10250530D01*
X1126456Y-10250528D01*
X1132070Y-10245556D01*
X1133398Y-10247055D01*
X1183885Y-10215385D01*
X1253751Y-10216149D01*
X1312112Y-10254564D01*
X1333458Y-10290763D01*
X1343780Y-10317980D01*
X1343781Y-10317982D01*
X1359345Y-10340530D01*
X1433517Y-10447987D01*
X1551760Y-10552740D01*
X1551762Y-10552741D01*
X1691634Y-10626153D01*
X1845014Y-10663957D01*
X1845015Y-10663957D01*
X2002985Y-10663957D01*
X2156365Y-10626153D01*
X2228186Y-10588457D01*
X2296694Y-10574732D01*
X2361747Y-10600224D01*
X2402692Y-10656839D01*
X2408908Y-10683306D01*
X2411763Y-10706819D01*
X2467780Y-10854523D01*
X2557517Y-10984530D01*
X2675760Y-11089283D01*
X2675762Y-11089284D01*
X2815634Y-11162696D01*
X2969014Y-11200500D01*
X2969015Y-11200500D01*
X3126985Y-11200500D01*
X3280365Y-11162696D01*
X3304928Y-11149804D01*
X3420240Y-11089283D01*
X3538483Y-10984530D01*
X3628220Y-10854523D01*
X3684237Y-10706818D01*
X3703278Y-10550000D01*
X3700663Y-10528459D01*
X3684237Y-10393181D01*
X3652222Y-10308766D01*
X3628220Y-10245477D01*
X3538483Y-10115470D01*
X3420240Y-10010717D01*
X3413236Y-10007041D01*
X3330873Y-9963812D01*
X3280661Y-9915226D01*
X3264500Y-9854016D01*
X3264500Y-5254897D01*
X3284185Y-5187858D01*
X3285398Y-5186006D01*
X3292565Y-5175278D01*
X3310966Y-5147740D01*
X3325500Y-5074674D01*
X3325500Y-3449500D01*
X3345185Y-3382461D01*
X3397989Y-3336706D01*
X3449500Y-3325500D01*
X4058751Y-3325500D01*
X4125790Y-3345185D01*
X4146432Y-3361819D01*
X4827181Y-4042568D01*
X4860666Y-4103891D01*
X4863500Y-4130249D01*
X4863500Y-9913750D01*
X4843815Y-9980789D01*
X4827181Y-10001431D01*
X4593432Y-10235181D01*
X4532109Y-10268666D01*
X4505751Y-10271500D01*
X4493014Y-10271500D01*
X4339634Y-10309303D01*
X4199762Y-10382715D01*
X4163980Y-10414415D01*
X4105188Y-10466500D01*
X4081516Y-10487471D01*
X3991781Y-10617475D01*
X3991780Y-10617476D01*
X3935762Y-10765181D01*
X3916722Y-10921999D01*
X3916722Y-10922000D01*
X3935762Y-11078818D01*
X3973752Y-11178987D01*
X3991780Y-11226523D01*
X4081517Y-11356530D01*
X4199760Y-11461283D01*
X4199762Y-11461284D01*
X4339634Y-11534696D01*
X4493014Y-11572500D01*
X4493015Y-11572500D01*
X4650985Y-11572500D01*
X4804365Y-11534696D01*
X4859320Y-11505853D01*
X4944240Y-11461283D01*
X5062483Y-11356530D01*
X5152220Y-11226523D01*
X5208237Y-11078818D01*
X5220722Y-10975982D01*
X5248343Y-10911806D01*
X5256126Y-10903260D01*
X5545480Y-10613906D01*
X5606802Y-10580422D01*
X5676494Y-10585406D01*
X5732427Y-10627278D01*
X5756844Y-10692742D01*
X5757160Y-10701588D01*
X5757160Y-13275758D01*
X5754327Y-13302113D01*
X5753533Y-13305760D01*
X5756058Y-13341055D01*
X5756905Y-13352902D01*
X5757002Y-13354250D01*
X5757160Y-13358674D01*
X5757160Y-13373323D01*
X5759242Y-13387809D01*
X5759715Y-13392206D01*
X5763185Y-13440709D01*
X5763186Y-13440715D01*
X5764492Y-13444216D01*
X5771043Y-13469883D01*
X5771575Y-13473583D01*
X5771576Y-13473588D01*
X5791776Y-13517817D01*
X5793470Y-13521907D01*
X5810466Y-13567477D01*
X5812701Y-13570462D01*
X5826226Y-13593255D01*
X5827779Y-13596655D01*
X5827779Y-13596656D01*
X5859629Y-13633414D01*
X5862405Y-13636858D01*
X5871171Y-13648567D01*
X5871174Y-13648571D01*
X5881526Y-13658923D01*
X5884522Y-13662140D01*
X5898649Y-13678443D01*
X5916378Y-13698904D01*
X5916382Y-13698908D01*
X5919518Y-13700923D01*
X5940161Y-13717558D01*
X6173851Y-13951248D01*
X6207336Y-14012571D01*
X6209266Y-14023982D01*
X6216641Y-14084715D01*
X6221753Y-14126818D01*
X6277770Y-14274523D01*
X6367507Y-14404530D01*
X6485750Y-14509283D01*
X6485752Y-14509284D01*
X6625624Y-14582696D01*
X6779004Y-14620500D01*
X6779005Y-14620500D01*
X6936975Y-14620500D01*
X7090355Y-14582696D01*
X7161185Y-14545521D01*
X7230230Y-14509283D01*
X7348473Y-14404530D01*
X7438210Y-14274523D01*
X7494227Y-14126818D01*
X7513268Y-13970000D01*
X7511212Y-13953063D01*
X7494227Y-13813181D01*
X7462900Y-13730580D01*
X7438210Y-13665477D01*
X7348473Y-13535470D01*
X7230230Y-13430717D01*
X7230228Y-13430716D01*
X7230227Y-13430715D01*
X7090355Y-13357303D01*
X6936976Y-13319500D01*
X6936975Y-13319500D01*
X6924239Y-13319500D01*
X6857200Y-13299815D01*
X6836558Y-13283181D01*
X6734479Y-13181102D01*
X6700994Y-13119779D01*
X6698160Y-13093421D01*
X6698160Y-10901856D01*
X6717845Y-10834817D01*
X6770649Y-10789062D01*
X6839807Y-10779118D01*
X6851828Y-10781457D01*
X6969660Y-10810500D01*
X7127630Y-10810500D01*
X7281010Y-10772696D01*
X7420885Y-10699283D01*
X7539128Y-10594530D01*
X7628865Y-10464523D01*
X7684882Y-10316818D01*
X7703923Y-10160000D01*
X7702153Y-10145418D01*
X7684882Y-10003181D01*
X7659898Y-9937304D01*
X7628865Y-9855477D01*
X7555495Y-9749182D01*
X7541095Y-9728319D01*
X7519212Y-9661964D01*
X7519145Y-9657879D01*
X7519145Y377443D01*
X7521978Y403798D01*
X7522771Y407445D01*
X7519303Y455935D01*
X7519145Y460359D01*
X7519145Y475005D01*
X7517061Y489490D01*
X7516587Y493900D01*
X7516475Y495464D01*
X7513120Y542396D01*
X7511815Y545892D01*
X7505258Y571585D01*
X7504728Y575273D01*
X7484520Y619517D01*
X7482840Y623575D01*
X7465839Y669160D01*
X7462739Y677473D01*
X7463941Y677921D01*
X7450995Y737397D01*
X7475402Y802865D01*
X7531330Y844745D01*
X7601021Y849739D01*
X7662349Y816263D01*
X7662361Y816250D01*
X8383181Y95431D01*
X8416666Y34108D01*
X8419500Y7750D01*
X8419500Y-9464016D01*
X8399815Y-9531055D01*
X8353127Y-9573812D01*
X8263761Y-9620716D01*
X8145516Y-9725471D01*
X8055781Y-9855475D01*
X8055780Y-9855476D01*
X7999762Y-10003181D01*
X7980722Y-10159999D01*
X7980722Y-10160000D01*
X7999762Y-10316818D01*
X8055780Y-10464523D01*
X8145517Y-10594530D01*
X8263760Y-10699283D01*
X8263762Y-10699284D01*
X8403634Y-10772696D01*
X8557014Y-10810500D01*
X8557015Y-10810500D01*
X8714985Y-10810500D01*
X8868365Y-10772696D01*
X9008240Y-10699283D01*
X9126483Y-10594530D01*
X9209450Y-10474330D01*
X9263733Y-10430341D01*
X9333181Y-10422681D01*
X9395746Y-10453784D01*
X9431564Y-10513775D01*
X9435500Y-10544771D01*
X9435500Y-16517750D01*
X9415815Y-16584789D01*
X9399181Y-16605432D01*
X9318080Y-16686532D01*
X9256756Y-16720016D01*
X9196471Y-16718118D01*
X9192463Y-16716978D01*
X9192459Y-16716977D01*
X9192456Y-16716976D01*
X8991976Y-16679500D01*
X8788024Y-16679500D01*
X8587544Y-16716976D01*
X8587541Y-16716976D01*
X8587541Y-16716977D01*
X8397364Y-16790651D01*
X8397357Y-16790655D01*
X8275095Y-16866356D01*
X8207734Y-16884911D01*
X8141035Y-16864103D01*
X8096174Y-16810538D01*
X8087394Y-16741222D01*
X8117483Y-16678163D01*
X8122119Y-16673266D01*
X8161500Y-16633885D01*
X8182147Y-16617249D01*
X8185278Y-16615237D01*
X8185277Y-16615237D01*
X8185280Y-16615236D01*
X8217130Y-16578478D01*
X8220140Y-16575246D01*
X8221478Y-16573908D01*
X8230486Y-16564901D01*
X8239264Y-16553173D01*
X8242017Y-16549757D01*
X8273880Y-16512987D01*
X8275431Y-16509588D01*
X8288965Y-16486781D01*
X8289029Y-16486694D01*
X8291193Y-16483805D01*
X8308189Y-16438235D01*
X8309874Y-16434168D01*
X8330083Y-16389918D01*
X8330613Y-16386230D01*
X8337170Y-16360537D01*
X8338475Y-16357041D01*
X8341943Y-16308533D01*
X8342416Y-16304135D01*
X8344500Y-16289650D01*
X8344500Y-16275004D01*
X8344658Y-16270580D01*
X8345915Y-16253013D01*
X8348126Y-16222090D01*
X8347333Y-16218443D01*
X8344500Y-16192088D01*
X8344500Y-15742120D01*
X8364185Y-15675081D01*
X8366450Y-15671680D01*
X8379072Y-15653394D01*
X8454220Y-15544523D01*
X8510237Y-15396818D01*
X8529278Y-15240000D01*
X8527756Y-15227460D01*
X8510237Y-15083181D01*
X8485340Y-15017535D01*
X8454220Y-14935477D01*
X8364483Y-14805470D01*
X8246240Y-14700717D01*
X8246238Y-14700716D01*
X8246237Y-14700715D01*
X8106365Y-14627303D01*
X7952986Y-14589500D01*
X7952985Y-14589500D01*
X7795015Y-14589500D01*
X7795014Y-14589500D01*
X7641634Y-14627303D01*
X7501762Y-14700715D01*
X7383516Y-14805471D01*
X7293781Y-14935475D01*
X7293780Y-14935476D01*
X7237762Y-15083181D01*
X7218722Y-15239999D01*
X7218722Y-15240000D01*
X7237762Y-15396818D01*
X7273871Y-15492028D01*
X7293780Y-15544523D01*
X7368928Y-15653394D01*
X7381550Y-15671680D01*
X7403433Y-15738035D01*
X7403500Y-15742120D01*
X7403500Y-16009750D01*
X7383815Y-16076789D01*
X7367181Y-16097431D01*
X6778080Y-16686531D01*
X6716757Y-16720016D01*
X6656471Y-16718118D01*
X6652463Y-16716978D01*
X6652459Y-16716977D01*
X6652456Y-16716976D01*
X6451976Y-16679500D01*
X6248024Y-16679500D01*
X6047544Y-16716976D01*
X6047541Y-16716976D01*
X6047541Y-16716977D01*
X5857364Y-16790651D01*
X5857357Y-16790655D01*
X5683960Y-16898017D01*
X5683958Y-16898019D01*
X5533237Y-17035418D01*
X5410327Y-17198178D01*
X5323182Y-17373188D01*
X5275679Y-17424425D01*
X5208016Y-17441846D01*
X5141676Y-17419920D01*
X5097721Y-17365609D01*
X5092407Y-17350008D01*
X5083434Y-17316518D01*
X5083429Y-17316507D01*
X4983600Y-17102422D01*
X4983599Y-17102420D01*
X4848113Y-16908926D01*
X4848108Y-16908920D01*
X4681082Y-16741894D01*
X4487578Y-16606399D01*
X4273492Y-16506570D01*
X4273486Y-16506567D01*
X4060000Y-16449364D01*
X4060000Y-17344498D01*
X3952315Y-17295320D01*
X3845763Y-17280000D01*
X3774237Y-17280000D01*
X3667685Y-17295320D01*
X3560000Y-17344498D01*
X3560000Y-16449364D01*
X3559999Y-16449364D01*
X3346513Y-16506567D01*
X3346507Y-16506570D01*
X3132422Y-16606399D01*
X3132420Y-16606400D01*
X2938926Y-16741886D01*
X2938920Y-16741891D01*
X2771891Y-16908920D01*
X2771886Y-16908926D01*
X2636400Y-17102420D01*
X2636399Y-17102422D01*
X2536570Y-17316507D01*
X2536568Y-17316511D01*
X2527592Y-17350011D01*
X2491226Y-17409671D01*
X2428379Y-17440199D01*
X2359003Y-17431904D01*
X2305126Y-17387418D01*
X2296817Y-17373188D01*
X2235885Y-17250820D01*
X2209673Y-17198179D01*
X2086764Y-17035421D01*
X2086762Y-17035418D01*
X1936042Y-16898020D01*
X1936041Y-16898019D01*
X1829843Y-16832264D01*
X1799222Y-16813304D01*
X1752587Y-16761276D01*
X1740500Y-16707877D01*
X1740500Y-15632245D01*
X1760185Y-15565206D01*
X1776819Y-15544564D01*
X2010564Y-15310819D01*
X2071887Y-15277334D01*
X2098245Y-15274500D01*
X2110981Y-15274500D01*
X2264361Y-15236696D01*
X2404236Y-15163283D01*
X2522479Y-15058530D01*
X2612216Y-14928523D01*
X2668233Y-14780818D01*
X2687274Y-14624000D01*
X2668233Y-14467182D01*
X2668232Y-14467180D01*
X2644472Y-14404530D01*
X2612216Y-14319477D01*
X2522479Y-14189470D01*
X2404236Y-14084717D01*
X2404234Y-14084716D01*
X2404233Y-14084715D01*
X2264361Y-14011303D01*
X2110982Y-13973500D01*
X2110981Y-13973500D01*
X1953011Y-13973500D01*
X1953010Y-13973500D01*
X1799630Y-14011303D01*
X1659758Y-14084715D01*
X1541512Y-14189471D01*
X1451777Y-14319475D01*
X1451776Y-14319476D01*
X1395759Y-14467180D01*
X1383272Y-14570016D01*
X1355650Y-14634194D01*
X1347857Y-14642750D01*
X982498Y-15008109D01*
X961869Y-15024735D01*
X958726Y-15026755D01*
X958716Y-15026763D01*
X926876Y-15063506D01*
X923867Y-15066739D01*
X913514Y-15077093D01*
X913511Y-15077097D01*
X904741Y-15088811D01*
X901970Y-15092250D01*
X870119Y-15129009D01*
X870116Y-15129014D01*
X868562Y-15132418D01*
X855051Y-15155191D01*
X852807Y-15158188D01*
X852803Y-15158195D01*
X835810Y-15203756D01*
X834117Y-15207844D01*
X813917Y-15252078D01*
X813916Y-15252081D01*
X813384Y-15255782D01*
X806834Y-15281444D01*
X805525Y-15284952D01*
X805524Y-15284960D01*
X802055Y-15333459D01*
X801583Y-15337857D01*
X799500Y-15352345D01*
X799500Y-15366990D01*
X799342Y-15371414D01*
X796354Y-15413200D01*
X795874Y-15419906D01*
X796666Y-15423546D01*
X799500Y-15449904D01*
X799500Y-16707877D01*
X779815Y-16774916D01*
X740778Y-16813304D01*
X603957Y-16898020D01*
X453237Y-17035418D01*
X330327Y-17198178D01*
X239422Y-17380739D01*
X239417Y-17380752D01*
X183602Y-17576917D01*
X164785Y-17779999D01*
X164785Y-17780000D01*
X183602Y-17983082D01*
X239417Y-18179247D01*
X239422Y-18179260D01*
X330327Y-18361821D01*
X453237Y-18524581D01*
X603958Y-18661980D01*
X603960Y-18661982D01*
X703141Y-18723392D01*
X777363Y-18769348D01*
X967544Y-18843024D01*
X1168024Y-18880500D01*
X1168026Y-18880500D01*
X1371974Y-18880500D01*
X1371976Y-18880500D01*
X1572456Y-18843024D01*
X1762637Y-18769348D01*
X1936041Y-18661981D01*
X2086764Y-18524579D01*
X2209673Y-18361821D01*
X2271598Y-18237456D01*
X2296817Y-18186812D01*
X2344319Y-18135575D01*
X2411982Y-18118153D01*
X2478323Y-18140078D01*
X2522278Y-18194389D01*
X2527592Y-18209989D01*
X2536567Y-18243485D01*
X2536570Y-18243492D01*
X2636399Y-18457578D01*
X2771894Y-18651082D01*
X2938917Y-18818105D01*
X3132421Y-18953600D01*
X3346507Y-19053429D01*
X3346516Y-19053433D01*
X3560000Y-19110634D01*
X3560000Y-18215501D01*
X3667685Y-18264680D01*
X3774237Y-18280000D01*
X3845763Y-18280000D01*
X3952315Y-18264680D01*
X4060000Y-18215501D01*
X4060000Y-19110633D01*
X4273483Y-19053433D01*
X4273492Y-19053429D01*
X4487578Y-18953600D01*
X4681082Y-18818105D01*
X4848105Y-18651082D01*
X4983600Y-18457578D01*
X5083429Y-18243492D01*
X5083431Y-18243489D01*
X5092406Y-18209992D01*
X5128770Y-18150331D01*
X5191616Y-18119800D01*
X5260992Y-18128094D01*
X5314871Y-18172578D01*
X5323182Y-18186811D01*
X5410327Y-18361821D01*
X5533237Y-18524581D01*
X5683958Y-18661980D01*
X5683960Y-18661982D01*
X5783141Y-18723392D01*
X5857363Y-18769348D01*
X6047544Y-18843024D01*
X6248024Y-18880500D01*
X6248026Y-18880500D01*
X6451974Y-18880500D01*
X6451976Y-18880500D01*
X6652456Y-18843024D01*
X6842637Y-18769348D01*
X7016041Y-18661981D01*
X7166764Y-18524579D01*
X7289673Y-18361821D01*
X7380582Y-18179250D01*
X7436397Y-17983083D01*
X7455215Y-17780000D01*
X7436397Y-17576917D01*
X7408067Y-17477348D01*
X7408653Y-17407481D01*
X7439650Y-17355735D01*
X7776268Y-17019117D01*
X7837589Y-16985634D01*
X7907281Y-16990618D01*
X7963214Y-17032490D01*
X7987631Y-17097954D01*
X7972779Y-17166227D01*
X7962903Y-17181524D01*
X7950328Y-17198176D01*
X7859422Y-17380739D01*
X7859417Y-17380752D01*
X7803602Y-17576917D01*
X7784785Y-17779999D01*
X7784785Y-17780000D01*
X7803602Y-17983082D01*
X7859417Y-18179247D01*
X7859422Y-18179260D01*
X7950327Y-18361821D01*
X8073237Y-18524581D01*
X8223958Y-18661980D01*
X8223960Y-18661982D01*
X8323141Y-18723392D01*
X8397363Y-18769348D01*
X8587544Y-18843024D01*
X8788024Y-18880500D01*
X8788026Y-18880500D01*
X8991974Y-18880500D01*
X8991976Y-18880500D01*
X9192456Y-18843024D01*
X9382637Y-18769348D01*
X9556041Y-18661981D01*
X9706764Y-18524579D01*
X9829673Y-18361821D01*
X9920582Y-18179250D01*
X9976397Y-17983083D01*
X9995215Y-17780000D01*
X9976397Y-17576917D01*
X9948067Y-17477348D01*
X9948653Y-17407481D01*
X9979650Y-17355735D01*
X10193500Y-17141885D01*
X10214147Y-17125249D01*
X10217278Y-17123237D01*
X10217277Y-17123237D01*
X10217280Y-17123236D01*
X10249130Y-17086478D01*
X10252140Y-17083246D01*
X10262486Y-17072901D01*
X10271263Y-17061174D01*
X10274016Y-17057758D01*
X10305880Y-17020987D01*
X10307428Y-17017595D01*
X10320961Y-16994786D01*
X10323194Y-16991805D01*
X10340195Y-16946220D01*
X10341875Y-16942162D01*
X10362083Y-16897918D01*
X10362613Y-16894230D01*
X10369170Y-16868537D01*
X10370475Y-16865041D01*
X10373943Y-16816533D01*
X10374416Y-16812135D01*
X10376500Y-16797650D01*
X10376500Y-16783004D01*
X10376658Y-16778580D01*
X10380126Y-16730090D01*
X10379333Y-16726443D01*
X10376500Y-16700088D01*
X10376500Y5778082D01*
X10379333Y5804436D01*
X10380127Y5808088D01*
X10376658Y5856590D01*
X10376500Y5861015D01*
X10376500Y5875646D01*
X10376500Y5875648D01*
X10374412Y5890163D01*
X10373946Y5894500D01*
X10370475Y5943040D01*
X10369171Y5946533D01*
X10362613Y5972226D01*
X10362083Y5975918D01*
X10341872Y6020171D01*
X10340201Y6024204D01*
X10323194Y6069805D01*
X10320960Y6072788D01*
X10307425Y6095601D01*
X10305880Y6098987D01*
X10274027Y6135745D01*
X10271260Y6139180D01*
X10270517Y6140173D01*
X10262487Y6150901D01*
X10252132Y6161254D01*
X10249124Y6164485D01*
X10217280Y6201236D01*
X10214143Y6203251D01*
X10193503Y6219883D01*
X9828135Y6585250D01*
X9794652Y6646571D01*
X9792723Y6657972D01*
X9780237Y6760818D01*
X9724220Y6908523D01*
X9634483Y7038530D01*
X9516240Y7143283D01*
X9376365Y7216696D01*
X9326323Y7229030D01*
X9222986Y7254500D01*
X9222985Y7254500D01*
X9065015Y7254500D01*
X9065014Y7254500D01*
X8911634Y7216696D01*
X8840873Y7179557D01*
X8771760Y7143283D01*
X8653517Y7038530D01*
X8563781Y6908524D01*
X8563780Y6908523D01*
X8507762Y6760818D01*
X8488722Y6604000D01*
X8488722Y6603999D01*
X8507762Y6447181D01*
X8563780Y6299476D01*
X8563781Y6299475D01*
X8649552Y6175214D01*
X8653517Y6169470D01*
X8656348Y6166962D01*
X8771762Y6064715D01*
X8911634Y5991303D01*
X9065014Y5953500D01*
X9065015Y5953500D01*
X9077751Y5953500D01*
X9144790Y5933815D01*
X9165432Y5917181D01*
X9399181Y5683431D01*
X9432666Y5622108D01*
X9435500Y5595750D01*
X9435500Y675388D01*
X9415815Y608349D01*
X9363011Y562594D01*
X9293853Y552650D01*
X9230297Y581675D01*
X9217787Y594185D01*
X9201280Y613236D01*
X9198143Y615251D01*
X9177503Y631883D01*
X6721885Y3087500D01*
X6705249Y3108147D01*
X6705246Y3108151D01*
X6703236Y3111280D01*
X6666478Y3143130D01*
X6663246Y3146140D01*
X6652901Y3156486D01*
X6641174Y3165263D01*
X6637758Y3168016D01*
X6600987Y3199880D01*
X6597595Y3201428D01*
X6574786Y3214961D01*
X6571805Y3217194D01*
X6526220Y3234195D01*
X6522162Y3235875D01*
X6477918Y3256083D01*
X6474230Y3256613D01*
X6448537Y3263170D01*
X6445041Y3264475D01*
X6396533Y3267943D01*
X6392142Y3268415D01*
X6385303Y3269399D01*
X6377651Y3270500D01*
X6377648Y3270500D01*
X6363006Y3270500D01*
X6358585Y3270657D01*
X6310090Y3274126D01*
X6306448Y3273333D01*
X6280092Y3270500D01*
X5245918Y3270500D01*
X5178879Y3290185D01*
X5177029Y3291397D01*
X5147740Y3310966D01*
X5074676Y3325500D01*
X5074674Y3325500D01*
X3449500Y3325500D01*
X3382461Y3345185D01*
X3336706Y3397989D01*
X3325500Y3449500D01*
X3325500Y5074676D01*
X3325499Y5074678D01*
X3310967Y5147735D01*
X3310966Y5147735D01*
X3310966Y5147740D01*
X3291398Y5177025D01*
X3270520Y5243700D01*
X3270500Y5245915D01*
X3270500Y6057166D01*
X3290185Y6124205D01*
X3336874Y6166962D01*
X3420237Y6210714D01*
X3466077Y6251325D01*
X3538483Y6315470D01*
X3628220Y6445477D01*
X3674797Y6568291D01*
X3684237Y6593181D01*
X3703278Y6749999D01*
X3703278Y6750000D01*
X3684237Y6906818D01*
X3680333Y6917113D01*
X3628220Y7054523D01*
X3538483Y7184530D01*
X3420240Y7289283D01*
X3280365Y7362696D01*
X3254841Y7368987D01*
X3126986Y7400500D01*
X3126985Y7400500D01*
X2969015Y7400500D01*
X2969014Y7400500D01*
X2815634Y7362696D01*
X2687860Y7295633D01*
X2675760Y7289283D01*
X2557517Y7184530D01*
X2467780Y7054523D01*
X2411763Y6906818D01*
X2406073Y6859952D01*
X2395271Y6770992D01*
X2384854Y6738505D01*
X2385905Y6738114D01*
X2365810Y6684237D01*
X2364116Y6680147D01*
X2343916Y6635918D01*
X2343915Y6635913D01*
X2343383Y6632213D01*
X2336832Y6606546D01*
X2335526Y6603045D01*
X2335525Y6603039D01*
X2332055Y6554536D01*
X2331582Y6550139D01*
X2329500Y6535653D01*
X2329500Y6521004D01*
X2329342Y6516580D01*
X2325873Y6468090D01*
X2326667Y6464443D01*
X2329500Y6438088D01*
X2329500Y5424500D01*
X2309815Y5357461D01*
X2257011Y5311706D01*
X2205500Y5300500D01*
X1989278Y5300500D01*
X1922239Y5320185D01*
X1876484Y5372989D01*
X1866540Y5442147D01*
X1873334Y5468465D01*
X1906237Y5555223D01*
X1925278Y5712041D01*
X1906237Y5868859D01*
X1850220Y6016564D01*
X1760483Y6146571D01*
X1642240Y6251324D01*
X1502365Y6324737D01*
X1348986Y6362541D01*
X1348985Y6362541D01*
X1191015Y6362541D01*
X1191014Y6362541D01*
X1037634Y6324737D01*
X897761Y6251325D01*
X897759Y6251323D01*
X855318Y6213725D01*
X792085Y6184004D01*
X773092Y6182541D01*
X-114051Y6182541D01*
X-140407Y6185374D01*
X-144049Y6186167D01*
X-192544Y6182698D01*
X-196965Y6182541D01*
X-211610Y6182541D01*
X-220355Y6181282D01*
X-226101Y6180456D01*
X-230492Y6179984D01*
X-279000Y6176516D01*
X-282496Y6175211D01*
X-308189Y6168654D01*
X-311877Y6168124D01*
X-356127Y6147915D01*
X-360194Y6146230D01*
X-405764Y6129234D01*
X-408653Y6127070D01*
X-408740Y6127006D01*
X-431547Y6113472D01*
X-434946Y6111921D01*
X-471716Y6080058D01*
X-475132Y6077305D01*
X-486860Y6068527D01*
X-497205Y6058181D01*
X-500437Y6055171D01*
X-537195Y6023321D01*
X-537196Y6023319D01*
X-539208Y6020188D01*
X-555844Y5999541D01*
X-687500Y5867885D01*
X-708145Y5851250D01*
X-711280Y5849236D01*
X-743130Y5812478D01*
X-746138Y5809247D01*
X-756486Y5798901D01*
X-765263Y5787174D01*
X-768016Y5783758D01*
X-799880Y5746987D01*
X-801428Y5743595D01*
X-814961Y5720786D01*
X-817194Y5717805D01*
X-834195Y5672220D01*
X-835875Y5668162D01*
X-856083Y5623918D01*
X-856613Y5620230D01*
X-863170Y5594537D01*
X-864475Y5591041D01*
X-864475Y5591036D01*
X-867942Y5542545D01*
X-868416Y5538135D01*
X-870500Y5523650D01*
X-870500Y5509004D01*
X-870658Y5504580D01*
X-874126Y5456090D01*
X-873333Y5452443D01*
X-870500Y5426088D01*
X-870500Y5424500D01*
X-890185Y5357461D01*
X-942989Y5311706D01*
X-994500Y5300500D01*
X-1405500Y5300500D01*
X-1472539Y5320185D01*
X-1518294Y5372989D01*
X-1529500Y5424500D01*
X-1529500Y5793792D01*
X-1509815Y5860831D01*
X-1457011Y5906586D01*
X-1416569Y5915383D01*
X-1416752Y5916888D01*
X-1409306Y5917792D01*
X-1255926Y5955595D01*
X-1116054Y6029007D01*
X-1005435Y6127006D01*
X-997809Y6133762D01*
X-997043Y6134872D01*
X-908073Y6263767D01*
X-908072Y6263768D01*
X-852054Y6411473D01*
X-833014Y6568291D01*
X-833014Y6568292D01*
X-852054Y6725110D01*
X-908072Y6872815D01*
X-908073Y6872816D01*
X-997809Y7002822D01*
X-1116052Y7107575D01*
X-1128152Y7113925D01*
X-1255926Y7180988D01*
X-1409306Y7218792D01*
X-1409307Y7218792D01*
X-1567277Y7218792D01*
X-1567278Y7218792D01*
X-1706286Y7184530D01*
X-1720657Y7180988D01*
X-1860532Y7107575D01*
X-1978775Y7002822D01*
X-2068512Y6872815D01*
X-2089558Y6817320D01*
X-2131736Y6761617D01*
X-2197333Y6737560D01*
X-2265523Y6752787D01*
X-2314657Y6802463D01*
X-2329500Y6861291D01*
X-2329500Y8127999D01*
X9758722Y8127999D01*
X9777762Y7971181D01*
X9833780Y7823476D01*
X9833781Y7823475D01*
X9923516Y7693471D01*
X10041762Y7588715D01*
X10181634Y7515303D01*
X10335014Y7477500D01*
X10335015Y7477500D01*
X10347751Y7477500D01*
X10414790Y7457815D01*
X10435432Y7441181D01*
X10923181Y6953432D01*
X10956666Y6892109D01*
X10959500Y6865751D01*
X10959500Y-16707877D01*
X10939815Y-16774916D01*
X10900778Y-16813304D01*
X10763957Y-16898020D01*
X10613237Y-17035418D01*
X10490327Y-17198178D01*
X10399422Y-17380739D01*
X10399417Y-17380752D01*
X10343602Y-17576917D01*
X10324785Y-17779999D01*
X10324785Y-17780000D01*
X10343602Y-17983082D01*
X10399417Y-18179247D01*
X10399422Y-18179260D01*
X10490327Y-18361821D01*
X10613237Y-18524581D01*
X10763958Y-18661980D01*
X10763960Y-18661982D01*
X10863141Y-18723392D01*
X10937363Y-18769348D01*
X11127544Y-18843024D01*
X11328024Y-18880500D01*
X11328026Y-18880500D01*
X11531974Y-18880500D01*
X11531976Y-18880500D01*
X11732456Y-18843024D01*
X11922637Y-18769348D01*
X12096041Y-18661981D01*
X12246764Y-18524579D01*
X12369673Y-18361821D01*
X12460582Y-18179250D01*
X12516397Y-17983083D01*
X12535215Y-17780000D01*
X12864785Y-17780000D01*
X12883602Y-17983082D01*
X12939417Y-18179247D01*
X12939422Y-18179260D01*
X13030327Y-18361821D01*
X13153237Y-18524581D01*
X13303958Y-18661980D01*
X13303960Y-18661982D01*
X13403141Y-18723392D01*
X13477363Y-18769348D01*
X13667544Y-18843024D01*
X13868024Y-18880500D01*
X13868026Y-18880500D01*
X14071974Y-18880500D01*
X14071976Y-18880500D01*
X14272456Y-18843024D01*
X14462637Y-18769348D01*
X14636041Y-18661981D01*
X14786764Y-18524579D01*
X14909673Y-18361821D01*
X15000582Y-18179250D01*
X15056397Y-17983083D01*
X15075215Y-17780000D01*
X15404785Y-17780000D01*
X15423602Y-17983082D01*
X15479417Y-18179247D01*
X15479422Y-18179260D01*
X15570327Y-18361821D01*
X15693237Y-18524581D01*
X15843958Y-18661980D01*
X15843960Y-18661982D01*
X15943141Y-18723392D01*
X16017363Y-18769348D01*
X16207544Y-18843024D01*
X16408024Y-18880500D01*
X16408026Y-18880500D01*
X16611974Y-18880500D01*
X16611976Y-18880500D01*
X16812456Y-18843024D01*
X17002637Y-18769348D01*
X17176041Y-18661981D01*
X17326764Y-18524579D01*
X17449673Y-18361821D01*
X17540582Y-18179250D01*
X17596397Y-17983083D01*
X17615215Y-17780000D01*
X17596397Y-17576917D01*
X17540582Y-17380750D01*
X17525274Y-17350008D01*
X17475885Y-17250820D01*
X17449673Y-17198179D01*
X17326764Y-17035421D01*
X17326762Y-17035418D01*
X17176042Y-16898020D01*
X17176041Y-16898019D01*
X17069843Y-16832264D01*
X17039222Y-16813304D01*
X16992587Y-16761276D01*
X16980500Y-16707877D01*
X16980500Y-4318000D01*
X17886722Y-4318000D01*
X17905762Y-4474818D01*
X17961780Y-4622523D01*
X18051517Y-4752530D01*
X18169760Y-4857283D01*
X18169762Y-4857284D01*
X18309634Y-4930696D01*
X18463015Y-4968500D01*
X18470443Y-4969402D01*
X18534622Y-4997022D01*
X18573680Y-5054955D01*
X18579500Y-5092498D01*
X18579500Y-16707877D01*
X18559815Y-16774916D01*
X18520778Y-16813304D01*
X18383957Y-16898020D01*
X18233237Y-17035418D01*
X18110327Y-17198178D01*
X18019422Y-17380739D01*
X18019417Y-17380752D01*
X17963602Y-17576917D01*
X17944785Y-17779999D01*
X17944785Y-17780000D01*
X17963602Y-17983082D01*
X18019417Y-18179247D01*
X18019422Y-18179260D01*
X18110327Y-18361821D01*
X18233237Y-18524581D01*
X18383958Y-18661980D01*
X18383960Y-18661982D01*
X18483141Y-18723392D01*
X18557363Y-18769348D01*
X18747544Y-18843024D01*
X18948024Y-18880500D01*
X18948026Y-18880500D01*
X19151974Y-18880500D01*
X19151976Y-18880500D01*
X19352456Y-18843024D01*
X19542637Y-18769348D01*
X19716041Y-18661981D01*
X19866764Y-18524579D01*
X19989673Y-18361821D01*
X20080582Y-18179250D01*
X20136397Y-17983083D01*
X20155215Y-17780000D01*
X20484785Y-17780000D01*
X20503602Y-17983082D01*
X20559417Y-18179247D01*
X20559422Y-18179260D01*
X20650327Y-18361821D01*
X20773237Y-18524581D01*
X20923958Y-18661980D01*
X20923960Y-18661982D01*
X21023141Y-18723392D01*
X21097363Y-18769348D01*
X21287544Y-18843024D01*
X21488024Y-18880500D01*
X21488026Y-18880500D01*
X21691974Y-18880500D01*
X21691976Y-18880500D01*
X21892456Y-18843024D01*
X22082637Y-18769348D01*
X22256041Y-18661981D01*
X22264052Y-18654678D01*
X23029500Y-18654678D01*
X23044032Y-18727735D01*
X23044033Y-18727739D01*
X23044034Y-18727740D01*
X23099399Y-18810601D01*
X23182260Y-18865966D01*
X23182264Y-18865967D01*
X23255321Y-18880499D01*
X23255324Y-18880500D01*
X23255326Y-18880500D01*
X25004676Y-18880500D01*
X25004677Y-18880499D01*
X25077740Y-18865966D01*
X25160601Y-18810601D01*
X25215966Y-18727740D01*
X25230500Y-18654674D01*
X25230500Y-16905326D01*
X25230500Y-16905323D01*
X25230499Y-16905321D01*
X25215967Y-16832264D01*
X25215966Y-16832260D01*
X25201452Y-16810538D01*
X25160601Y-16749399D01*
X25086801Y-16700088D01*
X25077739Y-16694033D01*
X25077735Y-16694032D01*
X25004677Y-16679500D01*
X25004674Y-16679500D01*
X24724500Y-16679500D01*
X24657461Y-16659815D01*
X24611706Y-16607011D01*
X24600500Y-16555500D01*
X24600500Y-9646128D01*
X24620185Y-9579089D01*
X24622450Y-9575688D01*
X24642042Y-9547304D01*
X24710220Y-9448531D01*
X24766237Y-9300826D01*
X24785278Y-9144008D01*
X24776934Y-9075284D01*
X24766237Y-8987189D01*
X24731516Y-8895638D01*
X24710220Y-8839485D01*
X24620483Y-8709478D01*
X24502240Y-8604725D01*
X24502238Y-8604724D01*
X24502237Y-8604723D01*
X24362365Y-8531311D01*
X24208986Y-8493508D01*
X24208985Y-8493508D01*
X24051015Y-8493508D01*
X24051014Y-8493508D01*
X23897634Y-8531311D01*
X23757762Y-8604723D01*
X23757760Y-8604725D01*
X23658323Y-8692818D01*
X23639516Y-8709479D01*
X23549781Y-8839483D01*
X23549780Y-8839484D01*
X23493762Y-8987189D01*
X23474722Y-9144007D01*
X23474722Y-9144008D01*
X23493762Y-9300826D01*
X23515059Y-9356980D01*
X23549780Y-9448531D01*
X23581980Y-9495181D01*
X23637550Y-9575688D01*
X23659433Y-9642043D01*
X23659500Y-9646128D01*
X23659500Y-16555500D01*
X23639815Y-16622539D01*
X23587011Y-16668294D01*
X23535500Y-16679500D01*
X23255323Y-16679500D01*
X23182264Y-16694032D01*
X23182260Y-16694033D01*
X23099399Y-16749399D01*
X23044033Y-16832260D01*
X23044032Y-16832264D01*
X23029500Y-16905321D01*
X23029500Y-18654678D01*
X22264052Y-18654678D01*
X22406764Y-18524579D01*
X22529673Y-18361821D01*
X22620582Y-18179250D01*
X22676397Y-17983083D01*
X22695215Y-17780000D01*
X22676397Y-17576917D01*
X22620582Y-17380750D01*
X22605274Y-17350008D01*
X22555885Y-17250820D01*
X22529673Y-17198179D01*
X22406764Y-17035421D01*
X22406762Y-17035418D01*
X22256042Y-16898020D01*
X22256041Y-16898019D01*
X22149843Y-16832264D01*
X22119222Y-16813304D01*
X22072587Y-16761276D01*
X22060500Y-16707877D01*
X22060500Y-6598120D01*
X22080185Y-6531081D01*
X22082450Y-6527680D01*
X22170220Y-6400523D01*
X22226237Y-6252818D01*
X22245278Y-6096000D01*
X22226237Y-5939182D01*
X22226236Y-5939180D01*
X22189380Y-5841999D01*
X22170220Y-5791477D01*
X22080483Y-5661470D01*
X21962240Y-5556717D01*
X21962238Y-5556716D01*
X21962237Y-5556715D01*
X21822365Y-5483303D01*
X21668986Y-5445500D01*
X21668985Y-5445500D01*
X21511015Y-5445500D01*
X21511014Y-5445500D01*
X21357634Y-5483303D01*
X21217762Y-5556715D01*
X21099516Y-5661471D01*
X21009781Y-5791475D01*
X21009780Y-5791476D01*
X20953762Y-5939181D01*
X20934722Y-6095999D01*
X20934722Y-6096000D01*
X20953762Y-6252818D01*
X21009780Y-6400523D01*
X21097550Y-6527680D01*
X21119433Y-6594035D01*
X21119500Y-6598120D01*
X21119500Y-16707877D01*
X21099815Y-16774916D01*
X21060778Y-16813304D01*
X20923957Y-16898020D01*
X20773237Y-17035418D01*
X20650327Y-17198178D01*
X20559422Y-17380739D01*
X20559417Y-17380752D01*
X20503602Y-17576917D01*
X20484785Y-17779999D01*
X20484785Y-17780000D01*
X20155215Y-17780000D01*
X20136397Y-17576917D01*
X20080582Y-17380750D01*
X20065274Y-17350008D01*
X20015885Y-17250820D01*
X19989673Y-17198179D01*
X19866764Y-17035421D01*
X19866762Y-17035418D01*
X19716042Y-16898020D01*
X19716041Y-16898019D01*
X19609843Y-16832264D01*
X19579222Y-16813304D01*
X19532587Y-16761276D01*
X19520500Y-16707877D01*
X19520500Y-4889908D01*
X19523334Y-4863550D01*
X19524126Y-4859910D01*
X19520657Y-4811414D01*
X19520500Y-4806994D01*
X19520500Y-4792349D01*
X19518416Y-4777865D01*
X19517942Y-4773455D01*
X19516385Y-4751684D01*
X19514475Y-4724959D01*
X19513170Y-4721460D01*
X19506612Y-4695764D01*
X19506083Y-4692082D01*
X19485882Y-4647848D01*
X19484187Y-4643757D01*
X19476267Y-4622523D01*
X19467193Y-4598195D01*
X19464961Y-4595214D01*
X19451434Y-4572416D01*
X19449880Y-4569013D01*
X19449877Y-4569009D01*
X19418027Y-4532252D01*
X19415249Y-4528805D01*
X19406493Y-4517108D01*
X19406491Y-4517105D01*
X19406486Y-4517099D01*
X19396144Y-4506757D01*
X19393127Y-4503517D01*
X19387749Y-4497311D01*
X19361280Y-4466764D01*
X19361277Y-4466762D01*
X19361276Y-4466761D01*
X19358136Y-4464743D01*
X19337498Y-4448111D01*
X19226137Y-4336750D01*
X19192652Y-4275427D01*
X19190722Y-4264014D01*
X19178237Y-4161181D01*
X19147027Y-4078887D01*
X19122220Y-4013477D01*
X19032483Y-3883470D01*
X18914240Y-3778717D01*
X18914238Y-3778716D01*
X18914237Y-3778715D01*
X18774365Y-3705303D01*
X18620986Y-3667500D01*
X18620985Y-3667500D01*
X18463015Y-3667500D01*
X18463014Y-3667500D01*
X18309634Y-3705303D01*
X18169762Y-3778715D01*
X18051516Y-3883471D01*
X17961781Y-4013475D01*
X17961780Y-4013476D01*
X17905762Y-4161181D01*
X17886722Y-4317999D01*
X17886722Y-4318000D01*
X16980500Y-4318000D01*
X16980500Y259879D01*
X17000185Y326918D01*
X17002450Y330319D01*
X17053168Y403798D01*
X17090220Y457477D01*
X17134894Y575273D01*
X17146237Y605181D01*
X17165278Y761999D01*
X17165278Y762000D01*
X17146237Y918818D01*
X17134411Y950000D01*
X17090220Y1066523D01*
X17000483Y1196530D01*
X16882240Y1301283D01*
X16742365Y1374696D01*
X16698689Y1385461D01*
X16588986Y1412500D01*
X16588985Y1412500D01*
X16431015Y1412500D01*
X16431014Y1412500D01*
X16277634Y1374696D01*
X16170493Y1318463D01*
X16137760Y1301283D01*
X16019517Y1196530D01*
X15932412Y1070336D01*
X15929781Y1066524D01*
X15929780Y1066523D01*
X15873762Y918818D01*
X15854722Y762000D01*
X15854722Y761999D01*
X15873762Y605181D01*
X15929780Y457476D01*
X15929781Y457475D01*
X16017550Y330319D01*
X16039433Y263964D01*
X16039500Y259879D01*
X16039500Y-16707877D01*
X16019815Y-16774916D01*
X15980778Y-16813304D01*
X15843957Y-16898020D01*
X15693237Y-17035418D01*
X15570327Y-17198178D01*
X15479422Y-17380739D01*
X15479417Y-17380752D01*
X15423602Y-17576917D01*
X15404785Y-17779999D01*
X15404785Y-17780000D01*
X15075215Y-17780000D01*
X15056397Y-17576917D01*
X15000582Y-17380750D01*
X14985274Y-17350008D01*
X14935885Y-17250820D01*
X14909673Y-17198179D01*
X14786764Y-17035421D01*
X14786762Y-17035418D01*
X14636042Y-16898020D01*
X14636041Y-16898019D01*
X14529843Y-16832264D01*
X14499222Y-16813304D01*
X14452587Y-16761276D01*
X14440500Y-16707877D01*
X14440500Y1021884D01*
X14460185Y1088923D01*
X14462450Y1092324D01*
X14497621Y1143279D01*
X14550218Y1219479D01*
X14594994Y1337544D01*
X14606235Y1367183D01*
X14625276Y1524001D01*
X14625276Y1524002D01*
X14606235Y1680820D01*
X14604520Y1685341D01*
X14550218Y1828525D01*
X14460481Y1958532D01*
X14342238Y2063285D01*
X14202363Y2136698D01*
X14048984Y2174502D01*
X14048983Y2174502D01*
X13891013Y2174502D01*
X13891012Y2174502D01*
X13737632Y2136698D01*
X13640559Y2085749D01*
X13597758Y2063285D01*
X13479515Y1958532D01*
X13405616Y1851470D01*
X13389779Y1828526D01*
X13389778Y1828525D01*
X13333760Y1680820D01*
X13314720Y1524002D01*
X13314720Y1524001D01*
X13333760Y1367183D01*
X13389778Y1219478D01*
X13389779Y1219477D01*
X13477550Y1092318D01*
X13499433Y1025963D01*
X13499500Y1021878D01*
X13499500Y-16707877D01*
X13479815Y-16774916D01*
X13440778Y-16813304D01*
X13303957Y-16898020D01*
X13153237Y-17035418D01*
X13030327Y-17198178D01*
X12939422Y-17380739D01*
X12939417Y-17380752D01*
X12883602Y-17576917D01*
X12864785Y-17779999D01*
X12864785Y-17780000D01*
X12535215Y-17780000D01*
X12516397Y-17576917D01*
X12460582Y-17380750D01*
X12445274Y-17350008D01*
X12395885Y-17250820D01*
X12369673Y-17198179D01*
X12246764Y-17035421D01*
X12246762Y-17035418D01*
X12096042Y-16898020D01*
X12096041Y-16898019D01*
X11989843Y-16832264D01*
X11959222Y-16813304D01*
X11912587Y-16761276D01*
X11900500Y-16707877D01*
X11900500Y6349993D01*
X16505146Y6349993D01*
X16522531Y6140173D01*
X16522533Y6140162D01*
X16574220Y5936057D01*
X16658798Y5743237D01*
X16773958Y5566970D01*
X16916562Y5412062D01*
X16916567Y5412057D01*
X17082718Y5282736D01*
X17082723Y5282733D01*
X17267890Y5182526D01*
X17267904Y5182520D01*
X17467039Y5114156D01*
X17622802Y5088164D01*
X17674723Y5079500D01*
X17779500Y5079500D01*
X17780000Y5079500D01*
X17997298Y5070512D01*
X18202710Y5061543D01*
X18207676Y5061126D01*
X18425681Y5033952D01*
X18630807Y5006946D01*
X18635439Y5006157D01*
X18850336Y4961099D01*
X19052712Y4916232D01*
X19056984Y4915124D01*
X19267450Y4852466D01*
X19465341Y4790072D01*
X19469236Y4788700D01*
X19673908Y4708836D01*
X19865763Y4629366D01*
X19869267Y4627786D01*
X20066733Y4531251D01*
X20251061Y4435294D01*
X20254169Y4433561D01*
X20443098Y4320986D01*
X20618497Y4209244D01*
X20621212Y4207412D01*
X20800304Y4079543D01*
X20965405Y3952856D01*
X20967733Y3950979D01*
X21135753Y3808676D01*
X21290324Y3667037D01*
X21447037Y3510324D01*
X21588676Y3355753D01*
X21730979Y3187733D01*
X21732856Y3185405D01*
X21859543Y3020304D01*
X21987412Y2841212D01*
X21989244Y2838497D01*
X22100986Y2663098D01*
X22213561Y2474169D01*
X22215294Y2471061D01*
X22311251Y2286733D01*
X22407786Y2089267D01*
X22409366Y2085763D01*
X22488836Y1893908D01*
X22568700Y1689236D01*
X22570072Y1685341D01*
X22632466Y1487450D01*
X22695124Y1276984D01*
X22696232Y1272712D01*
X22741099Y1070336D01*
X22786157Y855439D01*
X22786946Y850807D01*
X22813952Y645681D01*
X22841126Y427676D01*
X22841543Y422710D01*
X22850512Y217298D01*
X22858771Y17627D01*
X22859500Y0D01*
X22859500Y-105277D01*
X22861471Y-117086D01*
X22894156Y-312960D01*
X22962520Y-512095D01*
X22962526Y-512109D01*
X23062733Y-697276D01*
X23062736Y-697281D01*
X23129303Y-782806D01*
X23192059Y-863435D01*
X23250342Y-917088D01*
X23346970Y-1006041D01*
X23523237Y-1121201D01*
X23716056Y-1205779D01*
X23920166Y-1257467D01*
X23920168Y-1257467D01*
X23920173Y-1257468D01*
X24129994Y-1274854D01*
X24130000Y-1274854D01*
X24130006Y-1274854D01*
X24339826Y-1257468D01*
X24339829Y-1257467D01*
X24339834Y-1257467D01*
X24543944Y-1205779D01*
X24736763Y-1121201D01*
X24913032Y-1006039D01*
X25067941Y-863435D01*
X25197265Y-697279D01*
X25297477Y-512103D01*
X25365844Y-312958D01*
X25400500Y-105277D01*
X25400500Y0D01*
X25400500Y500D01*
X25400500Y260324D01*
X25364970Y779759D01*
X25294075Y1295557D01*
X25235838Y1575810D01*
X25188148Y1805310D01*
X25047676Y2306657D01*
X24988908Y2472015D01*
X24873322Y2797243D01*
X24811603Y2939334D01*
X24665897Y3274784D01*
X24665897Y3274783D01*
X24665895Y3274788D01*
X24426363Y3737063D01*
X24182370Y4138293D01*
X24155842Y4181917D01*
X23883189Y4568177D01*
X23855598Y4607265D01*
X23838898Y4627792D01*
X23527020Y5011142D01*
X23171650Y5391650D01*
X22791142Y5747020D01*
X22387269Y6075595D01*
X21961917Y6375841D01*
X21961917Y6375842D01*
X21645447Y6568291D01*
X21517063Y6646363D01*
X21517060Y6646364D01*
X21517056Y6646367D01*
X21215804Y6802463D01*
X21054788Y6885895D01*
X21054783Y6885897D01*
X21054784Y6885897D01*
X20577253Y7093318D01*
X20577252Y7093318D01*
X20577243Y7093322D01*
X20086657Y7267676D01*
X20009541Y7289283D01*
X19585310Y7408148D01*
X19237321Y7480460D01*
X19075557Y7514075D01*
X19066615Y7515304D01*
X19049949Y7517594D01*
X18559759Y7584970D01*
X18040324Y7620500D01*
X17780500Y7620500D01*
X17780000Y7620500D01*
X17674723Y7620500D01*
X17467042Y7585844D01*
X17267897Y7517477D01*
X17089440Y7420901D01*
X17082723Y7417266D01*
X17082718Y7417263D01*
X17061181Y7400500D01*
X16916565Y7287941D01*
X16820743Y7183851D01*
X16773958Y7133029D01*
X16658798Y6956762D01*
X16574220Y6763942D01*
X16522533Y6559837D01*
X16522531Y6559826D01*
X16505146Y6350006D01*
X16505146Y6349993D01*
X11900500Y6349993D01*
X11900500Y7048088D01*
X11903333Y7074443D01*
X11904126Y7078090D01*
X11900658Y7126580D01*
X11900500Y7131004D01*
X11900500Y7145650D01*
X11898416Y7160135D01*
X11897942Y7164545D01*
X11896766Y7180988D01*
X11894475Y7213041D01*
X11893170Y7216537D01*
X11886613Y7242230D01*
X11886083Y7245918D01*
X11865875Y7290162D01*
X11864195Y7294220D01*
X11847194Y7339805D01*
X11844961Y7342786D01*
X11831428Y7365595D01*
X11829880Y7368987D01*
X11798016Y7405758D01*
X11795263Y7409174D01*
X11786486Y7420901D01*
X11776138Y7431247D01*
X11773130Y7434478D01*
X11741280Y7471236D01*
X11738145Y7473250D01*
X11717500Y7489885D01*
X11098135Y8109250D01*
X11064652Y8170571D01*
X11062723Y8181972D01*
X11050237Y8284818D01*
X10994220Y8432523D01*
X10904483Y8562530D01*
X10786240Y8667283D01*
X10646365Y8740696D01*
X10492986Y8778500D01*
X10492985Y8778500D01*
X10335015Y8778500D01*
X10335014Y8778500D01*
X10181634Y8740696D01*
X10093255Y8694310D01*
X10041760Y8667283D01*
X9923517Y8562530D01*
X9923516Y8562528D01*
X9833781Y8432524D01*
X9833780Y8432523D01*
X9777762Y8284818D01*
X9758722Y8128000D01*
X9758722Y8127999D01*
X-2329500Y8127999D01*
X-2329500Y8190867D01*
X-2309815Y8257906D01*
X-2263127Y8300663D01*
X-2167761Y8350716D01*
X-2049516Y8455471D01*
X-1959781Y8585475D01*
X-1959780Y8585476D01*
X-1903762Y8733181D01*
X-1884722Y8889999D01*
X-1884722Y8890000D01*
X-1903762Y9046818D01*
X-1959780Y9194523D01*
X-1959781Y9194524D01*
X-1984753Y9230703D01*
X-2049517Y9324530D01*
X-2167760Y9429283D01*
X-2252733Y9473881D01*
X-2307634Y9502696D01*
X-2461014Y9540500D01*
X-2461015Y9540500D01*
X-2618985Y9540500D01*
X-2618986Y9540500D01*
X-2772365Y9502696D01*
X-2912240Y9429283D01*
X-3030483Y9324530D01*
X-3120220Y9194523D01*
X-3176237Y9046818D01*
X-3187753Y8951968D01*
X-3191710Y8919380D01*
X-3213238Y8865754D01*
X-3212942Y8865593D01*
X-3214305Y8863096D01*
X-3215545Y8860008D01*
X-3217194Y8857805D01*
X-3234195Y8812220D01*
X-3235875Y8808162D01*
X-3256083Y8763918D01*
X-3256613Y8760230D01*
X-3263170Y8734537D01*
X-3264475Y8731041D01*
X-3264475Y8731036D01*
X-3267942Y8682545D01*
X-3268416Y8678135D01*
X-3270500Y8663650D01*
X-3270500Y8649004D01*
X-3270658Y8644580D01*
X-3274126Y8596090D01*
X-3273333Y8592443D01*
X-3270500Y8566088D01*
X-3270500Y5245915D01*
X-3290185Y5178876D01*
X-3291356Y5177087D01*
X-3310966Y5147740D01*
X-3310966Y5147735D01*
X-3310967Y5147735D01*
X-3325499Y5074678D01*
X-3325500Y5074676D01*
X-3325500Y3449500D01*
X-3345185Y3382461D01*
X-3397989Y3336706D01*
X-3449500Y3325500D01*
X-5074676Y3325500D01*
X-5147740Y3310966D01*
X-5177029Y3291397D01*
X-5243707Y3270520D01*
X-5245918Y3270500D01*
X-6788083Y3270500D01*
X-6814439Y3273333D01*
X-6814999Y3273454D01*
X-6818090Y3274127D01*
X-6866593Y3270657D01*
X-6871015Y3270500D01*
X-6885648Y3270500D01*
X-6900163Y3268412D01*
X-6904500Y3267946D01*
X-6953040Y3264475D01*
X-6956533Y3263172D01*
X-6982226Y3256613D01*
X-6985918Y3256083D01*
X-7030171Y3235872D01*
X-7034204Y3234201D01*
X-7079805Y3217194D01*
X-7082788Y3214960D01*
X-7105601Y3201426D01*
X-7108987Y3199880D01*
X-7145740Y3168032D01*
X-7149173Y3165265D01*
X-7160901Y3156487D01*
X-7171247Y3146140D01*
X-7171253Y3146134D01*
X-7174485Y3143124D01*
X-7211236Y3111280D01*
X-7213249Y3108147D01*
X-7229887Y3087500D01*
X-7344571Y2972818D01*
X-7405894Y2939334D01*
X-7432251Y2936500D01*
X-7444986Y2936500D01*
X-7598365Y2898696D01*
X-7738240Y2825283D01*
X-7856483Y2720530D01*
X-7946220Y2590523D01*
X-7980427Y2500326D01*
X-8002237Y2442818D01*
X-8021278Y2286000D01*
X-8021278Y2285999D01*
X-8002237Y2129181D01*
X-7997928Y2117819D01*
X-7946220Y1981477D01*
X-7856483Y1851470D01*
X-7738240Y1746717D01*
X-7738238Y1746716D01*
X-7738237Y1746715D01*
X-7598365Y1673303D01*
X-7444986Y1635500D01*
X-7444985Y1635500D01*
X-7287014Y1635500D01*
X-7154389Y1668188D01*
X-7084587Y1665118D01*
X-7027525Y1624798D01*
X-7001320Y1560029D01*
X-7014293Y1491374D01*
X-7037028Y1460116D01*
X-7111685Y1385459D01*
X-7173007Y1351977D01*
X-7199364Y1349143D01*
X-7212101Y1349143D01*
X-7365480Y1311339D01*
X-7505355Y1237926D01*
X-7623598Y1133173D01*
X-7713335Y1003166D01*
X-7763648Y870500D01*
X-7769352Y855461D01*
X-7788393Y698643D01*
X-7788393Y698642D01*
X-7769352Y541824D01*
X-7750335Y491682D01*
X-7713335Y394120D01*
X-7623598Y264113D01*
X-7505355Y159360D01*
X-7505353Y159359D01*
X-7505352Y159358D01*
X-7365480Y85946D01*
X-7212101Y48143D01*
X-7212100Y48143D01*
X-7054129Y48143D01*
X-6900749Y85946D01*
X-6760877Y159358D01*
X-6678669Y232187D01*
X-6642632Y264113D01*
X-6642631Y264114D01*
X-6552896Y394118D01*
X-6552895Y394119D01*
X-6496878Y541823D01*
X-6484391Y644659D01*
X-6456769Y708837D01*
X-6448976Y717393D01*
X-5720866Y1445504D01*
X-5659543Y1478989D01*
X-5589852Y1474005D01*
X-5552500Y1450000D01*
X-2950000Y1450000D01*
X-2950000Y1522844D01*
X-2956401Y1582372D01*
X-2956403Y1582379D01*
X-3006645Y1717086D01*
X-3006647Y1717088D01*
X-3092809Y1832186D01*
X-3092810Y1832187D01*
X-3149811Y1874858D01*
X-3191682Y1930792D01*
X-3199500Y1974125D01*
X-3199500Y2299673D01*
X-3214644Y2375810D01*
X-3214644Y2424190D01*
X-3199500Y2500326D01*
X-3199500Y3075500D01*
X-3179815Y3142539D01*
X-3127011Y3188294D01*
X-3075500Y3199500D01*
X-2500326Y3199500D01*
X-2424190Y3214644D01*
X-2375810Y3214644D01*
X-2299674Y3199500D01*
X-1700326Y3199500D01*
X-1624190Y3214644D01*
X-1575810Y3214644D01*
X-1499674Y3199500D01*
X-900326Y3199500D01*
X-824190Y3214644D01*
X-775810Y3214644D01*
X-699674Y3199500D01*
X-100326Y3199500D01*
X-24190Y3214644D01*
X24190Y3214644D01*
X100326Y3199500D01*
X699674Y3199500D01*
X775810Y3214644D01*
X824190Y3214644D01*
X900326Y3199500D01*
X1499674Y3199500D01*
X1575810Y3214644D01*
X1624190Y3214644D01*
X1700326Y3199500D01*
X2299674Y3199500D01*
X2375810Y3214644D01*
X2424190Y3214644D01*
X2500326Y3199500D01*
X3075500Y3199500D01*
X3142539Y3179815D01*
X3188294Y3127011D01*
X3199500Y3075500D01*
X3199500Y2500326D01*
X3214644Y2424190D01*
X3214644Y2375810D01*
X3199500Y2299673D01*
X3199500Y1700326D01*
X3214644Y1624190D01*
X3214644Y1575810D01*
X3199500Y1499673D01*
X3199500Y1174125D01*
X3179815Y1107086D01*
X3149811Y1074858D01*
X3092810Y1032187D01*
X3092809Y1032186D01*
X3006647Y917088D01*
X3006645Y917086D01*
X2956403Y782379D01*
X2956401Y782372D01*
X2950000Y722844D01*
X2950000Y650000D01*
X5550000Y650000D01*
X5550000Y722827D01*
X5549999Y722844D01*
X5543598Y782372D01*
X5543596Y782379D01*
X5493354Y917086D01*
X5493352Y917088D01*
X5407190Y1032186D01*
X5407189Y1032187D01*
X5350189Y1074858D01*
X5308318Y1130792D01*
X5300500Y1174125D01*
X5300500Y1224750D01*
X5320185Y1291789D01*
X5372989Y1337544D01*
X5442147Y1347488D01*
X5505703Y1318463D01*
X5512181Y1312431D01*
X6541826Y282786D01*
X6575311Y221463D01*
X6578145Y195105D01*
X6578145Y-2057395D01*
X6558460Y-2124434D01*
X6505656Y-2170189D01*
X6436498Y-2180133D01*
X6372942Y-2151108D01*
X6366464Y-2145076D01*
X5933888Y-1712501D01*
X5917253Y-1691858D01*
X5915238Y-1688722D01*
X5915234Y-1688718D01*
X5894209Y-1670500D01*
X5878470Y-1656862D01*
X5875253Y-1653866D01*
X5864901Y-1643514D01*
X5864897Y-1643511D01*
X5853188Y-1634745D01*
X5849744Y-1631969D01*
X5812986Y-1600119D01*
X5809585Y-1598566D01*
X5786792Y-1585041D01*
X5783807Y-1582806D01*
X5738237Y-1565810D01*
X5734147Y-1564116D01*
X5689918Y-1543916D01*
X5689913Y-1543915D01*
X5686213Y-1543383D01*
X5660546Y-1536832D01*
X5657045Y-1535526D01*
X5657042Y-1535525D01*
X5657041Y-1535525D01*
X5650887Y-1535084D01*
X5608536Y-1532055D01*
X5604139Y-1531582D01*
X5589653Y-1529500D01*
X5589648Y-1529500D01*
X5575006Y-1529500D01*
X5570585Y-1529342D01*
X5556373Y-1528325D01*
X5522094Y-1525874D01*
X5522088Y-1525874D01*
X5519565Y-1526423D01*
X5518448Y-1526666D01*
X5492092Y-1529500D01*
X5424500Y-1529500D01*
X5357461Y-1509815D01*
X5311706Y-1457011D01*
X5300500Y-1405500D01*
X5300500Y-900323D01*
X5285356Y-824192D01*
X5285356Y-775808D01*
X5300500Y-699676D01*
X5300500Y-374125D01*
X5320185Y-307086D01*
X5350189Y-274858D01*
X5407189Y-232187D01*
X5407190Y-232186D01*
X5493352Y-117088D01*
X5493354Y-117086D01*
X5543596Y17620D01*
X5543598Y17627D01*
X5549999Y77155D01*
X5550000Y77172D01*
X5550000Y150000D01*
X2950000Y150000D01*
X2950000Y77155D01*
X2956401Y17627D01*
X2956403Y17620D01*
X3006645Y-117086D01*
X3006647Y-117088D01*
X3092809Y-232186D01*
X3092810Y-232187D01*
X3149811Y-274858D01*
X3191682Y-330792D01*
X3199500Y-374125D01*
X3199500Y-699674D01*
X3202957Y-717057D01*
X3214644Y-775810D01*
X3214644Y-824190D01*
X3199500Y-900326D01*
X3199500Y-1272401D01*
X3179815Y-1339440D01*
X3127011Y-1385195D01*
X3057853Y-1395139D01*
X3045826Y-1392798D01*
X2999986Y-1381500D01*
X2999985Y-1381500D01*
X2842015Y-1381500D01*
X2842014Y-1381500D01*
X2688634Y-1419303D01*
X2548762Y-1492715D01*
X2430516Y-1597471D01*
X2340781Y-1727475D01*
X2340780Y-1727476D01*
X2284762Y-1875181D01*
X2265722Y-2031999D01*
X2265722Y-2032000D01*
X2284762Y-2188818D01*
X2326805Y-2299674D01*
X2340780Y-2336523D01*
X2430517Y-2466530D01*
X2548760Y-2571283D01*
X2548762Y-2571284D01*
X2688634Y-2644696D01*
X2842014Y-2682500D01*
X2842015Y-2682500D01*
X2999983Y-2682500D01*
X2999985Y-2682500D01*
X3045827Y-2671201D01*
X3115626Y-2674270D01*
X3172689Y-2714589D01*
X3198894Y-2779358D01*
X3199500Y-2791598D01*
X3199500Y-3075500D01*
X3179815Y-3142539D01*
X3127011Y-3188294D01*
X3075500Y-3199500D01*
X2500326Y-3199500D01*
X2424190Y-3214644D01*
X2375810Y-3214644D01*
X2299674Y-3199500D01*
X1700326Y-3199500D01*
X1624190Y-3214644D01*
X1575810Y-3214644D01*
X1499674Y-3199500D01*
X900326Y-3199500D01*
X824190Y-3214644D01*
X775810Y-3214644D01*
X699674Y-3199500D01*
X100326Y-3199500D01*
X24190Y-3214644D01*
X-24190Y-3214644D01*
X-100326Y-3199500D01*
X-699674Y-3199500D01*
X-775810Y-3214644D01*
X-824190Y-3214644D01*
X-900326Y-3199500D01*
X-1499674Y-3199500D01*
X-1575810Y-3214644D01*
X-1624190Y-3214644D01*
X-1700326Y-3199500D01*
X-2299674Y-3199500D01*
X-2375810Y-3214644D01*
X-2424190Y-3214644D01*
X-2500326Y-3199500D01*
X-3075500Y-3199500D01*
X-3142539Y-3179815D01*
X-3188294Y-3127011D01*
X-3199500Y-3075500D01*
X-3199500Y-2500326D01*
X-3214644Y-2424190D01*
X-3214644Y-2375810D01*
X-3202036Y-2312424D01*
X-3199500Y-2299674D01*
X-3199500Y-1945156D01*
X-3179815Y-1878117D01*
X-3127011Y-1832362D01*
X-3057853Y-1822418D01*
X-3030632Y-1831477D01*
X-3030117Y-1830094D01*
X-3021805Y-1833193D01*
X-3021805Y-1833194D01*
X-2976220Y-1850195D01*
X-2972162Y-1851875D01*
X-2927918Y-1872083D01*
X-2924230Y-1872613D01*
X-2898537Y-1879170D01*
X-2895041Y-1880475D01*
X-2846533Y-1883943D01*
X-2842142Y-1884415D01*
X-2836396Y-1885241D01*
X-2827651Y-1886500D01*
X-2827648Y-1886500D01*
X-2813006Y-1886500D01*
X-2808585Y-1886657D01*
X-2760090Y-1890126D01*
X-2756448Y-1889333D01*
X-2730092Y-1886500D01*
X-1606908Y-1886500D01*
X-1580551Y-1889333D01*
X-1576910Y-1890126D01*
X-1528414Y-1886657D01*
X-1523994Y-1886500D01*
X-1509349Y-1886500D01*
X-1501905Y-1885428D01*
X-1494853Y-1884414D01*
X-1490468Y-1883943D01*
X-1441959Y-1880475D01*
X-1438460Y-1879170D01*
X-1412767Y-1872612D01*
X-1409082Y-1872083D01*
X-1409079Y-1872081D01*
X-1409077Y-1872081D01*
X-1364841Y-1851879D01*
X-1360758Y-1850187D01*
X-1315195Y-1833194D01*
X-1312208Y-1830958D01*
X-1289415Y-1817434D01*
X-1286017Y-1815882D01*
X-1286010Y-1815878D01*
X-1249250Y-1784025D01*
X-1245815Y-1781256D01*
X-1234099Y-1772486D01*
X-1223744Y-1762131D01*
X-1220517Y-1759127D01*
X-1183766Y-1727282D01*
X-1183761Y-1727276D01*
X-1181743Y-1724136D01*
X-1165111Y-1703498D01*
X-973932Y-1512319D01*
X-912609Y-1478834D01*
X-886251Y-1476000D01*
X-873514Y-1476000D01*
X-720134Y-1438196D01*
X-580262Y-1364784D01*
X-580260Y-1364783D01*
X-462017Y-1260030D01*
X-372280Y-1130023D01*
X-368934Y-1121201D01*
X-316262Y-982318D01*
X-297222Y-825500D01*
X-297222Y-825499D01*
X-316262Y-668681D01*
X-372280Y-520976D01*
X-372281Y-520975D01*
X-462016Y-390971D01*
X-580262Y-286215D01*
X-720134Y-212803D01*
X-873514Y-175000D01*
X-873515Y-175000D01*
X-886250Y-175000D01*
X-953289Y-155315D01*
X-973931Y-138681D01*
X-1800111Y687498D01*
X-1816743Y708136D01*
X-1818761Y711276D01*
X-1818766Y711282D01*
X-1855517Y743127D01*
X-1858744Y746131D01*
X-1869099Y756486D01*
X-1880815Y765256D01*
X-1884250Y768025D01*
X-1921010Y799878D01*
X-1921012Y799879D01*
X-1921013Y799880D01*
X-1921017Y799882D01*
X-1924415Y801434D01*
X-1947208Y814958D01*
X-1947359Y815071D01*
X-1950195Y817194D01*
X-1995758Y834187D01*
X-1999841Y835879D01*
X-2044077Y856081D01*
X-2044079Y856081D01*
X-2044082Y856083D01*
X-2047767Y856612D01*
X-2073460Y863170D01*
X-2076959Y864475D01*
X-2125468Y867943D01*
X-2129853Y868414D01*
X-2136905Y869428D01*
X-2144349Y870500D01*
X-2144352Y870500D01*
X-2158994Y870500D01*
X-2163414Y870657D01*
X-2211910Y874126D01*
X-2215551Y873333D01*
X-2241908Y870500D01*
X-2826000Y870500D01*
X-2893039Y890185D01*
X-2913529Y913832D01*
X-2913681Y913681D01*
X-2950000Y950000D01*
X-4009826Y950000D01*
X-4049504Y928334D01*
X-4075862Y925500D01*
X-4424138Y925500D01*
X-4491177Y945185D01*
X-4497152Y950000D01*
X-5550000Y950000D01*
X-5550000Y877172D01*
X-5549999Y877155D01*
X-5543598Y817627D01*
X-5543596Y817620D01*
X-5493354Y682913D01*
X-5493350Y682906D01*
X-5407191Y567814D01*
X-5407185Y567807D01*
X-5350188Y525139D01*
X-5308318Y469205D01*
X-5300500Y425873D01*
X-5300500Y374125D01*
X-5320185Y307086D01*
X-5350189Y274858D01*
X-5407189Y232187D01*
X-5407190Y232186D01*
X-5493352Y117088D01*
X-5493354Y117086D01*
X-5543596Y-17620D01*
X-5543598Y-17627D01*
X-5549999Y-77155D01*
X-5550000Y-77172D01*
X-5550000Y-150000D01*
X-4490174Y-150000D01*
X-4450496Y-128334D01*
X-4424138Y-125500D01*
X-4075862Y-125500D01*
X-4008823Y-145185D01*
X-4002848Y-150000D01*
X-2950000Y-150000D01*
X-2931501Y-131501D01*
X-2930315Y-127461D01*
X-2877511Y-81706D01*
X-2826000Y-70500D01*
X-2424249Y-70500D01*
X-2357210Y-90185D01*
X-2336568Y-106819D01*
X-1709568Y-733819D01*
X-1676083Y-795142D01*
X-1681067Y-864834D01*
X-1722939Y-920767D01*
X-1788403Y-945184D01*
X-1797249Y-945500D01*
X-2546565Y-945500D01*
X-2613604Y-925815D01*
X-2644446Y-894975D01*
X-2644959Y-895420D01*
X-2650767Y-888716D01*
X-2687510Y-856876D01*
X-2690743Y-853867D01*
X-2701097Y-843514D01*
X-2701101Y-843511D01*
X-2712815Y-834741D01*
X-2716254Y-831970D01*
X-2753013Y-800119D01*
X-2753018Y-800116D01*
X-2756422Y-798562D01*
X-2779195Y-785051D01*
X-2782192Y-782807D01*
X-2782199Y-782804D01*
X-2827761Y-765810D01*
X-2831850Y-764116D01*
X-2877511Y-743264D01*
X-2930315Y-697509D01*
X-2941881Y-658118D01*
X-2950000Y-650000D01*
X-5550000Y-650000D01*
X-5550000Y-722827D01*
X-5549999Y-722844D01*
X-5543598Y-782372D01*
X-5543596Y-782379D01*
X-5493354Y-917086D01*
X-5493352Y-917088D01*
X-5407190Y-1032186D01*
X-5407189Y-1032187D01*
X-5350189Y-1074858D01*
X-5308318Y-1130792D01*
X-5300500Y-1174125D01*
X-5300500Y-1405500D01*
X-5320185Y-1472539D01*
X-5372989Y-1518294D01*
X-5424500Y-1529500D01*
X-6254092Y-1529500D01*
X-6280448Y-1526666D01*
X-6281565Y-1526423D01*
X-6284088Y-1525874D01*
X-6284094Y-1525874D01*
X-6318373Y-1528325D01*
X-6332585Y-1529342D01*
X-6337006Y-1529500D01*
X-6351653Y-1529500D01*
X-6366139Y-1531582D01*
X-6370536Y-1532055D01*
X-6412887Y-1535084D01*
X-6419041Y-1535525D01*
X-6419042Y-1535525D01*
X-6419045Y-1535526D01*
X-6422546Y-1536832D01*
X-6448213Y-1543383D01*
X-6451913Y-1543915D01*
X-6451917Y-1543916D01*
X-6451918Y-1543917D01*
X-6479454Y-1556492D01*
X-6496160Y-1564121D01*
X-6500242Y-1565812D01*
X-6524286Y-1574780D01*
X-6545803Y-1582806D01*
X-6545809Y-1582809D01*
X-6548789Y-1585040D01*
X-6571581Y-1598564D01*
X-6574981Y-1600117D01*
X-6574983Y-1600118D01*
X-6574987Y-1600120D01*
X-6574988Y-1600121D01*
X-6611748Y-1631974D01*
X-6615184Y-1634743D01*
X-6626901Y-1643514D01*
X-6637253Y-1653866D01*
X-6640470Y-1656862D01*
X-6656209Y-1670500D01*
X-6677234Y-1688718D01*
X-6677238Y-1688722D01*
X-6679253Y-1691858D01*
X-6695888Y-1712501D01*
X-8161498Y-3178111D01*
X-8182136Y-3194743D01*
X-8185276Y-3196761D01*
X-8185282Y-3196766D01*
X-8217127Y-3233517D01*
X-8220131Y-3236744D01*
X-8230486Y-3247099D01*
X-8239256Y-3258815D01*
X-8242025Y-3262250D01*
X-8273878Y-3299010D01*
X-8273882Y-3299017D01*
X-8275434Y-3302415D01*
X-8288958Y-3325208D01*
X-8291194Y-3328195D01*
X-8308184Y-3373750D01*
X-8309879Y-3377841D01*
X-8330081Y-3422077D01*
X-8330083Y-3422083D01*
X-8330612Y-3425764D01*
X-8337170Y-3451460D01*
X-8338475Y-3454959D01*
X-8339203Y-3465148D01*
X-8341942Y-3503455D01*
X-8342416Y-3507865D01*
X-8344500Y-3522349D01*
X-8344500Y-3536994D01*
X-8344657Y-3541414D01*
X-8348126Y-3589910D01*
X-8347334Y-3593550D01*
X-8344500Y-3619908D01*
X-8344500Y-10858088D01*
X-8347333Y-10884443D01*
X-8348126Y-10888090D01*
X-13485873Y-10888090D01*
X-13479815Y-10867459D01*
X-13427011Y-10821704D01*
X-13390443Y-10811402D01*
X-13383015Y-10810500D01*
X-13229634Y-10772696D01*
X-13089762Y-10699284D01*
X-13089760Y-10699283D01*
X-12971517Y-10594530D01*
X-12881780Y-10464523D01*
X-12825762Y-10316818D01*
X-12806722Y-10160000D01*
X-12806722Y-10159999D01*
X-12825762Y-10003181D01*
X-12881780Y-9855476D01*
X-12881781Y-9855475D01*
X-12971516Y-9725471D01*
X-13089762Y-9620715D01*
X-13229634Y-9547303D01*
X-13383014Y-9509500D01*
X-13383015Y-9509500D01*
X-13540985Y-9509500D01*
X-13540986Y-9509500D01*
X-13694365Y-9547303D01*
X-13834237Y-9620715D01*
X-13834238Y-9620716D01*
X-13834240Y-9620717D01*
X-13952483Y-9725470D01*
X-14042220Y-9855477D01*
X-14073253Y-9937304D01*
X-14090143Y-9981841D01*
X-14098237Y-10003182D01*
X-14108423Y-10087081D01*
X-14110722Y-10106014D01*
X-14138343Y-10170192D01*
X-14146137Y-10178750D01*
X-14257498Y-10290111D01*
X-14278136Y-10306743D01*
X-14281276Y-10308761D01*
X-14281282Y-10308766D01*
X-14313127Y-10345517D01*
X-14316131Y-10348744D01*
X-14326486Y-10359099D01*
X-14335256Y-10370815D01*
X-14338025Y-10374250D01*
X-14369878Y-10411010D01*
X-14369882Y-10411017D01*
X-14371434Y-10414415D01*
X-14384958Y-10437208D01*
X-14387194Y-10440195D01*
X-14404184Y-10485750D01*
X-14405879Y-10489841D01*
X-14426081Y-10534077D01*
X-14426083Y-10534083D01*
X-14426612Y-10537764D01*
X-14433170Y-10563460D01*
X-14434475Y-10566959D01*
X-14437831Y-10613907D01*
X-14437942Y-10615455D01*
X-14438416Y-10619865D01*
X-14440500Y-10634349D01*
X-14440500Y-10648994D01*
X-14440657Y-10653414D01*
X-14444126Y-10701910D01*
X-14443334Y-10705550D01*
X-14440500Y-10731908D01*
X-14440500Y-16707877D01*
X-14460185Y-16774916D01*
X-14499222Y-16813304D01*
X-14529843Y-16832264D01*
X-14636041Y-16898019D01*
X-14636042Y-16898020D01*
X-14786762Y-17035418D01*
X-14786764Y-17035421D01*
X-14909673Y-17198179D01*
X-14935885Y-17250820D01*
X-14985274Y-17350008D01*
X-15000582Y-17380750D01*
X-15056397Y-17576917D01*
X-15075215Y-17780000D01*
X-15404785Y-17780000D01*
X-15404785Y-17779999D01*
X-15423602Y-17576917D01*
X-15479417Y-17380752D01*
X-15479422Y-17380739D01*
X-15570327Y-17198178D01*
X-15693237Y-17035418D01*
X-15843957Y-16898020D01*
X-15980778Y-16813304D01*
X-16027413Y-16761276D01*
X-16039500Y-16707877D01*
X-16039500Y-10601982D01*
X-16019815Y-10534943D01*
X-15973127Y-10492187D01*
X-15883760Y-10445283D01*
X-15765517Y-10340530D01*
X-15675780Y-10210523D01*
X-15670860Y-10197550D01*
X-15619762Y-10062818D01*
X-15600722Y-9906000D01*
X-15600722Y-9905999D01*
X-15619762Y-9749181D01*
X-15675780Y-9601476D01*
X-15675781Y-9601475D01*
X-15765516Y-9471471D01*
X-15883762Y-9366715D01*
X-16023634Y-9293303D01*
X-16177014Y-9255500D01*
X-16177015Y-9255500D01*
X-16334985Y-9255500D01*
X-16334986Y-9255500D01*
X-16488365Y-9293303D01*
X-16628237Y-9366715D01*
X-16628238Y-9366716D01*
X-16628240Y-9366717D01*
X-16746483Y-9471470D01*
X-16836220Y-9601477D01*
X-16892237Y-9749182D01*
X-16908003Y-9879028D01*
X-16925639Y-9922941D01*
X-16922944Y-9924413D01*
X-16927192Y-9932192D01*
X-16927194Y-9932195D01*
X-16942345Y-9972818D01*
X-16944184Y-9977750D01*
X-16945879Y-9981841D01*
X-16966081Y-10026077D01*
X-16966083Y-10026083D01*
X-16966612Y-10029764D01*
X-16973170Y-10055460D01*
X-16974475Y-10058959D01*
X-16976485Y-10087081D01*
X-16977942Y-10107455D01*
X-16978416Y-10111865D01*
X-16980500Y-10126349D01*
X-16980500Y-10140994D01*
X-16980657Y-10145414D01*
X-16984126Y-10193910D01*
X-16983334Y-10197550D01*
X-16980500Y-10223908D01*
X-16980500Y-16707877D01*
X-17000185Y-16774916D01*
X-17039222Y-16813304D01*
X-17069843Y-16832264D01*
X-17176041Y-16898019D01*
X-17176042Y-16898020D01*
X-17326762Y-17035418D01*
X-17326764Y-17035421D01*
X-17449673Y-17198179D01*
X-17475885Y-17250820D01*
X-17525274Y-17350008D01*
X-17540582Y-17380750D01*
X-17596397Y-17576917D01*
X-17615215Y-17780000D01*
X-17944785Y-17780000D01*
X-17944785Y-17779999D01*
X-17963602Y-17576917D01*
X-18019417Y-17380752D01*
X-18019422Y-17380739D01*
X-18110327Y-17198178D01*
X-18233237Y-17035418D01*
X-18383957Y-16898020D01*
X-18520778Y-16813304D01*
X-18567413Y-16761276D01*
X-18579500Y-16707877D01*
X-18579500Y-10154120D01*
X-18559815Y-10087081D01*
X-18557550Y-10083680D01*
X-18527343Y-10039918D01*
X-18469780Y-9956523D01*
X-18461008Y-9933393D01*
X-18413762Y-9808818D01*
X-18394722Y-9652000D01*
X-18394722Y-9651999D01*
X-18413762Y-9495181D01*
X-18469780Y-9347476D01*
X-18469781Y-9347475D01*
X-18559516Y-9217471D01*
X-18568769Y-9209274D01*
X-18642439Y-9144008D01*
X-18677762Y-9112715D01*
X-18817634Y-9039303D01*
X-18971014Y-9001500D01*
X-18971015Y-9001500D01*
X-19128985Y-9001500D01*
X-19128986Y-9001500D01*
X-19282365Y-9039303D01*
X-19422237Y-9112715D01*
X-19422238Y-9112716D01*
X-19422240Y-9112717D01*
X-19540483Y-9217470D01*
X-19630220Y-9347477D01*
X-19664992Y-9439164D01*
X-19686237Y-9495181D01*
X-19701479Y-9620716D01*
X-19705278Y-9652000D01*
X-19686237Y-9808818D01*
X-19630220Y-9956523D01*
X-19559511Y-10058963D01*
X-19542450Y-10083680D01*
X-19520567Y-10150035D01*
X-19520500Y-10154120D01*
X-19520500Y-16707877D01*
X-19540185Y-16774916D01*
X-19579222Y-16813304D01*
X-19609843Y-16832264D01*
X-19716041Y-16898019D01*
X-19716042Y-16898020D01*
X-19866762Y-17035418D01*
X-19866764Y-17035421D01*
X-19989673Y-17198179D01*
X-20015885Y-17250820D01*
X-20065274Y-17350008D01*
X-20080582Y-17380750D01*
X-20136397Y-17576917D01*
X-20155215Y-17780000D01*
X-20484785Y-17780000D01*
X-20484785Y-17779999D01*
X-20503602Y-17576917D01*
X-20559417Y-17380752D01*
X-20559422Y-17380739D01*
X-20650327Y-17198178D01*
X-20773237Y-17035418D01*
X-20923957Y-16898020D01*
X-21060778Y-16813304D01*
X-21107413Y-16761276D01*
X-21119500Y-16707877D01*
X-21119500Y-9646120D01*
X-21099815Y-9579081D01*
X-21097550Y-9575680D01*
X-21009780Y-9448523D01*
X-20975062Y-9356980D01*
X-20953762Y-9300818D01*
X-20934722Y-9144000D01*
X-20934722Y-9143999D01*
X-20953762Y-8987181D01*
X-21009780Y-8839476D01*
X-21009781Y-8839475D01*
X-21099516Y-8709471D01*
X-21217762Y-8604715D01*
X-21357634Y-8531303D01*
X-21511014Y-8493500D01*
X-21511015Y-8493500D01*
X-21668985Y-8493500D01*
X-21668986Y-8493500D01*
X-21822365Y-8531303D01*
X-21962237Y-8604715D01*
X-21962238Y-8604716D01*
X-21962240Y-8604717D01*
X-22080483Y-8709470D01*
X-22170220Y-8839477D01*
X-22191519Y-8895638D01*
X-22226237Y-8987181D01*
X-22236934Y-9075284D01*
X-22245278Y-9144000D01*
X-22226237Y-9300818D01*
X-22170220Y-9448523D01*
X-22082450Y-9575680D01*
X-22060567Y-9642035D01*
X-22060500Y-9646120D01*
X-22060500Y-16707877D01*
X-22080185Y-16774916D01*
X-22119222Y-16813304D01*
X-22149843Y-16832264D01*
X-22256041Y-16898019D01*
X-22256042Y-16898020D01*
X-22406762Y-17035418D01*
X-22406764Y-17035421D01*
X-22529673Y-17198179D01*
X-22555885Y-17250820D01*
X-22605274Y-17350008D01*
X-22620582Y-17380750D01*
X-22676397Y-17576917D01*
X-22695215Y-17780000D01*
X-23024785Y-17780000D01*
X-23024785Y-17779999D01*
X-23043602Y-17576917D01*
X-23099417Y-17380752D01*
X-23099422Y-17380739D01*
X-23190327Y-17198178D01*
X-23313237Y-17035418D01*
X-23463957Y-16898020D01*
X-23600778Y-16813304D01*
X-23647413Y-16761276D01*
X-23659500Y-16707877D01*
X-23659500Y-6096000D01*
X-10815278Y-6096000D01*
X-10796237Y-6252818D01*
X-10740220Y-6400523D01*
X-10650483Y-6530530D01*
X-10532240Y-6635283D01*
X-10392365Y-6708696D01*
X-10238985Y-6746500D01*
X-10081014Y-6746500D01*
X-9927634Y-6708696D01*
X-9787762Y-6635284D01*
X-9787760Y-6635283D01*
X-9669517Y-6530530D01*
X-9579780Y-6400523D01*
X-9523762Y-6252818D01*
X-9504722Y-6096000D01*
X-9504722Y-6095999D01*
X-9523762Y-5939181D01*
X-9579780Y-5791476D01*
X-9579781Y-5791475D01*
X-9667550Y-5664319D01*
X-9689433Y-5597964D01*
X-9689500Y-5593879D01*
X-9689500Y3307879D01*
X-9669815Y3374918D01*
X-9667550Y3378319D01*
X-9579781Y3505475D01*
X-9579780Y3505476D01*
X-9523762Y3653181D01*
X-9504722Y3809999D01*
X-9504722Y3810000D01*
X-9523762Y3966818D01*
X-9579780Y4114523D01*
X-9579781Y4114524D01*
X-9669517Y4244530D01*
X-9787760Y4349283D01*
X-9823717Y4368155D01*
X-9927634Y4422696D01*
X-10081014Y4460500D01*
X-10081015Y4460500D01*
X-10238985Y4460500D01*
X-10238986Y4460500D01*
X-10348283Y4433561D01*
X-10392365Y4422696D01*
X-10532240Y4349283D01*
X-10650483Y4244530D01*
X-10740220Y4114523D01*
X-10796237Y3966818D01*
X-10815278Y3810000D01*
X-10796237Y3653182D01*
X-10740220Y3505477D01*
X-10740212Y3505466D01*
X-10652450Y3378319D01*
X-10630567Y3311964D01*
X-10630500Y3307879D01*
X-10630500Y-5593879D01*
X-10650185Y-5660918D01*
X-10652450Y-5664319D01*
X-10666850Y-5685182D01*
X-10740220Y-5791477D01*
X-10759380Y-5841999D01*
X-10796236Y-5939180D01*
X-10796237Y-5939182D01*
X-10815278Y-6096000D01*
X-23659500Y-6096000D01*
X-23659500Y-4310249D01*
X-23639815Y-4243210D01*
X-23623181Y-4222568D01*
X-17801432Y1599181D01*
X-17740109Y1632666D01*
X-17713751Y1635500D01*
X-17701014Y1635500D01*
X-17547634Y1673303D01*
X-17407762Y1746715D01*
X-17289516Y1851471D01*
X-17199781Y1981475D01*
X-17199780Y1981476D01*
X-17143762Y2129181D01*
X-17124722Y2285999D01*
X-17124722Y2286000D01*
X-17143762Y2442818D01*
X-17199780Y2590523D01*
X-17199781Y2590524D01*
X-17289516Y2720528D01*
X-17289517Y2720530D01*
X-17407760Y2825283D01*
X-17438110Y2841212D01*
X-17547634Y2898696D01*
X-17701014Y2936500D01*
X-17701015Y2936500D01*
X-17858985Y2936500D01*
X-17858986Y2936500D01*
X-18012365Y2898696D01*
X-18152240Y2825283D01*
X-18270483Y2720530D01*
X-18360220Y2590523D01*
X-18416237Y2442818D01*
X-18428722Y2339982D01*
X-18456343Y2275806D01*
X-18464126Y2267259D01*
X-23031060Y-2299673D01*
X-24417498Y-3686111D01*
X-24438136Y-3702743D01*
X-24441276Y-3704761D01*
X-24441282Y-3704766D01*
X-24473127Y-3741517D01*
X-24476131Y-3744744D01*
X-24486486Y-3755099D01*
X-24495256Y-3766815D01*
X-24498025Y-3770250D01*
X-24529878Y-3807010D01*
X-24529882Y-3807017D01*
X-24531434Y-3810415D01*
X-24544958Y-3833208D01*
X-24547194Y-3836195D01*
X-24564184Y-3881750D01*
X-24565879Y-3885841D01*
X-24586081Y-3930077D01*
X-24586083Y-3930083D01*
X-24586612Y-3933764D01*
X-24593171Y-3959464D01*
X-24594475Y-3962959D01*
X-24594475Y-3962963D01*
X-24597942Y-4011455D01*
X-24598416Y-4015865D01*
X-24600500Y-4030349D01*
X-24600500Y-4044994D01*
X-24600657Y-4049414D01*
X-24604126Y-4097910D01*
X-24603334Y-4101550D01*
X-24600500Y-4127908D01*
X-24600500Y-16707877D01*
X-24620185Y-16774916D01*
X-24659222Y-16813304D01*
X-24689843Y-16832264D01*
X-24796041Y-16898019D01*
X-24796042Y-16898020D01*
X-24946762Y-17035418D01*
X-24946764Y-17035421D01*
X-25069673Y-17198179D01*
X-25095885Y-17250820D01*
X-25145274Y-17350008D01*
X-25160582Y-17380750D01*
X-25216397Y-17576917D01*
X-25235215Y-17780000D01*
X-27939500Y-17780000D01*
X-27939500Y-105277D01*
X-25400500Y-105277D01*
X-25365844Y-312958D01*
X-25297477Y-512103D01*
X-25197265Y-697279D01*
X-25067941Y-863435D01*
X-24913032Y-1006039D01*
X-24736763Y-1121201D01*
X-24543944Y-1205779D01*
X-24339834Y-1257467D01*
X-24339829Y-1257467D01*
X-24339826Y-1257468D01*
X-24130006Y-1274854D01*
X-24130000Y-1274854D01*
X-24129994Y-1274854D01*
X-23920173Y-1257468D01*
X-23920168Y-1257467D01*
X-23920166Y-1257467D01*
X-23716056Y-1205779D01*
X-23523237Y-1121201D01*
X-23346970Y-1006041D01*
X-23250342Y-917088D01*
X-23192059Y-863435D01*
X-23129303Y-782806D01*
X-23062736Y-697281D01*
X-23062733Y-697276D01*
X-22962526Y-512109D01*
X-22962520Y-512095D01*
X-22894156Y-312960D01*
X-22861471Y-117086D01*
X-22859500Y-105277D01*
X-22859500Y0D01*
X-22858771Y17627D01*
X-22850512Y217298D01*
X-22841543Y422710D01*
X-22841126Y427676D01*
X-22813952Y645681D01*
X-22786946Y850807D01*
X-22786157Y855439D01*
X-22741086Y1070393D01*
X-22696237Y1272691D01*
X-22695129Y1276964D01*
X-22632446Y1487514D01*
X-22570076Y1685327D01*
X-22568704Y1689222D01*
X-22488819Y1893950D01*
X-22409372Y2085749D01*
X-22407792Y2089254D01*
X-22311229Y2286774D01*
X-22215304Y2471043D01*
X-22213571Y2474151D01*
X-22100978Y2663110D01*
X-21989244Y2838497D01*
X-21987412Y2841212D01*
X-21859543Y3020304D01*
X-21732860Y3185400D01*
X-21730983Y3187728D01*
X-21588658Y3355773D01*
X-21447059Y3510300D01*
X-21290300Y3667059D01*
X-21135773Y3808658D01*
X-20967728Y3950983D01*
X-20965400Y3952860D01*
X-20800304Y4079543D01*
X-20621212Y4207412D01*
X-20618497Y4209244D01*
X-20443110Y4320978D01*
X-20254151Y4433571D01*
X-20251043Y4435304D01*
X-20066774Y4531229D01*
X-19869254Y4627792D01*
X-19865749Y4629372D01*
X-19673950Y4708819D01*
X-19469222Y4788704D01*
X-19465327Y4790076D01*
X-19267514Y4852446D01*
X-19056964Y4915129D01*
X-19052691Y4916237D01*
X-18850393Y4961086D01*
X-18635439Y5006157D01*
X-18630807Y5006946D01*
X-18425681Y5033952D01*
X-18207676Y5061126D01*
X-18202710Y5061543D01*
X-17997298Y5070512D01*
X-17780000Y5079500D01*
X-17674724Y5079500D01*
X-17674723Y5079500D01*
X-17622802Y5088164D01*
X-17467039Y5114156D01*
X-17267904Y5182520D01*
X-17267890Y5182526D01*
X-17082723Y5282733D01*
X-17082718Y5282736D01*
X-16916567Y5412057D01*
X-16916562Y5412062D01*
X-16773958Y5566970D01*
X-16658798Y5743237D01*
X-16574220Y5936057D01*
X-16522533Y6140162D01*
X-16522531Y6140173D01*
X-16505146Y6349993D01*
X-16505146Y6350006D01*
X-16522531Y6559826D01*
X-16522533Y6559837D01*
X-16574220Y6763942D01*
X-16658798Y6956762D01*
X-16773958Y7133029D01*
X-16820743Y7183851D01*
X-16916565Y7287941D01*
X-17061181Y7400500D01*
X-17082718Y7417263D01*
X-17082723Y7417266D01*
X-17089440Y7420901D01*
X-17267897Y7517477D01*
X-17467042Y7585844D01*
X-17674723Y7620500D01*
X-17779500Y7620500D01*
X-17780000Y7620500D01*
X-18040324Y7620500D01*
X-18559759Y7584970D01*
X-19049949Y7517594D01*
X-19066615Y7515304D01*
X-19075557Y7514075D01*
X-19237321Y7480460D01*
X-19585310Y7408148D01*
X-19991870Y7294235D01*
X-20086657Y7267677D01*
X-20577243Y7093322D01*
X-20577252Y7093318D01*
X-20577253Y7093318D01*
X-21054784Y6885897D01*
X-21054783Y6885897D01*
X-21054788Y6885895D01*
X-21328050Y6744302D01*
X-21517057Y6646367D01*
X-21517061Y6646364D01*
X-21517064Y6646363D01*
X-21645448Y6568291D01*
X-21961912Y6375846D01*
X-22047443Y6315471D01*
X-22387269Y6075595D01*
X-22791142Y5747021D01*
X-23171651Y5391651D01*
X-23527021Y5011142D01*
X-23855595Y4607269D01*
X-23978205Y4433571D01*
X-24155846Y4181912D01*
X-24339343Y3880163D01*
X-24426363Y3737064D01*
X-24426364Y3737061D01*
X-24426367Y3737057D01*
X-24499701Y3595528D01*
X-24665895Y3274788D01*
X-24665897Y3274783D01*
X-24665897Y3274784D01*
X-24811603Y2939334D01*
X-24873322Y2797243D01*
X-25039559Y2329500D01*
X-25047677Y2306657D01*
X-25188148Y1805310D01*
X-25235838Y1575810D01*
X-25294075Y1295557D01*
X-25364970Y779759D01*
X-25400500Y260324D01*
X-25400500Y500D01*
X-25400500Y0D01*
X-25400500Y-105277D01*
X-27939500Y-105277D01*
X-27939500Y0D01*
X-27927008Y413402D01*
X-27920652Y615654D01*
X-27920428Y619318D01*
X-27888500Y970674D01*
X-27863139Y1238950D01*
X-27862708Y1242444D01*
X-27811617Y1578136D01*
X-27767375Y1857463D01*
X-27766757Y1860777D01*
X-27696648Y2187382D01*
X-27633723Y2468891D01*
X-27632939Y2472015D01*
X-27544055Y2790862D01*
X-27462689Y3070925D01*
X-27461759Y3073852D01*
X-27354405Y3384955D01*
X-27254935Y3661243D01*
X-27253881Y3663968D01*
X-27128385Y3966941D01*
X-27010703Y4238889D01*
X-26866879Y4534275D01*
X-26731968Y4799052D01*
X-26570907Y5084622D01*
X-26419297Y5340979D01*
X-26241547Y5615902D01*
X-26073898Y5862590D01*
X-25880044Y6126043D01*
X-25697087Y6361912D01*
X-25487793Y6613045D01*
X-25290278Y6837082D01*
X-25066267Y7075052D01*
X-24855052Y7286267D01*
X-24617082Y7510278D01*
X-24393045Y7707793D01*
X-24141912Y7917087D01*
X-23906043Y8100044D01*
X-23642590Y8293898D01*
X-23395902Y8461547D01*
X-23120979Y8639297D01*
X-22864622Y8790907D01*
X-22579052Y8951968D01*
X-22314275Y9086879D01*
X-22018889Y9230703D01*
X-21746941Y9348385D01*
X-21443968Y9473881D01*
X-21441243Y9474935D01*
X-21164955Y9574405D01*
X-20853852Y9681759D01*
X-20850925Y9682689D01*
X-20570862Y9764055D01*
X-20252015Y9852939D01*
X-20248891Y9853723D01*
X-19967382Y9916648D01*
X-19640777Y9986757D01*
X-19637463Y9987375D01*
X-19358136Y10031617D01*
X-19022444Y10082708D01*
X-19018950Y10083139D01*
X-18750674Y10108500D01*
X-18399318Y10140428D01*
X-18395654Y10140652D01*
X-18193402Y10147008D01*
X-17780000Y10159500D01*
X-17779500Y10159500D01*
X17779500Y10159500D01*
X17780000Y10159500D01*
X18193402Y10147008D01*
G37*
G04 #@! TD.AperFunction*
M02*
