%TF.GenerationSoftware,KiCad,Pcbnew,7.0.9*%
%TF.CreationDate,2023-12-24T17:35:53+01:00*%
%TF.ProjectId,Fusebit Doctor TQFP32 adapter,46757365-6269-4742-9044-6f63746f7220,V1.0*%
%TF.SameCoordinates,Original*%
%TF.FileFunction,Drillmap*%
%TF.FilePolarity,Positive*%
%FSLAX45Y45*%
G04 Gerber Fmt 4.5, Leading zero omitted, Abs format (unit mm)*
G04 Created by KiCad (PCBNEW 7.0.9) date 2023-12-24 17:35:53*
%MOMM*%
%LPD*%
G01*
G04 APERTURE LIST*
%ADD10C,0.100000*%
%ADD11C,0.200000*%
G04 APERTURE END LIST*
D10*
X2286000Y0D02*
G75*
G03*
X1778000Y508000I-508000J0D01*
G01*
X2540000Y0D02*
G75*
G03*
X1778000Y762000I-762000J0D01*
G01*
X1778000Y762000D02*
G75*
G03*
X1778000Y508000I0J-127000D01*
G01*
X2286000Y0D02*
G75*
G03*
X2540000Y0I127000J0D01*
G01*
X-2540000Y0D02*
G75*
G03*
X-2286000Y0I127000J0D01*
G01*
X-1778000Y508000D02*
G75*
G03*
X-1778000Y762000I0J127000D01*
G01*
X-1778000Y508000D02*
G75*
G03*
X-2286000Y0I0J-508000D01*
G01*
X-1778000Y762000D02*
G75*
G03*
X-2540000Y0I0J-762000D01*
G01*
X2794000Y0D02*
X2794000Y-1905000D01*
X2794000Y0D02*
G75*
G03*
X1778000Y1016000I-1016000J0D01*
G01*
X-2794000Y-1905000D02*
G75*
G03*
X-2540000Y-2159000I254000J0D01*
G01*
X2540000Y-2159000D02*
X-2540000Y-2159000D01*
X2540000Y-2159000D02*
G75*
G03*
X2794000Y-1905000I0J254000D01*
G01*
X-1778000Y1016000D02*
X1778000Y1016000D01*
X-2794000Y-1905000D02*
X-2794000Y0D01*
X-1778000Y1016000D02*
G75*
G03*
X-2794000Y0I0J-1016000D01*
G01*
D11*
X-2538223Y-2475484D02*
X-2538223Y-2275484D01*
X-2538223Y-2275484D02*
X-2490604Y-2275484D01*
X-2490604Y-2275484D02*
X-2462033Y-2285008D01*
X-2462033Y-2285008D02*
X-2442985Y-2304055D01*
X-2442985Y-2304055D02*
X-2433461Y-2323103D01*
X-2433461Y-2323103D02*
X-2423937Y-2361198D01*
X-2423937Y-2361198D02*
X-2423937Y-2389770D01*
X-2423937Y-2389770D02*
X-2433461Y-2427865D01*
X-2433461Y-2427865D02*
X-2442985Y-2446912D01*
X-2442985Y-2446912D02*
X-2462033Y-2465960D01*
X-2462033Y-2465960D02*
X-2490604Y-2475484D01*
X-2490604Y-2475484D02*
X-2538223Y-2475484D01*
X-2338223Y-2475484D02*
X-2338223Y-2342150D01*
X-2338223Y-2380246D02*
X-2328699Y-2361198D01*
X-2328699Y-2361198D02*
X-2319176Y-2351674D01*
X-2319176Y-2351674D02*
X-2300128Y-2342150D01*
X-2300128Y-2342150D02*
X-2281080Y-2342150D01*
X-2214414Y-2475484D02*
X-2214414Y-2342150D01*
X-2214414Y-2275484D02*
X-2223937Y-2285008D01*
X-2223937Y-2285008D02*
X-2214414Y-2294531D01*
X-2214414Y-2294531D02*
X-2204890Y-2285008D01*
X-2204890Y-2285008D02*
X-2214414Y-2275484D01*
X-2214414Y-2275484D02*
X-2214414Y-2294531D01*
X-2090604Y-2475484D02*
X-2109652Y-2465960D01*
X-2109652Y-2465960D02*
X-2119176Y-2446912D01*
X-2119176Y-2446912D02*
X-2119176Y-2275484D01*
X-1985842Y-2475484D02*
X-2004890Y-2465960D01*
X-2004890Y-2465960D02*
X-2014414Y-2446912D01*
X-2014414Y-2446912D02*
X-2014414Y-2275484D01*
X-1757271Y-2475484D02*
X-1757271Y-2275484D01*
X-1757271Y-2275484D02*
X-1690604Y-2418341D01*
X-1690604Y-2418341D02*
X-1623937Y-2275484D01*
X-1623937Y-2275484D02*
X-1623937Y-2475484D01*
X-1442985Y-2475484D02*
X-1442985Y-2370722D01*
X-1442985Y-2370722D02*
X-1452509Y-2351674D01*
X-1452509Y-2351674D02*
X-1471556Y-2342150D01*
X-1471556Y-2342150D02*
X-1509652Y-2342150D01*
X-1509652Y-2342150D02*
X-1528699Y-2351674D01*
X-1442985Y-2465960D02*
X-1462033Y-2475484D01*
X-1462033Y-2475484D02*
X-1509652Y-2475484D01*
X-1509652Y-2475484D02*
X-1528699Y-2465960D01*
X-1528699Y-2465960D02*
X-1538223Y-2446912D01*
X-1538223Y-2446912D02*
X-1538223Y-2427865D01*
X-1538223Y-2427865D02*
X-1528699Y-2408817D01*
X-1528699Y-2408817D02*
X-1509652Y-2399293D01*
X-1509652Y-2399293D02*
X-1462033Y-2399293D01*
X-1462033Y-2399293D02*
X-1442985Y-2389770D01*
X-1347747Y-2342150D02*
X-1347747Y-2542150D01*
X-1347747Y-2351674D02*
X-1328699Y-2342150D01*
X-1328699Y-2342150D02*
X-1290604Y-2342150D01*
X-1290604Y-2342150D02*
X-1271556Y-2351674D01*
X-1271556Y-2351674D02*
X-1262033Y-2361198D01*
X-1262033Y-2361198D02*
X-1252509Y-2380246D01*
X-1252509Y-2380246D02*
X-1252509Y-2437389D01*
X-1252509Y-2437389D02*
X-1262033Y-2456436D01*
X-1262033Y-2456436D02*
X-1271556Y-2465960D01*
X-1271556Y-2465960D02*
X-1290604Y-2475484D01*
X-1290604Y-2475484D02*
X-1328699Y-2475484D01*
X-1328699Y-2475484D02*
X-1347747Y-2465960D01*
X-1166795Y-2456436D02*
X-1157271Y-2465960D01*
X-1157271Y-2465960D02*
X-1166795Y-2475484D01*
X-1166795Y-2475484D02*
X-1176318Y-2465960D01*
X-1176318Y-2465960D02*
X-1166795Y-2456436D01*
X-1166795Y-2456436D02*
X-1166795Y-2475484D01*
X-1166795Y-2351674D02*
X-1157271Y-2361198D01*
X-1157271Y-2361198D02*
X-1166795Y-2370722D01*
X-1166795Y-2370722D02*
X-1176318Y-2361198D01*
X-1176318Y-2361198D02*
X-1166795Y-2351674D01*
X-1166795Y-2351674D02*
X-1166795Y-2370722D01*
M02*
