G04 #@! TF.GenerationSoftware,KiCad,Pcbnew,7.0.9*
G04 #@! TF.CreationDate,2023-12-24T17:35:41+01:00*
G04 #@! TF.ProjectId,Fusebit Doctor TQFP32 adapter,46757365-6269-4742-9044-6f63746f7220,V1.0*
G04 #@! TF.SameCoordinates,Original*
G04 #@! TF.FileFunction,Legend,Top*
G04 #@! TF.FilePolarity,Positive*
%FSLAX46Y46*%
G04 Gerber Fmt 4.6, Leading zero omitted, Abs format (unit mm)*
G04 Created by KiCad (PCBNEW 7.0.9) date 2023-12-24 17:35:41*
%MOMM*%
%LPD*%
G01*
G04 APERTURE LIST*
%ADD10C,0.150000*%
%ADD11C,0.120000*%
%ADD12R,1.700000X1.700000*%
%ADD13O,1.700000X1.700000*%
%ADD14R,1.600000X0.550000*%
%ADD15R,0.550000X1.600000*%
G04 APERTURE END LIST*
D10*
X26955714Y-18234819D02*
X26384286Y-18234819D01*
X26670000Y-18234819D02*
X26670000Y-17234819D01*
X26670000Y-17234819D02*
X26574762Y-17377676D01*
X26574762Y-17377676D02*
X26479524Y-17472914D01*
X26479524Y-17472914D02*
X26384286Y-17520533D01*
X-8553220Y4606847D02*
X-8553220Y3606847D01*
X-8553220Y4559228D02*
X-8457982Y4606847D01*
X-8457982Y4606847D02*
X-8267506Y4606847D01*
X-8267506Y4606847D02*
X-8172268Y4559228D01*
X-8172268Y4559228D02*
X-8124649Y4511609D01*
X-8124649Y4511609D02*
X-8077030Y4416371D01*
X-8077030Y4416371D02*
X-8077030Y4130657D01*
X-8077030Y4130657D02*
X-8124649Y4035419D01*
X-8124649Y4035419D02*
X-8172268Y3987800D01*
X-8172268Y3987800D02*
X-8267506Y3940180D01*
X-8267506Y3940180D02*
X-8457982Y3940180D01*
X-8457982Y3940180D02*
X-8553220Y3987800D01*
X-7648458Y3940180D02*
X-7648458Y4606847D01*
X-7648458Y4940180D02*
X-7696077Y4892561D01*
X-7696077Y4892561D02*
X-7648458Y4844942D01*
X-7648458Y4844942D02*
X-7600839Y4892561D01*
X-7600839Y4892561D02*
X-7648458Y4940180D01*
X-7648458Y4940180D02*
X-7648458Y4844942D01*
X-7172268Y4606847D02*
X-7172268Y3940180D01*
X-7172268Y4511609D02*
X-7124649Y4559228D01*
X-7124649Y4559228D02*
X-7029411Y4606847D01*
X-7029411Y4606847D02*
X-6886554Y4606847D01*
X-6886554Y4606847D02*
X-6791316Y4559228D01*
X-6791316Y4559228D02*
X-6743697Y4463990D01*
X-6743697Y4463990D02*
X-6743697Y3940180D01*
X-4981792Y3940180D02*
X-5553220Y3940180D01*
X-5267506Y3940180D02*
X-5267506Y4940180D01*
X-5267506Y4940180D02*
X-5362744Y4797323D01*
X-5362744Y4797323D02*
X-5457982Y4702085D01*
X-5457982Y4702085D02*
X-5553220Y4654466D01*
X-4172268Y4702085D02*
X-4172268Y3940180D01*
X-3981792Y4130657D02*
X-4172268Y3940180D01*
X-4172268Y3940180D02*
X-4362744Y4130657D01*
X-18976192Y-11366009D02*
X-19309525Y-11366009D01*
X-19309525Y-11889819D02*
X-19309525Y-10889819D01*
X-19309525Y-10889819D02*
X-18833335Y-10889819D01*
X-18023811Y-11223152D02*
X-18023811Y-11889819D01*
X-18452382Y-11223152D02*
X-18452382Y-11746961D01*
X-18452382Y-11746961D02*
X-18404763Y-11842200D01*
X-18404763Y-11842200D02*
X-18309525Y-11889819D01*
X-18309525Y-11889819D02*
X-18166668Y-11889819D01*
X-18166668Y-11889819D02*
X-18071430Y-11842200D01*
X-18071430Y-11842200D02*
X-18023811Y-11794580D01*
X-17595239Y-11842200D02*
X-17500001Y-11889819D01*
X-17500001Y-11889819D02*
X-17309525Y-11889819D01*
X-17309525Y-11889819D02*
X-17214287Y-11842200D01*
X-17214287Y-11842200D02*
X-17166668Y-11746961D01*
X-17166668Y-11746961D02*
X-17166668Y-11699342D01*
X-17166668Y-11699342D02*
X-17214287Y-11604104D01*
X-17214287Y-11604104D02*
X-17309525Y-11556485D01*
X-17309525Y-11556485D02*
X-17452382Y-11556485D01*
X-17452382Y-11556485D02*
X-17547620Y-11508866D01*
X-17547620Y-11508866D02*
X-17595239Y-11413628D01*
X-17595239Y-11413628D02*
X-17595239Y-11366009D01*
X-17595239Y-11366009D02*
X-17547620Y-11270771D01*
X-17547620Y-11270771D02*
X-17452382Y-11223152D01*
X-17452382Y-11223152D02*
X-17309525Y-11223152D01*
X-17309525Y-11223152D02*
X-17214287Y-11270771D01*
X-16357144Y-11842200D02*
X-16452382Y-11889819D01*
X-16452382Y-11889819D02*
X-16642858Y-11889819D01*
X-16642858Y-11889819D02*
X-16738096Y-11842200D01*
X-16738096Y-11842200D02*
X-16785715Y-11746961D01*
X-16785715Y-11746961D02*
X-16785715Y-11366009D01*
X-16785715Y-11366009D02*
X-16738096Y-11270771D01*
X-16738096Y-11270771D02*
X-16642858Y-11223152D01*
X-16642858Y-11223152D02*
X-16452382Y-11223152D01*
X-16452382Y-11223152D02*
X-16357144Y-11270771D01*
X-16357144Y-11270771D02*
X-16309525Y-11366009D01*
X-16309525Y-11366009D02*
X-16309525Y-11461247D01*
X-16309525Y-11461247D02*
X-16785715Y-11556485D01*
X-15880953Y-11889819D02*
X-15880953Y-10889819D01*
X-15880953Y-11270771D02*
X-15785715Y-11223152D01*
X-15785715Y-11223152D02*
X-15595239Y-11223152D01*
X-15595239Y-11223152D02*
X-15500001Y-11270771D01*
X-15500001Y-11270771D02*
X-15452382Y-11318390D01*
X-15452382Y-11318390D02*
X-15404763Y-11413628D01*
X-15404763Y-11413628D02*
X-15404763Y-11699342D01*
X-15404763Y-11699342D02*
X-15452382Y-11794580D01*
X-15452382Y-11794580D02*
X-15500001Y-11842200D01*
X-15500001Y-11842200D02*
X-15595239Y-11889819D01*
X-15595239Y-11889819D02*
X-15785715Y-11889819D01*
X-15785715Y-11889819D02*
X-15880953Y-11842200D01*
X-14976191Y-11889819D02*
X-14976191Y-11223152D01*
X-14976191Y-10889819D02*
X-15023810Y-10937438D01*
X-15023810Y-10937438D02*
X-14976191Y-10985057D01*
X-14976191Y-10985057D02*
X-14928572Y-10937438D01*
X-14928572Y-10937438D02*
X-14976191Y-10889819D01*
X-14976191Y-10889819D02*
X-14976191Y-10985057D01*
X-14642858Y-11223152D02*
X-14261906Y-11223152D01*
X-14500001Y-10889819D02*
X-14500001Y-11746961D01*
X-14500001Y-11746961D02*
X-14452382Y-11842200D01*
X-14452382Y-11842200D02*
X-14357144Y-11889819D01*
X-14357144Y-11889819D02*
X-14261906Y-11889819D01*
X-13166667Y-11889819D02*
X-13166667Y-10889819D01*
X-13166667Y-10889819D02*
X-12928572Y-10889819D01*
X-12928572Y-10889819D02*
X-12785715Y-10937438D01*
X-12785715Y-10937438D02*
X-12690477Y-11032676D01*
X-12690477Y-11032676D02*
X-12642858Y-11127914D01*
X-12642858Y-11127914D02*
X-12595239Y-11318390D01*
X-12595239Y-11318390D02*
X-12595239Y-11461247D01*
X-12595239Y-11461247D02*
X-12642858Y-11651723D01*
X-12642858Y-11651723D02*
X-12690477Y-11746961D01*
X-12690477Y-11746961D02*
X-12785715Y-11842200D01*
X-12785715Y-11842200D02*
X-12928572Y-11889819D01*
X-12928572Y-11889819D02*
X-13166667Y-11889819D01*
X-12023810Y-11889819D02*
X-12119048Y-11842200D01*
X-12119048Y-11842200D02*
X-12166667Y-11794580D01*
X-12166667Y-11794580D02*
X-12214286Y-11699342D01*
X-12214286Y-11699342D02*
X-12214286Y-11413628D01*
X-12214286Y-11413628D02*
X-12166667Y-11318390D01*
X-12166667Y-11318390D02*
X-12119048Y-11270771D01*
X-12119048Y-11270771D02*
X-12023810Y-11223152D01*
X-12023810Y-11223152D02*
X-11880953Y-11223152D01*
X-11880953Y-11223152D02*
X-11785715Y-11270771D01*
X-11785715Y-11270771D02*
X-11738096Y-11318390D01*
X-11738096Y-11318390D02*
X-11690477Y-11413628D01*
X-11690477Y-11413628D02*
X-11690477Y-11699342D01*
X-11690477Y-11699342D02*
X-11738096Y-11794580D01*
X-11738096Y-11794580D02*
X-11785715Y-11842200D01*
X-11785715Y-11842200D02*
X-11880953Y-11889819D01*
X-11880953Y-11889819D02*
X-12023810Y-11889819D01*
X-10833334Y-11842200D02*
X-10928572Y-11889819D01*
X-10928572Y-11889819D02*
X-11119048Y-11889819D01*
X-11119048Y-11889819D02*
X-11214286Y-11842200D01*
X-11214286Y-11842200D02*
X-11261905Y-11794580D01*
X-11261905Y-11794580D02*
X-11309524Y-11699342D01*
X-11309524Y-11699342D02*
X-11309524Y-11413628D01*
X-11309524Y-11413628D02*
X-11261905Y-11318390D01*
X-11261905Y-11318390D02*
X-11214286Y-11270771D01*
X-11214286Y-11270771D02*
X-11119048Y-11223152D01*
X-11119048Y-11223152D02*
X-10928572Y-11223152D01*
X-10928572Y-11223152D02*
X-10833334Y-11270771D01*
X-10547619Y-11223152D02*
X-10166667Y-11223152D01*
X-10404762Y-10889819D02*
X-10404762Y-11746961D01*
X-10404762Y-11746961D02*
X-10357143Y-11842200D01*
X-10357143Y-11842200D02*
X-10261905Y-11889819D01*
X-10261905Y-11889819D02*
X-10166667Y-11889819D01*
X-9690476Y-11889819D02*
X-9785714Y-11842200D01*
X-9785714Y-11842200D02*
X-9833333Y-11794580D01*
X-9833333Y-11794580D02*
X-9880952Y-11699342D01*
X-9880952Y-11699342D02*
X-9880952Y-11413628D01*
X-9880952Y-11413628D02*
X-9833333Y-11318390D01*
X-9833333Y-11318390D02*
X-9785714Y-11270771D01*
X-9785714Y-11270771D02*
X-9690476Y-11223152D01*
X-9690476Y-11223152D02*
X-9547619Y-11223152D01*
X-9547619Y-11223152D02*
X-9452381Y-11270771D01*
X-9452381Y-11270771D02*
X-9404762Y-11318390D01*
X-9404762Y-11318390D02*
X-9357143Y-11413628D01*
X-9357143Y-11413628D02*
X-9357143Y-11699342D01*
X-9357143Y-11699342D02*
X-9404762Y-11794580D01*
X-9404762Y-11794580D02*
X-9452381Y-11842200D01*
X-9452381Y-11842200D02*
X-9547619Y-11889819D01*
X-9547619Y-11889819D02*
X-9690476Y-11889819D01*
X-8928571Y-11889819D02*
X-8928571Y-11223152D01*
X-8928571Y-11413628D02*
X-8880952Y-11318390D01*
X-8880952Y-11318390D02*
X-8833333Y-11270771D01*
X-8833333Y-11270771D02*
X-8738095Y-11223152D01*
X-8738095Y-11223152D02*
X-8642857Y-11223152D01*
X-7690475Y-10889819D02*
X-7119047Y-10889819D01*
X-7404761Y-11889819D02*
X-7404761Y-10889819D01*
X-6119047Y-11985057D02*
X-6214285Y-11937438D01*
X-6214285Y-11937438D02*
X-6309523Y-11842200D01*
X-6309523Y-11842200D02*
X-6452380Y-11699342D01*
X-6452380Y-11699342D02*
X-6547618Y-11651723D01*
X-6547618Y-11651723D02*
X-6642856Y-11651723D01*
X-6595237Y-11889819D02*
X-6690475Y-11842200D01*
X-6690475Y-11842200D02*
X-6785713Y-11746961D01*
X-6785713Y-11746961D02*
X-6833332Y-11556485D01*
X-6833332Y-11556485D02*
X-6833332Y-11223152D01*
X-6833332Y-11223152D02*
X-6785713Y-11032676D01*
X-6785713Y-11032676D02*
X-6690475Y-10937438D01*
X-6690475Y-10937438D02*
X-6595237Y-10889819D01*
X-6595237Y-10889819D02*
X-6404761Y-10889819D01*
X-6404761Y-10889819D02*
X-6309523Y-10937438D01*
X-6309523Y-10937438D02*
X-6214285Y-11032676D01*
X-6214285Y-11032676D02*
X-6166666Y-11223152D01*
X-6166666Y-11223152D02*
X-6166666Y-11556485D01*
X-6166666Y-11556485D02*
X-6214285Y-11746961D01*
X-6214285Y-11746961D02*
X-6309523Y-11842200D01*
X-6309523Y-11842200D02*
X-6404761Y-11889819D01*
X-6404761Y-11889819D02*
X-6595237Y-11889819D01*
X-5404761Y-11366009D02*
X-5738094Y-11366009D01*
X-5738094Y-11889819D02*
X-5738094Y-10889819D01*
X-5738094Y-10889819D02*
X-5261904Y-10889819D01*
X-4880951Y-11889819D02*
X-4880951Y-10889819D01*
X-4880951Y-10889819D02*
X-4499999Y-10889819D01*
X-4499999Y-10889819D02*
X-4404761Y-10937438D01*
X-4404761Y-10937438D02*
X-4357142Y-10985057D01*
X-4357142Y-10985057D02*
X-4309523Y-11080295D01*
X-4309523Y-11080295D02*
X-4309523Y-11223152D01*
X-4309523Y-11223152D02*
X-4357142Y-11318390D01*
X-4357142Y-11318390D02*
X-4404761Y-11366009D01*
X-4404761Y-11366009D02*
X-4499999Y-11413628D01*
X-4499999Y-11413628D02*
X-4880951Y-11413628D01*
X-3976189Y-10889819D02*
X-3357142Y-10889819D01*
X-3357142Y-10889819D02*
X-3690475Y-11270771D01*
X-3690475Y-11270771D02*
X-3547618Y-11270771D01*
X-3547618Y-11270771D02*
X-3452380Y-11318390D01*
X-3452380Y-11318390D02*
X-3404761Y-11366009D01*
X-3404761Y-11366009D02*
X-3357142Y-11461247D01*
X-3357142Y-11461247D02*
X-3357142Y-11699342D01*
X-3357142Y-11699342D02*
X-3404761Y-11794580D01*
X-3404761Y-11794580D02*
X-3452380Y-11842200D01*
X-3452380Y-11842200D02*
X-3547618Y-11889819D01*
X-3547618Y-11889819D02*
X-3833332Y-11889819D01*
X-3833332Y-11889819D02*
X-3928570Y-11842200D01*
X-3928570Y-11842200D02*
X-3976189Y-11794580D01*
X-2976189Y-10985057D02*
X-2928570Y-10937438D01*
X-2928570Y-10937438D02*
X-2833332Y-10889819D01*
X-2833332Y-10889819D02*
X-2595237Y-10889819D01*
X-2595237Y-10889819D02*
X-2499999Y-10937438D01*
X-2499999Y-10937438D02*
X-2452380Y-10985057D01*
X-2452380Y-10985057D02*
X-2404761Y-11080295D01*
X-2404761Y-11080295D02*
X-2404761Y-11175533D01*
X-2404761Y-11175533D02*
X-2452380Y-11318390D01*
X-2452380Y-11318390D02*
X-3023808Y-11889819D01*
X-3023808Y-11889819D02*
X-2404761Y-11889819D01*
X-785713Y-11889819D02*
X-785713Y-11366009D01*
X-785713Y-11366009D02*
X-833332Y-11270771D01*
X-833332Y-11270771D02*
X-928570Y-11223152D01*
X-928570Y-11223152D02*
X-1119046Y-11223152D01*
X-1119046Y-11223152D02*
X-1214284Y-11270771D01*
X-785713Y-11842200D02*
X-880951Y-11889819D01*
X-880951Y-11889819D02*
X-1119046Y-11889819D01*
X-1119046Y-11889819D02*
X-1214284Y-11842200D01*
X-1214284Y-11842200D02*
X-1261903Y-11746961D01*
X-1261903Y-11746961D02*
X-1261903Y-11651723D01*
X-1261903Y-11651723D02*
X-1214284Y-11556485D01*
X-1214284Y-11556485D02*
X-1119046Y-11508866D01*
X-1119046Y-11508866D02*
X-880951Y-11508866D01*
X-880951Y-11508866D02*
X-785713Y-11461247D01*
X119048Y-11889819D02*
X119048Y-10889819D01*
X119048Y-11842200D02*
X23810Y-11889819D01*
X23810Y-11889819D02*
X-166665Y-11889819D01*
X-166665Y-11889819D02*
X-261903Y-11842200D01*
X-261903Y-11842200D02*
X-309522Y-11794580D01*
X-309522Y-11794580D02*
X-357141Y-11699342D01*
X-357141Y-11699342D02*
X-357141Y-11413628D01*
X-357141Y-11413628D02*
X-309522Y-11318390D01*
X-309522Y-11318390D02*
X-261903Y-11270771D01*
X-261903Y-11270771D02*
X-166665Y-11223152D01*
X-166665Y-11223152D02*
X23810Y-11223152D01*
X23810Y-11223152D02*
X119048Y-11270771D01*
X1023810Y-11889819D02*
X1023810Y-11366009D01*
X1023810Y-11366009D02*
X976191Y-11270771D01*
X976191Y-11270771D02*
X880953Y-11223152D01*
X880953Y-11223152D02*
X690477Y-11223152D01*
X690477Y-11223152D02*
X595239Y-11270771D01*
X1023810Y-11842200D02*
X928572Y-11889819D01*
X928572Y-11889819D02*
X690477Y-11889819D01*
X690477Y-11889819D02*
X595239Y-11842200D01*
X595239Y-11842200D02*
X547620Y-11746961D01*
X547620Y-11746961D02*
X547620Y-11651723D01*
X547620Y-11651723D02*
X595239Y-11556485D01*
X595239Y-11556485D02*
X690477Y-11508866D01*
X690477Y-11508866D02*
X928572Y-11508866D01*
X928572Y-11508866D02*
X1023810Y-11461247D01*
X1500001Y-11223152D02*
X1500001Y-12223152D01*
X1500001Y-11270771D02*
X1595239Y-11223152D01*
X1595239Y-11223152D02*
X1785715Y-11223152D01*
X1785715Y-11223152D02*
X1880953Y-11270771D01*
X1880953Y-11270771D02*
X1928572Y-11318390D01*
X1928572Y-11318390D02*
X1976191Y-11413628D01*
X1976191Y-11413628D02*
X1976191Y-11699342D01*
X1976191Y-11699342D02*
X1928572Y-11794580D01*
X1928572Y-11794580D02*
X1880953Y-11842200D01*
X1880953Y-11842200D02*
X1785715Y-11889819D01*
X1785715Y-11889819D02*
X1595239Y-11889819D01*
X1595239Y-11889819D02*
X1500001Y-11842200D01*
X2261906Y-11223152D02*
X2642858Y-11223152D01*
X2404763Y-10889819D02*
X2404763Y-11746961D01*
X2404763Y-11746961D02*
X2452382Y-11842200D01*
X2452382Y-11842200D02*
X2547620Y-11889819D01*
X2547620Y-11889819D02*
X2642858Y-11889819D01*
X3357144Y-11842200D02*
X3261906Y-11889819D01*
X3261906Y-11889819D02*
X3071430Y-11889819D01*
X3071430Y-11889819D02*
X2976192Y-11842200D01*
X2976192Y-11842200D02*
X2928573Y-11746961D01*
X2928573Y-11746961D02*
X2928573Y-11366009D01*
X2928573Y-11366009D02*
X2976192Y-11270771D01*
X2976192Y-11270771D02*
X3071430Y-11223152D01*
X3071430Y-11223152D02*
X3261906Y-11223152D01*
X3261906Y-11223152D02*
X3357144Y-11270771D01*
X3357144Y-11270771D02*
X3404763Y-11366009D01*
X3404763Y-11366009D02*
X3404763Y-11461247D01*
X3404763Y-11461247D02*
X2928573Y-11556485D01*
X3833335Y-11889819D02*
X3833335Y-11223152D01*
X3833335Y-11413628D02*
X3880954Y-11318390D01*
X3880954Y-11318390D02*
X3928573Y-11270771D01*
X3928573Y-11270771D02*
X4023811Y-11223152D01*
X4023811Y-11223152D02*
X4119049Y-11223152D01*
X4500002Y-11842200D02*
X4500002Y-11889819D01*
X4500002Y-11889819D02*
X4452383Y-11985057D01*
X4452383Y-11985057D02*
X4404764Y-12032676D01*
X5642859Y-10985057D02*
X5690478Y-10937438D01*
X5690478Y-10937438D02*
X5785716Y-10889819D01*
X5785716Y-10889819D02*
X6023811Y-10889819D01*
X6023811Y-10889819D02*
X6119049Y-10937438D01*
X6119049Y-10937438D02*
X6166668Y-10985057D01*
X6166668Y-10985057D02*
X6214287Y-11080295D01*
X6214287Y-11080295D02*
X6214287Y-11175533D01*
X6214287Y-11175533D02*
X6166668Y-11318390D01*
X6166668Y-11318390D02*
X5595240Y-11889819D01*
X5595240Y-11889819D02*
X6214287Y-11889819D01*
X6833335Y-10889819D02*
X6928573Y-10889819D01*
X6928573Y-10889819D02*
X7023811Y-10937438D01*
X7023811Y-10937438D02*
X7071430Y-10985057D01*
X7071430Y-10985057D02*
X7119049Y-11080295D01*
X7119049Y-11080295D02*
X7166668Y-11270771D01*
X7166668Y-11270771D02*
X7166668Y-11508866D01*
X7166668Y-11508866D02*
X7119049Y-11699342D01*
X7119049Y-11699342D02*
X7071430Y-11794580D01*
X7071430Y-11794580D02*
X7023811Y-11842200D01*
X7023811Y-11842200D02*
X6928573Y-11889819D01*
X6928573Y-11889819D02*
X6833335Y-11889819D01*
X6833335Y-11889819D02*
X6738097Y-11842200D01*
X6738097Y-11842200D02*
X6690478Y-11794580D01*
X6690478Y-11794580D02*
X6642859Y-11699342D01*
X6642859Y-11699342D02*
X6595240Y-11508866D01*
X6595240Y-11508866D02*
X6595240Y-11270771D01*
X6595240Y-11270771D02*
X6642859Y-11080295D01*
X6642859Y-11080295D02*
X6690478Y-10985057D01*
X6690478Y-10985057D02*
X6738097Y-10937438D01*
X6738097Y-10937438D02*
X6833335Y-10889819D01*
X7547621Y-10985057D02*
X7595240Y-10937438D01*
X7595240Y-10937438D02*
X7690478Y-10889819D01*
X7690478Y-10889819D02*
X7928573Y-10889819D01*
X7928573Y-10889819D02*
X8023811Y-10937438D01*
X8023811Y-10937438D02*
X8071430Y-10985057D01*
X8071430Y-10985057D02*
X8119049Y-11080295D01*
X8119049Y-11080295D02*
X8119049Y-11175533D01*
X8119049Y-11175533D02*
X8071430Y-11318390D01*
X8071430Y-11318390D02*
X7500002Y-11889819D01*
X7500002Y-11889819D02*
X8119049Y-11889819D01*
X8452383Y-10889819D02*
X9071430Y-10889819D01*
X9071430Y-10889819D02*
X8738097Y-11270771D01*
X8738097Y-11270771D02*
X8880954Y-11270771D01*
X8880954Y-11270771D02*
X8976192Y-11318390D01*
X8976192Y-11318390D02*
X9023811Y-11366009D01*
X9023811Y-11366009D02*
X9071430Y-11461247D01*
X9071430Y-11461247D02*
X9071430Y-11699342D01*
X9071430Y-11699342D02*
X9023811Y-11794580D01*
X9023811Y-11794580D02*
X8976192Y-11842200D01*
X8976192Y-11842200D02*
X8880954Y-11889819D01*
X8880954Y-11889819D02*
X8595240Y-11889819D01*
X8595240Y-11889819D02*
X8500002Y-11842200D01*
X8500002Y-11842200D02*
X8452383Y-11794580D01*
X9500002Y-11508866D02*
X10261907Y-11508866D01*
X11261906Y-11889819D02*
X10690478Y-11889819D01*
X10976192Y-11889819D02*
X10976192Y-10889819D01*
X10976192Y-10889819D02*
X10880954Y-11032676D01*
X10880954Y-11032676D02*
X10785716Y-11127914D01*
X10785716Y-11127914D02*
X10690478Y-11175533D01*
X11642859Y-10985057D02*
X11690478Y-10937438D01*
X11690478Y-10937438D02*
X11785716Y-10889819D01*
X11785716Y-10889819D02*
X12023811Y-10889819D01*
X12023811Y-10889819D02*
X12119049Y-10937438D01*
X12119049Y-10937438D02*
X12166668Y-10985057D01*
X12166668Y-10985057D02*
X12214287Y-11080295D01*
X12214287Y-11080295D02*
X12214287Y-11175533D01*
X12214287Y-11175533D02*
X12166668Y-11318390D01*
X12166668Y-11318390D02*
X11595240Y-11889819D01*
X11595240Y-11889819D02*
X12214287Y-11889819D01*
X12642859Y-11508866D02*
X13404764Y-11508866D01*
X13833335Y-10985057D02*
X13880954Y-10937438D01*
X13880954Y-10937438D02*
X13976192Y-10889819D01*
X13976192Y-10889819D02*
X14214287Y-10889819D01*
X14214287Y-10889819D02*
X14309525Y-10937438D01*
X14309525Y-10937438D02*
X14357144Y-10985057D01*
X14357144Y-10985057D02*
X14404763Y-11080295D01*
X14404763Y-11080295D02*
X14404763Y-11175533D01*
X14404763Y-11175533D02*
X14357144Y-11318390D01*
X14357144Y-11318390D02*
X13785716Y-11889819D01*
X13785716Y-11889819D02*
X14404763Y-11889819D01*
X15261906Y-11223152D02*
X15261906Y-11889819D01*
X15023811Y-10842200D02*
X14785716Y-11556485D01*
X14785716Y-11556485D02*
X15404763Y-11556485D01*
X16404764Y-10889819D02*
X16738097Y-11889819D01*
X16738097Y-11889819D02*
X17071430Y-10889819D01*
X17928573Y-11889819D02*
X17357145Y-11889819D01*
X17642859Y-11889819D02*
X17642859Y-10889819D01*
X17642859Y-10889819D02*
X17547621Y-11032676D01*
X17547621Y-11032676D02*
X17452383Y-11127914D01*
X17452383Y-11127914D02*
X17357145Y-11175533D01*
X18357145Y-11794580D02*
X18404764Y-11842200D01*
X18404764Y-11842200D02*
X18357145Y-11889819D01*
X18357145Y-11889819D02*
X18309526Y-11842200D01*
X18309526Y-11842200D02*
X18357145Y-11794580D01*
X18357145Y-11794580D02*
X18357145Y-11889819D01*
X19023811Y-10889819D02*
X19119049Y-10889819D01*
X19119049Y-10889819D02*
X19214287Y-10937438D01*
X19214287Y-10937438D02*
X19261906Y-10985057D01*
X19261906Y-10985057D02*
X19309525Y-11080295D01*
X19309525Y-11080295D02*
X19357144Y-11270771D01*
X19357144Y-11270771D02*
X19357144Y-11508866D01*
X19357144Y-11508866D02*
X19309525Y-11699342D01*
X19309525Y-11699342D02*
X19261906Y-11794580D01*
X19261906Y-11794580D02*
X19214287Y-11842200D01*
X19214287Y-11842200D02*
X19119049Y-11889819D01*
X19119049Y-11889819D02*
X19023811Y-11889819D01*
X19023811Y-11889819D02*
X18928573Y-11842200D01*
X18928573Y-11842200D02*
X18880954Y-11794580D01*
X18880954Y-11794580D02*
X18833335Y-11699342D01*
X18833335Y-11699342D02*
X18785716Y-11508866D01*
X18785716Y-11508866D02*
X18785716Y-11270771D01*
X18785716Y-11270771D02*
X18833335Y-11080295D01*
X18833335Y-11080295D02*
X18880954Y-10985057D01*
X18880954Y-10985057D02*
X18928573Y-10937438D01*
X18928573Y-10937438D02*
X19023811Y-10889819D01*
X-26023811Y-13499819D02*
X-26023811Y-12499819D01*
X-25595240Y-13499819D02*
X-25595240Y-12976009D01*
X-25595240Y-12976009D02*
X-25642859Y-12880771D01*
X-25642859Y-12880771D02*
X-25738097Y-12833152D01*
X-25738097Y-12833152D02*
X-25880954Y-12833152D01*
X-25880954Y-12833152D02*
X-25976192Y-12880771D01*
X-25976192Y-12880771D02*
X-26023811Y-12928390D01*
X-25261906Y-12833152D02*
X-24880954Y-12833152D01*
X-25119049Y-12499819D02*
X-25119049Y-13356961D01*
X-25119049Y-13356961D02*
X-25071430Y-13452200D01*
X-25071430Y-13452200D02*
X-24976192Y-13499819D01*
X-24976192Y-13499819D02*
X-24880954Y-13499819D01*
X-24690477Y-12833152D02*
X-24309525Y-12833152D01*
X-24547620Y-12499819D02*
X-24547620Y-13356961D01*
X-24547620Y-13356961D02*
X-24500001Y-13452200D01*
X-24500001Y-13452200D02*
X-24404763Y-13499819D01*
X-24404763Y-13499819D02*
X-24309525Y-13499819D01*
X-23976191Y-12833152D02*
X-23976191Y-13833152D01*
X-23976191Y-12880771D02*
X-23880953Y-12833152D01*
X-23880953Y-12833152D02*
X-23690477Y-12833152D01*
X-23690477Y-12833152D02*
X-23595239Y-12880771D01*
X-23595239Y-12880771D02*
X-23547620Y-12928390D01*
X-23547620Y-12928390D02*
X-23500001Y-13023628D01*
X-23500001Y-13023628D02*
X-23500001Y-13309342D01*
X-23500001Y-13309342D02*
X-23547620Y-13404580D01*
X-23547620Y-13404580D02*
X-23595239Y-13452200D01*
X-23595239Y-13452200D02*
X-23690477Y-13499819D01*
X-23690477Y-13499819D02*
X-23880953Y-13499819D01*
X-23880953Y-13499819D02*
X-23976191Y-13452200D01*
X-23119048Y-13452200D02*
X-23023810Y-13499819D01*
X-23023810Y-13499819D02*
X-22833334Y-13499819D01*
X-22833334Y-13499819D02*
X-22738096Y-13452200D01*
X-22738096Y-13452200D02*
X-22690477Y-13356961D01*
X-22690477Y-13356961D02*
X-22690477Y-13309342D01*
X-22690477Y-13309342D02*
X-22738096Y-13214104D01*
X-22738096Y-13214104D02*
X-22833334Y-13166485D01*
X-22833334Y-13166485D02*
X-22976191Y-13166485D01*
X-22976191Y-13166485D02*
X-23071429Y-13118866D01*
X-23071429Y-13118866D02*
X-23119048Y-13023628D01*
X-23119048Y-13023628D02*
X-23119048Y-12976009D01*
X-23119048Y-12976009D02*
X-23071429Y-12880771D01*
X-23071429Y-12880771D02*
X-22976191Y-12833152D01*
X-22976191Y-12833152D02*
X-22833334Y-12833152D01*
X-22833334Y-12833152D02*
X-22738096Y-12880771D01*
X-22261905Y-13404580D02*
X-22214286Y-13452200D01*
X-22214286Y-13452200D02*
X-22261905Y-13499819D01*
X-22261905Y-13499819D02*
X-22309524Y-13452200D01*
X-22309524Y-13452200D02*
X-22261905Y-13404580D01*
X-22261905Y-13404580D02*
X-22261905Y-13499819D01*
X-22261905Y-12880771D02*
X-22214286Y-12928390D01*
X-22214286Y-12928390D02*
X-22261905Y-12976009D01*
X-22261905Y-12976009D02*
X-22309524Y-12928390D01*
X-22309524Y-12928390D02*
X-22261905Y-12880771D01*
X-22261905Y-12880771D02*
X-22261905Y-12976009D01*
X-21071430Y-12452200D02*
X-21928572Y-13737914D01*
X-20023811Y-12452200D02*
X-20880953Y-13737914D01*
X-19261906Y-12833152D02*
X-19261906Y-13642676D01*
X-19261906Y-13642676D02*
X-19309525Y-13737914D01*
X-19309525Y-13737914D02*
X-19357144Y-13785533D01*
X-19357144Y-13785533D02*
X-19452382Y-13833152D01*
X-19452382Y-13833152D02*
X-19595239Y-13833152D01*
X-19595239Y-13833152D02*
X-19690477Y-13785533D01*
X-19261906Y-13452200D02*
X-19357144Y-13499819D01*
X-19357144Y-13499819D02*
X-19547620Y-13499819D01*
X-19547620Y-13499819D02*
X-19642858Y-13452200D01*
X-19642858Y-13452200D02*
X-19690477Y-13404580D01*
X-19690477Y-13404580D02*
X-19738096Y-13309342D01*
X-19738096Y-13309342D02*
X-19738096Y-13023628D01*
X-19738096Y-13023628D02*
X-19690477Y-12928390D01*
X-19690477Y-12928390D02*
X-19642858Y-12880771D01*
X-19642858Y-12880771D02*
X-19547620Y-12833152D01*
X-19547620Y-12833152D02*
X-19357144Y-12833152D01*
X-19357144Y-12833152D02*
X-19261906Y-12880771D01*
X-18785715Y-13499819D02*
X-18785715Y-12833152D01*
X-18785715Y-12499819D02*
X-18833334Y-12547438D01*
X-18833334Y-12547438D02*
X-18785715Y-12595057D01*
X-18785715Y-12595057D02*
X-18738096Y-12547438D01*
X-18738096Y-12547438D02*
X-18785715Y-12499819D01*
X-18785715Y-12499819D02*
X-18785715Y-12595057D01*
X-18452382Y-12833152D02*
X-18071430Y-12833152D01*
X-18309525Y-12499819D02*
X-18309525Y-13356961D01*
X-18309525Y-13356961D02*
X-18261906Y-13452200D01*
X-18261906Y-13452200D02*
X-18166668Y-13499819D01*
X-18166668Y-13499819D02*
X-18071430Y-13499819D01*
X-17738096Y-13499819D02*
X-17738096Y-12499819D01*
X-17309525Y-13499819D02*
X-17309525Y-12976009D01*
X-17309525Y-12976009D02*
X-17357144Y-12880771D01*
X-17357144Y-12880771D02*
X-17452382Y-12833152D01*
X-17452382Y-12833152D02*
X-17595239Y-12833152D01*
X-17595239Y-12833152D02*
X-17690477Y-12880771D01*
X-17690477Y-12880771D02*
X-17738096Y-12928390D01*
X-16404763Y-12833152D02*
X-16404763Y-13499819D01*
X-16833334Y-12833152D02*
X-16833334Y-13356961D01*
X-16833334Y-13356961D02*
X-16785715Y-13452200D01*
X-16785715Y-13452200D02*
X-16690477Y-13499819D01*
X-16690477Y-13499819D02*
X-16547620Y-13499819D01*
X-16547620Y-13499819D02*
X-16452382Y-13452200D01*
X-16452382Y-13452200D02*
X-16404763Y-13404580D01*
X-15928572Y-13499819D02*
X-15928572Y-12499819D01*
X-15928572Y-12880771D02*
X-15833334Y-12833152D01*
X-15833334Y-12833152D02*
X-15642858Y-12833152D01*
X-15642858Y-12833152D02*
X-15547620Y-12880771D01*
X-15547620Y-12880771D02*
X-15500001Y-12928390D01*
X-15500001Y-12928390D02*
X-15452382Y-13023628D01*
X-15452382Y-13023628D02*
X-15452382Y-13309342D01*
X-15452382Y-13309342D02*
X-15500001Y-13404580D01*
X-15500001Y-13404580D02*
X-15547620Y-13452200D01*
X-15547620Y-13452200D02*
X-15642858Y-13499819D01*
X-15642858Y-13499819D02*
X-15833334Y-13499819D01*
X-15833334Y-13499819D02*
X-15928572Y-13452200D01*
X-15023810Y-13404580D02*
X-14976191Y-13452200D01*
X-14976191Y-13452200D02*
X-15023810Y-13499819D01*
X-15023810Y-13499819D02*
X-15071429Y-13452200D01*
X-15071429Y-13452200D02*
X-15023810Y-13404580D01*
X-15023810Y-13404580D02*
X-15023810Y-13499819D01*
X-14119049Y-13452200D02*
X-14214287Y-13499819D01*
X-14214287Y-13499819D02*
X-14404763Y-13499819D01*
X-14404763Y-13499819D02*
X-14500001Y-13452200D01*
X-14500001Y-13452200D02*
X-14547620Y-13404580D01*
X-14547620Y-13404580D02*
X-14595239Y-13309342D01*
X-14595239Y-13309342D02*
X-14595239Y-13023628D01*
X-14595239Y-13023628D02*
X-14547620Y-12928390D01*
X-14547620Y-12928390D02*
X-14500001Y-12880771D01*
X-14500001Y-12880771D02*
X-14404763Y-12833152D01*
X-14404763Y-12833152D02*
X-14214287Y-12833152D01*
X-14214287Y-12833152D02*
X-14119049Y-12880771D01*
X-13547620Y-13499819D02*
X-13642858Y-13452200D01*
X-13642858Y-13452200D02*
X-13690477Y-13404580D01*
X-13690477Y-13404580D02*
X-13738096Y-13309342D01*
X-13738096Y-13309342D02*
X-13738096Y-13023628D01*
X-13738096Y-13023628D02*
X-13690477Y-12928390D01*
X-13690477Y-12928390D02*
X-13642858Y-12880771D01*
X-13642858Y-12880771D02*
X-13547620Y-12833152D01*
X-13547620Y-12833152D02*
X-13404763Y-12833152D01*
X-13404763Y-12833152D02*
X-13309525Y-12880771D01*
X-13309525Y-12880771D02*
X-13261906Y-12928390D01*
X-13261906Y-12928390D02*
X-13214287Y-13023628D01*
X-13214287Y-13023628D02*
X-13214287Y-13309342D01*
X-13214287Y-13309342D02*
X-13261906Y-13404580D01*
X-13261906Y-13404580D02*
X-13309525Y-13452200D01*
X-13309525Y-13452200D02*
X-13404763Y-13499819D01*
X-13404763Y-13499819D02*
X-13547620Y-13499819D01*
X-12785715Y-13499819D02*
X-12785715Y-12833152D01*
X-12785715Y-12928390D02*
X-12738096Y-12880771D01*
X-12738096Y-12880771D02*
X-12642858Y-12833152D01*
X-12642858Y-12833152D02*
X-12500001Y-12833152D01*
X-12500001Y-12833152D02*
X-12404763Y-12880771D01*
X-12404763Y-12880771D02*
X-12357144Y-12976009D01*
X-12357144Y-12976009D02*
X-12357144Y-13499819D01*
X-12357144Y-12976009D02*
X-12309525Y-12880771D01*
X-12309525Y-12880771D02*
X-12214287Y-12833152D01*
X-12214287Y-12833152D02*
X-12071430Y-12833152D01*
X-12071430Y-12833152D02*
X-11976191Y-12880771D01*
X-11976191Y-12880771D02*
X-11928572Y-12976009D01*
X-11928572Y-12976009D02*
X-11928572Y-13499819D01*
X-10738097Y-12452200D02*
X-11595239Y-13737914D01*
X-9976192Y-13499819D02*
X-9976192Y-12976009D01*
X-9976192Y-12976009D02*
X-10023811Y-12880771D01*
X-10023811Y-12880771D02*
X-10119049Y-12833152D01*
X-10119049Y-12833152D02*
X-10309525Y-12833152D01*
X-10309525Y-12833152D02*
X-10404763Y-12880771D01*
X-9976192Y-13452200D02*
X-10071430Y-13499819D01*
X-10071430Y-13499819D02*
X-10309525Y-13499819D01*
X-10309525Y-13499819D02*
X-10404763Y-13452200D01*
X-10404763Y-13452200D02*
X-10452382Y-13356961D01*
X-10452382Y-13356961D02*
X-10452382Y-13261723D01*
X-10452382Y-13261723D02*
X-10404763Y-13166485D01*
X-10404763Y-13166485D02*
X-10309525Y-13118866D01*
X-10309525Y-13118866D02*
X-10071430Y-13118866D01*
X-10071430Y-13118866D02*
X-9976192Y-13071247D01*
X-9642858Y-12833152D02*
X-9261906Y-12833152D01*
X-9500001Y-12499819D02*
X-9500001Y-13356961D01*
X-9500001Y-13356961D02*
X-9452382Y-13452200D01*
X-9452382Y-13452200D02*
X-9357144Y-13499819D01*
X-9357144Y-13499819D02*
X-9261906Y-13499819D01*
X-8785715Y-13499819D02*
X-8880953Y-13452200D01*
X-8880953Y-13452200D02*
X-8928572Y-13404580D01*
X-8928572Y-13404580D02*
X-8976191Y-13309342D01*
X-8976191Y-13309342D02*
X-8976191Y-13023628D01*
X-8976191Y-13023628D02*
X-8928572Y-12928390D01*
X-8928572Y-12928390D02*
X-8880953Y-12880771D01*
X-8880953Y-12880771D02*
X-8785715Y-12833152D01*
X-8785715Y-12833152D02*
X-8642858Y-12833152D01*
X-8642858Y-12833152D02*
X-8547620Y-12880771D01*
X-8547620Y-12880771D02*
X-8500001Y-12928390D01*
X-8500001Y-12928390D02*
X-8452382Y-13023628D01*
X-8452382Y-13023628D02*
X-8452382Y-13309342D01*
X-8452382Y-13309342D02*
X-8500001Y-13404580D01*
X-8500001Y-13404580D02*
X-8547620Y-13452200D01*
X-8547620Y-13452200D02*
X-8642858Y-13499819D01*
X-8642858Y-13499819D02*
X-8785715Y-13499819D01*
X-7880953Y-13499819D02*
X-7976191Y-13452200D01*
X-7976191Y-13452200D02*
X-8023810Y-13404580D01*
X-8023810Y-13404580D02*
X-8071429Y-13309342D01*
X-8071429Y-13309342D02*
X-8071429Y-13023628D01*
X-8071429Y-13023628D02*
X-8023810Y-12928390D01*
X-8023810Y-12928390D02*
X-7976191Y-12880771D01*
X-7976191Y-12880771D02*
X-7880953Y-12833152D01*
X-7880953Y-12833152D02*
X-7738096Y-12833152D01*
X-7738096Y-12833152D02*
X-7642858Y-12880771D01*
X-7642858Y-12880771D02*
X-7595239Y-12928390D01*
X-7595239Y-12928390D02*
X-7547620Y-13023628D01*
X-7547620Y-13023628D02*
X-7547620Y-13309342D01*
X-7547620Y-13309342D02*
X-7595239Y-13404580D01*
X-7595239Y-13404580D02*
X-7642858Y-13452200D01*
X-7642858Y-13452200D02*
X-7738096Y-13499819D01*
X-7738096Y-13499819D02*
X-7880953Y-13499819D01*
X-7119048Y-13499819D02*
X-7119048Y-12833152D01*
X-7119048Y-12928390D02*
X-7071429Y-12880771D01*
X-7071429Y-12880771D02*
X-6976191Y-12833152D01*
X-6976191Y-12833152D02*
X-6833334Y-12833152D01*
X-6833334Y-12833152D02*
X-6738096Y-12880771D01*
X-6738096Y-12880771D02*
X-6690477Y-12976009D01*
X-6690477Y-12976009D02*
X-6690477Y-13499819D01*
X-6690477Y-12976009D02*
X-6642858Y-12880771D01*
X-6642858Y-12880771D02*
X-6547620Y-12833152D01*
X-6547620Y-12833152D02*
X-6404763Y-12833152D01*
X-6404763Y-12833152D02*
X-6309524Y-12880771D01*
X-6309524Y-12880771D02*
X-6261905Y-12976009D01*
X-6261905Y-12976009D02*
X-6261905Y-13499819D01*
X-5785715Y-12833152D02*
X-5785715Y-13499819D01*
X-5785715Y-12928390D02*
X-5738096Y-12880771D01*
X-5738096Y-12880771D02*
X-5642858Y-12833152D01*
X-5642858Y-12833152D02*
X-5500001Y-12833152D01*
X-5500001Y-12833152D02*
X-5404763Y-12880771D01*
X-5404763Y-12880771D02*
X-5357144Y-12976009D01*
X-5357144Y-12976009D02*
X-5357144Y-13499819D01*
X-4500001Y-13452200D02*
X-4595239Y-13499819D01*
X-4595239Y-13499819D02*
X-4785715Y-13499819D01*
X-4785715Y-13499819D02*
X-4880953Y-13452200D01*
X-4880953Y-13452200D02*
X-4928572Y-13356961D01*
X-4928572Y-13356961D02*
X-4928572Y-12976009D01*
X-4928572Y-12976009D02*
X-4880953Y-12880771D01*
X-4880953Y-12880771D02*
X-4785715Y-12833152D01*
X-4785715Y-12833152D02*
X-4595239Y-12833152D01*
X-4595239Y-12833152D02*
X-4500001Y-12880771D01*
X-4500001Y-12880771D02*
X-4452382Y-12976009D01*
X-4452382Y-12976009D02*
X-4452382Y-13071247D01*
X-4452382Y-13071247D02*
X-4928572Y-13166485D01*
X-4166667Y-12833152D02*
X-3785715Y-12833152D01*
X-4023810Y-12499819D02*
X-4023810Y-13356961D01*
X-4023810Y-13356961D02*
X-3976191Y-13452200D01*
X-3976191Y-13452200D02*
X-3880953Y-13499819D01*
X-3880953Y-13499819D02*
X-3785715Y-13499819D01*
X-3452381Y-13499819D02*
X-3452381Y-12833152D01*
X-3452381Y-12928390D02*
X-3404762Y-12880771D01*
X-3404762Y-12880771D02*
X-3309524Y-12833152D01*
X-3309524Y-12833152D02*
X-3166667Y-12833152D01*
X-3166667Y-12833152D02*
X-3071429Y-12880771D01*
X-3071429Y-12880771D02*
X-3023810Y-12976009D01*
X-3023810Y-12976009D02*
X-3023810Y-13499819D01*
X-3023810Y-12976009D02*
X-2976191Y-12880771D01*
X-2976191Y-12880771D02*
X-2880953Y-12833152D01*
X-2880953Y-12833152D02*
X-2738096Y-12833152D01*
X-2738096Y-12833152D02*
X-2642857Y-12880771D01*
X-2642857Y-12880771D02*
X-2595238Y-12976009D01*
X-2595238Y-12976009D02*
X-2595238Y-13499819D01*
X-1690477Y-13499819D02*
X-1690477Y-12976009D01*
X-1690477Y-12976009D02*
X-1738096Y-12880771D01*
X-1738096Y-12880771D02*
X-1833334Y-12833152D01*
X-1833334Y-12833152D02*
X-2023810Y-12833152D01*
X-2023810Y-12833152D02*
X-2119048Y-12880771D01*
X-1690477Y-13452200D02*
X-1785715Y-13499819D01*
X-1785715Y-13499819D02*
X-2023810Y-13499819D01*
X-2023810Y-13499819D02*
X-2119048Y-13452200D01*
X-2119048Y-13452200D02*
X-2166667Y-13356961D01*
X-2166667Y-13356961D02*
X-2166667Y-13261723D01*
X-2166667Y-13261723D02*
X-2119048Y-13166485D01*
X-2119048Y-13166485D02*
X-2023810Y-13118866D01*
X-2023810Y-13118866D02*
X-1785715Y-13118866D01*
X-1785715Y-13118866D02*
X-1690477Y-13071247D01*
X-1214286Y-13499819D02*
X-1214286Y-12833152D01*
X-1214286Y-13023628D02*
X-1166667Y-12928390D01*
X-1166667Y-12928390D02*
X-1119048Y-12880771D01*
X-1119048Y-12880771D02*
X-1023810Y-12833152D01*
X-1023810Y-12833152D02*
X-928572Y-12833152D01*
X-166667Y-13452200D02*
X-261905Y-13499819D01*
X-261905Y-13499819D02*
X-452381Y-13499819D01*
X-452381Y-13499819D02*
X-547619Y-13452200D01*
X-547619Y-13452200D02*
X-595238Y-13404580D01*
X-595238Y-13404580D02*
X-642857Y-13309342D01*
X-642857Y-13309342D02*
X-642857Y-13023628D01*
X-642857Y-13023628D02*
X-595238Y-12928390D01*
X-595238Y-12928390D02*
X-547619Y-12880771D01*
X-547619Y-12880771D02*
X-452381Y-12833152D01*
X-452381Y-12833152D02*
X-261905Y-12833152D01*
X-261905Y-12833152D02*
X-166667Y-12880771D01*
X976189Y-12452200D02*
X119047Y-13737914D01*
X1642856Y-12976009D02*
X1309523Y-12976009D01*
X1309523Y-13499819D02*
X1309523Y-12499819D01*
X1309523Y-12499819D02*
X1785713Y-12499819D01*
X2595237Y-12833152D02*
X2595237Y-13499819D01*
X2166666Y-12833152D02*
X2166666Y-13356961D01*
X2166666Y-13356961D02*
X2214285Y-13452200D01*
X2214285Y-13452200D02*
X2309523Y-13499819D01*
X2309523Y-13499819D02*
X2452380Y-13499819D01*
X2452380Y-13499819D02*
X2547618Y-13452200D01*
X2547618Y-13452200D02*
X2595237Y-13404580D01*
X3023809Y-13452200D02*
X3119047Y-13499819D01*
X3119047Y-13499819D02*
X3309523Y-13499819D01*
X3309523Y-13499819D02*
X3404761Y-13452200D01*
X3404761Y-13452200D02*
X3452380Y-13356961D01*
X3452380Y-13356961D02*
X3452380Y-13309342D01*
X3452380Y-13309342D02*
X3404761Y-13214104D01*
X3404761Y-13214104D02*
X3309523Y-13166485D01*
X3309523Y-13166485D02*
X3166666Y-13166485D01*
X3166666Y-13166485D02*
X3071428Y-13118866D01*
X3071428Y-13118866D02*
X3023809Y-13023628D01*
X3023809Y-13023628D02*
X3023809Y-12976009D01*
X3023809Y-12976009D02*
X3071428Y-12880771D01*
X3071428Y-12880771D02*
X3166666Y-12833152D01*
X3166666Y-12833152D02*
X3309523Y-12833152D01*
X3309523Y-12833152D02*
X3404761Y-12880771D01*
X4261904Y-13452200D02*
X4166666Y-13499819D01*
X4166666Y-13499819D02*
X3976190Y-13499819D01*
X3976190Y-13499819D02*
X3880952Y-13452200D01*
X3880952Y-13452200D02*
X3833333Y-13356961D01*
X3833333Y-13356961D02*
X3833333Y-12976009D01*
X3833333Y-12976009D02*
X3880952Y-12880771D01*
X3880952Y-12880771D02*
X3976190Y-12833152D01*
X3976190Y-12833152D02*
X4166666Y-12833152D01*
X4166666Y-12833152D02*
X4261904Y-12880771D01*
X4261904Y-12880771D02*
X4309523Y-12976009D01*
X4309523Y-12976009D02*
X4309523Y-13071247D01*
X4309523Y-13071247D02*
X3833333Y-13166485D01*
X4738095Y-13499819D02*
X4738095Y-12499819D01*
X4738095Y-12880771D02*
X4833333Y-12833152D01*
X4833333Y-12833152D02*
X5023809Y-12833152D01*
X5023809Y-12833152D02*
X5119047Y-12880771D01*
X5119047Y-12880771D02*
X5166666Y-12928390D01*
X5166666Y-12928390D02*
X5214285Y-13023628D01*
X5214285Y-13023628D02*
X5214285Y-13309342D01*
X5214285Y-13309342D02*
X5166666Y-13404580D01*
X5166666Y-13404580D02*
X5119047Y-13452200D01*
X5119047Y-13452200D02*
X5023809Y-13499819D01*
X5023809Y-13499819D02*
X4833333Y-13499819D01*
X4833333Y-13499819D02*
X4738095Y-13452200D01*
X5642857Y-13499819D02*
X5642857Y-12833152D01*
X5642857Y-12499819D02*
X5595238Y-12547438D01*
X5595238Y-12547438D02*
X5642857Y-12595057D01*
X5642857Y-12595057D02*
X5690476Y-12547438D01*
X5690476Y-12547438D02*
X5642857Y-12499819D01*
X5642857Y-12499819D02*
X5642857Y-12595057D01*
X5976190Y-12833152D02*
X6357142Y-12833152D01*
X6119047Y-12499819D02*
X6119047Y-13356961D01*
X6119047Y-13356961D02*
X6166666Y-13452200D01*
X6166666Y-13452200D02*
X6261904Y-13499819D01*
X6261904Y-13499819D02*
X6357142Y-13499819D01*
X6690476Y-13118866D02*
X7452381Y-13118866D01*
X7928571Y-13499819D02*
X7928571Y-12499819D01*
X7928571Y-12499819D02*
X8166666Y-12499819D01*
X8166666Y-12499819D02*
X8309523Y-12547438D01*
X8309523Y-12547438D02*
X8404761Y-12642676D01*
X8404761Y-12642676D02*
X8452380Y-12737914D01*
X8452380Y-12737914D02*
X8499999Y-12928390D01*
X8499999Y-12928390D02*
X8499999Y-13071247D01*
X8499999Y-13071247D02*
X8452380Y-13261723D01*
X8452380Y-13261723D02*
X8404761Y-13356961D01*
X8404761Y-13356961D02*
X8309523Y-13452200D01*
X8309523Y-13452200D02*
X8166666Y-13499819D01*
X8166666Y-13499819D02*
X7928571Y-13499819D01*
X9071428Y-13499819D02*
X8976190Y-13452200D01*
X8976190Y-13452200D02*
X8928571Y-13404580D01*
X8928571Y-13404580D02*
X8880952Y-13309342D01*
X8880952Y-13309342D02*
X8880952Y-13023628D01*
X8880952Y-13023628D02*
X8928571Y-12928390D01*
X8928571Y-12928390D02*
X8976190Y-12880771D01*
X8976190Y-12880771D02*
X9071428Y-12833152D01*
X9071428Y-12833152D02*
X9214285Y-12833152D01*
X9214285Y-12833152D02*
X9309523Y-12880771D01*
X9309523Y-12880771D02*
X9357142Y-12928390D01*
X9357142Y-12928390D02*
X9404761Y-13023628D01*
X9404761Y-13023628D02*
X9404761Y-13309342D01*
X9404761Y-13309342D02*
X9357142Y-13404580D01*
X9357142Y-13404580D02*
X9309523Y-13452200D01*
X9309523Y-13452200D02*
X9214285Y-13499819D01*
X9214285Y-13499819D02*
X9071428Y-13499819D01*
X10261904Y-13452200D02*
X10166666Y-13499819D01*
X10166666Y-13499819D02*
X9976190Y-13499819D01*
X9976190Y-13499819D02*
X9880952Y-13452200D01*
X9880952Y-13452200D02*
X9833333Y-13404580D01*
X9833333Y-13404580D02*
X9785714Y-13309342D01*
X9785714Y-13309342D02*
X9785714Y-13023628D01*
X9785714Y-13023628D02*
X9833333Y-12928390D01*
X9833333Y-12928390D02*
X9880952Y-12880771D01*
X9880952Y-12880771D02*
X9976190Y-12833152D01*
X9976190Y-12833152D02*
X10166666Y-12833152D01*
X10166666Y-12833152D02*
X10261904Y-12880771D01*
X10547619Y-12833152D02*
X10928571Y-12833152D01*
X10690476Y-12499819D02*
X10690476Y-13356961D01*
X10690476Y-13356961D02*
X10738095Y-13452200D01*
X10738095Y-13452200D02*
X10833333Y-13499819D01*
X10833333Y-13499819D02*
X10928571Y-13499819D01*
X11404762Y-13499819D02*
X11309524Y-13452200D01*
X11309524Y-13452200D02*
X11261905Y-13404580D01*
X11261905Y-13404580D02*
X11214286Y-13309342D01*
X11214286Y-13309342D02*
X11214286Y-13023628D01*
X11214286Y-13023628D02*
X11261905Y-12928390D01*
X11261905Y-12928390D02*
X11309524Y-12880771D01*
X11309524Y-12880771D02*
X11404762Y-12833152D01*
X11404762Y-12833152D02*
X11547619Y-12833152D01*
X11547619Y-12833152D02*
X11642857Y-12880771D01*
X11642857Y-12880771D02*
X11690476Y-12928390D01*
X11690476Y-12928390D02*
X11738095Y-13023628D01*
X11738095Y-13023628D02*
X11738095Y-13309342D01*
X11738095Y-13309342D02*
X11690476Y-13404580D01*
X11690476Y-13404580D02*
X11642857Y-13452200D01*
X11642857Y-13452200D02*
X11547619Y-13499819D01*
X11547619Y-13499819D02*
X11404762Y-13499819D01*
X12166667Y-13499819D02*
X12166667Y-12833152D01*
X12166667Y-13023628D02*
X12214286Y-12928390D01*
X12214286Y-12928390D02*
X12261905Y-12880771D01*
X12261905Y-12880771D02*
X12357143Y-12833152D01*
X12357143Y-12833152D02*
X12452381Y-12833152D01*
X12785715Y-13118866D02*
X13547620Y-13118866D01*
X13880953Y-12499819D02*
X14452381Y-12499819D01*
X14166667Y-13499819D02*
X14166667Y-12499819D01*
X15452381Y-13595057D02*
X15357143Y-13547438D01*
X15357143Y-13547438D02*
X15261905Y-13452200D01*
X15261905Y-13452200D02*
X15119048Y-13309342D01*
X15119048Y-13309342D02*
X15023810Y-13261723D01*
X15023810Y-13261723D02*
X14928572Y-13261723D01*
X14976191Y-13499819D02*
X14880953Y-13452200D01*
X14880953Y-13452200D02*
X14785715Y-13356961D01*
X14785715Y-13356961D02*
X14738096Y-13166485D01*
X14738096Y-13166485D02*
X14738096Y-12833152D01*
X14738096Y-12833152D02*
X14785715Y-12642676D01*
X14785715Y-12642676D02*
X14880953Y-12547438D01*
X14880953Y-12547438D02*
X14976191Y-12499819D01*
X14976191Y-12499819D02*
X15166667Y-12499819D01*
X15166667Y-12499819D02*
X15261905Y-12547438D01*
X15261905Y-12547438D02*
X15357143Y-12642676D01*
X15357143Y-12642676D02*
X15404762Y-12833152D01*
X15404762Y-12833152D02*
X15404762Y-13166485D01*
X15404762Y-13166485D02*
X15357143Y-13356961D01*
X15357143Y-13356961D02*
X15261905Y-13452200D01*
X15261905Y-13452200D02*
X15166667Y-13499819D01*
X15166667Y-13499819D02*
X14976191Y-13499819D01*
X16166667Y-12976009D02*
X15833334Y-12976009D01*
X15833334Y-13499819D02*
X15833334Y-12499819D01*
X15833334Y-12499819D02*
X16309524Y-12499819D01*
X16690477Y-13499819D02*
X16690477Y-12499819D01*
X16690477Y-12499819D02*
X17071429Y-12499819D01*
X17071429Y-12499819D02*
X17166667Y-12547438D01*
X17166667Y-12547438D02*
X17214286Y-12595057D01*
X17214286Y-12595057D02*
X17261905Y-12690295D01*
X17261905Y-12690295D02*
X17261905Y-12833152D01*
X17261905Y-12833152D02*
X17214286Y-12928390D01*
X17214286Y-12928390D02*
X17166667Y-12976009D01*
X17166667Y-12976009D02*
X17071429Y-13023628D01*
X17071429Y-13023628D02*
X16690477Y-13023628D01*
X17595239Y-12499819D02*
X18214286Y-12499819D01*
X18214286Y-12499819D02*
X17880953Y-12880771D01*
X17880953Y-12880771D02*
X18023810Y-12880771D01*
X18023810Y-12880771D02*
X18119048Y-12928390D01*
X18119048Y-12928390D02*
X18166667Y-12976009D01*
X18166667Y-12976009D02*
X18214286Y-13071247D01*
X18214286Y-13071247D02*
X18214286Y-13309342D01*
X18214286Y-13309342D02*
X18166667Y-13404580D01*
X18166667Y-13404580D02*
X18119048Y-13452200D01*
X18119048Y-13452200D02*
X18023810Y-13499819D01*
X18023810Y-13499819D02*
X17738096Y-13499819D01*
X17738096Y-13499819D02*
X17642858Y-13452200D01*
X17642858Y-13452200D02*
X17595239Y-13404580D01*
X18595239Y-12595057D02*
X18642858Y-12547438D01*
X18642858Y-12547438D02*
X18738096Y-12499819D01*
X18738096Y-12499819D02*
X18976191Y-12499819D01*
X18976191Y-12499819D02*
X19071429Y-12547438D01*
X19071429Y-12547438D02*
X19119048Y-12595057D01*
X19119048Y-12595057D02*
X19166667Y-12690295D01*
X19166667Y-12690295D02*
X19166667Y-12785533D01*
X19166667Y-12785533D02*
X19119048Y-12928390D01*
X19119048Y-12928390D02*
X18547620Y-13499819D01*
X18547620Y-13499819D02*
X19166667Y-13499819D01*
X19595239Y-13118866D02*
X20357144Y-13118866D01*
X21261905Y-13499819D02*
X21261905Y-12976009D01*
X21261905Y-12976009D02*
X21214286Y-12880771D01*
X21214286Y-12880771D02*
X21119048Y-12833152D01*
X21119048Y-12833152D02*
X20928572Y-12833152D01*
X20928572Y-12833152D02*
X20833334Y-12880771D01*
X21261905Y-13452200D02*
X21166667Y-13499819D01*
X21166667Y-13499819D02*
X20928572Y-13499819D01*
X20928572Y-13499819D02*
X20833334Y-13452200D01*
X20833334Y-13452200D02*
X20785715Y-13356961D01*
X20785715Y-13356961D02*
X20785715Y-13261723D01*
X20785715Y-13261723D02*
X20833334Y-13166485D01*
X20833334Y-13166485D02*
X20928572Y-13118866D01*
X20928572Y-13118866D02*
X21166667Y-13118866D01*
X21166667Y-13118866D02*
X21261905Y-13071247D01*
X22166667Y-13499819D02*
X22166667Y-12499819D01*
X22166667Y-13452200D02*
X22071429Y-13499819D01*
X22071429Y-13499819D02*
X21880953Y-13499819D01*
X21880953Y-13499819D02*
X21785715Y-13452200D01*
X21785715Y-13452200D02*
X21738096Y-13404580D01*
X21738096Y-13404580D02*
X21690477Y-13309342D01*
X21690477Y-13309342D02*
X21690477Y-13023628D01*
X21690477Y-13023628D02*
X21738096Y-12928390D01*
X21738096Y-12928390D02*
X21785715Y-12880771D01*
X21785715Y-12880771D02*
X21880953Y-12833152D01*
X21880953Y-12833152D02*
X22071429Y-12833152D01*
X22071429Y-12833152D02*
X22166667Y-12880771D01*
X23071429Y-13499819D02*
X23071429Y-12976009D01*
X23071429Y-12976009D02*
X23023810Y-12880771D01*
X23023810Y-12880771D02*
X22928572Y-12833152D01*
X22928572Y-12833152D02*
X22738096Y-12833152D01*
X22738096Y-12833152D02*
X22642858Y-12880771D01*
X23071429Y-13452200D02*
X22976191Y-13499819D01*
X22976191Y-13499819D02*
X22738096Y-13499819D01*
X22738096Y-13499819D02*
X22642858Y-13452200D01*
X22642858Y-13452200D02*
X22595239Y-13356961D01*
X22595239Y-13356961D02*
X22595239Y-13261723D01*
X22595239Y-13261723D02*
X22642858Y-13166485D01*
X22642858Y-13166485D02*
X22738096Y-13118866D01*
X22738096Y-13118866D02*
X22976191Y-13118866D01*
X22976191Y-13118866D02*
X23071429Y-13071247D01*
X23547620Y-12833152D02*
X23547620Y-13833152D01*
X23547620Y-12880771D02*
X23642858Y-12833152D01*
X23642858Y-12833152D02*
X23833334Y-12833152D01*
X23833334Y-12833152D02*
X23928572Y-12880771D01*
X23928572Y-12880771D02*
X23976191Y-12928390D01*
X23976191Y-12928390D02*
X24023810Y-13023628D01*
X24023810Y-13023628D02*
X24023810Y-13309342D01*
X24023810Y-13309342D02*
X23976191Y-13404580D01*
X23976191Y-13404580D02*
X23928572Y-13452200D01*
X23928572Y-13452200D02*
X23833334Y-13499819D01*
X23833334Y-13499819D02*
X23642858Y-13499819D01*
X23642858Y-13499819D02*
X23547620Y-13452200D01*
X24309525Y-12833152D02*
X24690477Y-12833152D01*
X24452382Y-12499819D02*
X24452382Y-13356961D01*
X24452382Y-13356961D02*
X24500001Y-13452200D01*
X24500001Y-13452200D02*
X24595239Y-13499819D01*
X24595239Y-13499819D02*
X24690477Y-13499819D01*
X25404763Y-13452200D02*
X25309525Y-13499819D01*
X25309525Y-13499819D02*
X25119049Y-13499819D01*
X25119049Y-13499819D02*
X25023811Y-13452200D01*
X25023811Y-13452200D02*
X24976192Y-13356961D01*
X24976192Y-13356961D02*
X24976192Y-12976009D01*
X24976192Y-12976009D02*
X25023811Y-12880771D01*
X25023811Y-12880771D02*
X25119049Y-12833152D01*
X25119049Y-12833152D02*
X25309525Y-12833152D01*
X25309525Y-12833152D02*
X25404763Y-12880771D01*
X25404763Y-12880771D02*
X25452382Y-12976009D01*
X25452382Y-12976009D02*
X25452382Y-13071247D01*
X25452382Y-13071247D02*
X24976192Y-13166485D01*
X25880954Y-13499819D02*
X25880954Y-12833152D01*
X25880954Y-13023628D02*
X25928573Y-12928390D01*
X25928573Y-12928390D02*
X25976192Y-12880771D01*
X25976192Y-12880771D02*
X26071430Y-12833152D01*
X26071430Y-12833152D02*
X26166668Y-12833152D01*
X-10523809Y-14824104D02*
X-10047619Y-14824104D01*
X-10619047Y-15109819D02*
X-10285714Y-14109819D01*
X-10285714Y-14109819D02*
X-9952381Y-15109819D01*
X-9619047Y-14443152D02*
X-9619047Y-15443152D01*
X-9619047Y-14490771D02*
X-9523809Y-14443152D01*
X-9523809Y-14443152D02*
X-9333333Y-14443152D01*
X-9333333Y-14443152D02*
X-9238095Y-14490771D01*
X-9238095Y-14490771D02*
X-9190476Y-14538390D01*
X-9190476Y-14538390D02*
X-9142857Y-14633628D01*
X-9142857Y-14633628D02*
X-9142857Y-14919342D01*
X-9142857Y-14919342D02*
X-9190476Y-15014580D01*
X-9190476Y-15014580D02*
X-9238095Y-15062200D01*
X-9238095Y-15062200D02*
X-9333333Y-15109819D01*
X-9333333Y-15109819D02*
X-9523809Y-15109819D01*
X-9523809Y-15109819D02*
X-9619047Y-15062200D01*
X-8285714Y-15109819D02*
X-8285714Y-14586009D01*
X-8285714Y-14586009D02*
X-8333333Y-14490771D01*
X-8333333Y-14490771D02*
X-8428571Y-14443152D01*
X-8428571Y-14443152D02*
X-8619047Y-14443152D01*
X-8619047Y-14443152D02*
X-8714285Y-14490771D01*
X-8285714Y-15062200D02*
X-8380952Y-15109819D01*
X-8380952Y-15109819D02*
X-8619047Y-15109819D01*
X-8619047Y-15109819D02*
X-8714285Y-15062200D01*
X-8714285Y-15062200D02*
X-8761904Y-14966961D01*
X-8761904Y-14966961D02*
X-8761904Y-14871723D01*
X-8761904Y-14871723D02*
X-8714285Y-14776485D01*
X-8714285Y-14776485D02*
X-8619047Y-14728866D01*
X-8619047Y-14728866D02*
X-8380952Y-14728866D01*
X-8380952Y-14728866D02*
X-8285714Y-14681247D01*
X-7380952Y-15062200D02*
X-7476190Y-15109819D01*
X-7476190Y-15109819D02*
X-7666666Y-15109819D01*
X-7666666Y-15109819D02*
X-7761904Y-15062200D01*
X-7761904Y-15062200D02*
X-7809523Y-15014580D01*
X-7809523Y-15014580D02*
X-7857142Y-14919342D01*
X-7857142Y-14919342D02*
X-7857142Y-14633628D01*
X-7857142Y-14633628D02*
X-7809523Y-14538390D01*
X-7809523Y-14538390D02*
X-7761904Y-14490771D01*
X-7761904Y-14490771D02*
X-7666666Y-14443152D01*
X-7666666Y-14443152D02*
X-7476190Y-14443152D01*
X-7476190Y-14443152D02*
X-7380952Y-14490771D01*
X-6952380Y-15109819D02*
X-6952380Y-14109819D01*
X-6523809Y-15109819D02*
X-6523809Y-14586009D01*
X-6523809Y-14586009D02*
X-6571428Y-14490771D01*
X-6571428Y-14490771D02*
X-6666666Y-14443152D01*
X-6666666Y-14443152D02*
X-6809523Y-14443152D01*
X-6809523Y-14443152D02*
X-6904761Y-14490771D01*
X-6904761Y-14490771D02*
X-6952380Y-14538390D01*
X-5666666Y-15062200D02*
X-5761904Y-15109819D01*
X-5761904Y-15109819D02*
X-5952380Y-15109819D01*
X-5952380Y-15109819D02*
X-6047618Y-15062200D01*
X-6047618Y-15062200D02*
X-6095237Y-14966961D01*
X-6095237Y-14966961D02*
X-6095237Y-14586009D01*
X-6095237Y-14586009D02*
X-6047618Y-14490771D01*
X-6047618Y-14490771D02*
X-5952380Y-14443152D01*
X-5952380Y-14443152D02*
X-5761904Y-14443152D01*
X-5761904Y-14443152D02*
X-5666666Y-14490771D01*
X-5666666Y-14490771D02*
X-5619047Y-14586009D01*
X-5619047Y-14586009D02*
X-5619047Y-14681247D01*
X-5619047Y-14681247D02*
X-6095237Y-14776485D01*
X-3952380Y-15109819D02*
X-4428570Y-15109819D01*
X-4428570Y-15109819D02*
X-4428570Y-14109819D01*
X-3619046Y-15109819D02*
X-3619046Y-14443152D01*
X-3619046Y-14109819D02*
X-3666665Y-14157438D01*
X-3666665Y-14157438D02*
X-3619046Y-14205057D01*
X-3619046Y-14205057D02*
X-3571427Y-14157438D01*
X-3571427Y-14157438D02*
X-3619046Y-14109819D01*
X-3619046Y-14109819D02*
X-3619046Y-14205057D01*
X-2714285Y-15062200D02*
X-2809523Y-15109819D01*
X-2809523Y-15109819D02*
X-2999999Y-15109819D01*
X-2999999Y-15109819D02*
X-3095237Y-15062200D01*
X-3095237Y-15062200D02*
X-3142856Y-15014580D01*
X-3142856Y-15014580D02*
X-3190475Y-14919342D01*
X-3190475Y-14919342D02*
X-3190475Y-14633628D01*
X-3190475Y-14633628D02*
X-3142856Y-14538390D01*
X-3142856Y-14538390D02*
X-3095237Y-14490771D01*
X-3095237Y-14490771D02*
X-2999999Y-14443152D01*
X-2999999Y-14443152D02*
X-2809523Y-14443152D01*
X-2809523Y-14443152D02*
X-2714285Y-14490771D01*
X-1904761Y-15062200D02*
X-1999999Y-15109819D01*
X-1999999Y-15109819D02*
X-2190475Y-15109819D01*
X-2190475Y-15109819D02*
X-2285713Y-15062200D01*
X-2285713Y-15062200D02*
X-2333332Y-14966961D01*
X-2333332Y-14966961D02*
X-2333332Y-14586009D01*
X-2333332Y-14586009D02*
X-2285713Y-14490771D01*
X-2285713Y-14490771D02*
X-2190475Y-14443152D01*
X-2190475Y-14443152D02*
X-1999999Y-14443152D01*
X-1999999Y-14443152D02*
X-1904761Y-14490771D01*
X-1904761Y-14490771D02*
X-1857142Y-14586009D01*
X-1857142Y-14586009D02*
X-1857142Y-14681247D01*
X-1857142Y-14681247D02*
X-2333332Y-14776485D01*
X-1428570Y-14443152D02*
X-1428570Y-15109819D01*
X-1428570Y-14538390D02*
X-1380951Y-14490771D01*
X-1380951Y-14490771D02*
X-1285713Y-14443152D01*
X-1285713Y-14443152D02*
X-1142856Y-14443152D01*
X-1142856Y-14443152D02*
X-1047618Y-14490771D01*
X-1047618Y-14490771D02*
X-999999Y-14586009D01*
X-999999Y-14586009D02*
X-999999Y-15109819D01*
X-571427Y-15062200D02*
X-476189Y-15109819D01*
X-476189Y-15109819D02*
X-285713Y-15109819D01*
X-285713Y-15109819D02*
X-190475Y-15062200D01*
X-190475Y-15062200D02*
X-142856Y-14966961D01*
X-142856Y-14966961D02*
X-142856Y-14919342D01*
X-142856Y-14919342D02*
X-190475Y-14824104D01*
X-190475Y-14824104D02*
X-285713Y-14776485D01*
X-285713Y-14776485D02*
X-428570Y-14776485D01*
X-428570Y-14776485D02*
X-523808Y-14728866D01*
X-523808Y-14728866D02*
X-571427Y-14633628D01*
X-571427Y-14633628D02*
X-571427Y-14586009D01*
X-571427Y-14586009D02*
X-523808Y-14490771D01*
X-523808Y-14490771D02*
X-428570Y-14443152D01*
X-428570Y-14443152D02*
X-285713Y-14443152D01*
X-285713Y-14443152D02*
X-190475Y-14490771D01*
X666667Y-15062200D02*
X571429Y-15109819D01*
X571429Y-15109819D02*
X380953Y-15109819D01*
X380953Y-15109819D02*
X285715Y-15062200D01*
X285715Y-15062200D02*
X238096Y-14966961D01*
X238096Y-14966961D02*
X238096Y-14586009D01*
X238096Y-14586009D02*
X285715Y-14490771D01*
X285715Y-14490771D02*
X380953Y-14443152D01*
X380953Y-14443152D02*
X571429Y-14443152D01*
X571429Y-14443152D02*
X666667Y-14490771D01*
X666667Y-14490771D02*
X714286Y-14586009D01*
X714286Y-14586009D02*
X714286Y-14681247D01*
X714286Y-14681247D02*
X238096Y-14776485D01*
X1190477Y-15062200D02*
X1190477Y-15109819D01*
X1190477Y-15109819D02*
X1142858Y-15205057D01*
X1142858Y-15205057D02*
X1095239Y-15252676D01*
X2238096Y-14109819D02*
X2571429Y-15109819D01*
X2571429Y-15109819D02*
X2904762Y-14109819D01*
X3619048Y-15062200D02*
X3523810Y-15109819D01*
X3523810Y-15109819D02*
X3333334Y-15109819D01*
X3333334Y-15109819D02*
X3238096Y-15062200D01*
X3238096Y-15062200D02*
X3190477Y-14966961D01*
X3190477Y-14966961D02*
X3190477Y-14586009D01*
X3190477Y-14586009D02*
X3238096Y-14490771D01*
X3238096Y-14490771D02*
X3333334Y-14443152D01*
X3333334Y-14443152D02*
X3523810Y-14443152D01*
X3523810Y-14443152D02*
X3619048Y-14490771D01*
X3619048Y-14490771D02*
X3666667Y-14586009D01*
X3666667Y-14586009D02*
X3666667Y-14681247D01*
X3666667Y-14681247D02*
X3190477Y-14776485D01*
X4095239Y-15109819D02*
X4095239Y-14443152D01*
X4095239Y-14633628D02*
X4142858Y-14538390D01*
X4142858Y-14538390D02*
X4190477Y-14490771D01*
X4190477Y-14490771D02*
X4285715Y-14443152D01*
X4285715Y-14443152D02*
X4380953Y-14443152D01*
X4666668Y-15062200D02*
X4761906Y-15109819D01*
X4761906Y-15109819D02*
X4952382Y-15109819D01*
X4952382Y-15109819D02*
X5047620Y-15062200D01*
X5047620Y-15062200D02*
X5095239Y-14966961D01*
X5095239Y-14966961D02*
X5095239Y-14919342D01*
X5095239Y-14919342D02*
X5047620Y-14824104D01*
X5047620Y-14824104D02*
X4952382Y-14776485D01*
X4952382Y-14776485D02*
X4809525Y-14776485D01*
X4809525Y-14776485D02*
X4714287Y-14728866D01*
X4714287Y-14728866D02*
X4666668Y-14633628D01*
X4666668Y-14633628D02*
X4666668Y-14586009D01*
X4666668Y-14586009D02*
X4714287Y-14490771D01*
X4714287Y-14490771D02*
X4809525Y-14443152D01*
X4809525Y-14443152D02*
X4952382Y-14443152D01*
X4952382Y-14443152D02*
X5047620Y-14490771D01*
X5523811Y-15109819D02*
X5523811Y-14443152D01*
X5523811Y-14109819D02*
X5476192Y-14157438D01*
X5476192Y-14157438D02*
X5523811Y-14205057D01*
X5523811Y-14205057D02*
X5571430Y-14157438D01*
X5571430Y-14157438D02*
X5523811Y-14109819D01*
X5523811Y-14109819D02*
X5523811Y-14205057D01*
X6142858Y-15109819D02*
X6047620Y-15062200D01*
X6047620Y-15062200D02*
X6000001Y-15014580D01*
X6000001Y-15014580D02*
X5952382Y-14919342D01*
X5952382Y-14919342D02*
X5952382Y-14633628D01*
X5952382Y-14633628D02*
X6000001Y-14538390D01*
X6000001Y-14538390D02*
X6047620Y-14490771D01*
X6047620Y-14490771D02*
X6142858Y-14443152D01*
X6142858Y-14443152D02*
X6285715Y-14443152D01*
X6285715Y-14443152D02*
X6380953Y-14490771D01*
X6380953Y-14490771D02*
X6428572Y-14538390D01*
X6428572Y-14538390D02*
X6476191Y-14633628D01*
X6476191Y-14633628D02*
X6476191Y-14919342D01*
X6476191Y-14919342D02*
X6428572Y-15014580D01*
X6428572Y-15014580D02*
X6380953Y-15062200D01*
X6380953Y-15062200D02*
X6285715Y-15109819D01*
X6285715Y-15109819D02*
X6142858Y-15109819D01*
X6904763Y-14443152D02*
X6904763Y-15109819D01*
X6904763Y-14538390D02*
X6952382Y-14490771D01*
X6952382Y-14490771D02*
X7047620Y-14443152D01*
X7047620Y-14443152D02*
X7190477Y-14443152D01*
X7190477Y-14443152D02*
X7285715Y-14490771D01*
X7285715Y-14490771D02*
X7333334Y-14586009D01*
X7333334Y-14586009D02*
X7333334Y-15109819D01*
X8523811Y-14205057D02*
X8571430Y-14157438D01*
X8571430Y-14157438D02*
X8666668Y-14109819D01*
X8666668Y-14109819D02*
X8904763Y-14109819D01*
X8904763Y-14109819D02*
X9000001Y-14157438D01*
X9000001Y-14157438D02*
X9047620Y-14205057D01*
X9047620Y-14205057D02*
X9095239Y-14300295D01*
X9095239Y-14300295D02*
X9095239Y-14395533D01*
X9095239Y-14395533D02*
X9047620Y-14538390D01*
X9047620Y-14538390D02*
X8476192Y-15109819D01*
X8476192Y-15109819D02*
X9095239Y-15109819D01*
X9523811Y-15014580D02*
X9571430Y-15062200D01*
X9571430Y-15062200D02*
X9523811Y-15109819D01*
X9523811Y-15109819D02*
X9476192Y-15062200D01*
X9476192Y-15062200D02*
X9523811Y-15014580D01*
X9523811Y-15014580D02*
X9523811Y-15109819D01*
X10190477Y-14109819D02*
X10285715Y-14109819D01*
X10285715Y-14109819D02*
X10380953Y-14157438D01*
X10380953Y-14157438D02*
X10428572Y-14205057D01*
X10428572Y-14205057D02*
X10476191Y-14300295D01*
X10476191Y-14300295D02*
X10523810Y-14490771D01*
X10523810Y-14490771D02*
X10523810Y-14728866D01*
X10523810Y-14728866D02*
X10476191Y-14919342D01*
X10476191Y-14919342D02*
X10428572Y-15014580D01*
X10428572Y-15014580D02*
X10380953Y-15062200D01*
X10380953Y-15062200D02*
X10285715Y-15109819D01*
X10285715Y-15109819D02*
X10190477Y-15109819D01*
X10190477Y-15109819D02*
X10095239Y-15062200D01*
X10095239Y-15062200D02*
X10047620Y-15014580D01*
X10047620Y-15014580D02*
X10000001Y-14919342D01*
X10000001Y-14919342D02*
X9952382Y-14728866D01*
X9952382Y-14728866D02*
X9952382Y-14490771D01*
X9952382Y-14490771D02*
X10000001Y-14300295D01*
X10000001Y-14300295D02*
X10047620Y-14205057D01*
X10047620Y-14205057D02*
X10095239Y-14157438D01*
X10095239Y-14157438D02*
X10190477Y-14109819D01*
X-19983220Y-4389819D02*
X-19983220Y-3389819D01*
X-19983220Y-3389819D02*
X-19745125Y-3389819D01*
X-19745125Y-3389819D02*
X-19602268Y-3437438D01*
X-19602268Y-3437438D02*
X-19507030Y-3532676D01*
X-19507030Y-3532676D02*
X-19459411Y-3627914D01*
X-19459411Y-3627914D02*
X-19411792Y-3818390D01*
X-19411792Y-3818390D02*
X-19411792Y-3961247D01*
X-19411792Y-3961247D02*
X-19459411Y-4151723D01*
X-19459411Y-4151723D02*
X-19507030Y-4246961D01*
X-19507030Y-4246961D02*
X-19602268Y-4342200D01*
X-19602268Y-4342200D02*
X-19745125Y-4389819D01*
X-19745125Y-4389819D02*
X-19983220Y-4389819D01*
X-18602268Y-4342200D02*
X-18697506Y-4389819D01*
X-18697506Y-4389819D02*
X-18887982Y-4389819D01*
X-18887982Y-4389819D02*
X-18983220Y-4342200D01*
X-18983220Y-4342200D02*
X-19030839Y-4246961D01*
X-19030839Y-4246961D02*
X-19030839Y-3866009D01*
X-19030839Y-3866009D02*
X-18983220Y-3770771D01*
X-18983220Y-3770771D02*
X-18887982Y-3723152D01*
X-18887982Y-3723152D02*
X-18697506Y-3723152D01*
X-18697506Y-3723152D02*
X-18602268Y-3770771D01*
X-18602268Y-3770771D02*
X-18554649Y-3866009D01*
X-18554649Y-3866009D02*
X-18554649Y-3961247D01*
X-18554649Y-3961247D02*
X-19030839Y-4056485D01*
X-18173696Y-4342200D02*
X-18078458Y-4389819D01*
X-18078458Y-4389819D02*
X-17887982Y-4389819D01*
X-17887982Y-4389819D02*
X-17792744Y-4342200D01*
X-17792744Y-4342200D02*
X-17745125Y-4246961D01*
X-17745125Y-4246961D02*
X-17745125Y-4199342D01*
X-17745125Y-4199342D02*
X-17792744Y-4104104D01*
X-17792744Y-4104104D02*
X-17887982Y-4056485D01*
X-17887982Y-4056485D02*
X-18030839Y-4056485D01*
X-18030839Y-4056485D02*
X-18126077Y-4008866D01*
X-18126077Y-4008866D02*
X-18173696Y-3913628D01*
X-18173696Y-3913628D02*
X-18173696Y-3866009D01*
X-18173696Y-3866009D02*
X-18126077Y-3770771D01*
X-18126077Y-3770771D02*
X-18030839Y-3723152D01*
X-18030839Y-3723152D02*
X-17887982Y-3723152D01*
X-17887982Y-3723152D02*
X-17792744Y-3770771D01*
X-17316553Y-4389819D02*
X-17316553Y-3723152D01*
X-17316553Y-3389819D02*
X-17364172Y-3437438D01*
X-17364172Y-3437438D02*
X-17316553Y-3485057D01*
X-17316553Y-3485057D02*
X-17268934Y-3437438D01*
X-17268934Y-3437438D02*
X-17316553Y-3389819D01*
X-17316553Y-3389819D02*
X-17316553Y-3485057D01*
X-16411792Y-3723152D02*
X-16411792Y-4532676D01*
X-16411792Y-4532676D02*
X-16459411Y-4627914D01*
X-16459411Y-4627914D02*
X-16507030Y-4675533D01*
X-16507030Y-4675533D02*
X-16602268Y-4723152D01*
X-16602268Y-4723152D02*
X-16745125Y-4723152D01*
X-16745125Y-4723152D02*
X-16840363Y-4675533D01*
X-16411792Y-4342200D02*
X-16507030Y-4389819D01*
X-16507030Y-4389819D02*
X-16697506Y-4389819D01*
X-16697506Y-4389819D02*
X-16792744Y-4342200D01*
X-16792744Y-4342200D02*
X-16840363Y-4294580D01*
X-16840363Y-4294580D02*
X-16887982Y-4199342D01*
X-16887982Y-4199342D02*
X-16887982Y-3913628D01*
X-16887982Y-3913628D02*
X-16840363Y-3818390D01*
X-16840363Y-3818390D02*
X-16792744Y-3770771D01*
X-16792744Y-3770771D02*
X-16697506Y-3723152D01*
X-16697506Y-3723152D02*
X-16507030Y-3723152D01*
X-16507030Y-3723152D02*
X-16411792Y-3770771D01*
X-15935601Y-3723152D02*
X-15935601Y-4389819D01*
X-15935601Y-3818390D02*
X-15887982Y-3770771D01*
X-15887982Y-3770771D02*
X-15792744Y-3723152D01*
X-15792744Y-3723152D02*
X-15649887Y-3723152D01*
X-15649887Y-3723152D02*
X-15554649Y-3770771D01*
X-15554649Y-3770771D02*
X-15507030Y-3866009D01*
X-15507030Y-3866009D02*
X-15507030Y-4389819D01*
X-14649887Y-4342200D02*
X-14745125Y-4389819D01*
X-14745125Y-4389819D02*
X-14935601Y-4389819D01*
X-14935601Y-4389819D02*
X-15030839Y-4342200D01*
X-15030839Y-4342200D02*
X-15078458Y-4246961D01*
X-15078458Y-4246961D02*
X-15078458Y-3866009D01*
X-15078458Y-3866009D02*
X-15030839Y-3770771D01*
X-15030839Y-3770771D02*
X-14935601Y-3723152D01*
X-14935601Y-3723152D02*
X-14745125Y-3723152D01*
X-14745125Y-3723152D02*
X-14649887Y-3770771D01*
X-14649887Y-3770771D02*
X-14602268Y-3866009D01*
X-14602268Y-3866009D02*
X-14602268Y-3961247D01*
X-14602268Y-3961247D02*
X-15078458Y-4056485D01*
X-13745125Y-4389819D02*
X-13745125Y-3389819D01*
X-13745125Y-4342200D02*
X-13840363Y-4389819D01*
X-13840363Y-4389819D02*
X-14030839Y-4389819D01*
X-14030839Y-4389819D02*
X-14126077Y-4342200D01*
X-14126077Y-4342200D02*
X-14173696Y-4294580D01*
X-14173696Y-4294580D02*
X-14221315Y-4199342D01*
X-14221315Y-4199342D02*
X-14221315Y-3913628D01*
X-14221315Y-3913628D02*
X-14173696Y-3818390D01*
X-14173696Y-3818390D02*
X-14126077Y-3770771D01*
X-14126077Y-3770771D02*
X-14030839Y-3723152D01*
X-14030839Y-3723152D02*
X-13840363Y-3723152D01*
X-13840363Y-3723152D02*
X-13745125Y-3770771D01*
X-12649886Y-3723152D02*
X-12268934Y-3723152D01*
X-12507029Y-4389819D02*
X-12507029Y-3532676D01*
X-12507029Y-3532676D02*
X-12459410Y-3437438D01*
X-12459410Y-3437438D02*
X-12364172Y-3389819D01*
X-12364172Y-3389819D02*
X-12268934Y-3389819D01*
X-11792743Y-4389819D02*
X-11887981Y-4342200D01*
X-11887981Y-4342200D02*
X-11935600Y-4294580D01*
X-11935600Y-4294580D02*
X-11983219Y-4199342D01*
X-11983219Y-4199342D02*
X-11983219Y-3913628D01*
X-11983219Y-3913628D02*
X-11935600Y-3818390D01*
X-11935600Y-3818390D02*
X-11887981Y-3770771D01*
X-11887981Y-3770771D02*
X-11792743Y-3723152D01*
X-11792743Y-3723152D02*
X-11649886Y-3723152D01*
X-11649886Y-3723152D02*
X-11554648Y-3770771D01*
X-11554648Y-3770771D02*
X-11507029Y-3818390D01*
X-11507029Y-3818390D02*
X-11459410Y-3913628D01*
X-11459410Y-3913628D02*
X-11459410Y-4199342D01*
X-11459410Y-4199342D02*
X-11507029Y-4294580D01*
X-11507029Y-4294580D02*
X-11554648Y-4342200D01*
X-11554648Y-4342200D02*
X-11649886Y-4389819D01*
X-11649886Y-4389819D02*
X-11792743Y-4389819D01*
X-11030838Y-4389819D02*
X-11030838Y-3723152D01*
X-11030838Y-3913628D02*
X-10983219Y-3818390D01*
X-10983219Y-3818390D02*
X-10935600Y-3770771D01*
X-10935600Y-3770771D02*
X-10840362Y-3723152D01*
X-10840362Y-3723152D02*
X-10745124Y-3723152D01*
X-10411790Y-4294580D02*
X-10364171Y-4342200D01*
X-10364171Y-4342200D02*
X-10411790Y-4389819D01*
X-10411790Y-4389819D02*
X-10459409Y-4342200D01*
X-10459409Y-4342200D02*
X-10411790Y-4294580D01*
X-10411790Y-4294580D02*
X-10411790Y-4389819D01*
X-10411790Y-3770771D02*
X-10364171Y-3818390D01*
X-10364171Y-3818390D02*
X-10411790Y-3866009D01*
X-10411790Y-3866009D02*
X-10459409Y-3818390D01*
X-10459409Y-3818390D02*
X-10411790Y-3770771D01*
X-10411790Y-3770771D02*
X-10411790Y-3866009D01*
X-20030839Y-5714104D02*
X-19554649Y-5714104D01*
X-20126077Y-5999819D02*
X-19792744Y-4999819D01*
X-19792744Y-4999819D02*
X-19459411Y-5999819D01*
X-19268934Y-4999819D02*
X-18697506Y-4999819D01*
X-18983220Y-5999819D02*
X-18983220Y-4999819D01*
X-18316553Y-5999819D02*
X-18126077Y-5999819D01*
X-18126077Y-5999819D02*
X-18030839Y-5952200D01*
X-18030839Y-5952200D02*
X-17983220Y-5904580D01*
X-17983220Y-5904580D02*
X-17887982Y-5761723D01*
X-17887982Y-5761723D02*
X-17840363Y-5571247D01*
X-17840363Y-5571247D02*
X-17840363Y-5190295D01*
X-17840363Y-5190295D02*
X-17887982Y-5095057D01*
X-17887982Y-5095057D02*
X-17935601Y-5047438D01*
X-17935601Y-5047438D02*
X-18030839Y-4999819D01*
X-18030839Y-4999819D02*
X-18221315Y-4999819D01*
X-18221315Y-4999819D02*
X-18316553Y-5047438D01*
X-18316553Y-5047438D02*
X-18364172Y-5095057D01*
X-18364172Y-5095057D02*
X-18411791Y-5190295D01*
X-18411791Y-5190295D02*
X-18411791Y-5428390D01*
X-18411791Y-5428390D02*
X-18364172Y-5523628D01*
X-18364172Y-5523628D02*
X-18316553Y-5571247D01*
X-18316553Y-5571247D02*
X-18221315Y-5618866D01*
X-18221315Y-5618866D02*
X-18030839Y-5618866D01*
X-18030839Y-5618866D02*
X-17935601Y-5571247D01*
X-17935601Y-5571247D02*
X-17887982Y-5523628D01*
X-17887982Y-5523628D02*
X-17840363Y-5428390D01*
X-17221315Y-4999819D02*
X-17126077Y-4999819D01*
X-17126077Y-4999819D02*
X-17030839Y-5047438D01*
X-17030839Y-5047438D02*
X-16983220Y-5095057D01*
X-16983220Y-5095057D02*
X-16935601Y-5190295D01*
X-16935601Y-5190295D02*
X-16887982Y-5380771D01*
X-16887982Y-5380771D02*
X-16887982Y-5618866D01*
X-16887982Y-5618866D02*
X-16935601Y-5809342D01*
X-16935601Y-5809342D02*
X-16983220Y-5904580D01*
X-16983220Y-5904580D02*
X-17030839Y-5952200D01*
X-17030839Y-5952200D02*
X-17126077Y-5999819D01*
X-17126077Y-5999819D02*
X-17221315Y-5999819D01*
X-17221315Y-5999819D02*
X-17316553Y-5952200D01*
X-17316553Y-5952200D02*
X-17364172Y-5904580D01*
X-17364172Y-5904580D02*
X-17411791Y-5809342D01*
X-17411791Y-5809342D02*
X-17459410Y-5618866D01*
X-17459410Y-5618866D02*
X-17459410Y-5380771D01*
X-17459410Y-5380771D02*
X-17411791Y-5190295D01*
X-17411791Y-5190295D02*
X-17364172Y-5095057D01*
X-17364172Y-5095057D02*
X-17316553Y-5047438D01*
X-17316553Y-5047438D02*
X-17221315Y-4999819D01*
X-16507029Y-5952200D02*
X-16364172Y-5999819D01*
X-16364172Y-5999819D02*
X-16126077Y-5999819D01*
X-16126077Y-5999819D02*
X-16030839Y-5952200D01*
X-16030839Y-5952200D02*
X-15983220Y-5904580D01*
X-15983220Y-5904580D02*
X-15935601Y-5809342D01*
X-15935601Y-5809342D02*
X-15935601Y-5714104D01*
X-15935601Y-5714104D02*
X-15983220Y-5618866D01*
X-15983220Y-5618866D02*
X-16030839Y-5571247D01*
X-16030839Y-5571247D02*
X-16126077Y-5523628D01*
X-16126077Y-5523628D02*
X-16316553Y-5476009D01*
X-16316553Y-5476009D02*
X-16411791Y-5428390D01*
X-16411791Y-5428390D02*
X-16459410Y-5380771D01*
X-16459410Y-5380771D02*
X-16507029Y-5285533D01*
X-16507029Y-5285533D02*
X-16507029Y-5190295D01*
X-16507029Y-5190295D02*
X-16459410Y-5095057D01*
X-16459410Y-5095057D02*
X-16411791Y-5047438D01*
X-16411791Y-5047438D02*
X-16316553Y-4999819D01*
X-16316553Y-4999819D02*
X-16078458Y-4999819D01*
X-16078458Y-4999819D02*
X-15935601Y-5047438D01*
X-15078458Y-5333152D02*
X-15078458Y-5999819D01*
X-15316553Y-4952200D02*
X-15554648Y-5666485D01*
X-15554648Y-5666485D02*
X-14935601Y-5666485D01*
X-14126077Y-5333152D02*
X-14126077Y-5999819D01*
X-14364172Y-4952200D02*
X-14602267Y-5666485D01*
X-14602267Y-5666485D02*
X-13983220Y-5666485D01*
X-13697505Y-4999819D02*
X-13078458Y-4999819D01*
X-13078458Y-4999819D02*
X-13411791Y-5380771D01*
X-13411791Y-5380771D02*
X-13268934Y-5380771D01*
X-13268934Y-5380771D02*
X-13173696Y-5428390D01*
X-13173696Y-5428390D02*
X-13126077Y-5476009D01*
X-13126077Y-5476009D02*
X-13078458Y-5571247D01*
X-13078458Y-5571247D02*
X-13078458Y-5809342D01*
X-13078458Y-5809342D02*
X-13126077Y-5904580D01*
X-13126077Y-5904580D02*
X-13173696Y-5952200D01*
X-13173696Y-5952200D02*
X-13268934Y-5999819D01*
X-13268934Y-5999819D02*
X-13554648Y-5999819D01*
X-13554648Y-5999819D02*
X-13649886Y-5952200D01*
X-13649886Y-5952200D02*
X-13697505Y-5904580D01*
X-12745124Y-4999819D02*
X-12126077Y-4999819D01*
X-12126077Y-4999819D02*
X-12459410Y-5380771D01*
X-12459410Y-5380771D02*
X-12316553Y-5380771D01*
X-12316553Y-5380771D02*
X-12221315Y-5428390D01*
X-12221315Y-5428390D02*
X-12173696Y-5476009D01*
X-12173696Y-5476009D02*
X-12126077Y-5571247D01*
X-12126077Y-5571247D02*
X-12126077Y-5809342D01*
X-12126077Y-5809342D02*
X-12173696Y-5904580D01*
X-12173696Y-5904580D02*
X-12221315Y-5952200D01*
X-12221315Y-5952200D02*
X-12316553Y-5999819D01*
X-12316553Y-5999819D02*
X-12602267Y-5999819D01*
X-12602267Y-5999819D02*
X-12697505Y-5952200D01*
X-12697505Y-5952200D02*
X-12745124Y-5904580D01*
X-20030839Y-7324104D02*
X-19554649Y-7324104D01*
X-20126077Y-7609819D02*
X-19792744Y-6609819D01*
X-19792744Y-6609819D02*
X-19459411Y-7609819D01*
X-19268934Y-6609819D02*
X-18697506Y-6609819D01*
X-18983220Y-7609819D02*
X-18983220Y-6609819D01*
X-18364172Y-7609819D02*
X-18364172Y-6943152D01*
X-18364172Y-7038390D02*
X-18316553Y-6990771D01*
X-18316553Y-6990771D02*
X-18221315Y-6943152D01*
X-18221315Y-6943152D02*
X-18078458Y-6943152D01*
X-18078458Y-6943152D02*
X-17983220Y-6990771D01*
X-17983220Y-6990771D02*
X-17935601Y-7086009D01*
X-17935601Y-7086009D02*
X-17935601Y-7609819D01*
X-17935601Y-7086009D02*
X-17887982Y-6990771D01*
X-17887982Y-6990771D02*
X-17792744Y-6943152D01*
X-17792744Y-6943152D02*
X-17649887Y-6943152D01*
X-17649887Y-6943152D02*
X-17554648Y-6990771D01*
X-17554648Y-6990771D02*
X-17507029Y-7086009D01*
X-17507029Y-7086009D02*
X-17507029Y-7609819D01*
X-16649887Y-7562200D02*
X-16745125Y-7609819D01*
X-16745125Y-7609819D02*
X-16935601Y-7609819D01*
X-16935601Y-7609819D02*
X-17030839Y-7562200D01*
X-17030839Y-7562200D02*
X-17078458Y-7466961D01*
X-17078458Y-7466961D02*
X-17078458Y-7086009D01*
X-17078458Y-7086009D02*
X-17030839Y-6990771D01*
X-17030839Y-6990771D02*
X-16935601Y-6943152D01*
X-16935601Y-6943152D02*
X-16745125Y-6943152D01*
X-16745125Y-6943152D02*
X-16649887Y-6990771D01*
X-16649887Y-6990771D02*
X-16602268Y-7086009D01*
X-16602268Y-7086009D02*
X-16602268Y-7181247D01*
X-16602268Y-7181247D02*
X-17078458Y-7276485D01*
X-15745125Y-6943152D02*
X-15745125Y-7752676D01*
X-15745125Y-7752676D02*
X-15792744Y-7847914D01*
X-15792744Y-7847914D02*
X-15840363Y-7895533D01*
X-15840363Y-7895533D02*
X-15935601Y-7943152D01*
X-15935601Y-7943152D02*
X-16078458Y-7943152D01*
X-16078458Y-7943152D02*
X-16173696Y-7895533D01*
X-15745125Y-7562200D02*
X-15840363Y-7609819D01*
X-15840363Y-7609819D02*
X-16030839Y-7609819D01*
X-16030839Y-7609819D02*
X-16126077Y-7562200D01*
X-16126077Y-7562200D02*
X-16173696Y-7514580D01*
X-16173696Y-7514580D02*
X-16221315Y-7419342D01*
X-16221315Y-7419342D02*
X-16221315Y-7133628D01*
X-16221315Y-7133628D02*
X-16173696Y-7038390D01*
X-16173696Y-7038390D02*
X-16126077Y-6990771D01*
X-16126077Y-6990771D02*
X-16030839Y-6943152D01*
X-16030839Y-6943152D02*
X-15840363Y-6943152D01*
X-15840363Y-6943152D02*
X-15745125Y-6990771D01*
X-14840363Y-7609819D02*
X-14840363Y-7086009D01*
X-14840363Y-7086009D02*
X-14887982Y-6990771D01*
X-14887982Y-6990771D02*
X-14983220Y-6943152D01*
X-14983220Y-6943152D02*
X-15173696Y-6943152D01*
X-15173696Y-6943152D02*
X-15268934Y-6990771D01*
X-14840363Y-7562200D02*
X-14935601Y-7609819D01*
X-14935601Y-7609819D02*
X-15173696Y-7609819D01*
X-15173696Y-7609819D02*
X-15268934Y-7562200D01*
X-15268934Y-7562200D02*
X-15316553Y-7466961D01*
X-15316553Y-7466961D02*
X-15316553Y-7371723D01*
X-15316553Y-7371723D02*
X-15268934Y-7276485D01*
X-15268934Y-7276485D02*
X-15173696Y-7228866D01*
X-15173696Y-7228866D02*
X-14935601Y-7228866D01*
X-14935601Y-7228866D02*
X-14840363Y-7181247D01*
X-14221315Y-7038390D02*
X-14316553Y-6990771D01*
X-14316553Y-6990771D02*
X-14364172Y-6943152D01*
X-14364172Y-6943152D02*
X-14411791Y-6847914D01*
X-14411791Y-6847914D02*
X-14411791Y-6800295D01*
X-14411791Y-6800295D02*
X-14364172Y-6705057D01*
X-14364172Y-6705057D02*
X-14316553Y-6657438D01*
X-14316553Y-6657438D02*
X-14221315Y-6609819D01*
X-14221315Y-6609819D02*
X-14030839Y-6609819D01*
X-14030839Y-6609819D02*
X-13935601Y-6657438D01*
X-13935601Y-6657438D02*
X-13887982Y-6705057D01*
X-13887982Y-6705057D02*
X-13840363Y-6800295D01*
X-13840363Y-6800295D02*
X-13840363Y-6847914D01*
X-13840363Y-6847914D02*
X-13887982Y-6943152D01*
X-13887982Y-6943152D02*
X-13935601Y-6990771D01*
X-13935601Y-6990771D02*
X-14030839Y-7038390D01*
X-14030839Y-7038390D02*
X-14221315Y-7038390D01*
X-14221315Y-7038390D02*
X-14316553Y-7086009D01*
X-14316553Y-7086009D02*
X-14364172Y-7133628D01*
X-14364172Y-7133628D02*
X-14411791Y-7228866D01*
X-14411791Y-7228866D02*
X-14411791Y-7419342D01*
X-14411791Y-7419342D02*
X-14364172Y-7514580D01*
X-14364172Y-7514580D02*
X-14316553Y-7562200D01*
X-14316553Y-7562200D02*
X-14221315Y-7609819D01*
X-14221315Y-7609819D02*
X-14030839Y-7609819D01*
X-14030839Y-7609819D02*
X-13935601Y-7562200D01*
X-13935601Y-7562200D02*
X-13887982Y-7514580D01*
X-13887982Y-7514580D02*
X-13840363Y-7419342D01*
X-13840363Y-7419342D02*
X-13840363Y-7228866D01*
X-13840363Y-7228866D02*
X-13887982Y-7133628D01*
X-13887982Y-7133628D02*
X-13935601Y-7086009D01*
X-13935601Y-7086009D02*
X-14030839Y-7038390D01*
X-13364172Y-7562200D02*
X-13364172Y-7609819D01*
X-13364172Y-7609819D02*
X-13411791Y-7705057D01*
X-13411791Y-7705057D02*
X-13459410Y-7752676D01*
X-11745125Y-6943152D02*
X-11745125Y-7609819D01*
X-11983220Y-6562200D02*
X-12221315Y-7276485D01*
X-12221315Y-7276485D02*
X-11602268Y-7276485D01*
X-11078458Y-7038390D02*
X-11173696Y-6990771D01*
X-11173696Y-6990771D02*
X-11221315Y-6943152D01*
X-11221315Y-6943152D02*
X-11268934Y-6847914D01*
X-11268934Y-6847914D02*
X-11268934Y-6800295D01*
X-11268934Y-6800295D02*
X-11221315Y-6705057D01*
X-11221315Y-6705057D02*
X-11173696Y-6657438D01*
X-11173696Y-6657438D02*
X-11078458Y-6609819D01*
X-11078458Y-6609819D02*
X-10887982Y-6609819D01*
X-10887982Y-6609819D02*
X-10792744Y-6657438D01*
X-10792744Y-6657438D02*
X-10745125Y-6705057D01*
X-10745125Y-6705057D02*
X-10697506Y-6800295D01*
X-10697506Y-6800295D02*
X-10697506Y-6847914D01*
X-10697506Y-6847914D02*
X-10745125Y-6943152D01*
X-10745125Y-6943152D02*
X-10792744Y-6990771D01*
X-10792744Y-6990771D02*
X-10887982Y-7038390D01*
X-10887982Y-7038390D02*
X-11078458Y-7038390D01*
X-11078458Y-7038390D02*
X-11173696Y-7086009D01*
X-11173696Y-7086009D02*
X-11221315Y-7133628D01*
X-11221315Y-7133628D02*
X-11268934Y-7228866D01*
X-11268934Y-7228866D02*
X-11268934Y-7419342D01*
X-11268934Y-7419342D02*
X-11221315Y-7514580D01*
X-11221315Y-7514580D02*
X-11173696Y-7562200D01*
X-11173696Y-7562200D02*
X-11078458Y-7609819D01*
X-11078458Y-7609819D02*
X-10887982Y-7609819D01*
X-10887982Y-7609819D02*
X-10792744Y-7562200D01*
X-10792744Y-7562200D02*
X-10745125Y-7514580D01*
X-10745125Y-7514580D02*
X-10697506Y-7419342D01*
X-10697506Y-7419342D02*
X-10697506Y-7228866D01*
X-10697506Y-7228866D02*
X-10745125Y-7133628D01*
X-10745125Y-7133628D02*
X-10792744Y-7086009D01*
X-10792744Y-7086009D02*
X-10887982Y-7038390D01*
X-10221315Y-7562200D02*
X-10221315Y-7609819D01*
X-10221315Y-7609819D02*
X-10268934Y-7705057D01*
X-10268934Y-7705057D02*
X-10316553Y-7752676D01*
X-8887982Y-7038390D02*
X-8983220Y-6990771D01*
X-8983220Y-6990771D02*
X-9030839Y-6943152D01*
X-9030839Y-6943152D02*
X-9078458Y-6847914D01*
X-9078458Y-6847914D02*
X-9078458Y-6800295D01*
X-9078458Y-6800295D02*
X-9030839Y-6705057D01*
X-9030839Y-6705057D02*
X-8983220Y-6657438D01*
X-8983220Y-6657438D02*
X-8887982Y-6609819D01*
X-8887982Y-6609819D02*
X-8697506Y-6609819D01*
X-8697506Y-6609819D02*
X-8602268Y-6657438D01*
X-8602268Y-6657438D02*
X-8554649Y-6705057D01*
X-8554649Y-6705057D02*
X-8507030Y-6800295D01*
X-8507030Y-6800295D02*
X-8507030Y-6847914D01*
X-8507030Y-6847914D02*
X-8554649Y-6943152D01*
X-8554649Y-6943152D02*
X-8602268Y-6990771D01*
X-8602268Y-6990771D02*
X-8697506Y-7038390D01*
X-8697506Y-7038390D02*
X-8887982Y-7038390D01*
X-8887982Y-7038390D02*
X-8983220Y-7086009D01*
X-8983220Y-7086009D02*
X-9030839Y-7133628D01*
X-9030839Y-7133628D02*
X-9078458Y-7228866D01*
X-9078458Y-7228866D02*
X-9078458Y-7419342D01*
X-9078458Y-7419342D02*
X-9030839Y-7514580D01*
X-9030839Y-7514580D02*
X-8983220Y-7562200D01*
X-8983220Y-7562200D02*
X-8887982Y-7609819D01*
X-8887982Y-7609819D02*
X-8697506Y-7609819D01*
X-8697506Y-7609819D02*
X-8602268Y-7562200D01*
X-8602268Y-7562200D02*
X-8554649Y-7514580D01*
X-8554649Y-7514580D02*
X-8507030Y-7419342D01*
X-8507030Y-7419342D02*
X-8507030Y-7228866D01*
X-8507030Y-7228866D02*
X-8554649Y-7133628D01*
X-8554649Y-7133628D02*
X-8602268Y-7086009D01*
X-8602268Y-7086009D02*
X-8697506Y-7038390D01*
X-7935601Y-7038390D02*
X-8030839Y-6990771D01*
X-8030839Y-6990771D02*
X-8078458Y-6943152D01*
X-8078458Y-6943152D02*
X-8126077Y-6847914D01*
X-8126077Y-6847914D02*
X-8126077Y-6800295D01*
X-8126077Y-6800295D02*
X-8078458Y-6705057D01*
X-8078458Y-6705057D02*
X-8030839Y-6657438D01*
X-8030839Y-6657438D02*
X-7935601Y-6609819D01*
X-7935601Y-6609819D02*
X-7745125Y-6609819D01*
X-7745125Y-6609819D02*
X-7649887Y-6657438D01*
X-7649887Y-6657438D02*
X-7602268Y-6705057D01*
X-7602268Y-6705057D02*
X-7554649Y-6800295D01*
X-7554649Y-6800295D02*
X-7554649Y-6847914D01*
X-7554649Y-6847914D02*
X-7602268Y-6943152D01*
X-7602268Y-6943152D02*
X-7649887Y-6990771D01*
X-7649887Y-6990771D02*
X-7745125Y-7038390D01*
X-7745125Y-7038390D02*
X-7935601Y-7038390D01*
X-7935601Y-7038390D02*
X-8030839Y-7086009D01*
X-8030839Y-7086009D02*
X-8078458Y-7133628D01*
X-8078458Y-7133628D02*
X-8126077Y-7228866D01*
X-8126077Y-7228866D02*
X-8126077Y-7419342D01*
X-8126077Y-7419342D02*
X-8078458Y-7514580D01*
X-8078458Y-7514580D02*
X-8030839Y-7562200D01*
X-8030839Y-7562200D02*
X-7935601Y-7609819D01*
X-7935601Y-7609819D02*
X-7745125Y-7609819D01*
X-7745125Y-7609819D02*
X-7649887Y-7562200D01*
X-7649887Y-7562200D02*
X-7602268Y-7514580D01*
X-7602268Y-7514580D02*
X-7554649Y-7419342D01*
X-7554649Y-7419342D02*
X-7554649Y-7228866D01*
X-7554649Y-7228866D02*
X-7602268Y-7133628D01*
X-7602268Y-7133628D02*
X-7649887Y-7086009D01*
X-7649887Y-7086009D02*
X-7745125Y-7038390D01*
X-7078458Y-7562200D02*
X-7078458Y-7609819D01*
X-7078458Y-7609819D02*
X-7126077Y-7705057D01*
X-7126077Y-7705057D02*
X-7173696Y-7752676D01*
X-5364173Y-7609819D02*
X-5935601Y-7609819D01*
X-5649887Y-7609819D02*
X-5649887Y-6609819D01*
X-5649887Y-6609819D02*
X-5745125Y-6752676D01*
X-5745125Y-6752676D02*
X-5840363Y-6847914D01*
X-5840363Y-6847914D02*
X-5935601Y-6895533D01*
X-4507030Y-6609819D02*
X-4697506Y-6609819D01*
X-4697506Y-6609819D02*
X-4792744Y-6657438D01*
X-4792744Y-6657438D02*
X-4840363Y-6705057D01*
X-4840363Y-6705057D02*
X-4935601Y-6847914D01*
X-4935601Y-6847914D02*
X-4983220Y-7038390D01*
X-4983220Y-7038390D02*
X-4983220Y-7419342D01*
X-4983220Y-7419342D02*
X-4935601Y-7514580D01*
X-4935601Y-7514580D02*
X-4887982Y-7562200D01*
X-4887982Y-7562200D02*
X-4792744Y-7609819D01*
X-4792744Y-7609819D02*
X-4602268Y-7609819D01*
X-4602268Y-7609819D02*
X-4507030Y-7562200D01*
X-4507030Y-7562200D02*
X-4459411Y-7514580D01*
X-4459411Y-7514580D02*
X-4411792Y-7419342D01*
X-4411792Y-7419342D02*
X-4411792Y-7181247D01*
X-4411792Y-7181247D02*
X-4459411Y-7086009D01*
X-4459411Y-7086009D02*
X-4507030Y-7038390D01*
X-4507030Y-7038390D02*
X-4602268Y-6990771D01*
X-4602268Y-6990771D02*
X-4792744Y-6990771D01*
X-4792744Y-6990771D02*
X-4887982Y-7038390D01*
X-4887982Y-7038390D02*
X-4935601Y-7086009D01*
X-4935601Y-7086009D02*
X-4983220Y-7181247D01*
X-3840363Y-7038390D02*
X-3935601Y-6990771D01*
X-3935601Y-6990771D02*
X-3983220Y-6943152D01*
X-3983220Y-6943152D02*
X-4030839Y-6847914D01*
X-4030839Y-6847914D02*
X-4030839Y-6800295D01*
X-4030839Y-6800295D02*
X-3983220Y-6705057D01*
X-3983220Y-6705057D02*
X-3935601Y-6657438D01*
X-3935601Y-6657438D02*
X-3840363Y-6609819D01*
X-3840363Y-6609819D02*
X-3649887Y-6609819D01*
X-3649887Y-6609819D02*
X-3554649Y-6657438D01*
X-3554649Y-6657438D02*
X-3507030Y-6705057D01*
X-3507030Y-6705057D02*
X-3459411Y-6800295D01*
X-3459411Y-6800295D02*
X-3459411Y-6847914D01*
X-3459411Y-6847914D02*
X-3507030Y-6943152D01*
X-3507030Y-6943152D02*
X-3554649Y-6990771D01*
X-3554649Y-6990771D02*
X-3649887Y-7038390D01*
X-3649887Y-7038390D02*
X-3840363Y-7038390D01*
X-3840363Y-7038390D02*
X-3935601Y-7086009D01*
X-3935601Y-7086009D02*
X-3983220Y-7133628D01*
X-3983220Y-7133628D02*
X-4030839Y-7228866D01*
X-4030839Y-7228866D02*
X-4030839Y-7419342D01*
X-4030839Y-7419342D02*
X-3983220Y-7514580D01*
X-3983220Y-7514580D02*
X-3935601Y-7562200D01*
X-3935601Y-7562200D02*
X-3840363Y-7609819D01*
X-3840363Y-7609819D02*
X-3649887Y-7609819D01*
X-3649887Y-7609819D02*
X-3554649Y-7562200D01*
X-3554649Y-7562200D02*
X-3507030Y-7514580D01*
X-3507030Y-7514580D02*
X-3459411Y-7419342D01*
X-3459411Y-7419342D02*
X-3459411Y-7228866D01*
X-3459411Y-7228866D02*
X-3507030Y-7133628D01*
X-3507030Y-7133628D02*
X-3554649Y-7086009D01*
X-3554649Y-7086009D02*
X-3649887Y-7038390D01*
X-2983220Y-7562200D02*
X-2983220Y-7609819D01*
X-2983220Y-7609819D02*
X-3030839Y-7705057D01*
X-3030839Y-7705057D02*
X-3078458Y-7752676D01*
X-1887982Y-6609819D02*
X-1268935Y-6609819D01*
X-1268935Y-6609819D02*
X-1602268Y-6990771D01*
X-1602268Y-6990771D02*
X-1459411Y-6990771D01*
X-1459411Y-6990771D02*
X-1364173Y-7038390D01*
X-1364173Y-7038390D02*
X-1316554Y-7086009D01*
X-1316554Y-7086009D02*
X-1268935Y-7181247D01*
X-1268935Y-7181247D02*
X-1268935Y-7419342D01*
X-1268935Y-7419342D02*
X-1316554Y-7514580D01*
X-1316554Y-7514580D02*
X-1364173Y-7562200D01*
X-1364173Y-7562200D02*
X-1459411Y-7609819D01*
X-1459411Y-7609819D02*
X-1745125Y-7609819D01*
X-1745125Y-7609819D02*
X-1840363Y-7562200D01*
X-1840363Y-7562200D02*
X-1887982Y-7514580D01*
X-887982Y-6705057D02*
X-840363Y-6657438D01*
X-840363Y-6657438D02*
X-745125Y-6609819D01*
X-745125Y-6609819D02*
X-507030Y-6609819D01*
X-507030Y-6609819D02*
X-411792Y-6657438D01*
X-411792Y-6657438D02*
X-364173Y-6705057D01*
X-364173Y-6705057D02*
X-316554Y-6800295D01*
X-316554Y-6800295D02*
X-316554Y-6895533D01*
X-316554Y-6895533D02*
X-364173Y-7038390D01*
X-364173Y-7038390D02*
X-935601Y-7609819D01*
X-935601Y-7609819D02*
X-316554Y-7609819D01*
X254874Y-7038390D02*
X159636Y-6990771D01*
X159636Y-6990771D02*
X112017Y-6943152D01*
X112017Y-6943152D02*
X64398Y-6847914D01*
X64398Y-6847914D02*
X64398Y-6800295D01*
X64398Y-6800295D02*
X112017Y-6705057D01*
X112017Y-6705057D02*
X159636Y-6657438D01*
X159636Y-6657438D02*
X254874Y-6609819D01*
X254874Y-6609819D02*
X445350Y-6609819D01*
X445350Y-6609819D02*
X540588Y-6657438D01*
X540588Y-6657438D02*
X588207Y-6705057D01*
X588207Y-6705057D02*
X635826Y-6800295D01*
X635826Y-6800295D02*
X635826Y-6847914D01*
X635826Y-6847914D02*
X588207Y-6943152D01*
X588207Y-6943152D02*
X540588Y-6990771D01*
X540588Y-6990771D02*
X445350Y-7038390D01*
X445350Y-7038390D02*
X254874Y-7038390D01*
X254874Y-7038390D02*
X159636Y-7086009D01*
X159636Y-7086009D02*
X112017Y-7133628D01*
X112017Y-7133628D02*
X64398Y-7228866D01*
X64398Y-7228866D02*
X64398Y-7419342D01*
X64398Y-7419342D02*
X112017Y-7514580D01*
X112017Y-7514580D02*
X159636Y-7562200D01*
X159636Y-7562200D02*
X254874Y-7609819D01*
X254874Y-7609819D02*
X445350Y-7609819D01*
X445350Y-7609819D02*
X540588Y-7562200D01*
X540588Y-7562200D02*
X588207Y-7514580D01*
X588207Y-7514580D02*
X635826Y-7419342D01*
X635826Y-7419342D02*
X635826Y-7228866D01*
X635826Y-7228866D02*
X588207Y-7133628D01*
X588207Y-7133628D02*
X540588Y-7086009D01*
X540588Y-7086009D02*
X445350Y-7038390D01*
X-20030839Y-8934104D02*
X-19554649Y-8934104D01*
X-20126077Y-9219819D02*
X-19792744Y-8219819D01*
X-19792744Y-8219819D02*
X-19459411Y-9219819D01*
X-19268934Y-8219819D02*
X-18697506Y-8219819D01*
X-18983220Y-9219819D02*
X-18983220Y-8219819D01*
X-18507029Y-8553152D02*
X-18126077Y-8553152D01*
X-18364172Y-8219819D02*
X-18364172Y-9076961D01*
X-18364172Y-9076961D02*
X-18316553Y-9172200D01*
X-18316553Y-9172200D02*
X-18221315Y-9219819D01*
X-18221315Y-9219819D02*
X-18126077Y-9219819D01*
X-17792743Y-9219819D02*
X-17792743Y-8553152D01*
X-17792743Y-8219819D02*
X-17840362Y-8267438D01*
X-17840362Y-8267438D02*
X-17792743Y-8315057D01*
X-17792743Y-8315057D02*
X-17745124Y-8267438D01*
X-17745124Y-8267438D02*
X-17792743Y-8219819D01*
X-17792743Y-8219819D02*
X-17792743Y-8315057D01*
X-17316553Y-8553152D02*
X-17316553Y-9219819D01*
X-17316553Y-8648390D02*
X-17268934Y-8600771D01*
X-17268934Y-8600771D02*
X-17173696Y-8553152D01*
X-17173696Y-8553152D02*
X-17030839Y-8553152D01*
X-17030839Y-8553152D02*
X-16935601Y-8600771D01*
X-16935601Y-8600771D02*
X-16887982Y-8696009D01*
X-16887982Y-8696009D02*
X-16887982Y-9219819D01*
X-16507029Y-8553152D02*
X-16268934Y-9219819D01*
X-16030839Y-8553152D02*
X-16268934Y-9219819D01*
X-16268934Y-9219819D02*
X-16364172Y-9457914D01*
X-16364172Y-9457914D02*
X-16411791Y-9505533D01*
X-16411791Y-9505533D02*
X-16507029Y-9553152D01*
X-15221315Y-8553152D02*
X-15221315Y-9219819D01*
X-15459410Y-8172200D02*
X-15697505Y-8886485D01*
X-15697505Y-8886485D02*
X-15078458Y-8886485D01*
X-14554648Y-8648390D02*
X-14649886Y-8600771D01*
X-14649886Y-8600771D02*
X-14697505Y-8553152D01*
X-14697505Y-8553152D02*
X-14745124Y-8457914D01*
X-14745124Y-8457914D02*
X-14745124Y-8410295D01*
X-14745124Y-8410295D02*
X-14697505Y-8315057D01*
X-14697505Y-8315057D02*
X-14649886Y-8267438D01*
X-14649886Y-8267438D02*
X-14554648Y-8219819D01*
X-14554648Y-8219819D02*
X-14364172Y-8219819D01*
X-14364172Y-8219819D02*
X-14268934Y-8267438D01*
X-14268934Y-8267438D02*
X-14221315Y-8315057D01*
X-14221315Y-8315057D02*
X-14173696Y-8410295D01*
X-14173696Y-8410295D02*
X-14173696Y-8457914D01*
X-14173696Y-8457914D02*
X-14221315Y-8553152D01*
X-14221315Y-8553152D02*
X-14268934Y-8600771D01*
X-14268934Y-8600771D02*
X-14364172Y-8648390D01*
X-14364172Y-8648390D02*
X-14554648Y-8648390D01*
X-14554648Y-8648390D02*
X-14649886Y-8696009D01*
X-14649886Y-8696009D02*
X-14697505Y-8743628D01*
X-14697505Y-8743628D02*
X-14745124Y-8838866D01*
X-14745124Y-8838866D02*
X-14745124Y-9029342D01*
X-14745124Y-9029342D02*
X-14697505Y-9124580D01*
X-14697505Y-9124580D02*
X-14649886Y-9172200D01*
X-14649886Y-9172200D02*
X-14554648Y-9219819D01*
X-14554648Y-9219819D02*
X-14364172Y-9219819D01*
X-14364172Y-9219819D02*
X-14268934Y-9172200D01*
X-14268934Y-9172200D02*
X-14221315Y-9124580D01*
X-14221315Y-9124580D02*
X-14173696Y-9029342D01*
X-14173696Y-9029342D02*
X-14173696Y-8838866D01*
X-14173696Y-8838866D02*
X-14221315Y-8743628D01*
X-14221315Y-8743628D02*
X-14268934Y-8696009D01*
X-14268934Y-8696009D02*
X-14364172Y-8648390D01*
X-13697505Y-9172200D02*
X-13697505Y-9219819D01*
X-13697505Y-9219819D02*
X-13745124Y-9315057D01*
X-13745124Y-9315057D02*
X-13792743Y-9362676D01*
X-12364172Y-8648390D02*
X-12459410Y-8600771D01*
X-12459410Y-8600771D02*
X-12507029Y-8553152D01*
X-12507029Y-8553152D02*
X-12554648Y-8457914D01*
X-12554648Y-8457914D02*
X-12554648Y-8410295D01*
X-12554648Y-8410295D02*
X-12507029Y-8315057D01*
X-12507029Y-8315057D02*
X-12459410Y-8267438D01*
X-12459410Y-8267438D02*
X-12364172Y-8219819D01*
X-12364172Y-8219819D02*
X-12173696Y-8219819D01*
X-12173696Y-8219819D02*
X-12078458Y-8267438D01*
X-12078458Y-8267438D02*
X-12030839Y-8315057D01*
X-12030839Y-8315057D02*
X-11983220Y-8410295D01*
X-11983220Y-8410295D02*
X-11983220Y-8457914D01*
X-11983220Y-8457914D02*
X-12030839Y-8553152D01*
X-12030839Y-8553152D02*
X-12078458Y-8600771D01*
X-12078458Y-8600771D02*
X-12173696Y-8648390D01*
X-12173696Y-8648390D02*
X-12364172Y-8648390D01*
X-12364172Y-8648390D02*
X-12459410Y-8696009D01*
X-12459410Y-8696009D02*
X-12507029Y-8743628D01*
X-12507029Y-8743628D02*
X-12554648Y-8838866D01*
X-12554648Y-8838866D02*
X-12554648Y-9029342D01*
X-12554648Y-9029342D02*
X-12507029Y-9124580D01*
X-12507029Y-9124580D02*
X-12459410Y-9172200D01*
X-12459410Y-9172200D02*
X-12364172Y-9219819D01*
X-12364172Y-9219819D02*
X-12173696Y-9219819D01*
X-12173696Y-9219819D02*
X-12078458Y-9172200D01*
X-12078458Y-9172200D02*
X-12030839Y-9124580D01*
X-12030839Y-9124580D02*
X-11983220Y-9029342D01*
X-11983220Y-9029342D02*
X-11983220Y-8838866D01*
X-11983220Y-8838866D02*
X-12030839Y-8743628D01*
X-12030839Y-8743628D02*
X-12078458Y-8696009D01*
X-12078458Y-8696009D02*
X-12173696Y-8648390D01*
X-11411791Y-8648390D02*
X-11507029Y-8600771D01*
X-11507029Y-8600771D02*
X-11554648Y-8553152D01*
X-11554648Y-8553152D02*
X-11602267Y-8457914D01*
X-11602267Y-8457914D02*
X-11602267Y-8410295D01*
X-11602267Y-8410295D02*
X-11554648Y-8315057D01*
X-11554648Y-8315057D02*
X-11507029Y-8267438D01*
X-11507029Y-8267438D02*
X-11411791Y-8219819D01*
X-11411791Y-8219819D02*
X-11221315Y-8219819D01*
X-11221315Y-8219819D02*
X-11126077Y-8267438D01*
X-11126077Y-8267438D02*
X-11078458Y-8315057D01*
X-11078458Y-8315057D02*
X-11030839Y-8410295D01*
X-11030839Y-8410295D02*
X-11030839Y-8457914D01*
X-11030839Y-8457914D02*
X-11078458Y-8553152D01*
X-11078458Y-8553152D02*
X-11126077Y-8600771D01*
X-11126077Y-8600771D02*
X-11221315Y-8648390D01*
X-11221315Y-8648390D02*
X-11411791Y-8648390D01*
X-11411791Y-8648390D02*
X-11507029Y-8696009D01*
X-11507029Y-8696009D02*
X-11554648Y-8743628D01*
X-11554648Y-8743628D02*
X-11602267Y-8838866D01*
X-11602267Y-8838866D02*
X-11602267Y-9029342D01*
X-11602267Y-9029342D02*
X-11554648Y-9124580D01*
X-11554648Y-9124580D02*
X-11507029Y-9172200D01*
X-11507029Y-9172200D02*
X-11411791Y-9219819D01*
X-11411791Y-9219819D02*
X-11221315Y-9219819D01*
X-11221315Y-9219819D02*
X-11126077Y-9172200D01*
X-11126077Y-9172200D02*
X-11078458Y-9124580D01*
X-11078458Y-9124580D02*
X-11030839Y-9029342D01*
X-11030839Y-9029342D02*
X-11030839Y-8838866D01*
X-11030839Y-8838866D02*
X-11078458Y-8743628D01*
X-11078458Y-8743628D02*
X-11126077Y-8696009D01*
X-11126077Y-8696009D02*
X-11221315Y-8648390D01*
X25854819Y-22498333D02*
X26569104Y-22498333D01*
X26569104Y-22498333D02*
X26711961Y-22545952D01*
X26711961Y-22545952D02*
X26807200Y-22641190D01*
X26807200Y-22641190D02*
X26854819Y-22784047D01*
X26854819Y-22784047D02*
X26854819Y-22879285D01*
X26854819Y-21498333D02*
X26854819Y-22069761D01*
X26854819Y-21784047D02*
X25854819Y-21784047D01*
X25854819Y-21784047D02*
X25997676Y-21879285D01*
X25997676Y-21879285D02*
X26092914Y-21974523D01*
X26092914Y-21974523D02*
X26140533Y-22069761D01*
X-761904Y545180D02*
X-761904Y-264342D01*
X-761904Y-264342D02*
X-714285Y-359580D01*
X-714285Y-359580D02*
X-666666Y-407200D01*
X-666666Y-407200D02*
X-571428Y-454819D01*
X-571428Y-454819D02*
X-380952Y-454819D01*
X-380952Y-454819D02*
X-285714Y-407200D01*
X-285714Y-407200D02*
X-238095Y-359580D01*
X-238095Y-359580D02*
X-190476Y-264342D01*
X-190476Y-264342D02*
X-190476Y545180D01*
X809523Y-454819D02*
X238095Y-454819D01*
X523809Y-454819D02*
X523809Y545180D01*
X523809Y545180D02*
X428571Y402323D01*
X428571Y402323D02*
X333333Y307085D01*
X333333Y307085D02*
X238095Y259466D01*
D11*
X25400000Y-16510000D02*
X25400000Y-17780000D01*
X24130000Y-16510000D02*
X25400000Y-16510000D01*
X21970000Y-18822929D02*
X21970000Y-19220000D01*
X21210000Y-18822929D02*
X21210000Y-19220000D01*
X19430000Y-18822929D02*
X19430000Y-19220000D01*
X18670000Y-18822929D02*
X18670000Y-19220000D01*
X16890000Y-18822929D02*
X16890000Y-19220000D01*
X16130000Y-18822929D02*
X16130000Y-19220000D01*
X14350000Y-18822929D02*
X14350000Y-19220000D01*
X13590000Y-18822929D02*
X13590000Y-19220000D01*
X11810000Y-18822929D02*
X11810000Y-19220000D01*
X11050000Y-18822929D02*
X11050000Y-19220000D01*
X9270000Y-18822929D02*
X9270000Y-19220000D01*
X8510000Y-18822929D02*
X8510000Y-19220000D01*
X6730000Y-18822929D02*
X6730000Y-19220000D01*
X5970000Y-18822929D02*
X5970000Y-19220000D01*
X4190000Y-18822929D02*
X4190000Y-19220000D01*
X3430000Y-18822929D02*
X3430000Y-19220000D01*
X1650000Y-18822929D02*
X1650000Y-19220000D01*
X890000Y-18822929D02*
X890000Y-19220000D01*
X-890000Y-18822929D02*
X-890000Y-19220000D01*
X-1650000Y-18822929D02*
X-1650000Y-19220000D01*
X-3430000Y-18822929D02*
X-3430000Y-19220000D01*
X-4190000Y-18822929D02*
X-4190000Y-19220000D01*
X-5970000Y-18822929D02*
X-5970000Y-19220000D01*
X-6730000Y-18822929D02*
X-6730000Y-19220000D01*
X-8510000Y-18822929D02*
X-8510000Y-19220000D01*
X-9270000Y-18822929D02*
X-9270000Y-19220000D01*
X-11050000Y-18822929D02*
X-11050000Y-19220000D01*
X-11810000Y-18822929D02*
X-11810000Y-19220000D01*
X-13590000Y-18822929D02*
X-13590000Y-19220000D01*
X-14350000Y-18822929D02*
X-14350000Y-19220000D01*
X-16130000Y-18822929D02*
X-16130000Y-19220000D01*
X-16890000Y-18822929D02*
X-16890000Y-19220000D01*
X-18670000Y-18822929D02*
X-18670000Y-19220000D01*
X-19430000Y-18822929D02*
X-19430000Y-19220000D01*
X-21210000Y-18822929D02*
X-21210000Y-19220000D01*
X-21970000Y-18822929D02*
X-21970000Y-19220000D01*
X-23750000Y-18822929D02*
X-23750000Y-19220000D01*
X-24510000Y-18822929D02*
X-24510000Y-19220000D01*
X24510000Y-18890000D02*
X24510000Y-19220000D01*
X23750000Y-18890000D02*
X23750000Y-19220000D01*
X25460000Y-19220000D02*
X-25460000Y-19220000D01*
X22860000Y-19220000D02*
X22860000Y-21880000D01*
X20320000Y-19220000D02*
X20320000Y-21880000D01*
X17780000Y-19220000D02*
X17780000Y-21880000D01*
X15240000Y-19220000D02*
X15240000Y-21880000D01*
X12700000Y-19220000D02*
X12700000Y-21880000D01*
X10160000Y-19220000D02*
X10160000Y-21880000D01*
X7620000Y-19220000D02*
X7620000Y-21880000D01*
X5080000Y-19220000D02*
X5080000Y-21880000D01*
X2540000Y-19220000D02*
X2540000Y-21880000D01*
X0Y-19220000D02*
X0Y-21880000D01*
X-2540000Y-19220000D02*
X-2540000Y-21880000D01*
X-5080000Y-19220000D02*
X-5080000Y-21880000D01*
X-7620000Y-19220000D02*
X-7620000Y-21880000D01*
X-10160000Y-19220000D02*
X-10160000Y-21880000D01*
X-12700000Y-19220000D02*
X-12700000Y-21880000D01*
X-15240000Y-19220000D02*
X-15240000Y-21880000D01*
X-17780000Y-19220000D02*
X-17780000Y-21880000D01*
X-20320000Y-19220000D02*
X-20320000Y-21880000D01*
X-22860000Y-19220000D02*
X-22860000Y-21880000D01*
X-25460000Y-19220000D02*
X-25460000Y-21880000D01*
X25460000Y-21880000D02*
X25460000Y-19220000D01*
X24510000Y-21880000D02*
X24510000Y-27880000D01*
X24450000Y-21880000D02*
X24450000Y-27880000D01*
X24330000Y-21880000D02*
X24330000Y-27880000D01*
X24210000Y-21880000D02*
X24210000Y-27880000D01*
X24090000Y-21880000D02*
X24090000Y-27880000D01*
X23970000Y-21880000D02*
X23970000Y-27880000D01*
X23850000Y-21880000D02*
X23850000Y-27880000D01*
X21970000Y-21880000D02*
X21970000Y-27880000D01*
X19430000Y-21880000D02*
X19430000Y-27880000D01*
X16890000Y-21880000D02*
X16890000Y-27880000D01*
X14350000Y-21880000D02*
X14350000Y-27880000D01*
X11810000Y-21880000D02*
X11810000Y-27880000D01*
X9270000Y-21880000D02*
X9270000Y-27880000D01*
X6730000Y-21880000D02*
X6730000Y-27880000D01*
X4190000Y-21880000D02*
X4190000Y-27880000D01*
X1650000Y-21880000D02*
X1650000Y-27880000D01*
X-890000Y-21880000D02*
X-890000Y-27880000D01*
X-3430000Y-21880000D02*
X-3430000Y-27880000D01*
X-5970000Y-21880000D02*
X-5970000Y-27880000D01*
X-8510000Y-21880000D02*
X-8510000Y-27880000D01*
X-11050000Y-21880000D02*
X-11050000Y-27880000D01*
X-13590000Y-21880000D02*
X-13590000Y-27880000D01*
X-16130000Y-21880000D02*
X-16130000Y-27880000D01*
X-18670000Y-21880000D02*
X-18670000Y-27880000D01*
X-21210000Y-21880000D02*
X-21210000Y-27880000D01*
X-23750000Y-21880000D02*
X-23750000Y-27880000D01*
X-25460000Y-21880000D02*
X25460000Y-21880000D01*
X24510000Y-27880000D02*
X23750000Y-27880000D01*
X23750000Y-27880000D02*
X23750000Y-21880000D01*
X21970000Y-27880000D02*
X21210000Y-27880000D01*
X21210000Y-27880000D02*
X21210000Y-21880000D01*
X19430000Y-27880000D02*
X18670000Y-27880000D01*
X18670000Y-27880000D02*
X18670000Y-21880000D01*
X16890000Y-27880000D02*
X16130000Y-27880000D01*
X16130000Y-27880000D02*
X16130000Y-21880000D01*
X14350000Y-27880000D02*
X13590000Y-27880000D01*
X13590000Y-27880000D02*
X13590000Y-21880000D01*
X11810000Y-27880000D02*
X11050000Y-27880000D01*
X11050000Y-27880000D02*
X11050000Y-21880000D01*
X9270000Y-27880000D02*
X8510000Y-27880000D01*
X8510000Y-27880000D02*
X8510000Y-21880000D01*
X6730000Y-27880000D02*
X5970000Y-27880000D01*
X5970000Y-27880000D02*
X5970000Y-21880000D01*
X4190000Y-27880000D02*
X3430000Y-27880000D01*
X3430000Y-27880000D02*
X3430000Y-21880000D01*
X1650000Y-27880000D02*
X890000Y-27880000D01*
X890000Y-27880000D02*
X890000Y-21880000D01*
X-890000Y-27880000D02*
X-1650000Y-27880000D01*
X-1650000Y-27880000D02*
X-1650000Y-21880000D01*
X-3430000Y-27880000D02*
X-4190000Y-27880000D01*
X-4190000Y-27880000D02*
X-4190000Y-21880000D01*
X-5970000Y-27880000D02*
X-6730000Y-27880000D01*
X-6730000Y-27880000D02*
X-6730000Y-21880000D01*
X-8510000Y-27880000D02*
X-9270000Y-27880000D01*
X-9270000Y-27880000D02*
X-9270000Y-21880000D01*
X-11050000Y-27880000D02*
X-11810000Y-27880000D01*
X-11810000Y-27880000D02*
X-11810000Y-21880000D01*
X-13590000Y-27880000D02*
X-14350000Y-27880000D01*
X-14350000Y-27880000D02*
X-14350000Y-21880000D01*
X-16130000Y-27880000D02*
X-16890000Y-27880000D01*
X-16890000Y-27880000D02*
X-16890000Y-21880000D01*
X-18670000Y-27880000D02*
X-19430000Y-27880000D01*
X-19430000Y-27880000D02*
X-19430000Y-21880000D01*
X-21210000Y-27880000D02*
X-21970000Y-27880000D01*
X-21970000Y-27880000D02*
X-21970000Y-21880000D01*
X-23750000Y-27880000D02*
X-24510000Y-27880000D01*
X-24510000Y-27880000D02*
X-24510000Y-21880000D01*
D10*
X-3625000Y3625000D02*
X-3625000Y3400000D01*
X-3625000Y3625000D02*
X-3300000Y3625000D01*
X-3625000Y3400000D02*
X-5050000Y3400000D01*
X-3625000Y-3625000D02*
X-3625000Y-3300000D01*
X-3625000Y-3625000D02*
X-3300000Y-3625000D01*
X3625000Y3625000D02*
X3300000Y3625000D01*
X3625000Y3625000D02*
X3625000Y3300000D01*
X3625000Y-3625000D02*
X3300000Y-3625000D01*
X3625000Y-3625000D02*
X3625000Y-3300000D01*
%LPC*%
D12*
X24130000Y-17780000D03*
D13*
X21590000Y-17780000D03*
X19050000Y-17780000D03*
X16510000Y-17780000D03*
X13970000Y-17780000D03*
X11430000Y-17780000D03*
X8890000Y-17780000D03*
X6350000Y-17780000D03*
X3810000Y-17780000D03*
X1270000Y-17780000D03*
X-1270000Y-17780000D03*
X-3810000Y-17780000D03*
X-6350000Y-17780000D03*
X-8890000Y-17780000D03*
X-11430000Y-17780000D03*
X-13970000Y-17780000D03*
X-16510000Y-17780000D03*
X-19050000Y-17780000D03*
X-21590000Y-17780000D03*
X-24130000Y-17780000D03*
D14*
X-4250000Y2800000D03*
X-4250000Y2000000D03*
X-4250000Y1200000D03*
X-4250000Y400000D03*
X-4250000Y-400000D03*
X-4250000Y-1200000D03*
X-4250000Y-2000000D03*
X-4250000Y-2800000D03*
D15*
X-2800000Y-4250000D03*
X-2000000Y-4250000D03*
X-1200000Y-4250000D03*
X-400000Y-4250000D03*
X400000Y-4250000D03*
X1200000Y-4250000D03*
X2000000Y-4250000D03*
X2800000Y-4250000D03*
D14*
X4250000Y-2800000D03*
X4250000Y-2000000D03*
X4250000Y-1200000D03*
X4250000Y-400000D03*
X4250000Y400000D03*
X4250000Y1200000D03*
X4250000Y2000000D03*
X4250000Y2800000D03*
D15*
X2800000Y4250000D03*
X2000000Y4250000D03*
X1200000Y4250000D03*
X400000Y4250000D03*
X-400000Y4250000D03*
X-1200000Y4250000D03*
X-2000000Y4250000D03*
X-2800000Y4250000D03*
%LPD*%
M02*
