M48
; DRILL file {KiCad 7.0.9} date Sun Dec 24 17:35:51 2023
; FORMAT={-:-/ absolute / metric / decimal}
; #@! TF.CreationDate,2023-12-24T17:35:51+01:00
; #@! TF.GenerationSoftware,Kicad,Pcbnew,7.0.9
; #@! TF.FileFunction,Plated,1,2,PTH
FMAT,2
METRIC
; #@! TA.AperFunction,Plated,PTH,ViaDrill
T1C0.400
; #@! TA.AperFunction,Plated,PTH,ComponentDrill
T2C1.000
%
G90
G05
T1
X-21.59Y-9.144
X-19.05Y-9.652
X-17.78Y2.286
X-16.256Y-9.906
X-13.462Y-10.16
X-11.684Y-12.446
X-10.16Y3.81
X-10.16Y-6.096
X-9.144Y-12.22
X-7.366Y2.286
X-7.366Y-13.97
X-7.133Y0.699
X-6.858Y-0.762
X-6.35Y5.08
X-6.35Y-6.096
X-6.096Y-4.318
X-4.826Y-13.97
X-4.572Y-4.318
X-4.064Y-5.842
X-2.901Y-5.735
X-2.794Y-2.54
X-2.54Y8.89
X-2.54Y2.54
X-2.54Y-0.508
X-2.032Y-13.892
X-1.622Y-8.536
X-1.488Y6.568
X-0.952Y-0.826
X-0.085Y-9.052
X0.636Y-9.816
X1.27Y5.712
X1.778Y-0.762
X1.924Y-10.013
X2.032Y-14.624
X2.54Y2.54
X2.921Y-2.032
X3.048Y6.75
X3.048Y-10.55
X4.064Y-5.08
X4.318Y4.572
X4.572Y-10.922
X6.096Y-1.016
X6.35Y6.858
X6.858Y-13.97
X7.049Y-10.16
X7.874Y-1.016
X7.874Y-15.24
X8.636Y2.54
X8.636Y-10.16
X9.144Y6.604
X10.414Y8.128
X12.446Y-1.524
X13.97Y1.524
X14.986Y-1.016
X16.51Y0.762
X18.542Y-4.318
X21.59Y-6.096
X24.13Y-9.144
T2
X-24.13Y-17.78
X-21.59Y-17.78
X-19.05Y-17.78
X-16.51Y-17.78
X-13.97Y-17.78
X-11.43Y-17.78
X-8.89Y-17.78
X-6.35Y-17.78
X-3.81Y-17.78
X-1.27Y-17.78
X1.27Y-17.78
X3.81Y-17.78
X6.35Y-17.78
X8.89Y-17.78
X11.43Y-17.78
X13.97Y-17.78
X16.51Y-17.78
X19.05Y-17.78
X21.59Y-17.78
X24.13Y-17.78
T0
M30
