%TF.GenerationSoftware,KiCad,Pcbnew,7.0.9*%
%TF.CreationDate,2023-12-24T17:35:53+01:00*%
%TF.ProjectId,Fusebit Doctor TQFP32 adapter,46757365-6269-4742-9044-6f63746f7220,V1.0*%
%TF.SameCoordinates,Original*%
%TF.FileFunction,Drillmap*%
%TF.FilePolarity,Positive*%
%FSLAX45Y45*%
G04 Gerber Fmt 4.5, Leading zero omitted, Abs format (unit mm)*
G04 Created by KiCad (PCBNEW 7.0.9) date 2023-12-24 17:35:53*
%MOMM*%
%LPD*%
G01*
G04 APERTURE LIST*
%ADD10C,0.100000*%
%ADD11C,0.200000*%
G04 APERTURE END LIST*
D10*
X2286000Y0D02*
G75*
G03*
X1778000Y508000I-508000J0D01*
G01*
X2540000Y0D02*
G75*
G03*
X1778000Y762000I-762000J0D01*
G01*
X1778000Y762000D02*
G75*
G03*
X1778000Y508000I0J-127000D01*
G01*
X2286000Y0D02*
G75*
G03*
X2540000Y0I127000J0D01*
G01*
X-2540000Y0D02*
G75*
G03*
X-2286000Y0I127000J0D01*
G01*
X-1778000Y508000D02*
G75*
G03*
X-1778000Y762000I0J127000D01*
G01*
X-1778000Y508000D02*
G75*
G03*
X-2286000Y0I0J-508000D01*
G01*
X-1778000Y762000D02*
G75*
G03*
X-2540000Y0I0J-762000D01*
G01*
X2794000Y0D02*
X2794000Y-1905000D01*
X2794000Y0D02*
G75*
G03*
X1778000Y1016000I-1016000J0D01*
G01*
X-2794000Y-1905000D02*
G75*
G03*
X-2540000Y-2159000I254000J0D01*
G01*
X2540000Y-2159000D02*
X-2540000Y-2159000D01*
X2540000Y-2159000D02*
G75*
G03*
X2794000Y-1905000I0J254000D01*
G01*
X-1778000Y1016000D02*
X1778000Y1016000D01*
X-2794000Y-1905000D02*
X-2794000Y0D01*
X-1778000Y1016000D02*
G75*
G03*
X-2794000Y0I0J-1016000D01*
G01*
D11*
D10*
X-2179000Y-894400D02*
X-2139000Y-934400D01*
X-2139000Y-894400D02*
X-2179000Y-934400D01*
X-1925000Y-945200D02*
X-1885000Y-985200D01*
X-1885000Y-945200D02*
X-1925000Y-985200D01*
X-1798000Y248600D02*
X-1758000Y208600D01*
X-1758000Y248600D02*
X-1798000Y208600D01*
X-1645600Y-970600D02*
X-1605600Y-1010600D01*
X-1605600Y-970600D02*
X-1645600Y-1010600D01*
X-1366200Y-996000D02*
X-1326200Y-1036000D01*
X-1326200Y-996000D02*
X-1366200Y-1036000D01*
X-1188400Y-1224600D02*
X-1148400Y-1264600D01*
X-1148400Y-1224600D02*
X-1188400Y-1264600D01*
X-1036000Y401000D02*
X-996000Y361000D01*
X-996000Y401000D02*
X-1036000Y361000D01*
X-1036000Y-589600D02*
X-996000Y-629600D01*
X-996000Y-589600D02*
X-1036000Y-629600D01*
X-934400Y-1202000D02*
X-894400Y-1242000D01*
X-894400Y-1202000D02*
X-934400Y-1242000D01*
X-756600Y248600D02*
X-716600Y208600D01*
X-716600Y248600D02*
X-756600Y208600D01*
X-756600Y-1377000D02*
X-716600Y-1417000D01*
X-716600Y-1377000D02*
X-756600Y-1417000D01*
X-733311Y89864D02*
X-693312Y49864D01*
X-693312Y89864D02*
X-733311Y49864D01*
X-705800Y-56200D02*
X-665800Y-96200D01*
X-665800Y-56200D02*
X-705800Y-96200D01*
X-655000Y528000D02*
X-615000Y488000D01*
X-615000Y528000D02*
X-655000Y488000D01*
X-655000Y-589600D02*
X-615000Y-629600D01*
X-615000Y-589600D02*
X-655000Y-629600D01*
X-629600Y-411800D02*
X-589600Y-451800D01*
X-589600Y-411800D02*
X-629600Y-451800D01*
X-502600Y-1377000D02*
X-462600Y-1417000D01*
X-462600Y-1377000D02*
X-502600Y-1417000D01*
X-477200Y-411800D02*
X-437200Y-451800D01*
X-437200Y-411800D02*
X-477200Y-451800D01*
X-426400Y-564200D02*
X-386400Y-604200D01*
X-386400Y-564200D02*
X-426400Y-604200D01*
X-310118Y-553482D02*
X-270118Y-593482D01*
X-270118Y-553482D02*
X-310118Y-593482D01*
X-299400Y-234000D02*
X-259400Y-274000D01*
X-259400Y-234000D02*
X-299400Y-274000D01*
X-274000Y909000D02*
X-234000Y869000D01*
X-234000Y909000D02*
X-274000Y869000D01*
X-274000Y274000D02*
X-234000Y234000D01*
X-234000Y274000D02*
X-274000Y234000D01*
X-274000Y-30800D02*
X-234000Y-70800D01*
X-234000Y-30800D02*
X-274000Y-70800D01*
X-223200Y-1369219D02*
X-183200Y-1409219D01*
X-183200Y-1369219D02*
X-223200Y-1409219D01*
X-182221Y-833600D02*
X-142221Y-873600D01*
X-142221Y-833600D02*
X-182221Y-873600D01*
X-168829Y676829D02*
X-128829Y636829D01*
X-128829Y676829D02*
X-168829Y636829D01*
X-115250Y-62550D02*
X-75250Y-102550D01*
X-75250Y-62550D02*
X-115250Y-102550D01*
X-28479Y-885246D02*
X11520Y-925246D01*
X11520Y-885246D02*
X-28479Y-925246D01*
X43597Y-961600D02*
X83597Y-1001600D01*
X83597Y-961600D02*
X43597Y-1001600D01*
X107000Y591204D02*
X147000Y551204D01*
X147000Y591204D02*
X107000Y551204D01*
X157800Y-56200D02*
X197800Y-96200D01*
X197800Y-56200D02*
X157800Y-96200D01*
X172400Y-981346D02*
X212400Y-1021346D01*
X212400Y-981346D02*
X172400Y-1021346D01*
X183200Y-1442400D02*
X223200Y-1482400D01*
X223200Y-1442400D02*
X183200Y-1482400D01*
X234000Y274000D02*
X274000Y234000D01*
X274000Y274000D02*
X234000Y234000D01*
X272100Y-183200D02*
X312100Y-223200D01*
X312100Y-183200D02*
X272100Y-223200D01*
X284800Y695000D02*
X324800Y655000D01*
X324800Y695000D02*
X284800Y655000D01*
X284800Y-1035000D02*
X324800Y-1075000D01*
X324800Y-1035000D02*
X284800Y-1075000D01*
X386400Y-488000D02*
X426400Y-528000D01*
X426400Y-488000D02*
X386400Y-528000D01*
X411800Y477200D02*
X451800Y437200D01*
X451800Y477200D02*
X411800Y437200D01*
X437200Y-1072200D02*
X477200Y-1112200D01*
X477200Y-1072200D02*
X437200Y-1112200D01*
X589600Y-81600D02*
X629600Y-121600D01*
X629600Y-81600D02*
X589600Y-121600D01*
X615000Y705800D02*
X655000Y665800D01*
X655000Y705800D02*
X615000Y665800D01*
X665799Y-1377000D02*
X705799Y-1417000D01*
X705799Y-1377000D02*
X665799Y-1417000D01*
X684865Y-996000D02*
X724864Y-1036000D01*
X724864Y-996000D02*
X684865Y-1036000D01*
X767400Y-81600D02*
X807400Y-121600D01*
X807400Y-81600D02*
X767400Y-121600D01*
X767400Y-1504000D02*
X807400Y-1544000D01*
X807400Y-1504000D02*
X767400Y-1544000D01*
X843600Y274000D02*
X883600Y234000D01*
X883600Y274000D02*
X843600Y234000D01*
X843600Y-996000D02*
X883600Y-1036000D01*
X883600Y-996000D02*
X843600Y-1036000D01*
X894400Y680400D02*
X934400Y640400D01*
X934400Y680400D02*
X894400Y640400D01*
X1021400Y832800D02*
X1061400Y792800D01*
X1061400Y832800D02*
X1021400Y792800D01*
X1224600Y-132400D02*
X1264600Y-172400D01*
X1264600Y-132400D02*
X1224600Y-172400D01*
X1377000Y172400D02*
X1417000Y132400D01*
X1417000Y172400D02*
X1377000Y132400D01*
X1478600Y-81600D02*
X1518600Y-121600D01*
X1518600Y-81600D02*
X1478600Y-121600D01*
X1631000Y96200D02*
X1671000Y56200D01*
X1671000Y96200D02*
X1631000Y56200D01*
X1834200Y-411800D02*
X1874200Y-451800D01*
X1874200Y-411800D02*
X1834200Y-451800D01*
X2139000Y-589600D02*
X2179000Y-629600D01*
X2179000Y-589600D02*
X2139000Y-629600D01*
X2393000Y-894401D02*
X2433000Y-934401D01*
X2433000Y-894401D02*
X2393000Y-934401D01*
X-2363000Y-1778000D02*
G75*
G03*
X-2363000Y-1778000I-50000J0D01*
G01*
X-2109000Y-1778000D02*
G75*
G03*
X-2109000Y-1778000I-50000J0D01*
G01*
X-1855000Y-1778000D02*
G75*
G03*
X-1855000Y-1778000I-50000J0D01*
G01*
X-1601000Y-1778000D02*
G75*
G03*
X-1601000Y-1778000I-50000J0D01*
G01*
X-1347000Y-1778000D02*
G75*
G03*
X-1347000Y-1778000I-50000J0D01*
G01*
X-1093000Y-1778000D02*
G75*
G03*
X-1093000Y-1778000I-50000J0D01*
G01*
X-839000Y-1778000D02*
G75*
G03*
X-839000Y-1778000I-50000J0D01*
G01*
X-585000Y-1778000D02*
G75*
G03*
X-585000Y-1778000I-50000J0D01*
G01*
X-331000Y-1778000D02*
G75*
G03*
X-331000Y-1778000I-50000J0D01*
G01*
X-77000Y-1778000D02*
G75*
G03*
X-77000Y-1778000I-50000J0D01*
G01*
X177000Y-1778000D02*
G75*
G03*
X177000Y-1778000I-50000J0D01*
G01*
X431000Y-1778000D02*
G75*
G03*
X431000Y-1778000I-50000J0D01*
G01*
X685000Y-1778000D02*
G75*
G03*
X685000Y-1778000I-50000J0D01*
G01*
X939000Y-1778000D02*
G75*
G03*
X939000Y-1778000I-50000J0D01*
G01*
X1193000Y-1778000D02*
G75*
G03*
X1193000Y-1778000I-50000J0D01*
G01*
X1447000Y-1778000D02*
G75*
G03*
X1447000Y-1778000I-50000J0D01*
G01*
X1701000Y-1778000D02*
G75*
G03*
X1701000Y-1778000I-50000J0D01*
G01*
X1955000Y-1778000D02*
G75*
G03*
X1955000Y-1778000I-50000J0D01*
G01*
X2209000Y-1778000D02*
G75*
G03*
X2209000Y-1778000I-50000J0D01*
G01*
X2463000Y-1778000D02*
G75*
G03*
X2463000Y-1778000I-50000J0D01*
G01*
D11*
X-2538223Y-2475484D02*
X-2538223Y-2275484D01*
X-2538223Y-2275484D02*
X-2490604Y-2275484D01*
X-2490604Y-2275484D02*
X-2462033Y-2285008D01*
X-2462033Y-2285008D02*
X-2442985Y-2304055D01*
X-2442985Y-2304055D02*
X-2433461Y-2323103D01*
X-2433461Y-2323103D02*
X-2423937Y-2361198D01*
X-2423937Y-2361198D02*
X-2423937Y-2389770D01*
X-2423937Y-2389770D02*
X-2433461Y-2427865D01*
X-2433461Y-2427865D02*
X-2442985Y-2446912D01*
X-2442985Y-2446912D02*
X-2462033Y-2465960D01*
X-2462033Y-2465960D02*
X-2490604Y-2475484D01*
X-2490604Y-2475484D02*
X-2538223Y-2475484D01*
X-2338223Y-2475484D02*
X-2338223Y-2342150D01*
X-2338223Y-2380246D02*
X-2328699Y-2361198D01*
X-2328699Y-2361198D02*
X-2319176Y-2351674D01*
X-2319176Y-2351674D02*
X-2300128Y-2342150D01*
X-2300128Y-2342150D02*
X-2281080Y-2342150D01*
X-2214414Y-2475484D02*
X-2214414Y-2342150D01*
X-2214414Y-2275484D02*
X-2223937Y-2285008D01*
X-2223937Y-2285008D02*
X-2214414Y-2294531D01*
X-2214414Y-2294531D02*
X-2204890Y-2285008D01*
X-2204890Y-2285008D02*
X-2214414Y-2275484D01*
X-2214414Y-2275484D02*
X-2214414Y-2294531D01*
X-2090604Y-2475484D02*
X-2109652Y-2465960D01*
X-2109652Y-2465960D02*
X-2119176Y-2446912D01*
X-2119176Y-2446912D02*
X-2119176Y-2275484D01*
X-1985842Y-2475484D02*
X-2004890Y-2465960D01*
X-2004890Y-2465960D02*
X-2014414Y-2446912D01*
X-2014414Y-2446912D02*
X-2014414Y-2275484D01*
X-1757271Y-2475484D02*
X-1757271Y-2275484D01*
X-1757271Y-2275484D02*
X-1690604Y-2418341D01*
X-1690604Y-2418341D02*
X-1623937Y-2275484D01*
X-1623937Y-2275484D02*
X-1623937Y-2475484D01*
X-1442985Y-2475484D02*
X-1442985Y-2370722D01*
X-1442985Y-2370722D02*
X-1452509Y-2351674D01*
X-1452509Y-2351674D02*
X-1471556Y-2342150D01*
X-1471556Y-2342150D02*
X-1509652Y-2342150D01*
X-1509652Y-2342150D02*
X-1528699Y-2351674D01*
X-1442985Y-2465960D02*
X-1462033Y-2475484D01*
X-1462033Y-2475484D02*
X-1509652Y-2475484D01*
X-1509652Y-2475484D02*
X-1528699Y-2465960D01*
X-1528699Y-2465960D02*
X-1538223Y-2446912D01*
X-1538223Y-2446912D02*
X-1538223Y-2427865D01*
X-1538223Y-2427865D02*
X-1528699Y-2408817D01*
X-1528699Y-2408817D02*
X-1509652Y-2399293D01*
X-1509652Y-2399293D02*
X-1462033Y-2399293D01*
X-1462033Y-2399293D02*
X-1442985Y-2389770D01*
X-1347747Y-2342150D02*
X-1347747Y-2542150D01*
X-1347747Y-2351674D02*
X-1328699Y-2342150D01*
X-1328699Y-2342150D02*
X-1290604Y-2342150D01*
X-1290604Y-2342150D02*
X-1271556Y-2351674D01*
X-1271556Y-2351674D02*
X-1262033Y-2361198D01*
X-1262033Y-2361198D02*
X-1252509Y-2380246D01*
X-1252509Y-2380246D02*
X-1252509Y-2437389D01*
X-1252509Y-2437389D02*
X-1262033Y-2456436D01*
X-1262033Y-2456436D02*
X-1271556Y-2465960D01*
X-1271556Y-2465960D02*
X-1290604Y-2475484D01*
X-1290604Y-2475484D02*
X-1328699Y-2475484D01*
X-1328699Y-2475484D02*
X-1347747Y-2465960D01*
X-1166795Y-2456436D02*
X-1157271Y-2465960D01*
X-1157271Y-2465960D02*
X-1166795Y-2475484D01*
X-1166795Y-2475484D02*
X-1176318Y-2465960D01*
X-1176318Y-2465960D02*
X-1166795Y-2456436D01*
X-1166795Y-2456436D02*
X-1166795Y-2475484D01*
X-1166795Y-2351674D02*
X-1157271Y-2361198D01*
X-1157271Y-2361198D02*
X-1166795Y-2370722D01*
X-1166795Y-2370722D02*
X-1176318Y-2361198D01*
X-1176318Y-2361198D02*
X-1166795Y-2351674D01*
X-1166795Y-2351674D02*
X-1166795Y-2370722D01*
D10*
X-2839000Y-2784000D02*
X-2799000Y-2824000D01*
X-2799000Y-2784000D02*
X-2839000Y-2824000D01*
D11*
X-2500128Y-2695484D02*
X-2481080Y-2695484D01*
X-2481080Y-2695484D02*
X-2462033Y-2705008D01*
X-2462033Y-2705008D02*
X-2452509Y-2714531D01*
X-2452509Y-2714531D02*
X-2442985Y-2733579D01*
X-2442985Y-2733579D02*
X-2433461Y-2771674D01*
X-2433461Y-2771674D02*
X-2433461Y-2819293D01*
X-2433461Y-2819293D02*
X-2442985Y-2857388D01*
X-2442985Y-2857388D02*
X-2452509Y-2876436D01*
X-2452509Y-2876436D02*
X-2462033Y-2885960D01*
X-2462033Y-2885960D02*
X-2481080Y-2895484D01*
X-2481080Y-2895484D02*
X-2500128Y-2895484D01*
X-2500128Y-2895484D02*
X-2519176Y-2885960D01*
X-2519176Y-2885960D02*
X-2528699Y-2876436D01*
X-2528699Y-2876436D02*
X-2538223Y-2857388D01*
X-2538223Y-2857388D02*
X-2547747Y-2819293D01*
X-2547747Y-2819293D02*
X-2547747Y-2771674D01*
X-2547747Y-2771674D02*
X-2538223Y-2733579D01*
X-2538223Y-2733579D02*
X-2528699Y-2714531D01*
X-2528699Y-2714531D02*
X-2519176Y-2705008D01*
X-2519176Y-2705008D02*
X-2500128Y-2695484D01*
X-2347747Y-2876436D02*
X-2338223Y-2885960D01*
X-2338223Y-2885960D02*
X-2347747Y-2895484D01*
X-2347747Y-2895484D02*
X-2357271Y-2885960D01*
X-2357271Y-2885960D02*
X-2347747Y-2876436D01*
X-2347747Y-2876436D02*
X-2347747Y-2895484D01*
X-2166795Y-2762150D02*
X-2166795Y-2895484D01*
X-2214414Y-2685960D02*
X-2262033Y-2828817D01*
X-2262033Y-2828817D02*
X-2138223Y-2828817D01*
X-2023937Y-2695484D02*
X-2004890Y-2695484D01*
X-2004890Y-2695484D02*
X-1985842Y-2705008D01*
X-1985842Y-2705008D02*
X-1976318Y-2714531D01*
X-1976318Y-2714531D02*
X-1966794Y-2733579D01*
X-1966794Y-2733579D02*
X-1957271Y-2771674D01*
X-1957271Y-2771674D02*
X-1957271Y-2819293D01*
X-1957271Y-2819293D02*
X-1966794Y-2857388D01*
X-1966794Y-2857388D02*
X-1976318Y-2876436D01*
X-1976318Y-2876436D02*
X-1985842Y-2885960D01*
X-1985842Y-2885960D02*
X-2004890Y-2895484D01*
X-2004890Y-2895484D02*
X-2023937Y-2895484D01*
X-2023937Y-2895484D02*
X-2042985Y-2885960D01*
X-2042985Y-2885960D02*
X-2052509Y-2876436D01*
X-2052509Y-2876436D02*
X-2062033Y-2857388D01*
X-2062033Y-2857388D02*
X-2071556Y-2819293D01*
X-2071556Y-2819293D02*
X-2071556Y-2771674D01*
X-2071556Y-2771674D02*
X-2062033Y-2733579D01*
X-2062033Y-2733579D02*
X-2052509Y-2714531D01*
X-2052509Y-2714531D02*
X-2042985Y-2705008D01*
X-2042985Y-2705008D02*
X-2023937Y-2695484D01*
X-1833461Y-2695484D02*
X-1814413Y-2695484D01*
X-1814413Y-2695484D02*
X-1795366Y-2705008D01*
X-1795366Y-2705008D02*
X-1785842Y-2714531D01*
X-1785842Y-2714531D02*
X-1776318Y-2733579D01*
X-1776318Y-2733579D02*
X-1766794Y-2771674D01*
X-1766794Y-2771674D02*
X-1766794Y-2819293D01*
X-1766794Y-2819293D02*
X-1776318Y-2857388D01*
X-1776318Y-2857388D02*
X-1785842Y-2876436D01*
X-1785842Y-2876436D02*
X-1795366Y-2885960D01*
X-1795366Y-2885960D02*
X-1814413Y-2895484D01*
X-1814413Y-2895484D02*
X-1833461Y-2895484D01*
X-1833461Y-2895484D02*
X-1852509Y-2885960D01*
X-1852509Y-2885960D02*
X-1862033Y-2876436D01*
X-1862033Y-2876436D02*
X-1871556Y-2857388D01*
X-1871556Y-2857388D02*
X-1881080Y-2819293D01*
X-1881080Y-2819293D02*
X-1881080Y-2771674D01*
X-1881080Y-2771674D02*
X-1871556Y-2733579D01*
X-1871556Y-2733579D02*
X-1862033Y-2714531D01*
X-1862033Y-2714531D02*
X-1852509Y-2705008D01*
X-1852509Y-2705008D02*
X-1833461Y-2695484D01*
X-1681080Y-2895484D02*
X-1681080Y-2762150D01*
X-1681080Y-2781198D02*
X-1671556Y-2771674D01*
X-1671556Y-2771674D02*
X-1652509Y-2762150D01*
X-1652509Y-2762150D02*
X-1623937Y-2762150D01*
X-1623937Y-2762150D02*
X-1604890Y-2771674D01*
X-1604890Y-2771674D02*
X-1595366Y-2790722D01*
X-1595366Y-2790722D02*
X-1595366Y-2895484D01*
X-1595366Y-2790722D02*
X-1585842Y-2771674D01*
X-1585842Y-2771674D02*
X-1566794Y-2762150D01*
X-1566794Y-2762150D02*
X-1538223Y-2762150D01*
X-1538223Y-2762150D02*
X-1519175Y-2771674D01*
X-1519175Y-2771674D02*
X-1509652Y-2790722D01*
X-1509652Y-2790722D02*
X-1509652Y-2895484D01*
X-1414413Y-2895484D02*
X-1414413Y-2762150D01*
X-1414413Y-2781198D02*
X-1404890Y-2771674D01*
X-1404890Y-2771674D02*
X-1385842Y-2762150D01*
X-1385842Y-2762150D02*
X-1357271Y-2762150D01*
X-1357271Y-2762150D02*
X-1338223Y-2771674D01*
X-1338223Y-2771674D02*
X-1328699Y-2790722D01*
X-1328699Y-2790722D02*
X-1328699Y-2895484D01*
X-1328699Y-2790722D02*
X-1319175Y-2771674D01*
X-1319175Y-2771674D02*
X-1300128Y-2762150D01*
X-1300128Y-2762150D02*
X-1271556Y-2762150D01*
X-1271556Y-2762150D02*
X-1252509Y-2771674D01*
X-1252509Y-2771674D02*
X-1242985Y-2790722D01*
X-1242985Y-2790722D02*
X-1242985Y-2895484D01*
X-852509Y-2685960D02*
X-1023937Y-2943103D01*
X-595366Y-2695484D02*
X-576318Y-2695484D01*
X-576318Y-2695484D02*
X-557271Y-2705008D01*
X-557271Y-2705008D02*
X-547747Y-2714531D01*
X-547747Y-2714531D02*
X-538223Y-2733579D01*
X-538223Y-2733579D02*
X-528699Y-2771674D01*
X-528699Y-2771674D02*
X-528699Y-2819293D01*
X-528699Y-2819293D02*
X-538223Y-2857388D01*
X-538223Y-2857388D02*
X-547747Y-2876436D01*
X-547747Y-2876436D02*
X-557271Y-2885960D01*
X-557271Y-2885960D02*
X-576318Y-2895484D01*
X-576318Y-2895484D02*
X-595366Y-2895484D01*
X-595366Y-2895484D02*
X-614413Y-2885960D01*
X-614413Y-2885960D02*
X-623937Y-2876436D01*
X-623937Y-2876436D02*
X-633461Y-2857388D01*
X-633461Y-2857388D02*
X-642985Y-2819293D01*
X-642985Y-2819293D02*
X-642985Y-2771674D01*
X-642985Y-2771674D02*
X-633461Y-2733579D01*
X-633461Y-2733579D02*
X-623937Y-2714531D01*
X-623937Y-2714531D02*
X-614413Y-2705008D01*
X-614413Y-2705008D02*
X-595366Y-2695484D01*
X-442985Y-2876436D02*
X-433461Y-2885960D01*
X-433461Y-2885960D02*
X-442985Y-2895484D01*
X-442985Y-2895484D02*
X-452509Y-2885960D01*
X-452509Y-2885960D02*
X-442985Y-2876436D01*
X-442985Y-2876436D02*
X-442985Y-2895484D01*
X-309652Y-2695484D02*
X-290604Y-2695484D01*
X-290604Y-2695484D02*
X-271556Y-2705008D01*
X-271556Y-2705008D02*
X-262032Y-2714531D01*
X-262032Y-2714531D02*
X-252509Y-2733579D01*
X-252509Y-2733579D02*
X-242985Y-2771674D01*
X-242985Y-2771674D02*
X-242985Y-2819293D01*
X-242985Y-2819293D02*
X-252509Y-2857388D01*
X-252509Y-2857388D02*
X-262032Y-2876436D01*
X-262032Y-2876436D02*
X-271556Y-2885960D01*
X-271556Y-2885960D02*
X-290604Y-2895484D01*
X-290604Y-2895484D02*
X-309652Y-2895484D01*
X-309652Y-2895484D02*
X-328699Y-2885960D01*
X-328699Y-2885960D02*
X-338223Y-2876436D01*
X-338223Y-2876436D02*
X-347747Y-2857388D01*
X-347747Y-2857388D02*
X-357270Y-2819293D01*
X-357270Y-2819293D02*
X-357270Y-2771674D01*
X-357270Y-2771674D02*
X-347747Y-2733579D01*
X-347747Y-2733579D02*
X-338223Y-2714531D01*
X-338223Y-2714531D02*
X-328699Y-2705008D01*
X-328699Y-2705008D02*
X-309652Y-2695484D01*
X-52509Y-2895484D02*
X-166794Y-2895484D01*
X-109651Y-2895484D02*
X-109651Y-2695484D01*
X-109651Y-2695484D02*
X-128699Y-2724055D01*
X-128699Y-2724055D02*
X-147747Y-2743103D01*
X-147747Y-2743103D02*
X-166794Y-2752627D01*
X128444Y-2695484D02*
X33206Y-2695484D01*
X33206Y-2695484D02*
X23682Y-2790722D01*
X23682Y-2790722D02*
X33206Y-2781198D01*
X33206Y-2781198D02*
X52253Y-2771674D01*
X52253Y-2771674D02*
X99872Y-2771674D01*
X99872Y-2771674D02*
X118920Y-2781198D01*
X118920Y-2781198D02*
X128444Y-2790722D01*
X128444Y-2790722D02*
X137968Y-2809769D01*
X137968Y-2809769D02*
X137968Y-2857388D01*
X137968Y-2857388D02*
X128444Y-2876436D01*
X128444Y-2876436D02*
X118920Y-2885960D01*
X118920Y-2885960D02*
X99872Y-2895484D01*
X99872Y-2895484D02*
X52253Y-2895484D01*
X52253Y-2895484D02*
X33206Y-2885960D01*
X33206Y-2885960D02*
X23682Y-2876436D01*
X204634Y-2695484D02*
X337968Y-2695484D01*
X337968Y-2695484D02*
X252253Y-2895484D01*
X404634Y-2695484D02*
X404634Y-2733579D01*
X480825Y-2695484D02*
X480825Y-2733579D01*
X776063Y-2971674D02*
X766539Y-2962150D01*
X766539Y-2962150D02*
X747491Y-2933579D01*
X747491Y-2933579D02*
X737968Y-2914531D01*
X737968Y-2914531D02*
X728444Y-2885960D01*
X728444Y-2885960D02*
X718920Y-2838341D01*
X718920Y-2838341D02*
X718920Y-2800246D01*
X718920Y-2800246D02*
X728444Y-2752627D01*
X728444Y-2752627D02*
X737968Y-2724055D01*
X737968Y-2724055D02*
X747491Y-2705008D01*
X747491Y-2705008D02*
X766539Y-2676436D01*
X766539Y-2676436D02*
X776063Y-2666912D01*
X947491Y-2695484D02*
X852253Y-2695484D01*
X852253Y-2695484D02*
X842729Y-2790722D01*
X842729Y-2790722D02*
X852253Y-2781198D01*
X852253Y-2781198D02*
X871301Y-2771674D01*
X871301Y-2771674D02*
X918920Y-2771674D01*
X918920Y-2771674D02*
X937968Y-2781198D01*
X937968Y-2781198D02*
X947491Y-2790722D01*
X947491Y-2790722D02*
X957015Y-2809769D01*
X957015Y-2809769D02*
X957015Y-2857388D01*
X957015Y-2857388D02*
X947491Y-2876436D01*
X947491Y-2876436D02*
X937968Y-2885960D01*
X937968Y-2885960D02*
X918920Y-2895484D01*
X918920Y-2895484D02*
X871301Y-2895484D01*
X871301Y-2895484D02*
X852253Y-2885960D01*
X852253Y-2885960D02*
X842729Y-2876436D01*
X1071301Y-2781198D02*
X1052253Y-2771674D01*
X1052253Y-2771674D02*
X1042729Y-2762150D01*
X1042729Y-2762150D02*
X1033206Y-2743103D01*
X1033206Y-2743103D02*
X1033206Y-2733579D01*
X1033206Y-2733579D02*
X1042729Y-2714531D01*
X1042729Y-2714531D02*
X1052253Y-2705008D01*
X1052253Y-2705008D02*
X1071301Y-2695484D01*
X1071301Y-2695484D02*
X1109396Y-2695484D01*
X1109396Y-2695484D02*
X1128444Y-2705008D01*
X1128444Y-2705008D02*
X1137968Y-2714531D01*
X1137968Y-2714531D02*
X1147491Y-2733579D01*
X1147491Y-2733579D02*
X1147491Y-2743103D01*
X1147491Y-2743103D02*
X1137968Y-2762150D01*
X1137968Y-2762150D02*
X1128444Y-2771674D01*
X1128444Y-2771674D02*
X1109396Y-2781198D01*
X1109396Y-2781198D02*
X1071301Y-2781198D01*
X1071301Y-2781198D02*
X1052253Y-2790722D01*
X1052253Y-2790722D02*
X1042729Y-2800246D01*
X1042729Y-2800246D02*
X1033206Y-2819293D01*
X1033206Y-2819293D02*
X1033206Y-2857388D01*
X1033206Y-2857388D02*
X1042729Y-2876436D01*
X1042729Y-2876436D02*
X1052253Y-2885960D01*
X1052253Y-2885960D02*
X1071301Y-2895484D01*
X1071301Y-2895484D02*
X1109396Y-2895484D01*
X1109396Y-2895484D02*
X1128444Y-2885960D01*
X1128444Y-2885960D02*
X1137968Y-2876436D01*
X1137968Y-2876436D02*
X1147491Y-2857388D01*
X1147491Y-2857388D02*
X1147491Y-2819293D01*
X1147491Y-2819293D02*
X1137968Y-2800246D01*
X1137968Y-2800246D02*
X1128444Y-2790722D01*
X1128444Y-2790722D02*
X1109396Y-2781198D01*
X1385587Y-2895484D02*
X1385587Y-2695484D01*
X1471301Y-2895484D02*
X1471301Y-2790722D01*
X1471301Y-2790722D02*
X1461777Y-2771674D01*
X1461777Y-2771674D02*
X1442730Y-2762150D01*
X1442730Y-2762150D02*
X1414158Y-2762150D01*
X1414158Y-2762150D02*
X1395111Y-2771674D01*
X1395111Y-2771674D02*
X1385587Y-2781198D01*
X1595110Y-2895484D02*
X1576063Y-2885960D01*
X1576063Y-2885960D02*
X1566539Y-2876436D01*
X1566539Y-2876436D02*
X1557015Y-2857388D01*
X1557015Y-2857388D02*
X1557015Y-2800246D01*
X1557015Y-2800246D02*
X1566539Y-2781198D01*
X1566539Y-2781198D02*
X1576063Y-2771674D01*
X1576063Y-2771674D02*
X1595110Y-2762150D01*
X1595110Y-2762150D02*
X1623682Y-2762150D01*
X1623682Y-2762150D02*
X1642730Y-2771674D01*
X1642730Y-2771674D02*
X1652253Y-2781198D01*
X1652253Y-2781198D02*
X1661777Y-2800246D01*
X1661777Y-2800246D02*
X1661777Y-2857388D01*
X1661777Y-2857388D02*
X1652253Y-2876436D01*
X1652253Y-2876436D02*
X1642730Y-2885960D01*
X1642730Y-2885960D02*
X1623682Y-2895484D01*
X1623682Y-2895484D02*
X1595110Y-2895484D01*
X1776063Y-2895484D02*
X1757015Y-2885960D01*
X1757015Y-2885960D02*
X1747491Y-2866912D01*
X1747491Y-2866912D02*
X1747491Y-2695484D01*
X1928444Y-2885960D02*
X1909396Y-2895484D01*
X1909396Y-2895484D02*
X1871301Y-2895484D01*
X1871301Y-2895484D02*
X1852253Y-2885960D01*
X1852253Y-2885960D02*
X1842730Y-2866912D01*
X1842730Y-2866912D02*
X1842730Y-2790722D01*
X1842730Y-2790722D02*
X1852253Y-2771674D01*
X1852253Y-2771674D02*
X1871301Y-2762150D01*
X1871301Y-2762150D02*
X1909396Y-2762150D01*
X1909396Y-2762150D02*
X1928444Y-2771674D01*
X1928444Y-2771674D02*
X1937968Y-2790722D01*
X1937968Y-2790722D02*
X1937968Y-2809769D01*
X1937968Y-2809769D02*
X1842730Y-2828817D01*
X2014158Y-2885960D02*
X2033206Y-2895484D01*
X2033206Y-2895484D02*
X2071301Y-2895484D01*
X2071301Y-2895484D02*
X2090349Y-2885960D01*
X2090349Y-2885960D02*
X2099873Y-2866912D01*
X2099873Y-2866912D02*
X2099873Y-2857388D01*
X2099873Y-2857388D02*
X2090349Y-2838341D01*
X2090349Y-2838341D02*
X2071301Y-2828817D01*
X2071301Y-2828817D02*
X2042730Y-2828817D01*
X2042730Y-2828817D02*
X2023682Y-2819293D01*
X2023682Y-2819293D02*
X2014158Y-2800246D01*
X2014158Y-2800246D02*
X2014158Y-2790722D01*
X2014158Y-2790722D02*
X2023682Y-2771674D01*
X2023682Y-2771674D02*
X2042730Y-2762150D01*
X2042730Y-2762150D02*
X2071301Y-2762150D01*
X2071301Y-2762150D02*
X2090349Y-2771674D01*
X2166539Y-2971674D02*
X2176063Y-2962150D01*
X2176063Y-2962150D02*
X2195111Y-2933579D01*
X2195111Y-2933579D02*
X2204634Y-2914531D01*
X2204634Y-2914531D02*
X2214158Y-2885960D01*
X2214158Y-2885960D02*
X2223682Y-2838341D01*
X2223682Y-2838341D02*
X2223682Y-2800246D01*
X2223682Y-2800246D02*
X2214158Y-2752627D01*
X2214158Y-2752627D02*
X2204634Y-2724055D01*
X2204634Y-2724055D02*
X2195111Y-2705008D01*
X2195111Y-2705008D02*
X2176063Y-2676436D01*
X2176063Y-2676436D02*
X2166539Y-2666912D01*
D10*
X-2799000Y-3068000D02*
G75*
G03*
X-2799000Y-3068000I-50000J0D01*
G01*
D11*
X-2433461Y-3159484D02*
X-2547747Y-3159484D01*
X-2490604Y-3159484D02*
X-2490604Y-2959484D01*
X-2490604Y-2959484D02*
X-2509652Y-2988055D01*
X-2509652Y-2988055D02*
X-2528699Y-3007103D01*
X-2528699Y-3007103D02*
X-2547747Y-3016627D01*
X-2347747Y-3140436D02*
X-2338223Y-3149960D01*
X-2338223Y-3149960D02*
X-2347747Y-3159484D01*
X-2347747Y-3159484D02*
X-2357271Y-3149960D01*
X-2357271Y-3149960D02*
X-2347747Y-3140436D01*
X-2347747Y-3140436D02*
X-2347747Y-3159484D01*
X-2214414Y-2959484D02*
X-2195366Y-2959484D01*
X-2195366Y-2959484D02*
X-2176318Y-2969008D01*
X-2176318Y-2969008D02*
X-2166795Y-2978531D01*
X-2166795Y-2978531D02*
X-2157271Y-2997579D01*
X-2157271Y-2997579D02*
X-2147747Y-3035674D01*
X-2147747Y-3035674D02*
X-2147747Y-3083293D01*
X-2147747Y-3083293D02*
X-2157271Y-3121388D01*
X-2157271Y-3121388D02*
X-2166795Y-3140436D01*
X-2166795Y-3140436D02*
X-2176318Y-3149960D01*
X-2176318Y-3149960D02*
X-2195366Y-3159484D01*
X-2195366Y-3159484D02*
X-2214414Y-3159484D01*
X-2214414Y-3159484D02*
X-2233461Y-3149960D01*
X-2233461Y-3149960D02*
X-2242985Y-3140436D01*
X-2242985Y-3140436D02*
X-2252509Y-3121388D01*
X-2252509Y-3121388D02*
X-2262033Y-3083293D01*
X-2262033Y-3083293D02*
X-2262033Y-3035674D01*
X-2262033Y-3035674D02*
X-2252509Y-2997579D01*
X-2252509Y-2997579D02*
X-2242985Y-2978531D01*
X-2242985Y-2978531D02*
X-2233461Y-2969008D01*
X-2233461Y-2969008D02*
X-2214414Y-2959484D01*
X-2023937Y-2959484D02*
X-2004890Y-2959484D01*
X-2004890Y-2959484D02*
X-1985842Y-2969008D01*
X-1985842Y-2969008D02*
X-1976318Y-2978531D01*
X-1976318Y-2978531D02*
X-1966794Y-2997579D01*
X-1966794Y-2997579D02*
X-1957271Y-3035674D01*
X-1957271Y-3035674D02*
X-1957271Y-3083293D01*
X-1957271Y-3083293D02*
X-1966794Y-3121388D01*
X-1966794Y-3121388D02*
X-1976318Y-3140436D01*
X-1976318Y-3140436D02*
X-1985842Y-3149960D01*
X-1985842Y-3149960D02*
X-2004890Y-3159484D01*
X-2004890Y-3159484D02*
X-2023937Y-3159484D01*
X-2023937Y-3159484D02*
X-2042985Y-3149960D01*
X-2042985Y-3149960D02*
X-2052509Y-3140436D01*
X-2052509Y-3140436D02*
X-2062033Y-3121388D01*
X-2062033Y-3121388D02*
X-2071556Y-3083293D01*
X-2071556Y-3083293D02*
X-2071556Y-3035674D01*
X-2071556Y-3035674D02*
X-2062033Y-2997579D01*
X-2062033Y-2997579D02*
X-2052509Y-2978531D01*
X-2052509Y-2978531D02*
X-2042985Y-2969008D01*
X-2042985Y-2969008D02*
X-2023937Y-2959484D01*
X-1833461Y-2959484D02*
X-1814413Y-2959484D01*
X-1814413Y-2959484D02*
X-1795366Y-2969008D01*
X-1795366Y-2969008D02*
X-1785842Y-2978531D01*
X-1785842Y-2978531D02*
X-1776318Y-2997579D01*
X-1776318Y-2997579D02*
X-1766794Y-3035674D01*
X-1766794Y-3035674D02*
X-1766794Y-3083293D01*
X-1766794Y-3083293D02*
X-1776318Y-3121388D01*
X-1776318Y-3121388D02*
X-1785842Y-3140436D01*
X-1785842Y-3140436D02*
X-1795366Y-3149960D01*
X-1795366Y-3149960D02*
X-1814413Y-3159484D01*
X-1814413Y-3159484D02*
X-1833461Y-3159484D01*
X-1833461Y-3159484D02*
X-1852509Y-3149960D01*
X-1852509Y-3149960D02*
X-1862033Y-3140436D01*
X-1862033Y-3140436D02*
X-1871556Y-3121388D01*
X-1871556Y-3121388D02*
X-1881080Y-3083293D01*
X-1881080Y-3083293D02*
X-1881080Y-3035674D01*
X-1881080Y-3035674D02*
X-1871556Y-2997579D01*
X-1871556Y-2997579D02*
X-1862033Y-2978531D01*
X-1862033Y-2978531D02*
X-1852509Y-2969008D01*
X-1852509Y-2969008D02*
X-1833461Y-2959484D01*
X-1681080Y-3159484D02*
X-1681080Y-3026150D01*
X-1681080Y-3045198D02*
X-1671556Y-3035674D01*
X-1671556Y-3035674D02*
X-1652509Y-3026150D01*
X-1652509Y-3026150D02*
X-1623937Y-3026150D01*
X-1623937Y-3026150D02*
X-1604890Y-3035674D01*
X-1604890Y-3035674D02*
X-1595366Y-3054722D01*
X-1595366Y-3054722D02*
X-1595366Y-3159484D01*
X-1595366Y-3054722D02*
X-1585842Y-3035674D01*
X-1585842Y-3035674D02*
X-1566794Y-3026150D01*
X-1566794Y-3026150D02*
X-1538223Y-3026150D01*
X-1538223Y-3026150D02*
X-1519175Y-3035674D01*
X-1519175Y-3035674D02*
X-1509652Y-3054722D01*
X-1509652Y-3054722D02*
X-1509652Y-3159484D01*
X-1414413Y-3159484D02*
X-1414413Y-3026150D01*
X-1414413Y-3045198D02*
X-1404890Y-3035674D01*
X-1404890Y-3035674D02*
X-1385842Y-3026150D01*
X-1385842Y-3026150D02*
X-1357271Y-3026150D01*
X-1357271Y-3026150D02*
X-1338223Y-3035674D01*
X-1338223Y-3035674D02*
X-1328699Y-3054722D01*
X-1328699Y-3054722D02*
X-1328699Y-3159484D01*
X-1328699Y-3054722D02*
X-1319175Y-3035674D01*
X-1319175Y-3035674D02*
X-1300128Y-3026150D01*
X-1300128Y-3026150D02*
X-1271556Y-3026150D01*
X-1271556Y-3026150D02*
X-1252509Y-3035674D01*
X-1252509Y-3035674D02*
X-1242985Y-3054722D01*
X-1242985Y-3054722D02*
X-1242985Y-3159484D01*
X-852509Y-2949960D02*
X-1023937Y-3207103D01*
X-595366Y-2959484D02*
X-576318Y-2959484D01*
X-576318Y-2959484D02*
X-557271Y-2969008D01*
X-557271Y-2969008D02*
X-547747Y-2978531D01*
X-547747Y-2978531D02*
X-538223Y-2997579D01*
X-538223Y-2997579D02*
X-528699Y-3035674D01*
X-528699Y-3035674D02*
X-528699Y-3083293D01*
X-528699Y-3083293D02*
X-538223Y-3121388D01*
X-538223Y-3121388D02*
X-547747Y-3140436D01*
X-547747Y-3140436D02*
X-557271Y-3149960D01*
X-557271Y-3149960D02*
X-576318Y-3159484D01*
X-576318Y-3159484D02*
X-595366Y-3159484D01*
X-595366Y-3159484D02*
X-614413Y-3149960D01*
X-614413Y-3149960D02*
X-623937Y-3140436D01*
X-623937Y-3140436D02*
X-633461Y-3121388D01*
X-633461Y-3121388D02*
X-642985Y-3083293D01*
X-642985Y-3083293D02*
X-642985Y-3035674D01*
X-642985Y-3035674D02*
X-633461Y-2997579D01*
X-633461Y-2997579D02*
X-623937Y-2978531D01*
X-623937Y-2978531D02*
X-614413Y-2969008D01*
X-614413Y-2969008D02*
X-595366Y-2959484D01*
X-442985Y-3140436D02*
X-433461Y-3149960D01*
X-433461Y-3149960D02*
X-442985Y-3159484D01*
X-442985Y-3159484D02*
X-452509Y-3149960D01*
X-452509Y-3149960D02*
X-442985Y-3140436D01*
X-442985Y-3140436D02*
X-442985Y-3159484D01*
X-309652Y-2959484D02*
X-290604Y-2959484D01*
X-290604Y-2959484D02*
X-271556Y-2969008D01*
X-271556Y-2969008D02*
X-262032Y-2978531D01*
X-262032Y-2978531D02*
X-252509Y-2997579D01*
X-252509Y-2997579D02*
X-242985Y-3035674D01*
X-242985Y-3035674D02*
X-242985Y-3083293D01*
X-242985Y-3083293D02*
X-252509Y-3121388D01*
X-252509Y-3121388D02*
X-262032Y-3140436D01*
X-262032Y-3140436D02*
X-271556Y-3149960D01*
X-271556Y-3149960D02*
X-290604Y-3159484D01*
X-290604Y-3159484D02*
X-309652Y-3159484D01*
X-309652Y-3159484D02*
X-328699Y-3149960D01*
X-328699Y-3149960D02*
X-338223Y-3140436D01*
X-338223Y-3140436D02*
X-347747Y-3121388D01*
X-347747Y-3121388D02*
X-357270Y-3083293D01*
X-357270Y-3083293D02*
X-357270Y-3035674D01*
X-357270Y-3035674D02*
X-347747Y-2997579D01*
X-347747Y-2997579D02*
X-338223Y-2978531D01*
X-338223Y-2978531D02*
X-328699Y-2969008D01*
X-328699Y-2969008D02*
X-309652Y-2959484D01*
X-176318Y-2959484D02*
X-52509Y-2959484D01*
X-52509Y-2959484D02*
X-119175Y-3035674D01*
X-119175Y-3035674D02*
X-90604Y-3035674D01*
X-90604Y-3035674D02*
X-71556Y-3045198D01*
X-71556Y-3045198D02*
X-62032Y-3054722D01*
X-62032Y-3054722D02*
X-52509Y-3073769D01*
X-52509Y-3073769D02*
X-52509Y-3121388D01*
X-52509Y-3121388D02*
X-62032Y-3140436D01*
X-62032Y-3140436D02*
X-71556Y-3149960D01*
X-71556Y-3149960D02*
X-90604Y-3159484D01*
X-90604Y-3159484D02*
X-147747Y-3159484D01*
X-147747Y-3159484D02*
X-166794Y-3149960D01*
X-166794Y-3149960D02*
X-176318Y-3140436D01*
X42729Y-3159484D02*
X80825Y-3159484D01*
X80825Y-3159484D02*
X99872Y-3149960D01*
X99872Y-3149960D02*
X109396Y-3140436D01*
X109396Y-3140436D02*
X128444Y-3111865D01*
X128444Y-3111865D02*
X137968Y-3073769D01*
X137968Y-3073769D02*
X137968Y-2997579D01*
X137968Y-2997579D02*
X128444Y-2978531D01*
X128444Y-2978531D02*
X118920Y-2969008D01*
X118920Y-2969008D02*
X99872Y-2959484D01*
X99872Y-2959484D02*
X61777Y-2959484D01*
X61777Y-2959484D02*
X42729Y-2969008D01*
X42729Y-2969008D02*
X33206Y-2978531D01*
X33206Y-2978531D02*
X23682Y-2997579D01*
X23682Y-2997579D02*
X23682Y-3045198D01*
X23682Y-3045198D02*
X33206Y-3064246D01*
X33206Y-3064246D02*
X42729Y-3073769D01*
X42729Y-3073769D02*
X61777Y-3083293D01*
X61777Y-3083293D02*
X99872Y-3083293D01*
X99872Y-3083293D02*
X118920Y-3073769D01*
X118920Y-3073769D02*
X128444Y-3064246D01*
X128444Y-3064246D02*
X137968Y-3045198D01*
X309396Y-3026150D02*
X309396Y-3159484D01*
X261777Y-2949960D02*
X214158Y-3092817D01*
X214158Y-3092817D02*
X337968Y-3092817D01*
X404634Y-2959484D02*
X404634Y-2997579D01*
X480825Y-2959484D02*
X480825Y-2997579D01*
X776063Y-3235674D02*
X766539Y-3226150D01*
X766539Y-3226150D02*
X747491Y-3197579D01*
X747491Y-3197579D02*
X737968Y-3178531D01*
X737968Y-3178531D02*
X728444Y-3149960D01*
X728444Y-3149960D02*
X718920Y-3102341D01*
X718920Y-3102341D02*
X718920Y-3064246D01*
X718920Y-3064246D02*
X728444Y-3016627D01*
X728444Y-3016627D02*
X737968Y-2988055D01*
X737968Y-2988055D02*
X747491Y-2969008D01*
X747491Y-2969008D02*
X766539Y-2940436D01*
X766539Y-2940436D02*
X776063Y-2930912D01*
X842729Y-2978531D02*
X852253Y-2969008D01*
X852253Y-2969008D02*
X871301Y-2959484D01*
X871301Y-2959484D02*
X918920Y-2959484D01*
X918920Y-2959484D02*
X937968Y-2969008D01*
X937968Y-2969008D02*
X947491Y-2978531D01*
X947491Y-2978531D02*
X957015Y-2997579D01*
X957015Y-2997579D02*
X957015Y-3016627D01*
X957015Y-3016627D02*
X947491Y-3045198D01*
X947491Y-3045198D02*
X833206Y-3159484D01*
X833206Y-3159484D02*
X957015Y-3159484D01*
X1080825Y-2959484D02*
X1099872Y-2959484D01*
X1099872Y-2959484D02*
X1118920Y-2969008D01*
X1118920Y-2969008D02*
X1128444Y-2978531D01*
X1128444Y-2978531D02*
X1137968Y-2997579D01*
X1137968Y-2997579D02*
X1147491Y-3035674D01*
X1147491Y-3035674D02*
X1147491Y-3083293D01*
X1147491Y-3083293D02*
X1137968Y-3121388D01*
X1137968Y-3121388D02*
X1128444Y-3140436D01*
X1128444Y-3140436D02*
X1118920Y-3149960D01*
X1118920Y-3149960D02*
X1099872Y-3159484D01*
X1099872Y-3159484D02*
X1080825Y-3159484D01*
X1080825Y-3159484D02*
X1061777Y-3149960D01*
X1061777Y-3149960D02*
X1052253Y-3140436D01*
X1052253Y-3140436D02*
X1042729Y-3121388D01*
X1042729Y-3121388D02*
X1033206Y-3083293D01*
X1033206Y-3083293D02*
X1033206Y-3035674D01*
X1033206Y-3035674D02*
X1042729Y-2997579D01*
X1042729Y-2997579D02*
X1052253Y-2978531D01*
X1052253Y-2978531D02*
X1061777Y-2969008D01*
X1061777Y-2969008D02*
X1080825Y-2959484D01*
X1385587Y-3159484D02*
X1385587Y-2959484D01*
X1471301Y-3159484D02*
X1471301Y-3054722D01*
X1471301Y-3054722D02*
X1461777Y-3035674D01*
X1461777Y-3035674D02*
X1442730Y-3026150D01*
X1442730Y-3026150D02*
X1414158Y-3026150D01*
X1414158Y-3026150D02*
X1395111Y-3035674D01*
X1395111Y-3035674D02*
X1385587Y-3045198D01*
X1595110Y-3159484D02*
X1576063Y-3149960D01*
X1576063Y-3149960D02*
X1566539Y-3140436D01*
X1566539Y-3140436D02*
X1557015Y-3121388D01*
X1557015Y-3121388D02*
X1557015Y-3064246D01*
X1557015Y-3064246D02*
X1566539Y-3045198D01*
X1566539Y-3045198D02*
X1576063Y-3035674D01*
X1576063Y-3035674D02*
X1595110Y-3026150D01*
X1595110Y-3026150D02*
X1623682Y-3026150D01*
X1623682Y-3026150D02*
X1642730Y-3035674D01*
X1642730Y-3035674D02*
X1652253Y-3045198D01*
X1652253Y-3045198D02*
X1661777Y-3064246D01*
X1661777Y-3064246D02*
X1661777Y-3121388D01*
X1661777Y-3121388D02*
X1652253Y-3140436D01*
X1652253Y-3140436D02*
X1642730Y-3149960D01*
X1642730Y-3149960D02*
X1623682Y-3159484D01*
X1623682Y-3159484D02*
X1595110Y-3159484D01*
X1776063Y-3159484D02*
X1757015Y-3149960D01*
X1757015Y-3149960D02*
X1747491Y-3130912D01*
X1747491Y-3130912D02*
X1747491Y-2959484D01*
X1928444Y-3149960D02*
X1909396Y-3159484D01*
X1909396Y-3159484D02*
X1871301Y-3159484D01*
X1871301Y-3159484D02*
X1852253Y-3149960D01*
X1852253Y-3149960D02*
X1842730Y-3130912D01*
X1842730Y-3130912D02*
X1842730Y-3054722D01*
X1842730Y-3054722D02*
X1852253Y-3035674D01*
X1852253Y-3035674D02*
X1871301Y-3026150D01*
X1871301Y-3026150D02*
X1909396Y-3026150D01*
X1909396Y-3026150D02*
X1928444Y-3035674D01*
X1928444Y-3035674D02*
X1937968Y-3054722D01*
X1937968Y-3054722D02*
X1937968Y-3073769D01*
X1937968Y-3073769D02*
X1842730Y-3092817D01*
X2014158Y-3149960D02*
X2033206Y-3159484D01*
X2033206Y-3159484D02*
X2071301Y-3159484D01*
X2071301Y-3159484D02*
X2090349Y-3149960D01*
X2090349Y-3149960D02*
X2099873Y-3130912D01*
X2099873Y-3130912D02*
X2099873Y-3121388D01*
X2099873Y-3121388D02*
X2090349Y-3102341D01*
X2090349Y-3102341D02*
X2071301Y-3092817D01*
X2071301Y-3092817D02*
X2042730Y-3092817D01*
X2042730Y-3092817D02*
X2023682Y-3083293D01*
X2023682Y-3083293D02*
X2014158Y-3064246D01*
X2014158Y-3064246D02*
X2014158Y-3054722D01*
X2014158Y-3054722D02*
X2023682Y-3035674D01*
X2023682Y-3035674D02*
X2042730Y-3026150D01*
X2042730Y-3026150D02*
X2071301Y-3026150D01*
X2071301Y-3026150D02*
X2090349Y-3035674D01*
X2166539Y-3235674D02*
X2176063Y-3226150D01*
X2176063Y-3226150D02*
X2195111Y-3197579D01*
X2195111Y-3197579D02*
X2204634Y-3178531D01*
X2204634Y-3178531D02*
X2214158Y-3149960D01*
X2214158Y-3149960D02*
X2223682Y-3102341D01*
X2223682Y-3102341D02*
X2223682Y-3064246D01*
X2223682Y-3064246D02*
X2214158Y-3016627D01*
X2214158Y-3016627D02*
X2204634Y-2988055D01*
X2204634Y-2988055D02*
X2195111Y-2969008D01*
X2195111Y-2969008D02*
X2176063Y-2940436D01*
X2176063Y-2940436D02*
X2166539Y-2930912D01*
M02*
